<svg xmlns="http://www.w3.org/2000/svg" viewBox="0 0 63.12 33.28"><defs><style>.cls-1{fill:#222;}</style></defs><g id="Capa_2" data-name="Capa 2"><g id="Capa_1-2" data-name="Capa 1"><path class="cls-1" d="M24.33,33.28V30.47c0-1,0-1-1.06-1.09A81.89,81.89,0,0,1,11,27.68a33.76,33.76,0,0,1-7.27-2.36A9.59,9.59,0,0,1,1,23.47a2.62,2.62,0,0,1,0-4.1,10,10,0,0,1,3-2,39.64,39.64,0,0,1,8.81-2.61c-.19.54-.36,1-.54,1.5-.06.17-.25.14-.39.18A25.25,25.25,0,0,0,6.8,18.07,6.75,6.75,0,0,0,5,19.17a1.59,1.59,0,0,0,0,2.68,10.4,10.4,0,0,0,3.63,1.81,47.17,47.17,0,0,0,8.22,1.75c2.32.32,4.65.52,7,.69.4,0,.49-.1.48-.48,0-.9,0-1.81,0-2.72.18,0,.25.1.34.18,1.92,1.58,3.82,3.17,5.74,4.74.25.2.29.29,0,.51-1.91,1.56-3.81,3.15-5.71,4.72A.63.63,0,0,1,24.33,33.28Z"/><path class="cls-1" d="M36.64,29.68H32.77c-.26,0-.37-.05-.36-.35q0-1.3,0-2.61c0-.3.07-.4.39-.41,2.15,0,4.29-.08,6.43-.22A70.69,70.69,0,0,0,53.4,24,17,17,0,0,0,57,22.63a4.74,4.74,0,0,0,1.49-1.15,1.41,1.41,0,0,0,0-1.95,5,5,0,0,0-1.64-1.23,24.11,24.11,0,0,0-5.91-1.89c-.76-.17-.76-.16-.5-.9s.22-.66.87-.52a36.51,36.51,0,0,1,8.12,2.56,9.47,9.47,0,0,1,2.75,1.84,2.62,2.62,0,0,1,0,4.1,10.85,10.85,0,0,1-3.48,2.17A40.34,40.34,0,0,1,50.1,28.1a93.6,93.6,0,0,1-13.46,1.47Z"/><path class="cls-1" d="M38,10.47a12.41,12.41,0,0,1,.9-5,5.42,5.42,0,0,1,3.87-3.44,4.89,4.89,0,0,1,5.33,2.25,9.14,9.14,0,0,1,1.24,3.76,15.77,15.77,0,0,1-.45,6.59,6.91,6.91,0,0,1-1.24,2.41,5,5,0,0,1-7.94-.16,8.41,8.41,0,0,1-1.32-3A14.92,14.92,0,0,1,38,10.47Zm3.08,0a16.67,16.67,0,0,0,.16,2.25,5.85,5.85,0,0,0,1,2.71,1.84,1.84,0,0,0,3.21-.07,4.67,4.67,0,0,0,.64-1.59,15.94,15.94,0,0,0,.11-6.23,4.71,4.71,0,0,0-.91-2.23,1.78,1.78,0,0,0-2.87,0,4.16,4.16,0,0,0-.73,1.36A12.26,12.26,0,0,0,41.09,10.47Z"/><path class="cls-1" d="M29.39,8.21a6.27,6.27,0,0,1,2.53-.71A5,5,0,0,1,37.29,12a6.07,6.07,0,0,1-3.12,6.37,5.65,5.65,0,0,1-7.94-3.53A10.38,10.38,0,0,1,27.7,5.5a8.33,8.33,0,0,1,6-3.39A15.4,15.4,0,0,1,35.51,2c.25,0,.34.08.34.34,0,.66,0,1.32,0,2,0,.33-.07.44-.42.42a6.45,6.45,0,0,0-2.85.41A5.32,5.32,0,0,0,29.39,8.21Zm-.47,4.49a3.59,3.59,0,0,0,.71,2.24,2.67,2.67,0,0,0,4.28.06,3.49,3.49,0,0,0,0-4.32,2.65,2.65,0,0,0-3.62-.56A3.2,3.2,0,0,0,28.92,12.7Z"/><path class="cls-1" d="M21.78,9.71l.15.1a4.26,4.26,0,0,1,2.45,4,4.6,4.6,0,0,1-2.56,4.25,8.13,8.13,0,0,1-6.45.35,6.3,6.3,0,0,1-1.49-.69.33.33,0,0,1-.15-.47c.24-.62.46-1.24.66-1.87.11-.34.21-.39.53-.19a5.8,5.8,0,0,0,4.21.93,2.35,2.35,0,0,0,2.08-2.11,2.38,2.38,0,0,0-1.61-2.57A6.84,6.84,0,0,0,17,11.16c-.88,0-.88,0-.88-.87,0-.47,0-.93,0-1.39,0-.25.08-.31.31-.31a11.47,11.47,0,0,0,2.19-.08A3.59,3.59,0,0,0,19.78,8a1.81,1.81,0,0,0,.86-2,1.72,1.72,0,0,0-1.57-1.37,4.76,4.76,0,0,0-3.35.85c-.6.39-.59.4-.84-.28-.19-.52-.37-1-.56-1.54a.29.29,0,0,1,.13-.42,7.24,7.24,0,0,1,6.93-.84A4,4,0,0,1,22.3,9.3C22.14,9.44,22,9.56,21.78,9.71Z"/><path class="cls-1" d="M53.38,0a3.28,3.28,0,1,1-3.29,3.24A3.26,3.26,0,0,1,53.38,0Zm0,4.88a1.61,1.61,0,1,0-1.59-1.61A1.61,1.61,0,0,0,53.36,4.88Z"/></g></g></svg>