<svg xmlns="http://www.w3.org/2000/svg" viewBox="0 0 1005.25 313.12"><defs><style>.cls-1{fill:#fff;}</style></defs><g id="Capa_2" data-name="Capa 2"><g id="Layer_1" data-name="Layer 1"><path class="cls-1" d="M116.88.17c-.42,0-.85-.13-1.27-.16-1.14,0-2.16,0-3.26.07S110.28,0,109.15,0c-.43,0-.86.12-1.29.16-20.19,1-32.78,7.12-37.65,18.38L0,181.49l.64.6a101.5,101.5,0,0,0,23.2,4.44Q61.07,187,69.24,168L112.36,67.84,155.5,168q8.2,19,45.4,18.51a102.11,102.11,0,0,0,23.2-4.4l.63-.6L154.51,18.55Q147.2,1.66,116.88.17Z"/><path class="cls-1" d="M252.72,0a105.27,105.27,0,0,0-23.2,4.44l-.61.56L299.12,168q8.16,19.05,45.39,18.58a101.47,101.47,0,0,0,23.17-4.44l.65-.6L298.1,18.55Q289.91-.46,252.72,0Z"/><path class="cls-1" d="M935,18.55C930.17,7.29,917.57,1.17,897.37.17c-.41,0-.86-.13-1.27-.16-1.13,0-2.13,0-3.23.07S890.77,0,889.63,0c-.41,0-.86.12-1.24.16-20.19,1-32.78,7.12-37.65,18.38L780.53,181.49l.62.6a101.6,101.6,0,0,0,23.2,4.44q37.18.43,45.39-18.58L892.89,67.84,936,168q8.19,19.05,45.38,18.58a102,102,0,0,0,23.2-4.44l.63-.6Z"/><path class="cls-1" d="M748.3,0q-37.23-.45-45.39,18.54L659.78,118.66,616.59,18.55C611.66,7.13,598.8,1,578.09.15c-.36,0-.75-.11-1.14-.14-1,0-1.88,0-2.85,0s-1.85-.06-2.87,0c-.36,0-.77.12-1.12.14-20.72.88-33.61,7-38.55,18.4L488.43,118.66,445.31,18.55Q437.09-.46,399.92,0a102,102,0,0,0-23.19,4.44l-.63.61L446.29,168q7.29,16.91,37.64,18.38c.43,0,.87.13,1.27.17,1.14,0,2.14-.06,3.23-.06s2.13.08,3.26.06c.41,0,.86-.14,1.28-.17q30.27-1.49,37.6-18.38L574.1,67l43.5,101c4.85,11.27,17.45,17.39,37.64,18.38.44,0,.85.13,1.27.17,1.14,0,2.15-.06,3.24-.06s2.11.08,3.25.06c.42,0,.86-.14,1.27-.17q30.3-1.49,37.63-18.38L772.1,5.06l-.63-.61A102.66,102.66,0,0,0,748.3,0Z"/><path class="cls-1" d="M161.54,290.7h-18v16.65h20v5h-26V266.15h25v5h-19v14.61h18Z"/><path class="cls-1" d="M205.67,266.15h6v41.2h19.75v5H205.67Z"/><path class="cls-1" d="M296.27,290.7h-18v16.65h20v5h-26V266.15h24.93v5h-19v14.61h18Z"/><path class="cls-1" d="M372.69,310.85c-2.18,1.09-6.59,2.19-12.2,2.19-13,0-22.85-8.22-22.85-23.38,0-14.46,9.82-24.26,24.15-24.26,5.76,0,9.39,1.22,11,2.05l-1.42,4.87A22,22,0,0,0,362,270.4c-10.84,0-18,6.92-18,19.06,0,11.3,6.51,18.57,17.76,18.57a23.68,23.68,0,0,0,9.74-1.91Z"/><path class="cls-1" d="M425.19,271.23H411.12v-5.08h34.22v5.08H431.22v41.13h-6Z"/><path class="cls-1" d="M484.82,266.76a62.49,62.49,0,0,1,11.43-.95c6.38,0,10.5,1.16,13.38,3.76a11.59,11.59,0,0,1,3.64,8.78c0,6.1-3.85,10.15-8.71,11.79v.21c3.57,1.23,5.7,4.52,6.79,9.32,1.49,6.45,2.59,10.9,3.55,12.69h-6.17c-.74-1.31-1.78-5.28-3.07-11-1.37-6.39-3.85-8.78-9.27-9h-5.6v20h-6Zm6,21.06h6.09c6.38,0,10.43-3.51,10.43-8.78,0-6-4.32-8.58-10.64-8.64a24.11,24.11,0,0,0-5.88.55Z"/><path class="cls-1" d="M595.72,288.78c0,15.9-9.67,24.34-21.46,24.34-12.22,0-20.79-9.47-20.79-23.46,0-14.68,9.13-24.26,21.46-24.26C587.55,265.4,595.72,275.06,595.72,288.78Zm-35.87.74c0,9.88,5.34,18.72,14.74,18.72s14.81-8.71,14.81-19.2c0-9.19-4.8-18.77-14.74-18.77S559.85,279.37,559.85,289.52Z"/><path class="cls-1" d="M637.79,312.36V266.15h6.49l14.82,23.37a125.93,125.93,0,0,1,8.3,15l.14-.07c-.53-6.18-.7-11.8-.7-19V266.15h5.64v46.21h-6.05l-14.65-23.45a147.54,147.54,0,0,1-8.66-15.43l-.18.07c.33,5.82.45,11.39.45,19.05v19.76Z"/><path class="cls-1" d="M723.19,266.15v46.21h-6V266.15Z"/><path class="cls-1" d="M800.21,310.85C798,311.94,793.63,313,788,313c-13,0-22.83-8.22-22.83-23.38,0-14.46,9.78-24.26,24.14-24.26,5.75,0,9.39,1.22,10.95,2.05l-1.43,4.87a21.87,21.87,0,0,0-9.32-1.92c-10.84,0-18,6.92-18,19.06,0,11.3,6.5,18.57,17.76,18.57a23.63,23.63,0,0,0,9.73-1.91Z"/><path class="cls-1" d="M841.19,305.09a21.23,21.23,0,0,0,10.69,3c6.1,0,9.68-3.21,9.68-7.87,0-4.33-2.46-6.8-8.72-9.19-7.55-2.67-12.18-6.59-12.18-13.1,0-7.2,6-12.54,14.94-12.54a21.11,21.11,0,0,1,10.2,2.25l-1.63,4.86a18.6,18.6,0,0,0-8.78-2.19c-6.31,0-8.7,3.78-8.7,6.93,0,4.33,2.8,6.45,9.17,8.91,7.82,3,11.79,6.8,11.79,13.59,0,7.12-5.26,13.29-16.18,13.29-4.45,0-9.32-1.28-11.77-3Z"/></g></g></svg>