<svg xmlns="http://www.w3.org/2000/svg" viewBox="0 0 25.62 34.5"><g id="Capa_2" data-name="Capa 2"><g id="Capa_1-2" data-name="Capa 1"><path d="M0,18.28V13.57a2.43,2.43,0,0,1,3.11-2.43c.17,0,.23,0,.24-.18A8.86,8.86,0,0,1,7,4c.17-.13.2-.22.08-.4-.25-.38-.47-.77-.69-1.16A1.58,1.58,0,1,1,9.12.77c.29.48.58,1,.86,1.43a.31.31,0,0,0,.42.18,9.51,9.51,0,0,1,4.91.06.27.27,0,0,0,.34-.15c.29-.51.6-1,.91-1.52A1.56,1.56,0,0,1,18.14,0a1.53,1.53,0,0,1,1.3,1.19,1.49,1.49,0,0,1-.18,1.2c-.24.41-.47.83-.74,1.22-.14.21-.08.31.1.45a9,9,0,0,1,3.17,4.57,8.83,8.83,0,0,1,.36,2.4c0,.18,0,.19.21.14a2.42,2.42,0,0,1,3.26,2.35V23a2.43,2.43,0,0,1-3.26,2.36c-.18-.06-.24,0-.24.16a3,3,0,0,1-3.08,3c-.41,0-.41,0-.41.42v3a2.49,2.49,0,0,1-4.94.46,2.74,2.74,0,0,1,0-.5c0-1,0-2.06,0-3.09,0-.24-.07-.33-.32-.32a8,8,0,0,1-1,0c-.24,0-.3.08-.29.31,0,1.07,0,2.13,0,3.2a2.49,2.49,0,0,1-4.54,1.39,2.31,2.31,0,0,1-.44-1.37V29c0-.53,0-.49-.48-.48A3,3,0,0,1,3.9,27a2.76,2.76,0,0,1-.39-1.46c0-.2,0-.24-.25-.17A2.43,2.43,0,0,1,0,23.05V18.28Zm12.81-6.47H5.27c-.39,0-.39,0-.39.39V25.54a1.61,1.61,0,0,0,1.65,1.61h1c.68,0,.91.23.91.92,0,1.31,0,2.61,0,3.92a1.05,1.05,0,0,0,.58,1,1.08,1.08,0,0,0,1.17-.09,1.15,1.15,0,0,0,.46-1V28c0-.59.25-.84.83-.84h2.6c.69,0,.91.23.92.92,0,1.3,0,2.61,0,3.91a1.09,1.09,0,0,0,1.45,1.07,1.1,1.1,0,0,0,.76-1.14v-4a.69.69,0,0,1,.75-.76h1a1.61,1.61,0,0,0,1.73-1.74q0-6.63,0-13.26c0-.26-.07-.34-.34-.34Zm-.07-1.38h7.48c.54,0,.54,0,.44-.54a7.58,7.58,0,0,0-3.44-5.11.75.75,0,0,1-.28-1.18L18,1.81c.07-.14.16-.29,0-.39s-.25.06-.32.18L16.51,3.53a.73.73,0,0,1-1,.39,8.67,8.67,0,0,0-5.33,0,.72.72,0,0,1-1-.39l-1-1.7-.2-.31a.18.18,0,0,0-.25-.06.2.2,0,0,0-.09.26l.13.23.94,1.56c.35.59.27.89-.3,1.25a7.57,7.57,0,0,0-3.55,5.36c0,.35,0,.35.31.35ZM1.38,18.28h0v4.84a1,1,0,0,0,.64.95,1,1,0,0,0,1.13-.18A1.08,1.08,0,0,0,3.5,23v-9.6a1.06,1.06,0,0,0-2.12.11Zm22.86,0h0V13.63a1.67,1.67,0,0,0,0-.39,1,1,0,0,0-1.17-.8,1,1,0,0,0-.91,1c0,1.11,0,2.22,0,3.33V23a1.08,1.08,0,0,0,.37.9,1.06,1.06,0,0,0,1.75-.82Z"/><path d="M9.64,7.47a.69.69,0,0,1-.7-.68.7.7,0,0,1,.68-.7.72.72,0,0,1,.7.69A.69.69,0,0,1,9.64,7.47Z"/><path d="M16,7.47a.69.69,0,0,1-.7-.68.72.72,0,0,1,.69-.7.69.69,0,0,1,0,1.38Z"/></g></g></svg>