<svg xmlns="http://www.w3.org/2000/svg" viewBox="0 0 17.08 26.84"><g id="Capa_2" data-name="Capa 2"><g id="Capa_1-2" data-name="Capa 1"><path d="M15.25,2.44H12.81V1.22A1.22,1.22,0,0,0,11.59,0H5.49A1.22,1.22,0,0,0,4.27,1.22V2.44H1.83A1.83,1.83,0,0,0,0,4.27V25a1.83,1.83,0,0,0,1.83,1.83H15.25A1.83,1.83,0,0,0,17.08,25V4.27A1.83,1.83,0,0,0,15.25,2.44ZM11.55,12.7a.54.54,0,0,1,.52.3.53.53,0,0,1-.09.58L6.87,20a.52.52,0,0,1-.4.24h0a.32.32,0,0,1-.28-.15.52.52,0,0,1,0-.51l1.58-4-2.18,0A.58.58,0,0,1,5,15.32a.6.6,0,0,1,0-.58L8,8.61a1,1,0,0,1,.82-.51h2.78a.58.58,0,0,1,.52.27.57.57,0,0,1,0,.59L9.93,12.7Z"/></g></g></svg>