<svg xmlns="http://www.w3.org/2000/svg" viewBox="0 0 17.74 27.88"><g id="Capa_2" data-name="Capa 2"><g id="Capa_1-2" data-name="Capa 1"><polygon points="10.71 8.44 4.94 15.84 8.6 15.84 7.04 21.34 12.8 13.94 9.15 13.94 10.71 8.44"/><path d="M12,0H5.7A1.26,1.26,0,0,0,4.44,1.27V2.53H1.9A1.91,1.91,0,0,0,0,4.44V26a1.9,1.9,0,0,0,1.9,1.9H15.84a1.9,1.9,0,0,0,1.9-1.9V4.44a1.91,1.91,0,0,0-1.9-1.91H13.31V1.27A1.27,1.27,0,0,0,12,0Zm3.8,3.8a.64.64,0,0,1,.63.64V26a.63.63,0,0,1-.63.63H1.9A.63.63,0,0,1,1.27,26V4.44A.64.64,0,0,1,1.9,3.8H15.84Z"/></g></g></svg>