<svg xmlns="http://www.w3.org/2000/svg" viewBox="0 0 17.93 29.71"><g id="Capa_2" data-name="Capa 2"><g id="Capa_1-2" data-name="Capa 1"><path d="M13.39,1.45C13.3.07,9.7,0,9,0S4.63.07,4.54,1.45C2.67,1.74,0,2.39,0,3.79V27.06c0,1.82,4.65,2.65,9,2.65s9-.83,9-2.65V3.79C17.93,2.39,15.26,1.74,13.39,1.45ZM5.53,2.52A10.4,10.4,0,0,0,9,3a10.42,10.42,0,0,0,3.44-.48V3.71A7.23,7.23,0,0,1,9,4.29a7.2,7.2,0,0,1-3.43-.58Zm6.72-1A8.06,8.06,0,0,1,9,2a8,8,0,0,1-3.28-.51A8.56,8.56,0,0,1,9,1,8.59,8.59,0,0,1,12.25,1.49Zm-7.72,1V3.79c0,1.43,3.69,1.5,4.43,1.5s4.44-.07,4.44-1.5V2.47c2.66.43,3.53,1.11,3.53,1.32,0,.5-2.71,1.66-8,1.66S1,4.29,1,3.79C1,3.58,1.87,2.9,4.53,2.47ZM9,28.71c-5.25,0-8-1.16-8-1.65V5.1C2.6,6,5.86,6.45,9,6.45s6.37-.43,8-1.35v22C16.93,27.55,14.22,28.71,9,28.71Z"/><path d="M13.84,10.52h0A1.28,1.28,0,0,0,12.76,10H9.17a1.77,1.77,0,0,0-1.49.82l-3.8,6.72a1,1,0,0,0,.05,1.17A1.3,1.3,0,0,0,5,19.22l2,0-1.7,3.63A1,1,0,0,0,5.41,24a1,1,0,0,0,.79.35,1.19,1.19,0,0,0,.89-.42l6.58-7a1,1,0,0,0,.19-1.24,1.24,1.24,0,0,0-1.1-.57H11.6l2.22-3.33A1.05,1.05,0,0,0,13.84,10.52Zm-.85.65-2.74,4.1a.54.54,0,0,0,0,.52.51.51,0,0,0,.44.26h2.1c.18,0,.23.07.18.13l-6.58,7c-.07.07-.1.1-.14.08l2-4.33a.51.51,0,0,0,0-.48.5.5,0,0,0-.42-.23L5,18.22c-.15,0-.23,0-.25-.19l3.8-6.72A.76.76,0,0,1,9.17,11h3.59c.13,0,.23,0,.25.09l.42-.29Z"/></g></g></svg>