<svg xmlns="http://www.w3.org/2000/svg" viewBox="0 0 22.95 26.22"><defs><style>.cls-1{fill:#1d1d1b;}</style></defs><g id="Capa_2" data-name="Capa 2"><g id="Capa_1-2" data-name="Capa 1"><circle class="cls-1" cx="15.39" cy="13.14" r="1.39"/><path class="cls-1" d="M18.74,16.46l.06-.07.05-.06s0,0,0,0A4.54,4.54,0,0,0,18.74,10l-.21-.2-.27-.28a.89.89,0,0,0-1.24,0,.87.87,0,0,0,0,1.23l.48.48a2.79,2.79,0,0,1,0,4l-.33.35A.86.86,0,0,0,17.78,17a.82.82,0,0,0,.61-.25Z"/><path class="cls-1" d="M20.45,18.82l.29-.28h0L21,18.3a.69.69,0,0,0,.11-.13A7.55,7.55,0,0,0,20.84,8l0,0-.52-.52a.8.8,0,0,0-1.13,1.13l.52.52h0a6,6,0,0,1,0,8.24l-.41.41a.79.79,0,0,0,1.12,1.12Z"/><path class="cls-1" d="M10.57,13.11l5.62-5.65A1.55,1.55,0,0,0,16,5.08L8.8.27A1.54,1.54,0,0,0,7.2.18a1.56,1.56,0,0,0-.83,1.37V9L2.65,5.27A1.55,1.55,0,1,0,.45,7.46l5.6,5.65L.45,18.76A1.55,1.55,0,1,0,2.65,21l3.72-3.76v7.47A1.56,1.56,0,0,0,8.8,26L16,21.14a1.56,1.56,0,0,0,.24-2.39ZM9.52,4.48,12.68,6.6,9.52,9.78Zm0,17.26v-5.3l3.16,3.18Z"/></g></g></svg>