<svg xmlns="http://www.w3.org/2000/svg" viewBox="0 0 28.15 30.76"><g id="Capa_2" data-name="Capa 2"><g id="Capa_1-2" data-name="Capa 1"><path d="M10.34,15.38l9-8.6a.47.47,0,0,0,.15-.41A.48.48,0,0,0,19.22,6L10,.08a.49.49,0,0,0-.51,0A.51.51,0,0,0,9.23.5V14.32l-8.38-8a.5.5,0,0,0-.71,0,.49.49,0,0,0,0,.7l8.74,8.38L.15,23.75a.5.5,0,0,0,0,.71.5.5,0,0,0,.71,0l8.38-8V30.26a.51.51,0,0,0,.26.44.48.48,0,0,0,.24.06.53.53,0,0,0,.27-.08l9.22-5.92a.5.5,0,0,0,.23-.38A.49.49,0,0,0,19.3,24Zm-.11-14L18.15,6.5l-7.92,7.6Zm0,27.92V16.66l7.92,7.6Z"/><path d="M19,14.26A1.07,1.07,0,1,0,20,15.33,1.07,1.07,0,0,0,19,14.26Z"/><path d="M22.23,10.89a.5.5,0,1,0-.6.8,4.52,4.52,0,0,1,0,7.31.5.5,0,0,0-.12.7.49.49,0,0,0,.41.21.52.52,0,0,0,.29-.09,5.53,5.53,0,0,0,.06-8.93Z"/><path d="M24.94,8.35a.49.49,0,0,0-.7.05.51.51,0,0,0,.05.71,8.19,8.19,0,0,1,.07,12.38.5.5,0,0,0,0,.7.48.48,0,0,0,.37.17.54.54,0,0,0,.34-.12,9.2,9.2,0,0,0-.09-13.89Z"/></g></g></svg>