<svg xmlns="http://www.w3.org/2000/svg" viewBox="0 0 16.75 22.61"><defs><style>.cls-1{fill:#1e1e1c;}</style></defs><g id="Capa_2" data-name="Capa 2"><g id="Capa_1-2" data-name="Capa 1"><path class="cls-1" d="M7.51,22.61a.39.39,0,0,1-.18,0,.38.38,0,0,1-.18-.32V13a.38.38,0,0,1,.18-.32.35.35,0,0,1,.37,0l7.15,4.61a.37.37,0,0,1,.16.31.37.37,0,0,1-.16.3L7.7,22.55a.33.33,0,0,1-.19.06m.36-8.93v7.91L14,17.64Z"/><path class="cls-1" d="M.36,22.61a.33.33,0,0,1-.17,0A.37.37,0,0,1,0,22.25V13a.37.37,0,0,1,.19-.32.35.35,0,0,1,.37,0L7.7,17.33a.36.36,0,0,1,.17.31.35.35,0,0,1-.17.3L.56,22.55a.36.36,0,0,1-.2.06m.36-8.93v7.91l6.12-3.95Z"/><path class="cls-1" d="M16.39,22.61a.36.36,0,0,1-.36-.36V13a.36.36,0,0,1,.72,0v9.23a.36.36,0,0,1-.36.36"/><path class="cls-1" d="M9.24,10A.36.36,0,0,1,9,9.89L1.9,5.28a.36.36,0,0,1,0-.61L9,.06a.38.38,0,0,1,.37,0A.37.37,0,0,1,9.6.36V9.59a.36.36,0,0,1-.19.32.33.33,0,0,1-.17,0M2.76,5,8.88,8.93V1Z"/><path class="cls-1" d="M16.39,10a.36.36,0,0,1-.2-.06L9,5.28A.37.37,0,0,1,8.88,5,.37.37,0,0,1,9,4.67L16.19.06a.38.38,0,0,1,.37,0,.37.37,0,0,1,.19.32V9.59a.36.36,0,0,1-.19.32.35.35,0,0,1-.17,0M9.9,5,16,8.93V1Z"/><path class="cls-1" d="M.36,10A.36.36,0,0,1,0,9.59V.36a.36.36,0,0,1,.72,0V9.59A.36.36,0,0,1,.36,10"/></g></g></svg>