<svg xmlns="http://www.w3.org/2000/svg" viewBox="0 0 27.21 27.21"><g id="Capa_2" data-name="Capa 2"><g id="Capa_1-2" data-name="Capa 1"><path d="M19,6.64H8.2A1.56,1.56,0,0,0,6.64,8.2V19A1.55,1.55,0,0,0,8.2,20.57H19A1.54,1.54,0,0,0,20.57,19V8.2A1.55,1.55,0,0,0,19,6.64ZM19.57,19a.55.55,0,0,1-.55.55H8.2A.56.56,0,0,1,7.64,19V8.2a.56.56,0,0,1,.56-.56H19a.56.56,0,0,1,.55.56Z"/><path d="M26.71,8.78a.5.5,0,0,0,.5-.5.5.5,0,0,0-.5-.5H23.42V6.85a3.06,3.06,0,0,0-3.06-3.06h-.83V.5A.5.5,0,0,0,19,0a.5.5,0,0,0-.5.5V3.79H14.21V.5a.5.5,0,0,0-.5-.5.5.5,0,0,0-.5.5V3.79H8.88V.5a.5.5,0,0,0-.5-.5.5.5,0,0,0-.5.5V3.79h-1A3.06,3.06,0,0,0,3.79,6.85v.93H.5a.5.5,0,0,0-.5.5.5.5,0,0,0,.5.5H3.79v4.33H.5a.5.5,0,0,0-.5.5.5.5,0,0,0,.5.5H3.79v4.32H.5a.5.5,0,0,0-.5.5.5.5,0,0,0,.5.5H3.79v.93a3.06,3.06,0,0,0,3.06,3.06h1v3.29a.5.5,0,0,0,.5.5.5.5,0,0,0,.5-.5V23.42h4.33v3.29a.5.5,0,0,0,.5.5.5.5,0,0,0,.5-.5V23.42h4.32v3.29a.5.5,0,0,0,.5.5.5.5,0,0,0,.5-.5V23.42h.83a3.06,3.06,0,0,0,3.06-3.06v-.93h3.29a.5.5,0,0,0,.5-.5.5.5,0,0,0-.5-.5H23.42V14.11h3.29a.5.5,0,0,0,.5-.5.5.5,0,0,0-.5-.5H23.42V8.78ZM22.42,20.36a2.06,2.06,0,0,1-2.06,2.06H6.85a2.06,2.06,0,0,1-2.06-2.06V6.85A2.06,2.06,0,0,1,6.85,4.79H20.36a2.06,2.06,0,0,1,2.06,2.06Z"/></g></g></svg>