<svg xmlns="http://www.w3.org/2000/svg" viewBox="0 0 27.91 27.9"><g id="Capa_2" data-name="Capa 2"><g id="Capa_1-2" data-name="Capa 1"><path d="M14.92,27.9H5.38A5.16,5.16,0,0,1,0,22.6Q0,12.94,0,3.3A3,3,0,0,1,3.27,0H7.13a3.06,3.06,0,0,1,3.29,3.27c0,2.09,0,4.17,0,6.26,0,.18-.11.44.12.52s.31-.18.44-.3c1.42-1.4,2.81-2.83,4.24-4.21a3,3,0,0,1,4.73,0q1.38,1.35,2.73,2.73a3,3,0,0,1,.07,4.42C21.4,14.15,20,15.52,18.6,16.92c-.12.13-.38.22-.3.44s.34.12.52.12h5.54q3.54,0,3.54,3.53c0,1.21,0,2.42,0,3.64a3,3,0,0,1-3.22,3.24Zm-4.5-10.29c0,1.48,0,3,0,4.44,0,.15-.09.37.11.45s.29-.14.4-.25c.8-.81,1.59-1.64,2.4-2.45l8.11-8.15a1.4,1.4,0,0,0,0-2.27c-.84-.87-1.7-1.72-2.57-2.57s-1.53-1-2.51,0c-1.84,1.83-3.67,3.68-5.52,5.5a1.39,1.39,0,0,0-.44,1.08C10.44,14.79,10.42,16.2,10.42,17.61ZM9.3,26.14c.35.05.46.08.57.08,5,0,10,0,15,0a1.28,1.28,0,0,0,1.37-1.44c0-1.35,0-2.71,0-4.07,0-1-.48-1.5-1.52-1.5-1.94,0-3.89.11-5.81,0A4.82,4.82,0,0,0,14.48,21C12.93,22.75,11.14,24.33,9.3,26.14Zm-.58-6.45c0-1.11,0-2.23,0-3.34,0-.45-.09-.66-.6-.65-2,0-3.93,0-5.9,0-.39,0-.57.11-.57.53,0,2.24,0,4.47,0,6.7a3.49,3.49,0,0,0,3.64,3.29,3.47,3.47,0,0,0,3.39-3.4C8.74,21.78,8.72,20.74,8.72,19.69ZM5.27,14c1,0,1.94,0,2.91,0,.4,0,.55-.13.55-.54,0-1.41,0-2.81,0-4.21,0-.41-.14-.55-.55-.55-2,0-4,0-5.95,0-.4,0-.57.13-.57.54,0,1.4,0,2.81,0,4.21,0,.41.15.56.56.55C3.24,14,4.25,14,5.27,14ZM5.12,7c1,0,2,0,3.05,0,.4,0,.56-.13.56-.54,0-1.14,0-2.28,0-3.42A1.22,1.22,0,0,0,7.36,1.73q-2.15,0-4.29,0a1.28,1.28,0,0,0-1.4,1.4c0,1.09,0,2.18,0,3.27,0,.46.15.65.63.64C3.23,7,4.18,7,5.12,7Z"/><path d="M5.18,21.45a1.32,1.32,0,0,1,1.3,1.22,1.25,1.25,0,0,1-1.22,1.27A1.2,1.2,0,0,1,4,22.74,1.25,1.25,0,0,1,5.18,21.45Z"/></g></g></svg>