<svg xmlns="http://www.w3.org/2000/svg" viewBox="0 0 35.34 30.08"><defs><style>.cls-1{fill:#1d1d1b;}</style></defs><g id="Capa_2" data-name="Capa 2"><g id="Capa_1-2" data-name="Capa 1"><path class="cls-1" d="M35.34,16.39V28.06c0,.75-.38,1.31-.71,1.32l-5.74.16,0-1.45c2.23,0,4-2.64,4-5.93s-1.74-5.91-4-6l.06-1.38,5.72.23C35,15.05,35.34,15.63,35.34,16.39Z"/><path class="cls-1" d="M28.83,17.12c1.73.05,3.15,2.31,3.15,5s-1.41,5-3.15,5a2.47,2.47,0,0,1-1.72-.77,6.11,6.11,0,0,1-1.53-4.28,6,6,0,0,1,1.52-4.26,2.39,2.39,0,0,1,1.66-.73Zm1.4,5c0-1.13-.61-2-1.39-2a1.1,1.1,0,0,0-.8.35,2.31,2.31,0,0,0-.6,1.65c0,1.12.61,2,1.4,2S30.23,23.26,30.23,22.15Z"/><path class="cls-1" d="M28.84,20.72c.46,0,.85.66.85,1.42s-.39,1.4-.85,1.4S28,22.9,28,22.13a1.72,1.72,0,0,1,.42-1.21.65.65,0,0,1,.44-.2Z"/><path class="cls-1" d="M28.91,14.8l-.06,1.38a3.13,3.13,0,0,0-2.31,1,7,7,0,0,0-1.8,5,7.12,7.12,0,0,0,1.8,5,3.24,3.24,0,0,0,2.26,1h.05l0,1.45-13.52.36,0-1.66c2.38,0,4.26-2.74,4.26-6.14S17.71,16,15.34,15.89l.07-1.66Z"/><path class="cls-1" d="M15.3,16.76c1.93.06,3.49,2.45,3.49,5.34s-1.56,5.24-3.47,5.27a2.81,2.81,0,0,1-2-.86A6.37,6.37,0,0,1,11.73,22a6.25,6.25,0,0,1,1.61-4.44,2.73,2.73,0,0,1,1.89-.83Zm1.5,5.32c0-1.16-.64-2.07-1.47-2.09a1.31,1.31,0,0,0-.89.38,2.43,2.43,0,0,0-.61,1.68,2.52,2.52,0,0,0,.41,1.44,1.33,1.33,0,0,0,1.09.65C16.16,24.14,16.8,23.23,16.8,22.08Z"/><path class="cls-1" d="M16.24,22.08c0,.76-.43,1.42-.91,1.42a.81.81,0,0,1-.64-.39,2,2,0,0,1-.3-1.06,1.71,1.71,0,0,1,.44-1.2.68.68,0,0,1,.47-.22h0C15.81,20.64,16.24,21.3,16.24,22.08Z"/><path class="cls-1" d="M15.41,14.23l-.07,1.66A3.46,3.46,0,0,0,12.8,17,7.18,7.18,0,0,0,10.92,22a7.3,7.3,0,0,0,1.88,5.12,3.49,3.49,0,0,0,2.47,1.09h.06l0,1.66-6.87.18-.14,0h0A.78.78,0,0,1,8,29.86a1.71,1.71,0,0,1-.46-1.26V15.4A1.71,1.71,0,0,1,8,14.16l.07-.06A.68.68,0,0,1,8.5,14Z"/><path class="cls-1" d="M7.19,29.87l-5.91-1A1.53,1.53,0,0,1,0,27.38V18.65a2.54,2.54,0,0,1,1.41-2.27l5.64-1.95a2.61,2.61,0,0,0-.18,1V28.61A2.48,2.48,0,0,0,7.19,29.87Z"/><path class="cls-1" d="M5.35,15.31h-1C4.31,15,4.44,6.76,8.14,5c2.28-1.06,5.19-.28,7.76.41a10.66,10.66,0,0,0,3.59.62c.78-.13,1.71-1.3,2.61-2.43C23.56,1.79,25.22-.31,27.48,0c7.07,1.06,6,14.4,5.91,15l-1-.1c0-.12,1.09-12.92-5-13.84-1.67-.25-3.06,1.51-4.41,3.21-1.07,1.34-2.08,2.61-3.25,2.81a10.77,10.77,0,0,1-4-.64c-2.4-.64-5.11-1.37-7-.47C6,7.18,5.38,13.12,5.35,15.31Z"/></g></g></svg>