<svg xmlns="http://www.w3.org/2000/svg" viewBox="0 0 25.47 33.98"><g id="Capa_2" data-name="Capa 2"><g id="Capa_1-2" data-name="Capa 1"><path d="M4,34a6.49,6.49,0,0,1-1.84-.73A4.47,4.47,0,0,1,.05,29.44c0-5.6,0-5.07,0-10.67A2,2,0,0,1,1.2,16.89,3.75,3.75,0,0,1,.1,14.73a8.89,8.89,0,0,1,.06-3A3.92,3.92,0,0,1,2,9.28a1.49,1.49,0,0,1-.59-1.43c0-1.73,0-3.47,0-5.2a1.39,1.39,0,0,1,.55-1.19A5.93,5.93,0,0,1,5.75,0,10.66,10.66,0,0,1,8.51.25,5,5,0,0,1,12,4.38c.12,1.3.05,2.6.05,3.91,0,.35.1.43.44.42.87,0,.86,0,.87-.88,0-1.14-.05-2.27,0-3.41A4.9,4.9,0,0,1,17.67.11a9.17,9.17,0,0,1,3.65.15,6,6,0,0,1,2.27,1.25,1.35,1.35,0,0,1,.5,1.09c0,1.75,0,3.5,0,5.25a1.5,1.5,0,0,1-.59,1.43,3.62,3.62,0,0,1,1.76,2.38c.28,1.66.46,3.35-.67,4.84-.09.12-.2.24-.32.39l.25.16a2,2,0,0,1,.9,1.64v4.38c0,4,0,1.94,0,6a4.76,4.76,0,0,1-3.92,4.88.33.33,0,0,0-.1.06ZM1.38,27.19c0,2.69,0-.75,0,1.94a3.35,3.35,0,0,0,3.48,3.51H20.59a3.35,3.35,0,0,0,3.49-3.5V19c0-.7-.2-.9-.91-.9-1.76,0-3.52,0-5.29,0-.37,0-.48.08-.47.46a2,2,0,0,1-2.21,2.22H10.34A2.06,2.06,0,0,1,8,18.46c0-.3-.07-.4-.38-.39H2.26c-.68,0-.88.21-.88.89ZM14.75,10.54c0,1.89,0,3.78,0,5.67,0,.43.13.54.52.5a5.35,5.35,0,0,1,1,0c.37,0,.5-.06.5-.48,0-2.54,0-5.08,0-7.62,0-.12,0-.24,0-.36a.66.66,0,0,1,.68-.58.64.64,0,0,1,.65.6,4.09,4.09,0,0,1,0,.7c0,.22.09.3.28.34a4.94,4.94,0,0,0,4.16-.94.64.64,0,0,0,.25-.54,41.61,41.61,0,0,1,0-4.18,1.65,1.65,0,0,0-1.27-1.87,3.93,3.93,0,0,0-.54-.2,7.32,7.32,0,0,0-2.72-.17,3.57,3.57,0,0,0-3.5,3.73Zm-4.05,0h0c0-1.9,0-3.81,0-5.71A3.55,3.55,0,0,0,8.08,1.54a8.12,8.12,0,0,0-1.39-.17A5.17,5.17,0,0,0,3,2.36a.61.61,0,0,0-.27.55c0,1.62,0,3.24,0,4.85A.74.74,0,0,0,3,8.44a5.06,5.06,0,0,0,4,.88c.24,0,.32-.16.3-.4a3.64,3.64,0,0,1,0-.66.63.63,0,0,1,.73-.58c.39,0,.6.32.6.82,0,2.62,0,5.24,0,7.86,0,.27.06.36.34.35a10.43,10.43,0,0,1,1.25,0c.31,0,.39-.08.39-.39C10.7,14.41,10.7,12.49,10.7,10.57Zm7.38,3.1c0,.89,0,1.77,0,2.66,0,.28.06.39.37.38,1,0,2,0,3,0A2.6,2.6,0,0,0,24,14.56a7,7,0,0,0,0-2.1,2.55,2.55,0,0,0-1.5-2.14.75.75,0,0,0-.7,0,6,6,0,0,1-3.44.38c-.27,0-.34,0-.34.29C18.09,11.87,18.08,12.77,18.08,13.67Zm-10.7.05c0-.92,0-1.83,0-2.74,0-.25,0-.35-.33-.3a5.54,5.54,0,0,1-3.22-.31,1.22,1.22,0,0,0-1.38.23,2.52,2.52,0,0,0-1,1.58,7.4,7.4,0,0,0-.05,2.1A2.6,2.6,0,0,0,4,16.7c1,0,2,0,3,0,.27,0,.34-.08.33-.33C7.37,15.49,7.38,14.6,7.38,13.72Zm6-.31V10.94c0-.91,0-.89-.92-.91-.31,0-.39.08-.39.39,0,1.77,0,3.54,0,5.32,0,1,0,1,1,1,.26,0,.33-.08.33-.33C13.37,15.39,13.38,14.4,13.38,13.41Zm-.63,4.66h-3c-.12,0-.27-.06-.33.12a.82.82,0,0,0,.82,1.17h4.92c.72,0,.89-.18.91-.9,0-.34-.11-.41-.42-.4C14.68,18.09,13.71,18.07,12.75,18.07Z"/><path d="M2.71,28.71c0-.25,0-.5,0-.75a.66.66,0,0,1,.67-.66A.64.64,0,0,1,4,28c0,.4,0,.81,0,1.21a.7.7,0,0,0,.76.79C5.2,30,5.6,30,6,30a.66.66,0,0,1,.72.69.65.65,0,0,1-.72.65c-.45,0-.91,0-1.37,0a2,2,0,0,1-1.91-1.94Z"/><path d="M21.41,5.37a5.45,5.45,0,0,1,0,.7.65.65,0,0,1-.66.63.63.63,0,0,1-.66-.62c0-.48,0-1,0-1.45A.65.65,0,0,1,20.73,4a.67.67,0,0,1,.68.61C21.43,4.88,21.41,5.13,21.41,5.37Z"/><path d="M5.37,5.38c0,.23,0,.47,0,.7a.64.64,0,0,1-.67.62.63.63,0,0,1-.65-.59c0-.49,0-1,0-1.48a.66.66,0,0,1,1.32,0,.22.22,0,0,1,0,.08v.66Z"/></g></g></svg>