<svg xmlns="http://www.w3.org/2000/svg" viewBox="0 0 27.14 21.06"><g id="Capa_2" data-name="Capa 2"><g id="Capa_1-2" data-name="Capa 1"><path d="M17.88,7.14h-15A2.85,2.85,0,0,0,0,10v8.24a2.85,2.85,0,0,0,2.85,2.84h15a2.84,2.84,0,0,0,2.84-2.84V10A2.84,2.84,0,0,0,17.88,7.14Zm1.84,11.08a1.84,1.84,0,0,1-1.84,1.84h-15A1.85,1.85,0,0,1,1,18.22V10A1.85,1.85,0,0,1,2.85,8.14h15A1.84,1.84,0,0,1,19.72,10Z"/><path d="M25.24,5.15,11.06.16A2.85,2.85,0,0,0,7.43,1.9L6,6a.51.51,0,0,0,.31.64.49.49,0,0,0,.63-.31L8.38,2.23A1.85,1.85,0,0,1,10.73,1.1l14.18,5A1.84,1.84,0,0,1,26,8.44l-2.73,7.77a1.84,1.84,0,0,1-1.39,1.2.51.51,0,0,0-.4.59.5.5,0,0,0,.49.4h.1a2.84,2.84,0,0,0,2.14-1.85L27,8.78A2.85,2.85,0,0,0,25.24,5.15Z"/><path d="M1.85,5.88a.5.5,0,0,0,.45.29h.05a.48.48,0,0,0,.21-.07s.06,0,.08,0L4,5a.5.5,0,0,0-.63-.78l-.45.36A4.52,4.52,0,0,1,6.24,1.31a.5.5,0,0,0,.38-.6A.49.49,0,0,0,6,.33,5.65,5.65,0,0,0,1.94,4.4L1.61,4a.49.49,0,0,0-.7-.08.5.5,0,0,0-.08.7Z"/><path d="M13.76,11l-.66-.28-2.35-1a1,1,0,0,0-.76,0l-1.42.6-1.46.62a1.48,1.48,0,0,0-1,1.48,7.29,7.29,0,0,0,1,3.56,6.32,6.32,0,0,0,1,1.35A6.79,6.79,0,0,0,9.7,18.39a1.4,1.4,0,0,0,.66.16h.18a2,2,0,0,0,.7-.26,5.6,5.6,0,0,0,1.7-1.36,6.83,6.83,0,0,0,1.31-2.42,8,8,0,0,0,.34-2v-.14A1.44,1.44,0,0,0,13.76,11Zm-.17,1.47a6.84,6.84,0,0,1-.3,1.74,5.64,5.64,0,0,1-1.12,2.06,4.68,4.68,0,0,1-1.43,1.13,1.07,1.07,0,0,1-.33.14.5.5,0,0,1-.26-.05,5.27,5.27,0,0,1-1.29-.9A5.16,5.16,0,0,1,8,15.47a6.24,6.24,0,0,1-.84-3.08.49.49,0,0,1,.35-.53L9,11.24l1.39-.59,2.36,1,.61.26a.44.44,0,0,1,.26.45Z"/></g></g></svg>