<svg xmlns="http://www.w3.org/2000/svg" viewBox="0 0 33.26 33.76"><defs><style>.cls-1{fill:#1d1d1b;}</style></defs><g id="Capa_2" data-name="Capa 2"><g id="Capa_1-2" data-name="Capa 1"><path class="cls-1" d="M0,19.92A13.61,13.61,0,0,0,13.38,6.08l0,.89A13.61,13.61,0,0,0,26.19,19.91h.58A13.63,13.63,0,0,0,13.38,33.76v-.54A13.62,13.62,0,0,0,.94,20Z"/><path class="cls-1" d="M19,7.36A7.23,7.23,0,0,0,26.14,0l0,.47A7.25,7.25,0,0,0,33,7.36h.31a7.25,7.25,0,0,0-7.12,7.37v-.29a7.26,7.26,0,0,0-6.62-7.06Z"/></g></g></svg>