<svg xmlns="http://www.w3.org/2000/svg" viewBox="0 0 34.29 32.96"><defs><style>.cls-1{fill:#1d1d1b;}</style></defs><g id="Capa_2" data-name="Capa 2"><g id="Capa_1-2" data-name="Capa 1"><path class="cls-1" d="M16.06,28.88a6.42,6.42,0,0,0-1.31-6.24,1.88,1.88,0,0,1,.6-2.11,4.15,4.15,0,0,0,.78-.56c1.55-1.4,2-3.84,1.11-4.42-.6-.38-1.1-.54-1.89.44h0c-.09.12-.18.24-.28.39a1.22,1.22,0,0,1-1.36.49c-.56-.24-.68-1-.69-1.56L15.71,7.8h0v0l.08-.2a1.17,1.17,0,0,1,1.35-.82l.06,0V6.58a6.75,6.75,0,0,1,.45-2.32,7.47,7.47,0,0,1,1-1.94l.12-.13L19,1.81a1.13,1.13,0,0,1-.14-.67A3,3,0,0,1,17.9.38a.25.25,0,0,0-.36-.13.61.61,0,0,0-.18.12A.67.67,0,0,0,17.3.16.25.25,0,0,0,16.94,0a3.06,3.06,0,0,1-1.18,0,1.13,1.13,0,0,1-.55.42l-.14.38V1a7.26,7.26,0,0,1-.45,2.15,7,7,0,0,1-1.16,2.07l-.12.13.07,0A1.11,1.11,0,0,1,14,6.67l-2.8,7.82c-.33.47-1,1.21-1.63.84a1.82,1.82,0,0,1-.78-1.61.53.53,0,0,1,0-.13h0c0-1.27-.45-1.46-1.16-1.56-1.06-.14-2.28,2-2,4.09a3.86,3.86,0,0,0,.1.49h0l0,0c0,.08,0,.15,0,.22a2.1,2.1,0,0,1-1.44,2.63h0a6.12,6.12,0,0,0-4,3.64c-1.28,3.5,1.2,7.62,5.54,9.21S14.77,32.38,16.06,28.88Z"/><path class="cls-1" d="M28.67,4.93a5.62,5.62,0,1,0,5.62,5.62A5.62,5.62,0,0,0,28.67,4.93Zm2.75,6.42h-2V14.7h-.2a1.39,1.39,0,0,1-1.39-1.39v-2H24.53v-.21a1.38,1.38,0,0,1,1.38-1.38h2V6.41h.21A1.38,1.38,0,0,1,29.46,7.8v2h3.35V10A1.39,1.39,0,0,1,31.42,11.35Z"/><path class="cls-1" d="M28.67,19a5.62,5.62,0,1,0,5.62,5.62A5.61,5.61,0,0,0,28.67,19Zm2.75,6.41H24.53v-.2a1.38,1.38,0,0,1,1.38-1.39h6.9V24A1.38,1.38,0,0,1,31.42,25.39Z"/></g></g></svg>