<svg xmlns="http://www.w3.org/2000/svg" viewBox="0 0 34.97 28.71"><defs><style>.cls-1{fill:#fff;}.cls-2{fill:#1d1d1b;}</style></defs><g id="Capa_2" data-name="Capa 2"><g id="Capa_1-2" data-name="Capa 1"><path class="cls-1" d="M34.46,1.72a.26.26,0,0,0-.27-.28.66.66,0,0,0-.22,0,.64.64,0,0,0,0-.21A.26.26,0,0,0,33.73,1,3.15,3.15,0,0,1,32.65.48a1.12,1.12,0,0,1-.56.16H32l-.28.29a1.19,1.19,0,0,1-.08.16,7.31,7.31,0,0,1-1.32,1.77,7.66,7.66,0,0,1-1.12.93,4.37,4.37,0,0,1-.82.47l-.17.07.06,0a1.13,1.13,0,0,1,0,1.44L24.6,9.45l-.5.5-1.79,1.83a2.75,2.75,0,0,1-1.19.39.76.76,0,0,1-.66-.33,1.83,1.83,0,0,1,0-1.8l.06-.11h0a2.24,2.24,0,0,0,.29-1,.82.82,0,0,0-.12-.45A1.62,1.62,0,0,0,20.1,8a.86.86,0,0,0-.48-.13c-1,0-2.56,1.3-3.09,3a3.89,3.89,0,0,0-.12.49h0v0c0,.07,0,.14,0,.21a2.11,2.11,0,0,1-2.11,1.82l-.32,0a8.08,8.08,0,0,0-.85,0,6,6,0,0,0-4.33,1.7,5.74,5.74,0,0,0-1.61,3.29A6.39,6.39,0,0,0,7.08,20a9.44,9.44,0,0,0,2.83,5.84,9.26,9.26,0,0,0,6.44,2.86A6,6,0,0,0,20.69,27a6.48,6.48,0,0,0,1.45-6.26,1.88,1.88,0,0,1,1.42-1.67h0a4.79,4.79,0,0,0,1.78-.54c1.56-.84,2.54-2.44,2.05-3.22-.25-.39-.5-.68-1-.68a2.35,2.35,0,0,0-1,.28l-.42.24a2.07,2.07,0,0,1-.75.18.88.88,0,0,1-.7-.3c-.42-.47-.2-1.23,0-1.73l5.65-5.73s0,0,0,0l.15-.15a1.51,1.51,0,0,1,1-.41.87.87,0,0,1,.61.23l.05.06a1.22,1.22,0,0,1,.07-.17,7.05,7.05,0,0,1,1.4-1.94,7.31,7.31,0,0,1,1.77-1.32l.16-.08.29-.28A1,1,0,0,1,35,2.8,3.15,3.15,0,0,1,34.46,1.72Zm0,0a.26.26,0,0,0-.27-.28.66.66,0,0,0-.22,0,.64.64,0,0,0,0-.21A.26.26,0,0,0,33.73,1,3.15,3.15,0,0,1,32.65.48a1.12,1.12,0,0,1-.56.16H32l-.28.29a1.19,1.19,0,0,1-.08.16,7.31,7.31,0,0,1-1.32,1.77,7.66,7.66,0,0,1-1.12.93,4.37,4.37,0,0,1-.82.47l-.17.07.06,0a1.13,1.13,0,0,1,0,1.44L24.6,9.45l-.5.5-1.79,1.83a2.75,2.75,0,0,1-1.19.39.76.76,0,0,1-.66-.33,1.83,1.83,0,0,1,0-1.8l.06-.11h0a2.24,2.24,0,0,0,.29-1,.82.82,0,0,0-.12-.45A1.62,1.62,0,0,0,20.1,8a.86.86,0,0,0-.48-.13c-1,0-2.56,1.3-3.09,3a3.89,3.89,0,0,0-.12.49h0v0c0,.07,0,.14,0,.21a2.11,2.11,0,0,1-2.11,1.82l-.32,0a8.08,8.08,0,0,0-.85,0,6,6,0,0,0-4.33,1.7,5.74,5.74,0,0,0-1.61,3.29A6.39,6.39,0,0,0,7.08,20a9.44,9.44,0,0,0,2.83,5.84,9.26,9.26,0,0,0,6.44,2.86A6,6,0,0,0,20.69,27a6.48,6.48,0,0,0,1.45-6.26,1.88,1.88,0,0,1,1.42-1.67h0a4.79,4.79,0,0,0,1.78-.54c1.56-.84,2.54-2.44,2.05-3.22-.25-.39-.5-.68-1-.68a2.35,2.35,0,0,0-1,.28l-.42.24a2.07,2.07,0,0,1-.75.18.88.88,0,0,1-.7-.3c-.42-.47-.2-1.23,0-1.73l5.65-5.73s0,0,0,0l.15-.15a1.51,1.51,0,0,1,1-.41.87.87,0,0,1,.61.23l.05.06a1.22,1.22,0,0,1,.07-.17,7.05,7.05,0,0,1,1.4-1.94,7.31,7.31,0,0,1,1.77-1.32l.16-.08.29-.28A1,1,0,0,1,35,2.8,3.15,3.15,0,0,1,34.46,1.72ZM1.7,20.83a1,1,0,0,1-.42-.77c-.1-1.11,1.08-2.71,1.66-3.38l1.31-.46s-.27,0-.88-.58a2.6,2.6,0,0,1-.73-1.07l-.58,1.19c-.42.47-2.21,2.57-2.05,4.41a2.29,2.29,0,0,0,.92,1.67c1.33,1,3.07.35,4.34-.44A9.61,9.61,0,0,1,5.08,20C4,20.74,2.56,21.49,1.7,20.83ZM9,6.28,3.46,13.63a1.46,1.46,0,0,0-.32.87,1.15,1.15,0,0,0,1.15,1.15,1.14,1.14,0,0,0,.86-.4l7-6.44A4.81,4.81,0,0,1,9,6.28Z"/><path class="cls-2" d="M5.08,20a9.61,9.61,0,0,0,.19,1.4c-1.27.79-3,1.46-4.34.44A2.29,2.29,0,0,1,0,20.17c-.16-1.84,1.63-3.94,2.05-4.41l.58-1.19a2.6,2.6,0,0,0,.73,1.07c.61.55.88.58.88.58l-1.31.46c-.58.67-1.76,2.27-1.66,3.38a1,1,0,0,0,.42.77C2.56,21.49,4,20.74,5.08,20Z"/><path class="cls-2" d="M13.12,17.54a4.38,4.38,0,0,1-.86.37,4.27,4.27,0,0,1-1,.19h0C9.63,18,7.59,19.59,7.08,20a6.39,6.39,0,0,1,.06-1.64,11.52,11.52,0,0,1,1.52-.9C10.89,16.4,12.29,16.84,13.12,17.54Z"/><path class="cls-2" d="M35,2.8a1,1,0,0,0-.15.68l-.29.28-.16.08A7.31,7.31,0,0,0,32.6,5.16,7.05,7.05,0,0,0,31.2,7.1a1.22,1.22,0,0,0-.07.17l-.05-.06A.87.87,0,0,0,30.47,7a1.51,1.51,0,0,0-1,.41l-.15.15s0,0,0,0l-5.65,5.73c-.22.5-.44,1.26,0,1.73a.88.88,0,0,0,.7.3,2.07,2.07,0,0,0,.75-.18l.42-.24a2.35,2.35,0,0,1,1-.28c.45,0,.7.29,1,.68.49.78-.49,2.38-2.05,3.22a4.79,4.79,0,0,1-1.78.54h0a1.88,1.88,0,0,0-1.42,1.67A6.48,6.48,0,0,1,20.69,27a6,6,0,0,1-4.34,1.69,9.26,9.26,0,0,1-6.44-2.86A9.44,9.44,0,0,1,7.08,20a6.39,6.39,0,0,1,.06-1.64,5.74,5.74,0,0,1,1.61-3.29,6,6,0,0,1,4.33-1.7,8.08,8.08,0,0,1,.85,0l.32,0a2.11,2.11,0,0,0,2.11-1.82c0-.07,0-.14,0-.21v0h0a3.89,3.89,0,0,1,.12-.49c.53-1.71,2.08-3,3.09-3A.86.86,0,0,1,20.1,8a1.62,1.62,0,0,1,.56.5.82.82,0,0,1,.12.45,2.24,2.24,0,0,1-.29,1h0l-.06.11a1.83,1.83,0,0,0,0,1.8.76.76,0,0,0,.66.33,2.75,2.75,0,0,0,1.19-.39L24.1,10l.5-.5,3.59-3.64a1.13,1.13,0,0,0,0-1.44l-.06,0,.17-.07a4.37,4.37,0,0,0,.82-.47,7.66,7.66,0,0,0,1.12-.93,7.31,7.31,0,0,0,1.32-1.77,1.19,1.19,0,0,0,.08-.16L32,.63h.12a1.12,1.12,0,0,0,.56-.16A3.15,3.15,0,0,0,33.73,1a.26.26,0,0,1,.28.28.64.64,0,0,1,0,.21.66.66,0,0,1,.22,0,.26.26,0,0,1,.27.28A3.15,3.15,0,0,0,35,2.8Z"/><path class="cls-2" d="M12.15,8.81l-7,6.44a1.14,1.14,0,0,1-.86.4A1.15,1.15,0,0,1,3.14,14.5a1.46,1.46,0,0,1,.32-.87L9,6.28A4.81,4.81,0,0,0,12.15,8.81Z"/><path class="cls-2" d="M17.44,4.15a4.14,4.14,0,0,1-2,3.53,3.61,3.61,0,0,1-1.06.47,3.86,3.86,0,0,1-1.13.16,4.16,4.16,0,1,1,4.16-4.16Z"/></g></g></svg>