<svg xmlns="http://www.w3.org/2000/svg" viewBox="0 0 25.34 21.05"><defs><style>.cls-1{fill:#1d1d1b;}</style></defs><g id="Capa_2" data-name="Capa 2"><g id="Capa_1-2" data-name="Capa 1"><path id="Shape" class="cls-1" d="M13.44,14.41v5.71a.92.92,0,0,1-.47.8.89.89,0,0,1-.92,0,.91.91,0,0,1-.46-.8V17.84a3,3,0,0,0,0-3.33v-.37a1,1,0,0,1,1.57-.38.88.88,0,0,1,.28.65Z"/><path class="cls-1" d="M17.75,13.38a.93.93,0,0,1,1.85,0v5.2a.93.93,0,0,1-1.85,0Z"/><path class="cls-1" d="M16.52,19.61a.93.93,0,1,1-1.85,0v-5.2a.92.92,0,0,1,.91-.92h0a.92.92,0,0,1,.92.92Z"/><path class="cls-1" d="M9.42,20a.91.91,0,0,1-.91-.92v-1.3l.29.29a1.84,1.84,0,0,0,1.56.52v.49a.94.94,0,0,1-.94.92Z"/><path class="cls-1" d="M23.28,13H20.79a2.15,2.15,0,0,0-4.11-.48,2.14,2.14,0,0,0-1.08-.3h0a2.14,2.14,0,0,0-1.53.65l0,0a2.15,2.15,0,0,0-1.52-.62,2.22,2.22,0,0,0-1.94,1.15c-.06-.07-.13-.13-.18-.2l-.74-.73a7.24,7.24,0,0,0,2.77-2.35c0-.05.07-.12.12-.18H23.28Z"/><path class="cls-1" d="M9.48,4a1.86,1.86,0,0,0,.26-1V.62A.62.62,0,0,1,10.36,0h6.16a.61.61,0,0,1,.61.62c0,4.69-.26,2.58,1.22,5.13a5.38,5.38,0,0,1,.63,3H13.19c.08-.19.16-.38.23-.58a.61.61,0,0,0-1.16-.4,7,7,0,0,1-.85,1.68,5.92,5.92,0,0,1-3,2.23.61.61,0,0,0-.29,1c.68.69,2.05,2.07,2.4,2.44a1.8,1.8,0,0,1,0,2.13.61.61,0,0,1-.83,0L5.18,12.68a1,1,0,0,1-.13-1.17Z"/><path class="cls-1" d="M4,10.88A2.19,2.19,0,0,0,3.93,13H2.36v7.09H0V11.27A1.32,1.32,0,0,1,1.32,10H4.53Z"/><path class="cls-1" d="M23,9.95h2.36a0,0,0,0,1,0,0V20.13a0,0,0,0,1,0,0h-1A1.32,1.32,0,0,1,23,18.82V9.95A0,0,0,0,1,23,9.95Z" transform="translate(48.33 30.08) rotate(180)"/></g></g></svg>