<svg xmlns="http://www.w3.org/2000/svg" viewBox="0 0 34.91 15.95"><defs><style>.cls-1{fill:#1d1d1b;}</style></defs><g id="Capa_2" data-name="Capa 2"><g id="Capa_1-2" data-name="Capa 1"><path class="cls-1" d="M34.91,2.41V13.94c0,.74-.36,1.31-.69,1.32L24,15.53,24,14c2.2,0,3.93-2.61,3.93-5.85S26.19,2.28,24,2.21L24.06.66l10.15.42C34.54,1.09,34.91,1.67,34.91,2.41Z"/><path class="cls-1" d="M24,3.13c1.71.06,3.11,2.29,3.11,5S25.68,13,24,13.05a2.35,2.35,0,0,1-1.7-.76,6,6,0,0,1-1.51-4.23,5.91,5.91,0,0,1,1.5-4.2,2.36,2.36,0,0,1,1.64-.73Zm1.38,5c0-1.1-.6-2-1.37-2a1.12,1.12,0,0,0-.79.35,2.29,2.29,0,0,0-.59,1.62c0,1.12.6,2,1.38,2S25.35,9.2,25.35,8.1Z"/><path class="cls-1" d="M24,6.69c.46,0,.84.65.84,1.41S24.44,9.49,24,9.49s-.86-.65-.86-1.41a1.7,1.7,0,0,1,.42-1.19.62.62,0,0,1,.43-.2Z"/><path class="cls-1" d="M24.06.66,24,2.21a3.1,3.1,0,0,0-2.28,1,6.91,6.91,0,0,0-1.78,4.89A7,7,0,0,0,21.71,13a3.17,3.17,0,0,0,2.23,1h0l0,1.56L8.41,16l-.14,0h0a.82.82,0,0,1-.32-.19,1.78,1.78,0,0,1-.45-1.25v-13A1.74,1.74,0,0,1,7.91.21.34.34,0,0,0,8,.15.76.76,0,0,1,8.4,0ZM19.35,8.05c0-3.36-1.84-6.05-4.2-6.12a3.43,3.43,0,0,0-2.5,1A7.09,7.09,0,0,0,10.8,8a7.17,7.17,0,0,0,1.85,5,3.45,3.45,0,0,0,2.44,1.08h.06C17.5,14.08,19.35,11.42,19.35,8.05Z"/><path class="cls-1" d="M15.13,2.78c1.89.06,3.43,2.43,3.43,5.27S17,13.24,15.13,13.27a2.75,2.75,0,0,1-1.94-.86A6.25,6.25,0,0,1,11.59,8a6.18,6.18,0,0,1,1.6-4.39,2.68,2.68,0,0,1,1.86-.83ZM16.6,8c0-1.14-.64-2-1.46-2a1.18,1.18,0,0,0-.86.37A2.35,2.35,0,0,0,13.66,8a2.57,2.57,0,0,0,.41,1.42,1.3,1.3,0,0,0,1.07.63C16,10.07,16.6,9.18,16.6,8Z"/><path class="cls-1" d="M15.14,6.61c.49,0,.9.66.9,1.42s-.41,1.41-.9,1.41a.78.78,0,0,1-.62-.39,1.81,1.81,0,0,1-.29-1,1.75,1.75,0,0,1,.42-1.2.69.69,0,0,1,.48-.21Z"/><path class="cls-1" d="M7.1,15.73l-5.84-1A1.5,1.5,0,0,1,0,13.27V4.65A2.5,2.5,0,0,1,1.39,2.41L7,.49a2.52,2.52,0,0,0-.18,1v13A2.65,2.65,0,0,0,7.1,15.73Z"/></g></g></svg>