<svg xmlns="http://www.w3.org/2000/svg" viewBox="0 0 19.87 28.2"><g id="Capa_2" data-name="Capa 2"><g id="Capa_1-2" data-name="Capa 1"><path d="M15.54,21.34c-.89-.9-1.78-1.8-2.72-2.72.64-.76,1.27-1.53,1.91-2.3L15.8,15a2.29,2.29,0,0,0,.53-1.49,2,2,0,0,0-.72-1.71,1.87,1.87,0,0,0-2.76.29c-.28.35-.57.69-.86,1l-1.26,1.51L7.91,18V15.59c0-.74,0-1.48,0-2.22a2.15,2.15,0,0,0-4.29.1v9.89a2.11,2.11,0,0,0,2.1,2.14h0a2.16,2.16,0,0,0,1.5-.59,2.33,2.33,0,0,0,.66-1.66V19.54l.3.29L9.8,21.46,13.29,25a1.86,1.86,0,0,0,1.33.57h.1a1.94,1.94,0,0,0,1.4-.74,2.37,2.37,0,0,0-.22-3.15ZM6.91,19.82v3.43a1.29,1.29,0,0,1-.36.94,1.16,1.16,0,0,1-.82.31,1.13,1.13,0,0,1-1.12-1.14V13.47a1.14,1.14,0,0,1,1.1-1.16h0A1.13,1.13,0,0,1,6.9,13.4c0,.73,0,1.46,0,2.19v4.23Zm8.42,4.41a.89.89,0,0,1-.66.36.88.88,0,0,1-.67-.27l-3.48-3.56L8.93,19.13l-.34-.34L11.5,15.3l1.25-1.51.88-1A.89.89,0,0,1,15,12.6a1.08,1.08,0,0,1,.34.9v0a1.26,1.26,0,0,1-.3.84L14,15.68c-.65.8-1.31,1.6-2,2.39a.77.77,0,0,0,0,1.17l2.8,2.8.35.36A1.36,1.36,0,0,1,15.33,24.23Z"/><path d="M6.34,9.58h7.2a.5.5,0,0,0,.5-.5v-2a4.1,4.1,0,1,0-8.2.1V9.08A.5.5,0,0,0,6.34,9.58ZM9.94,4A3.1,3.1,0,0,1,13,7.09V8.58H6.83V7.09A3.1,3.1,0,0,1,9.94,4Z"/><path d="M18.06,8.57H17V7.37A7.3,7.3,0,0,0,10.15,0,7.1,7.1,0,0,0,2.84,7.09V8.57h-1A1.82,1.82,0,0,0,0,10.39v16A1.82,1.82,0,0,0,1.81,28.2H18.06a1.82,1.82,0,0,0,1.81-1.82v-16A1.82,1.82,0,0,0,18.06,8.57Zm.81,17.81a.82.82,0,0,1-.81.82H1.81A.82.82,0,0,1,1,26.38v-16a.82.82,0,0,1,.81-.82H3.34a.5.5,0,0,0,.5-.5v-2A6.1,6.1,0,0,1,10.12,1,6.29,6.29,0,0,1,16,7.37v1.7a.5.5,0,0,0,.5.5h1.53a.82.82,0,0,1,.81.82Z"/></g></g></svg>