<svg xmlns="http://www.w3.org/2000/svg" viewBox="0 0 26.84 26.84"><defs><style>.cls-1{fill:#1d1d1b;}</style></defs><g id="Capa_2" data-name="Capa 2"><g id="Capa_1-2" data-name="Capa 1"><path class="cls-1" d="M13.42,3.36a.84.84,0,0,0,.84-.84V.84a.84.84,0,0,0-1.68,0V2.52A.85.85,0,0,0,13.42,3.36Z"/><path class="cls-1" d="M26,12.58H24.33a.84.84,0,0,0,0,1.68H26a.84.84,0,0,0,0-1.68Z"/><path class="cls-1" d="M3.36,13.42a.85.85,0,0,0-.84-.84H.84a.84.84,0,0,0,0,1.68H2.52A.84.84,0,0,0,3.36,13.42Z"/><path class="cls-1" d="M21.13,6.55a.83.83,0,0,0,.6-.25l1.18-1.18a.84.84,0,0,0,0-1.19.83.83,0,0,0-1.18,0L20.54,5.12a.83.83,0,0,0,0,1.18.81.81,0,0,0,.59.25Z"/><path class="cls-1" d="M5.12,6.3a.81.81,0,0,0,.59.25A.79.79,0,0,0,6.3,6.3a.83.83,0,0,0,0-1.18L5.12,3.93A.84.84,0,0,0,3.93,5.12L5.12,6.3Z"/><path class="cls-1" d="M23.49,18.46H21.81v-5A8.39,8.39,0,0,0,5,13.42v5H3.36a.84.84,0,1,0,0,1.67h5v4.2a.84.84,0,1,0,1.68,0v-4.2h6.71V26a.84.84,0,0,0,1.68,0V20.13h5a.84.84,0,1,0,0-1.67Zm-16.78,0v-5A6.69,6.69,0,0,1,11.24,7.1a6.72,6.72,0,0,0-2.85,5.48v5.88Z"/></g></g></svg>