<svg xmlns="http://www.w3.org/2000/svg" viewBox="0 0 39.27 39.27"><defs><style>.cls-1{fill:#fff;}</style></defs><g id="Capa_2" data-name="Capa 2"><g id="Capa_1-2" data-name="Capa 1"><path d="M9.59,24.85H8.13V26.4H9.59a.7.7,0,0,0,.8-.78C10.39,25.1,10.12,24.85,9.59,24.85Z"/><path d="M10.27,22.18c0-.48-.27-.72-.79-.72H8.13V22.9H9.48C10,22.9,10.27,22.66,10.27,22.18Z"/><polygon points="32.84 14.04 32.05 16.4 33.59 16.4 32.84 14.04"/><polygon points="16.12 25.88 17.82 25.88 17 23.28 16.12 25.88"/><path d="M19.64,0A19.64,19.64,0,1,0,39.27,19.64,19.64,19.64,0,0,0,19.64,0Zm14,10.69,3.22,8.84H34.57l-.41-1.31H31.44L31,19.53H28.73L32,10.69ZM21.24,14.12c0-.2,0-.38,0-.53a6.88,6.88,0,0,1,.09-1,3.18,3.18,0,0,1,.88-1.76,3.67,3.67,0,0,1,2.7-1.1,3.74,3.74,0,0,1,2.75,1A3.92,3.92,0,0,1,28.73,13h-2.4a1.33,1.33,0,0,0-1.4-1.1,1.13,1.13,0,0,0-.94.43,1.44,1.44,0,0,0-.26.64,11.71,11.71,0,0,0-.09,1.75,11.87,11.87,0,0,0,.09,1.76,1.39,1.39,0,0,0,.26.64,1.09,1.09,0,0,0,.94.41A1.37,1.37,0,0,0,26,17.1a1.43,1.43,0,0,0,.37-1v-.13H24.93v-2h3.81v1.35a4.45,4.45,0,0,1-1,3.24,3.44,3.44,0,0,1-1.32.88,4.87,4.87,0,0,1-1.51.21,3.66,3.66,0,0,1-2.7-1.09,3.18,3.18,0,0,1-.88-1.76,6.88,6.88,0,0,1-.09-1c0-.16,0-.33,0-.53Zm-7.3-4.31h6.61v2.13H16.33v1.62h3.6v2.13h-3.6V17.4h4.22v2.13H13.94ZM9.81,28.35H6V19.53H4.43V10.69H6.57l2,3.9,2-3.9h2.14v8.84H10.51V15.3L9.25,17.48H7.86L6.61,15.3v4.21h3a2.9,2.9,0,0,1,2.1.71,2.42,2.42,0,0,1,.72,1.85,1.94,1.94,0,0,1-.39,1.18,2.17,2.17,0,0,1-.32.36l-.14.12-.12.09a.13.13,0,0,1,.07.05l.08.05.17.12a2,2,0,0,1,.36.36,2.1,2.1,0,0,1,.41,1.34,2.49,2.49,0,0,1-.78,1.94A2.84,2.84,0,0,1,9.81,28.35Zm17.31.41a4.24,4.24,0,0,1-2.65.79,7.08,7.08,0,0,1-2-.26,3.86,3.86,0,0,1-1.32-.76l.29.79H18.9l-.45-1.45h-3L15,29.32h-2.5L16,19.59h1.85L21,28.09l1.36-1.35a2.35,2.35,0,0,0,1,.53,4.56,4.56,0,0,0,1.19.15c.93,0,1.4-.29,1.4-.88a.85.85,0,0,0-.19-.57,1.12,1.12,0,0,0-.65-.26l-1.17-.16a3.34,3.34,0,0,1-1.95-.86,2.68,2.68,0,0,1-.67-2,2.82,2.82,0,0,1,.94-2.2,3.78,3.78,0,0,1,2.61-.87,4.47,4.47,0,0,1,3.28,1.16l-1.51,1.5a2,2,0,0,0-1-.52l-.47-.05h-.38a1.28,1.28,0,0,0-.9.29.81.81,0,0,0-.28.61.62.62,0,0,0,.2.45,1.07,1.07,0,0,0,.67.29l1.17.16a3.25,3.25,0,0,1,1.91.81,2.86,2.86,0,0,1,.73,2.13A2.69,2.69,0,0,1,27.12,28.76Zm6.81-1a3.86,3.86,0,0,1-2.41.72,6.52,6.52,0,0,1-1.85-.23,3.57,3.57,0,0,1-1.5-.94l1.39-1.39a2,2,0,0,0,.89.49,4.1,4.1,0,0,0,1.08.13c.85,0,1.27-.26,1.27-.79a.71.71,0,0,0-.18-.52A.89.89,0,0,0,32,25L31,24.82A3,3,0,0,1,29.2,24a2.42,2.42,0,0,1-.61-1.78,2.55,2.55,0,0,1,.86-2,3.46,3.46,0,0,1,2.37-.79,4,4,0,0,1,3,1.06l-1.37,1.36a1.7,1.7,0,0,0-.91-.47l-.42-.05h-.35a1.19,1.19,0,0,0-.81.26.73.73,0,0,0-.25.56.54.54,0,0,0,.17.41,1,1,0,0,0,.61.26l1.07.15a3,3,0,0,1,1.74.73,2.64,2.64,0,0,1,.65,1.94A2.43,2.43,0,0,1,33.93,27.74Z"/><rect class="cls-1" x="5.96" y="19.51" width="0.65" height="0.03"/><path class="cls-1" d="M20.78,28.27a4.19,4.19,0,0,0,.33.26L21,28.09Z"/></g></g></svg>