<svg xmlns="http://www.w3.org/2000/svg" viewBox="0 0 13.4 19.8"><g id="Capa_2" data-name="Capa 2"><g id="Capa_1-2" data-name="Capa 1"><path d="M7,13.1H6.4A3.33,3.33,0,0,1,3.1,9.8V3.3A3.33,3.33,0,0,1,6.4,0H7a3.33,3.33,0,0,1,3.3,3.3V9.8A3.33,3.33,0,0,1,7,13.1M6.4.8A2.48,2.48,0,0,0,3.9,3.3V9.8a2.48,2.48,0,0,0,2.5,2.5H7A2.48,2.48,0,0,0,9.5,9.8V3.3A2.48,2.48,0,0,0,7,.8Z"/><path d="M6.7,16.2A6.7,6.7,0,0,1,0,9.5V8.6a.43.43,0,0,1,.4-.4.43.43,0,0,1,.4.4v.9a5.9,5.9,0,0,0,11.8,0V8.6a.4.4,0,1,1,.8,0v.9a6.7,6.7,0,0,1-6.7,6.7"/><path d="M9.4,19.8H4A.4.4,0,0,1,4,19H9.4a.43.43,0,0,1,.4.4c-.1.2-.2.4-.4.4"/><path d="M6.7,19.8a.43.43,0,0,1-.4-.4V15.8a.4.4,0,0,1,.8,0v3.6a.43.43,0,0,1-.4.4"/></g></g></svg>