<svg xmlns="http://www.w3.org/2000/svg" viewBox="0 0 34.24 30.53"><defs><style>.cls-1{fill:#1d1d1b;}</style></defs><g id="Capa_2" data-name="Capa 2"><g id="Capa_1-2" data-name="Capa 1"><path class="cls-1" d="M15,0a4.7,4.7,0,1,1-4.7,4.7A4.7,4.7,0,0,1,15,0Z"/><path class="cls-1" d="M4.85,17.71a1.3,1.3,0,0,0,1-.45L13.75,10a5.45,5.45,0,0,1-3.58-2.86L3.92,15.43a1.59,1.59,0,0,0-.37,1A1.31,1.31,0,0,0,4.85,17.71Z"/><path class="cls-1" d="M1.05,24.71c2.63,2,6.67-1.8,6.82-1.95s4.31-3.79,6.3-1.57a2.06,2.06,0,0,1,.53,1.64c-.21,2.37-3.5,5.44-4.75,6.42a.73.73,0,0,0-.12,1,.74.74,0,0,0,.57.27.73.73,0,0,0,.44-.15c.21-.16,5-3.95,5.3-7.42a3.48,3.48,0,0,0-.9-2.73c-.87-1-2.53-1.85-5.44-.46A13.68,13.68,0,0,0,6.9,21.7c-.86.82-3.61,2.92-5,1.87a1.18,1.18,0,0,1-.49-.87c-.1-1.26,1.23-3.07,1.89-3.83l1.47-.51s-.29,0-1-.66A2.78,2.78,0,0,1,3,16.49l-.66,1.34c-.48.53-2.49,2.92-2.32,5A2.59,2.59,0,0,0,1.05,24.71Z"/><path class="cls-1" d="M28.62,2.72a5.62,5.62,0,1,0,5.62,5.62A5.62,5.62,0,0,0,28.62,2.72Zm2.76,6.41h-2v3.35h-.21a1.38,1.38,0,0,1-1.38-1.39v-2H24.48v-.2a1.39,1.39,0,0,1,1.39-1.39h2V4.2H28a1.38,1.38,0,0,1,1.39,1.38v2h3.35v.21A1.39,1.39,0,0,1,31.38,9.13Z"/><path class="cls-1" d="M28.62,16.76a5.62,5.62,0,1,0,5.62,5.62A5.62,5.62,0,0,0,28.62,16.76Zm2.76,6.42h-6.9V23a1.39,1.39,0,0,1,1.39-1.39h6.9v.21A1.39,1.39,0,0,1,31.38,23.18Z"/></g></g></svg>