<svg xmlns="http://www.w3.org/2000/svg" viewBox="0 0 24.21 26.74"><defs><style>.cls-1{fill:#1d1d1b;}</style></defs><g id="Capa_2" data-name="Capa 2"><g id="Capa_1-2" data-name="Capa 1"><path d="M24.21,12.66v-.94a1.09,1.09,0,0,0-1.09-1.1H18.33a1.09,1.09,0,0,0-1.09,1.1v.94h0a1.09,1.09,0,0,0,1.09,1.09h4.79A1.09,1.09,0,0,0,24.21,12.66Z"/><path class="cls-1" d="M13,.09A4.07,4.07,0,1,1,8.93,4.15,4.06,4.06,0,0,1,13,.09Z"/><path class="cls-1" d="M4.2,15.4A1.13,1.13,0,0,0,5,15l6.84-6.3A4.69,4.69,0,0,1,8.79,6.23l-5.4,7.2a1.35,1.35,0,0,0-.32.84A1.13,1.13,0,0,0,4.2,15.4Z"/><path class="cls-1" d="M.91,21.45c2.27,1.75,5.77-1.56,5.9-1.69s3.72-3.28,5.44-1.35a1.76,1.76,0,0,1,.46,1.41c-.18,2.05-3,4.7-4.11,5.55a.62.62,0,0,0-.1.87.62.62,0,0,0,.87.11c.18-.14,4.31-3.42,4.58-6.42a3,3,0,0,0-.78-2.35c-.75-.85-2.19-1.61-4.7-.4A11.77,11.77,0,0,0,6,18.85c-.74.71-3.11,2.52-4.29,1.61a1,1,0,0,1-.42-.75c-.09-1.09,1.06-2.65,1.63-3.31L4.15,16s-.25,0-.85-.57a2.45,2.45,0,0,1-.72-1.05L2,15.5C1.6,16-.14,18,0,19.82A2.27,2.27,0,0,0,.91,21.45Z"/><rect x="19.16" width="3.13" height="9.83" rx="0.92"/><rect x="19.16" y="14.63" width="3.13" height="12.1" rx="0.92"/></g></g></svg>