<svg xmlns="http://www.w3.org/2000/svg" viewBox="0 0 28.9 22.71"><g id="Capa_2" data-name="Capa 2"><g id="Capa_1-2" data-name="Capa 1"><path d="M26.64,0h-17A2.27,2.27,0,0,0,7.34,2.27V5.33a.5.5,0,0,0,1,0V2.27A1.27,1.27,0,0,1,9.61,1h17A1.26,1.26,0,0,1,27.9,2.27v11a1.26,1.26,0,0,1-1.26,1.27H22.17a.5.5,0,0,0,0,1h4.47A2.27,2.27,0,0,0,28.9,13.3v-11A2.27,2.27,0,0,0,26.64,0Z"/><path d="M22.55,20.64,20.26,19V9a1.92,1.92,0,0,0-1.91-1.92H4.69A1.93,1.93,0,0,0,2.77,9V19L.48,20.64a1.11,1.11,0,0,0-.42,1.27,1.11,1.11,0,0,0,1.08.8H21.89a1.14,1.14,0,0,0,.66-2.07ZM4.69,8.06H18.35a.92.92,0,0,1,.91.92v9.77H3.77V9A.92.92,0,0,1,4.69,8.06ZM22,21.61a.13.13,0,0,1-.13.1H1.14a.14.14,0,0,1-.08-.26l2.37-1.7H19.6L22,21.45A.13.13,0,0,1,22,21.61Z"/><path d="M9.38,16.67h.11a.49.49,0,0,0,.48-.39,4.77,4.77,0,0,1,3.47-3.49l-.42.52a.5.5,0,0,0,.08.7.51.51,0,0,0,.31.11.48.48,0,0,0,.39-.19L15,12.51a.43.43,0,0,0,.1-.29.43.43,0,0,0,0-.05v0h0v0a.5.5,0,0,0-.28-.39l-1.33-1.06a.49.49,0,0,0-.7.07.5.5,0,0,0,.07.7l.47.38A5.88,5.88,0,0,0,9,16.08.49.49,0,0,0,9.38,16.67Z"/></g></g></svg>