<svg xmlns="http://www.w3.org/2000/svg" viewBox="0 0 24.04 26.72"><defs><style>.cls-1{fill:#1d1d1b;}</style></defs><g id="Capa_2" data-name="Capa 2"><g id="Capa_1-2" data-name="Capa 1"><path class="cls-1" d="M23.77.18a.58.58,0,0,0-.66-.13L8.19,4.67A1,1,0,0,0,7.4,5.73V21.22a4.75,4.75,0,0,0-3.17-1.1C1.85,20.12,0,21.58,0,23.42s1.85,3.3,4.23,3.3,4-1.31,4.2-3a1.23,1.23,0,0,0,0-.27L8.55,11,23.11,6.43v9.89a4.72,4.72,0,0,0-3.3-1.22c-2.38,0-4.22,1.46-4.22,3.31s1.84,3.3,4.22,3.3c2.21,0,4-1.26,4.2-2.91a2.56,2.56,0,0,0,0-.39V.84C24,.58,24,.31,23.77.18Zm-.66,5.19L8.56,9.85l0-4.25L23.11,1.11Z"/></g></g></svg>