<svg xmlns="http://www.w3.org/2000/svg" viewBox="0 0 14.73 9.95"><defs><style>.cls-1{fill:#1e1e1c;}</style></defs><g id="Capa_2" data-name="Capa 2"><g id="Capa_1-2" data-name="Capa 1"><path class="cls-1" d="M.36,10a.33.33,0,0,1-.17,0A.36.36,0,0,1,0,9.59V.36A.37.37,0,0,1,.19,0a.38.38,0,0,1,.37,0L7.7,4.67A.36.36,0,0,1,7.87,5a.35.35,0,0,1-.17.3L.56,9.89a.36.36,0,0,1-.2.06M.72,1V8.93L6.84,5Z"/><path class="cls-1" d="M11,10a.36.36,0,0,1-.36-.36V.36a.37.37,0,0,1,.73,0V9.59A.37.37,0,0,1,11,10"/><path class="cls-1" d="M14.37,10A.36.36,0,0,1,14,9.59V.36a.36.36,0,1,1,.72,0V9.59a.36.36,0,0,1-.36.36"/></g></g></svg>