<svg xmlns="http://www.w3.org/2000/svg" viewBox="0 0 22.12 26.71"><defs><style>.cls-1{fill:#1d1d1b;}</style></defs><g id="Capa_2" data-name="Capa 2"><g id="Capa_1-2" data-name="Capa 1"><path class="cls-1" d="M18.48,2.62,20.32.37A1,1,0,0,1,21.75.23h0a1,1,0,0,1,.14,1.43L20.05,3.91Z"/><path class="cls-1" d="M11.8,7.7l-7.41,9a3,3,0,0,0,.14,3.91L.09,26.07a.39.39,0,1,0,.6.5l4.44-5.43A3,3,0,0,0,9,20.49l7.4-9Z"/><rect class="cls-1" x="16.89" y="3.23" width="2.03" height="3.37" transform="translate(7.17 -10.24) rotate(39.32)"/><rect class="cls-1" x="14.45" y="6.21" width="2.03" height="3.37" transform="translate(8.51 -8.01) rotate(39.32)"/></g></g></svg>