<svg xmlns="http://www.w3.org/2000/svg" viewBox="0 0 15.93 26.83"><defs><style>.cls-1{fill:#1d1d1b;}</style></defs><g id="Capa_2" data-name="Capa 2"><g id="Capa_1-2" data-name="Capa 1"><path class="cls-1" d="M15.77.61A1.26,1.26,0,0,0,14.63,0H8.48A2.11,2.11,0,0,0,6.67,1.14L.15,14.68A1.32,1.32,0,0,0,.18,16a1.33,1.33,0,0,0,1.14.6l4.82.07L2.65,25.36a1.12,1.12,0,0,0,.06,1.14.78.78,0,0,0,.63.33h.05a1.16,1.16,0,0,0,.89-.53L15.57,12.13a1.15,1.15,0,0,0-.94-2H11l4.7-8.28A1.25,1.25,0,0,0,15.77.61Z"/></g></g></svg>