<svg xmlns="http://www.w3.org/2000/svg" viewBox="0 0 27.99 15.3"><g id="Capa_2" data-name="Capa 2"><g id="Capa_1-2" data-name="Capa 1"><path d="M28,10.84h0V5a.51.51,0,0,0-.5-.5.27.27,0,1,1,0-.53.5.5,0,0,0,.5-.5V1.1A1.1,1.1,0,0,0,26.89,0H1.1A1.1,1.1,0,0,0,0,1.1V3.5A.5.5,0,0,0,.5,4a.27.27,0,1,1,0,.53A.5.5,0,0,0,0,5V14.2a1.1,1.1,0,0,0,1.1,1.1H26.89A1.11,1.11,0,0,0,28,14.2V10.85ZM1.1,1H26.89a.1.1,0,0,1,.1.1v2a1.29,1.29,0,0,0-.77,1.17A1.27,1.27,0,0,0,27,5.43v4.91H1V5.43a1.27,1.27,0,0,0,.77-1.16A1.29,1.29,0,0,0,1,3.1v-2A.09.09,0,0,1,1.1,1ZM26.89,14.3h-3.4V13.07a.51.51,0,0,0-.5-.5.5.5,0,0,0-.5.5V14.3H19V13.07a.5.5,0,0,0-1,0V14.3h-3.5V13.07a.5.5,0,0,0-.5-.5.51.51,0,0,0-.5.5V14.3H10V13.07a.51.51,0,0,0-.5-.5.5.5,0,0,0-.5.5V14.3H5.5V13.07a.5.5,0,0,0-1,0V14.3H1.1a.1.1,0,0,1-.1-.1V11.34H27V14.2A.11.11,0,0,1,26.89,14.3Z"/><path d="M5.12,8.79H7.65a1.1,1.1,0,0,0,1.1-1.1V3.81a1.1,1.1,0,0,0-1.1-1.1H5.12A1.1,1.1,0,0,0,4,3.81V7.69A1.1,1.1,0,0,0,5.12,8.79Zm-.1-5a.1.1,0,0,1,.1-.1H7.65a.1.1,0,0,1,.1.1V7.69a.1.1,0,0,1-.1.1H5.12a.1.1,0,0,1-.1-.1Z"/><path d="M12.73,8.79h2.53a1.1,1.1,0,0,0,1.1-1.1V3.81a1.1,1.1,0,0,0-1.1-1.1H12.73a1.1,1.1,0,0,0-1.1,1.1V7.69A1.1,1.1,0,0,0,12.73,8.79Zm-.1-5a.1.1,0,0,1,.1-.1h2.53a.1.1,0,0,1,.1.1V7.69a.1.1,0,0,1-.1.1H12.73a.1.1,0,0,1-.1-.1Z"/><path d="M20.34,8.79h2.53A1.1,1.1,0,0,0,24,7.69V3.81a1.1,1.1,0,0,0-1.1-1.1H20.34a1.1,1.1,0,0,0-1.1,1.1V7.69A1.1,1.1,0,0,0,20.34,8.79Zm-.1-5a.1.1,0,0,1,.1-.1h2.53a.1.1,0,0,1,.1.1V7.69a.1.1,0,0,1-.1.1H20.34a.1.1,0,0,1-.1-.1Z"/></g></g></svg>