<svg xmlns="http://www.w3.org/2000/svg" viewBox="0 0 27.46 15.79"><g id="Capa_2" data-name="Capa 2"><g id="Capa_1-2" data-name="Capa 1"><path d="M25.57,9.25a.5.5,0,0,0-.33.62,12.61,12.61,0,0,1,.48,3H24.11a.5.5,0,0,0,0,1h2.13a.5.5,0,0,0,.5-.5,13.34,13.34,0,0,0-.54-3.78A.5.5,0,0,0,25.57,9.25Z"/><path d="M27.41,6.38a.5.5,0,0,0-.61-.25l-14.43,5a2.39,2.39,0,0,0-1.16,3.19,2.42,2.42,0,0,0,2.21,1.45,2.3,2.3,0,0,0,.95-.21l.07,0L27.24,7A.51.51,0,0,0,27.41,6.38ZM13.92,14.69a1.41,1.41,0,0,1-1.8-.76,1.39,1.39,0,0,1,.62-1.85L23.41,8.36Z"/><path d="M5,4.29A12.28,12.28,0,0,1,12.87,1v1.6a.5.5,0,1,0,1,0V1a12.21,12.21,0,0,1,7.87,3.26L20.61,5.42a.5.5,0,0,0,0,.71.49.49,0,0,0,.35.15.51.51,0,0,0,.36-.15L22.46,5c.28.31.56.64.82,1a.5.5,0,1,0,.8-.6A13.8,13.8,0,0,0,22.85,4s0,0,0,0l-.06,0A13.2,13.2,0,0,0,13.37,0,13.35,13.35,0,0,0,4,3.89l0,0,0,0A13.35,13.35,0,0,0,0,13.37a.5.5,0,0,0,.5.5H2.63a.5.5,0,1,0,0-1H1A12.28,12.28,0,0,1,4.29,5L5.42,6.13a.51.51,0,0,0,.36.15.5.5,0,0,0,.35-.15.51.51,0,0,0,0-.71Z"/></g></g></svg>