<svg xmlns="http://www.w3.org/2000/svg" viewBox="0 0 900 809.61"><g id="Capa_2" data-name="Capa 2"><g id="Capa_1-2" data-name="Capa 1"><path d="M507.61,776.45a546.47,546.47,0,0,1-65-37.74c-27.69-18.91-51.36-42.37-75.26-65.6q-149-144.76-298-289.5c-25.32-24.68-33.19-54.82-21.9-88.41s35.72-52.38,70.76-57.41c2.64-.38,5.28-.69,7.92-1.1A17.64,17.64,0,0,0,137.89,230c31.44-39.64,66.45-75.56,108.93-103.59,19-12.54,39.24-22.58,61.39-28.33,2.66-.69,4.32-2.36,6.1-4q46.43-44,92.8-88.14c5.57-5.31,11.76-7.57,19.11-4.6,11.37,4.6,13.93,18.77,4.85,27.59-12.79,12.42-25.82,24.6-38.75,36.88q-26.83,25.47-53.68,50.92c-1.6,1.52-2.94,2.88-2.67,5.47,3.51,34.78,11.92,67.94,32.53,96.9,20,28,47.56,42.92,81.74,44.31,32.66,1.33,65.33.47,97.6-5.66,8-1.52,15.87-4,24.17-2.4,3,.57,3.47-2.2,4.55-3.82q29.13-43.35,58.1-86.79,10.27-15.37,20.56-30.74c6.06-9,16.08-11.44,24.14-5.9,7.89,5.41,9.37,15.41,3.45,24.27q-39.12,58.59-78.36,117.12c-2.13,3.17-2.81,5.52-.76,9.3,5.22,9.64,4.85,20.64,6.16,31.16,6.06,48.42,11.88,96.88,17.81,145.31,1.49,12.23,2.22,24.59,5.8,36.46,9.44,31.32,28.75,54.45,58,69.14,24.84,12.48,50.11,24,75.45,35.48,48.75,22,77.57,59.73,87.08,112.27a10.13,10.13,0,0,0,2.93,5.54c16,16.66,20.36,36.14,13.3,58-1.22,3.77-.49,4.6,3.19,4.33a98.1,98.1,0,0,1,10,0c9.65.32,16.55,7.15,16.6,16.37,0,9.39-7,16.6-16.85,16.68-18.5.14-37,.05-55.5.05H96.17c-9.86,0-16.85-5.32-18.17-13.69-1.68-10.67,5.67-19.29,16.85-19.38,16.66-.14,33.33,0,50,0H507.61Zm27.56-26a5.86,5.86,0,0,0,1.07.83c2.64,1,5.28,2,7.94,3,42.39,15.54,86.21,22.52,131.29,22.26,3.43,0,4.8-.87,4.52-4.46a107.4,107.4,0,0,1,0-11.49,16.51,16.51,0,0,1,33-.09,89.7,89.7,0,0,1,0,11c-.32,3.88.93,5.08,4.94,5.06,32.67-.16,65.33,0,98-.11,14.33,0,24.38-9.59,24.35-22.87S829.76,730.82,815.59,731q-25.5.22-50.93-1.94A526.76,526.76,0,0,1,584.3,680.47c-77.66-36.38-143.85-88.5-204-148.89-43.23-43.41-82.25-90.47-120.52-138.21-25.53-31.85-50.27-64.37-78.46-94-9.89-10.4-20.24-20.29-32.58-27.86-4.11-2.52-8.2-3.92-13.18-2.8s-9.89,1.35-14.82,2.18c-20.68,3.47-35.11,14.84-41.88,34.78-6.63,19.52-3,37.58,11.63,52.15,28,27.89,56.59,55.11,84.83,82.71,2.3,2.25,3.54,1.88,5.59-.1,4.57-4.38,9.32-8.58,14.1-12.73,7.74-6.72,17.74-6.28,24.07.93,6.12,7,5.36,17-1.88,23.69-4.15,3.86-8.33,7.69-12.66,11.35-2.06,1.73-2.51,2.79-.28,4.93q27.21,26.17,54.15,52.6c1.92,1.87,3.35,2,5.56.52,5.12-3.42,10.29-6.79,15.66-9.81a16.53,16.53,0,0,1,17.53,28,71.43,71.43,0,0,1-8.45,5.33c-3.08,1.59-2.68,2.75-.43,4.93q43.52,42,86.81,84.27c2.11,2.05,3.72,2.55,6.45,1.24,5.55-2.67,11.22-5.12,17-7.3a16.44,16.44,0,0,1,21.24,8.85c3.52,8.23,0,17.43-8.24,21.52-2.37,1.17-4.82,2.18-7.22,3.25.15.4.17.59.28.7A374.2,374.2,0,0,0,499,734.24c2.25,1.19,3.52.65,5.16-.89,4.63-4.32,9.23-8.7,14.15-12.67a16.34,16.34,0,0,1,22.21,1.59,16.59,16.59,0,0,1,.07,22.69C538.87,746.79,537.07,748.51,535.17,750.45ZM522.69,360.18a241.71,241.71,0,0,0,53.58-5.63c2-.43,5.77.56,5.16-4.15-2.32-18-4.31-36-6.6-54.06-.79-6.16-5.8-9.27-12-7.94-3.74.8-7.47,1.73-11.23,2.4-31.65,5.65-63.61,6.34-95.63,6-52.11-.59-92.1-23.11-120-67-17.64-27.76-27.12-58.46-31.57-90.81-.66-4.76-2.21-4.41-5.56-3a207.31,207.31,0,0,0-21.06,10.33c-42.26,24.59-76,58.76-107.1,95.81-1.77,2.12-1.46,3,.71,4.52,12.69,8.72,23.88,19.18,34.48,30.29,18.54,19.43,35.42,40.28,52.25,61.19,22.14,27.51,44,55.23,66.55,82.45,3.33,4,4.78,3.26,7.36-.34a139.42,139.42,0,0,0,10.93-17.29c10.59-20.62,14.29-42.8,14.85-65.69.35-14.27,13.32-21.6,25.65-14.57C426.6,347.28,473.09,359.53,522.69,360.18Zm-133.43,3.38c-.45,2.46-.86,4.56-1.21,6.66-4.88,28.85-15.76,55-35.45,76.95-2.23,2.48-1.89,3.79.11,6.05,18.25,20.57,37,40.67,56.56,60,38.54,38,79.87,72.54,125.57,101.71,3.2,2,4.6,2.48,6.1-1.85,12.39-35.75,35.27-63,67.66-82.34,3.48-2.07,3.42-3.6,1.81-6.9a144.67,144.67,0,0,1-13.54-46.77c-3.43-28.93-7.13-57.83-10.57-86.77-.38-3.19-1.27-3.71-4.35-3.06-54.84,11.58-108.58,6.92-161.4-11.16C410,372.46,399.85,368,389.26,363.56ZM793.6,697.86c6.33,0,12.68-.24,19,.09,4.46.23,4.93-1.1,3.46-5-11.41-30.35-31.62-52.54-61.27-65.74-22.81-10.15-45.35-20.84-67.92-31.5C666.8,586.22,648.2,574.78,633.4,558c-2.07-2.35-3.51-1.43-5.47-.3q-43.6,25.11-58.07,73.27c-.88,2.93-.5,4.36,2.32,5.87C641.39,673.86,715,694.77,793.6,697.86Z"/><path d="M140.52,613.46c-18.49,0-37,.07-55.47,0-11.35-.06-18.55-7-18.25-17.29a16,16,0,0,1,13.1-15.48,31.12,31.12,0,0,1,5.95-.51q55,0,109.94,0c9.17,0,15.69,4.59,17.81,12.35a16.68,16.68,0,0,1-8,18.8c-3.32,1.86-6.95,2.17-10.64,2.17Z"/><path d="M73.49,477.47c19,0,38-.12,57,0,11.32.1,18.64,9.16,16.57,20-1.53,8-8.45,13.11-18.16,13.12q-46.23,0-92.45,0c-6.5,0-13,.15-19.49,0C6.64,510.31-.47,502.77,0,492.94c.45-9,7.56-15.41,17.5-15.45C36.18,477.4,54.83,477.46,73.49,477.47Z"/><path d="M216.79,716.11c-19,0-38,.14-57-.05-12.9-.13-20.73-12.61-15.16-23.78A15.8,15.8,0,0,1,159.53,683q57-.16,113.94,0c9.91,0,16.88,7.3,16.84,16.69s-7.05,16.31-17.06,16.38C254.43,716.2,235.61,716.11,216.79,716.11Z"/></g></g></svg>