<svg xmlns="http://www.w3.org/2000/svg" viewBox="0 0 22.64 20.69"><defs><style>.cls-1{fill:#1d1d1b;}</style></defs><g id="Capa_2" data-name="Capa 2"><g id="Capa_1-2" data-name="Capa 1"><g id="Capa_2-2" data-name="Capa 2"><g id="Capa_1-2-2" data-name="Capa 1-2"><path class="cls-1" d="M15.84,0,6.43,5.47H1a1,1,0,0,0-1,1v7.75a1,1,0,0,0,1,1H6.48l9.36,5.47a.46.46,0,0,0,.45-.44V.44A.46.46,0,0,0,15.84,0Z"/><circle class="cls-1" cx="15.96" cy="10.42" r="2"/><path class="cls-1" d="M20.77,15.19l.09-.09.08-.09h0a6.53,6.53,0,0,0-.21-9l-.29-.29-.4-.4A1.26,1.26,0,0,0,18.31,7l.69.69a4,4,0,0,1,0,5.66l0,0-.48.49a1.25,1.25,0,0,0,1.76,1.77Z"/></g></g></g></g></svg>