<svg xmlns="http://www.w3.org/2000/svg" viewBox="0 0 26.83 20.75"><defs><style>.cls-1{fill:#1d1d1b;}</style></defs><g id="Capa_2" data-name="Capa 2"><g id="Capa_1-2" data-name="Capa 1"><path class="cls-1" d="M15.84,0,6.43,5.47H1a1,1,0,0,0-1,1v7.75a1,1,0,0,0,1,1H6.48l9.36,5.47a.45.45,0,0,0,.45-.44V.44A.45.45,0,0,0,15.84,0Z"/><circle class="cls-1" cx="15.96" cy="10.42" r="2"/><path class="cls-1" d="M20.77,15.19l.09-.09.08-.09,0,0a6.53,6.53,0,0,0-.21-9l-.29-.29-.4-.4A1.26,1.26,0,0,0,18.31,7l.69.69a4,4,0,0,1,0,5.69l-.48.49A1.24,1.24,0,0,0,19.4,16a1.22,1.22,0,0,0,.88-.36Z"/><path class="cls-1" d="M23.24,18.59l.42-.41h0l.33-.33a.84.84,0,0,0,.15-.18A10.87,10.87,0,0,0,23.8,3l-.05-.06L23,2.16a1.14,1.14,0,0,0-1.61,1.62l.74.75h0a8.59,8.59,0,0,1,.07,11.84l-.59.59a1.14,1.14,0,1,0,1.61,1.62Z"/></g></g></svg>