<svg xmlns="http://www.w3.org/2000/svg" viewBox="0 0 29.26 25.57"><defs><style>.cls-1,.cls-2{fill:none;stroke:#000;}.cls-1{stroke-miterlimit:10;}.cls-2{stroke-linecap:round;stroke-linejoin:round;}</style></defs><g id="Capa_2" data-name="Capa 2"><g id="Capa_1-2" data-name="Capa 1"><path class="cls-1" d="M.5,21.39,2.74,4A3.84,3.84,0,0,1,6.56.5H22.7A3.85,3.85,0,0,1,26.53,4l2.23,17.44"/><rect class="cls-1" x="0.5" y="17.71" width="28.26" height="7.36" rx="3.68"/><line class="cls-2" x1="14.13" y1="21.39" x2="22.44" y2="21.39"/><line class="cls-2" x1="24.8" y1="21.39" x2="25.17" y2="21.39"/><path class="cls-2" d="M6.29,10.64a2.12,2.12,0,0,0,2.24,2,2.11,2.11,0,0,0,2.24-2A2,2,0,0,0,9.25,8.81c-.46-.11-.94-.14-1.39-.26A2,2,0,0,1,6.29,6.72a2.12,2.12,0,0,1,2.24-2,2.11,2.11,0,0,1,2.24,2"/><path class="cls-2" d="M12.39,10.64a2.12,2.12,0,0,0,2.24,2,2.11,2.11,0,0,0,2.24-2,2,2,0,0,0-1.52-1.83c-.46-.11-.94-.14-1.39-.26a2,2,0,0,1-1.57-1.83,2.12,2.12,0,0,1,2.24-2,2.11,2.11,0,0,1,2.24,2"/><path class="cls-2" d="M20.48,12.6h-2V4.75h2A2.35,2.35,0,0,1,23,6.93v3.49A2.34,2.34,0,0,1,20.48,12.6Z"/></g></g></svg>