<svg xmlns="http://www.w3.org/2000/svg" viewBox="0 0 17.89 23.19"><defs><style>.cls-1{fill:#1d1d1b;}</style></defs><g id="Capa_2" data-name="Capa 2"><g id="Capa_1-2" data-name="Capa 1"><path class="cls-1" d="M0,14.82A2.35,2.35,0,0,1,.75,13.5a2,2,0,0,1,2.42-.18c.64.43,1.23.93,1.85,1.39l.28.21c0-.12,0-.2,0-.28,0-2.4,0-4.79,0-7.19a.42.42,0,0,0-.23-.4A3.85,3.85,0,1,1,11,2.82,3.82,3.82,0,0,1,9.39,7.05a.4.4,0,0,0-.22.41c0,.32,0,.64,0,1a2,2,0,0,1,1.65-.13A1.92,1.92,0,0,1,12,9.49c1.38-.59,2.09-.35,2.92,1a1.94,1.94,0,0,1,1.54-.24,1.89,1.89,0,0,1,1.45,1.89c0,2,.05,3.92,0,5.88a5.3,5.3,0,0,1-5.36,5.2q-2.22,0-4.44,0a4,4,0,0,1-3.55-2A16.36,16.36,0,0,0,3.2,19.59c-.85-1-1.72-2-2.55-3A7.69,7.69,0,0,1,0,15.44Zm6.28-4.27v6.23c0,.38-.19.6-.49.59a.47.47,0,0,1-.47-.58.91.91,0,0,0-.52-1,1.24,1.24,0,0,1-.18-.14c-.61-.47-1.2-.94-1.82-1.39a1.11,1.11,0,0,0-1.75.45,1.14,1.14,0,0,0,.26,1.23c.86,1,1.72,2,2.56,3C4.44,19.57,5,20.26,5.53,21a2.83,2.83,0,0,0,1.81,1.17A10.79,10.79,0,0,0,9,22.21c1.34,0,2.69,0,4,0a4.26,4.26,0,0,0,3.87-3.67,17.63,17.63,0,0,0,0-1.78c0-1.49,0-3,0-4.47,0-.7-.38-1.14-1-1.14s-.95.44-1,1.12a2.61,2.61,0,0,1,0,.4.44.44,0,0,1-.48.39.44.44,0,0,1-.45-.38c0-.11,0-.23,0-.34,0-.43,0-.87,0-1.3a.93.93,0,0,0-1.12-.84,1,1,0,0,0-.79,1c0,.46,0,.92,0,1.38a.47.47,0,0,1-.93.07,1.09,1.09,0,0,1,0-.31c0-.73,0-1.45,0-2.18a1,1,0,0,0-1-1,1,1,0,0,0-1,1c0,.35,0,.7,0,1s0,.9,0,1.35a.48.48,0,0,1-1,0,2.81,2.81,0,0,1,0-.29V4.76c0-.16,0-.32,0-.48a1,1,0,0,0-1.92.14v6.13M5.32,6c0-.61,0-1.18,0-1.74A1.8,1.8,0,0,1,6.49,2.58a1.81,1.81,0,0,1,2,.28,1.88,1.88,0,0,1,.72,1.56V6A2.83,2.83,0,0,0,10,3,3,3,0,0,0,7.21,1,2.94,2.94,0,0,0,4.47,3a2.79,2.79,0,0,0,.85,3"/></g></g></svg>