<svg xmlns="http://www.w3.org/2000/svg" viewBox="0 0 26.99 24.94"><defs><style>.cls-1{fill:#1d1d1b;}.cls-2{fill:#020203;}</style></defs><g id="Capa_2" data-name="Capa 2"><g id="Capa_1-2" data-name="Capa 1"><circle class="cls-1" cx="4.63" cy="10.73" r="1.05"/><path d="M8.25,0H1A1,1,0,0,0,0,1v22.9a1,1,0,0,0,1,1H8.25a1,1,0,0,0,1-1V1A1,1,0,0,0,8.25,0ZM4.63,21.74a3.31,3.31,0,1,1,3.31-3.31A3.31,3.31,0,0,1,4.63,21.74Zm0-7.7a3.31,3.31,0,1,1,3.31-3.31A3.31,3.31,0,0,1,4.63,14Z"/><circle class="cls-1" cx="4.63" cy="18.43" r="1.05"/><circle class="cls-1" cx="22.36" cy="10.73" r="1.05"/><path d="M26,0H18.74a1,1,0,0,0-1,1v22.9a1,1,0,0,0,1,1H26a1,1,0,0,0,1-1V1A1,1,0,0,0,26,0ZM22.36,21.74a3.31,3.31,0,1,1,3.31-3.31A3.31,3.31,0,0,1,22.36,21.74Zm0-7.7a3.31,3.31,0,1,1,3.31-3.31A3.31,3.31,0,0,1,22.36,14Z"/><circle class="cls-1" cx="22.36" cy="18.43" r="1.05"/><circle class="cls-2" cx="14.33" cy="4.55" r="0.27"/><path class="cls-2" d="M15,5.21v0h0a.89.89,0,0,0,0-1.23l0,0,0-.06a.18.18,0,0,0-.25,0,.2.2,0,0,0,0,.25l.1.09a.56.56,0,0,1,0,.78L14.68,5a.16.16,0,0,0,0,.24.18.18,0,0,0,.12.05.17.17,0,0,0,.12-.05Z"/><path class="cls-2" d="M15.33,5.67l.06,0h0l0,0,0,0a1.48,1.48,0,0,0,0-2h0l-.1-.11a.16.16,0,0,0-.22,0,.16.16,0,0,0,0,.23l.11.1h0a1.18,1.18,0,0,1,0,1.63l-.08.08a.16.16,0,1,0,.22.22Z"/><path class="cls-1" d="M13.38,4.54l1.11-1.11a.38.38,0,0,0,.09-.25A.3.3,0,0,0,14.44,3L13,2a.31.31,0,0,0-.32,0,.3.3,0,0,0-.16.27V3.74L11.81,3a.3.3,0,0,0-.43,0,.31.31,0,0,0,0,.44l1.1,1.11-1.1,1.12a.3.3,0,0,0,.43.43l.74-.74V6.83a.32.32,0,0,0,.16.27.33.33,0,0,0,.32,0l1.41-1a.3.3,0,0,0,.14-.22.35.35,0,0,0-.09-.25Zm-.21-1.7.62.42-.62.63Zm0,3.41v-1l.62.63Z"/></g></g></svg>