<svg xmlns="http://www.w3.org/2000/svg" viewBox="0 0 35.54 25.86"><g id="Capa_2" data-name="Capa 2"><g id="Capa_1-2" data-name="Capa 1"><path d="M17.65,0C21,0,24.38,0,27.74,0a7.32,7.32,0,0,1,6.77,4.26,7,7,0,0,1,.74,3.65,7.57,7.57,0,0,1-5.17,6.72A7.41,7.41,0,0,1,27.7,15q-10,0-20,0A7.55,7.55,0,0,1,.43,10,7.2,7.2,0,0,1,0,7.43,7.56,7.56,0,0,1,5.41.32,7.17,7.17,0,0,1,7.51,0Zm0,2.48H7.55a4.89,4.89,0,0,0-1.47.21A5,5,0,0,0,2.51,7a4.85,4.85,0,0,0,1.3,3.88,4.65,4.65,0,0,0,3.51,1.64c6.8,0,13.61,0,20.41,0a4.72,4.72,0,0,0,2.19-.5A4.93,4.93,0,0,0,32.76,8a4.73,4.73,0,0,0-1-3.5A4.87,4.87,0,0,0,27.8,2.5Z"/><path d="M9.1,21.89c0-.76,0-1.53,0-2.29,0-.17,0-.24.22-.24.57,0,1.15,0,1.72,0a2,2,0,0,1,.8.16,1.32,1.32,0,0,1,.33,2.17c-.12.08-.11.13,0,.22a1.24,1.24,0,0,1,.48,1.36,1.34,1.34,0,0,1-1.34,1.13c-.69,0-1.38,0-2.07,0-.15,0-.14-.09-.14-.19Zm.92,1v.57c0,.1,0,.15.14.15.35,0,.69,0,1,0a.65.65,0,0,0,0-1.3h-.48c-.2,0-.46-.08-.6,0S10.05,22.72,10,22.89Zm0-2.08v.48c0,.09,0,.15.12.15.33,0,.66,0,1,0a.57.57,0,0,0,.55-.53.59.59,0,0,0-.45-.69,3.63,3.63,0,0,0-.57,0C10,20.18,10,20.18,10,20.81Z"/><path d="M2.94,21.17c0-.51,0-1,0-1.53,0-.19,0-.28.24-.25s.5-.1.64.05,0,.41,0,.62c0,.88,0,1.75,0,2.62A1.72,1.72,0,0,1,3,24.23a1.84,1.84,0,0,1-2.71-1,2.21,2.21,0,0,1-.06-.57c0-1,0-2,0-3,0-.19.06-.27.25-.25s.48-.1.62.05,0,.39,0,.6c0,.83,0,1.67,0,2.5a1.77,1.77,0,0,0,.06.52.86.86,0,0,0,1,.57.85.85,0,0,0,.75-.92Z"/><path d="M6.42,20.14H6.28c-.44,0-.66.19-.69.59s.18.56.62.65a5.27,5.27,0,0,1,1.13.23,1.3,1.3,0,0,1,.82,1.5,1.41,1.41,0,0,1-1.29,1.32,3,3,0,0,1-2.34-.57c-.13-.1-.13-.15,0-.26a2.89,2.89,0,0,0,.29-.32c.12-.18.22-.21.41-.06a1.84,1.84,0,0,0,1.29.43,1,1,0,0,0,.5-.14.63.63,0,0,0,.25-.69c0-.23-.22-.33-.43-.39s-.72-.09-1.07-.21a1.4,1.4,0,0,1-1.07-1.5,1.43,1.43,0,0,1,1.25-1.36,2.81,2.81,0,0,1,2,.43c.11.06.11.12,0,.21a5.72,5.72,0,0,0-.32.48c-.07.12-.12.14-.24,0A1.38,1.38,0,0,0,6.42,20.14Z"/><path d="M21.46,23.33c0-.76,0-1.53,0-2.29,0-.22.07-.27.26-.25s.21,0,.32,0,.31-.05.31.21.1.05.15,0a1.13,1.13,0,0,1,1.45,0,1.18,1.18,0,0,1,.41.77,4.31,4.31,0,0,1,0,1.64c-.15.76-.4,1-1.15,1.08a.91.91,0,0,1-.7-.28s-.07-.1-.14-.07,0,.1,0,.15c0,.44,0,.89,0,1.33,0,.19-.06.24-.23.23a1.62,1.62,0,0,0-.44,0c-.16,0-.21,0-.21-.21C21.46,24.88,21.46,24.11,21.46,23.33Zm2.07-.67a5.31,5.31,0,0,0,0-.58A.59.59,0,0,0,22.36,22a4.46,4.46,0,0,0,0,1.21.52.52,0,0,0,.47.44.56.56,0,0,0,.63-.31C23.58,23.11,23.5,22.85,23.53,22.66Z"/><path d="M32.82,21.91a5.66,5.66,0,0,0,.08,1.15.85.85,0,0,0,1.06.57.69.69,0,0,0,.62-.58.16.16,0,0,1,.18-.14c.21,0,.41,0,.62,0s.18.06.15.2a1.66,1.66,0,0,1-1.43,1.34,1.83,1.83,0,0,1-1.77-.54,1.85,1.85,0,0,1-.41-1.14,14.1,14.1,0,0,1,0-1.72A1.69,1.69,0,0,1,33,19.4a2,2,0,0,1,2.28.72,2.21,2.21,0,0,1,.21.61c0,.13,0,.21-.15.2h-.6c-.12,0-.19,0-.21-.18a.76.76,0,0,0-.75-.61.79.79,0,0,0-.91.55A4.51,4.51,0,0,0,32.82,21.91Z"/><path d="M27,22.91c-.29,0-.59,0-.89,0s-.2.06-.16.21c.18.66.72.83,1.28.36.19-.16.29-.14.43,0l.14.12c.28.24.28.24,0,.47a1.67,1.67,0,0,1-2.52-.38,2.38,2.38,0,0,1-.21-1.39,1.93,1.93,0,0,1,.49-1.16,1.5,1.5,0,0,1,2.44.52,4,4,0,0,1,.09,1.14c0,.1-.08.09-.14.09Zm-.44-.69H27c.13,0,.17-.05.16-.18a.61.61,0,0,0-.63-.56.69.69,0,0,0-.6.62c0,.09.05.12.13.11Z"/><path d="M17.58,20.8h.75c.14,0,.19.07.23.19.21.67.43,1.33.64,2,0,.06,0,.14.1.13s.06-.08.07-.12c.17-.52.33-1.05.49-1.57l.15-.5a.15.15,0,0,1,.16-.12H21a10,10,0,0,1-.34,1c-.33.93-.65,1.85-1,2.76a4.24,4.24,0,0,1-.3.77,1,1,0,0,1-1.15.49c-.25,0-.05-.37-.11-.56s0-.16.14-.15h.18a.19.19,0,0,0,.16-.07A1.34,1.34,0,0,0,18.77,24C18.37,22.92,18,21.88,17.58,20.8Z"/><path d="M17.14,22.31c0,.64,0,1.28,0,1.93,0,.15-.05.2-.2.19a2.26,2.26,0,0,0-.52,0c-.17,0-.2-.06-.2-.21,0-1.26,0-2.53,0-3.79,0-.2-.06-.27-.26-.25s-.58,0-.87,0-.21,0-.21-.19c0-.62,0-.62.61-.62h2.78c.16,0,.22.05.2.21a1.7,1.7,0,0,0,0,.39c0,.19-.06.23-.24.22s-.58,0-.87,0-.24.06-.24.25C17.14,21.05,17.14,21.68,17.14,22.31Z"/><path d="M29.91,22h1c.12,0,.16,0,.15.15s.09.52,0,.67-.42,0-.64,0H29c-.14,0-.19,0-.18-.19s-.09-.5,0-.64.41,0,.62,0S29.75,22,29.91,22Z"/><path d="M17.65,9.47H7.88a2,2,0,0,1-1.63-.68,1.94,1.94,0,0,1,.94-3.13,1.73,1.73,0,0,1,.5-.07H27.57a1.95,1.95,0,1,1-.15,3.89c-2.72,0-5.44,0-8.16,0Z"/></g></g></svg>