<svg xmlns="http://www.w3.org/2000/svg" viewBox="0 0 26.84 26.84"><defs><style>.cls-1{fill:#1d1d1b;}</style></defs><g id="Capa_2" data-name="Capa 2"><g id="Capa_1-2" data-name="Capa 1"><path d="M13.42,0A13.42,13.42,0,1,0,26.84,13.42,13.42,13.42,0,0,0,13.42,0Zm0,24.13A10.74,10.74,0,1,1,24.15,13.4,10.73,10.73,0,0,1,13.42,24.13Z"/><path class="cls-1" d="M13.42,16.09A2.61,2.61,0,1,1,16,13.48,2.61,2.61,0,0,1,13.42,16.09Zm0-4.27a1.67,1.67,0,1,0,1.66,1.66A1.66,1.66,0,0,0,13.42,11.82Z"/><rect class="cls-1" x="12.94" y="15.62" width="0.95" height="9.27"/><rect class="cls-1" x="12.94" y="2.31" width="0.95" height="9.04"/><rect class="cls-1" x="15.64" y="12.92" width="9.25" height="0.95"/><rect class="cls-1" x="2.16" y="12.92" width="9.2" height="0.95"/><rect class="cls-1" x="13.62" y="8.05" width="9.35" height="0.95" transform="translate(-0.67 15.43) rotate(-45)"/><rect class="cls-1" x="4.34" y="17.54" width="8.94" height="0.95" transform="translate(-10.16 11.5) rotate(-45)"/><rect class="cls-1" x="8.18" y="4.12" width="0.95" height="9.02" transform="translate(-3.57 8.65) rotate(-45)"/><rect class="cls-1" x="17.81" y="13.44" width="0.95" height="9.65" transform="translate(-7.56 18.27) rotate(-45)"/></g></g></svg>