<svg xmlns="http://www.w3.org/2000/svg" viewBox="0 0 24.25 18.65"><g id="Capa_2" data-name="Capa 2"><g id="Capa_1-2" data-name="Capa 1"><path d="M12.6,0A16.32,16.32,0,0,1,23.86,4.8a1.05,1.05,0,0,1-.35,1.84,1.1,1.1,0,0,1-1.12-.33,14.24,14.24,0,0,0-4.38-3,14.64,14.64,0,0,0-16.11,3,1.1,1.1,0,0,1-1.55.14,1.05,1.05,0,0,1,0-1.58A16.68,16.68,0,0,1,3.77,2.23,17.2,17.2,0,0,1,12.6,0Z"/><path d="M12.13,5a11.64,11.64,0,0,1,8.24,3.37,1,1,0,1,1-1.48,1.48A9.35,9.35,0,0,0,14,7.27,9.52,9.52,0,0,0,5.37,9.84,1.07,1.07,0,0,1,4,10a1,1,0,0,1-.11-1.64,11.54,11.54,0,0,1,5-2.92A11.21,11.21,0,0,1,12.13,5Z"/><path d="M12.13,10a6.71,6.71,0,0,1,4.73,1.93,1,1,0,1,1-1.46,1.5,4.64,4.64,0,0,0-6.53,0,1,1,0,1,1-1.45-1.51A6.71,6.71,0,0,1,12.13,10Z"/><path d="M12.12,18.65a1.93,1.93,0,1,1,1.94-1.9A1.92,1.92,0,0,1,12.12,18.65Z"/></g></g></svg>