<svg xmlns="http://www.w3.org/2000/svg" viewBox="0 0 26.4 26.79"><g id="Capa_2" data-name="Capa 2"><g id="Capa_1-2" data-name="Capa 1"><path d="M12.5,12.9h.22c.56,0,1.12,0,1.67,0H16c.54,0,1.08,0,1.58,0H19l1.74,0h1.36l2.54,0h1.1c.47,0,.69-.22.69-.7V.64a.6.6,0,0,0-.19-.51A.65.65,0,0,0,25.6,0L12.66,1.91a.63.63,0,0,0-.55.72v9.65a.57.57,0,0,0,.16.45ZM25.74,1l0-.24,0,0,.12.3A.34.34,0,0,1,25.74,1Zm0-.41,0,.05h0V.52ZM13.11,2.86,25.4,1.07V11.79h-.79l-2.56,0H20.7l-1.75,0H16c-1,0-1.91,0-2.87,0Z"/><path d="M25.71,14h-6v0h-7a.59.59,0,0,0-.67.68v9.62a.64.64,0,0,0,.59.68l1.45.2,11.51,1.63h.18a.62.62,0,0,0,.38-.13.67.67,0,0,0,.19-.54V14.69A.61.61,0,0,0,25.71,14ZM25.4,25.73,14.28,24.16,13.1,24V15h5.65l6.65,0Z"/><path d="M10.25,13.9H9c-1.16,0-2.33,0-3.49,0h0c-.85,0-1.71,0-2.56,0H.69A.71.71,0,0,0,.18,14a.66.66,0,0,0-.17.51v8a.63.63,0,0,0,.61.67l1,.13,8.73,1.21h.11a.6.6,0,0,0,.41-.15.67.67,0,0,0,.18-.59V14.68C11,14.13,10.8,13.9,10.25,13.9ZM1.73,22.36,1,22.26V14.84H5.49c1.16,0,2.33,0,3.5,0h1v8.61Z"/><path d="M10.84,2.42l-.27-.18-.24,0-.81.12L3,3.28.6,3.59a.65.65,0,0,0-.6.7C0,5.83,0,7.37,0,8.91v3.42a.62.62,0,0,0,.19.48A.6.6,0,0,0,.64,13h0l.5,0H5.51l.5-.05h4.36a.64.64,0,0,0,.51-.21.63.63,0,0,0,.14-.5V2.91A.56.56,0,0,0,10.84,2.42ZM5,11.91V12H1V8.91C1,7.46,1,6,1,4.55l2.1-.28,6.55-.89.37,0v8.58Z"/></g></g></svg>