<svg xmlns="http://www.w3.org/2000/svg" viewBox="0 0 21.85 29.29"><defs><style>.cls-1{fill:#1d1d1b;}</style></defs><g id="Capa_2" data-name="Capa 2"><g id="Capa_1-2" data-name="Capa 1"><path d="M17.7,8c-.13-.49-.25-1-.35-1.45v.59C17.47,7.42,17.59,7.7,17.7,8Z"/><path d="M6,14c.26-1.1.53-2.23.85-3.32A17.34,17.34,0,0,0,7.26,4C7.13,2.63,7,1.3,6.89,0H5C5,2.63,5,5.29,4.9,7.92s-.27,5.23-.47,7.78c-.06.75-.12,1.5-.17,2.25l-.18,2.19c-.17,2-.34,4-.35,6,0,.34,0,.68,0,1l0-.26a79,79,0,0,1,1.83-11C5.71,15.29,5.86,14.67,6,14Z"/><path d="M0,13.86V25.4a1.85,1.85,0,0,0,.13.66c0-1.43,0-2.87,0-4.3C.05,19.16,0,16.52,0,13.86Z"/><path d="M1.79,3.54c0-1.17-.07-2.35-.1-3.52A1.82,1.82,0,0,0,.46.65c0,2.26,0,4.52,0,6.74v.93c0,4.81,0,9.52.09,14.19,0,1.45.08,2.91.15,4.34A1.59,1.59,0,0,0,1,27a39,39,0,0,1,.2-6A135.36,135.36,0,0,0,1.79,3.54Z"/><path d="M17.35,1.86a1.64,1.64,0,0,0-.08-.5c0,.5,0,1,.08,1.49Z"/><path d="M15,4A5.09,5.09,0,0,0,15.88,7a9.55,9.55,0,0,1,1.47,3V8.65c-.15-.39-.31-.77-.47-1.15s-.29-.68-.43-1a18.17,18.17,0,0,1-1-5.37c0-.38,0-.74-.06-1.1h-.49V.59Z"/><path d="M7.25,16.66c.22-.8.36-1.65.5-2.48l0-.22a20.75,20.75,0,0,1,2.45-7.23A10.11,10.11,0,0,0,11.31,0H7.65V0c.14,1,.28,2,.4,3a20.35,20.35,0,0,1-.58,7.51l-.15.58c-.76,3.12-1.54,6.34-2.15,9.56-.37,1.94-.6,4-.83,5.91a1.79,1.79,0,0,0,0,.23c.2-.82.43-1.62.67-2.39C5.84,21.7,6.61,19,7.25,16.66Z"/><path d="M2.34,5.64c0-.07,0-.13,0-.2.06-.7.12-1.42.15-2.13,0-1.21.08-2.3.11-3.31H2.22Q2.31,2.82,2.34,5.64Z"/><path d="M17.24,6.87c0,.09.07.18.11.26V6.54A26.49,26.49,0,0,1,16.7.46a1.74,1.74,0,0,0-.81-.41,31.26,31.26,0,0,0,.56,4.2A12.71,12.71,0,0,0,17.24,6.87Z"/><path d="M2.31,22.83C2.22,20.88,2.2,18.9,2.19,17V14.64c-.13,2.6-.31,5.19-.58,7.74a30.52,30.52,0,0,0-.08,4.85,1.87,1.87,0,0,0,.34,0h.45a30.57,30.57,0,0,0,0-4.28Z"/><path d="M13.89,13.47c-.56-.09-1.14.28-1.66,1.06a8.78,8.78,0,0,0-.82,1.62,7.47,7.47,0,0,1,3.73-1h.13C15,14.19,14.48,13.57,13.89,13.47Z"/><path d="M4.41,0H3.16c0,.82,0,1.63-.05,2.42S3,3.79,3,4.46s-.13,1.35-.14,2c-.07,3.23-.07,6.54-.08,9.38,0,1.93,0,4,.07,6.48,0,.45,0,.92.08,1.37A20.25,20.25,0,0,1,3,25.77c0,.5-.06,1-.11,1.49h.24c0-.13,0-.26,0-.39l.09-1.46c0-.65.07-1.29.11-1.94.08-1.52.17-3.08.32-4.62A145.44,145.44,0,0,0,4.41,4.13Z"/><path d="M9,18.28a47.43,47.43,0,0,0,.93-5,15.93,15.93,0,0,1,1.33-4.8,7.35,7.35,0,0,1,.54-.93,2.2,2.2,0,0,1,1.68-1.08,2.17,2.17,0,0,1,1.73,1,8.05,8.05,0,0,1,1.28,3.28c.14.65.28,1.29.41,1.94l.42,1.91v-2A15.57,15.57,0,0,1,17,11.08,6.49,6.49,0,0,0,15.82,8a7.77,7.77,0,0,1-1.48-5c0-1.07,0-2.09,0-3.06h-.86c0,.17.1.34.14.51s.12.43.19.64.07.24.11.37a4.24,4.24,0,0,1-.88,4.26l-.43.48c-.48.54-1,1.09-1.45,1.66A5.65,5.65,0,0,0,10,10.38c-1.07,5.15-2.43,10-3.62,14.13a20,20,0,0,0-.57,2.75H6.4a27.8,27.8,0,0,1,1.2-4.41c0-.05,0-.1,0-.14A7.54,7.54,0,0,1,9,18.28Z"/><path d="M7,27.26h1c.09-.52.19-1,.3-1.55a7.62,7.62,0,0,1-.48-1.49C7.41,25.31,7.16,26.31,7,27.26Z"/><path d="M11.5,14.59a3.12,3.12,0,0,1,1.39-1.48,1.75,1.75,0,0,1,1.4-.16,2.18,2.18,0,0,1,1.23,1.22,6.48,6.48,0,0,1,.37,1,6.6,6.6,0,0,1,.87.15l-.21-1.18c-.13-.73-.26-1.48-.42-2.22s-.42-1.77-.66-2.63l-.16-.62a2.32,2.32,0,0,0-.24-.47l0-.07a1.83,1.83,0,0,0-1.45-1h0a1.82,1.82,0,0,0-1.45,1.06,11.27,11.27,0,0,0-1.4,4c-.28,1.56-.52,3.11-.72,4.42,0,.24-.1.47-.14.71a7.35,7.35,0,0,1,.79-.67C10.92,16,11.2,15.27,11.5,14.59Z"/><path d="M6.86,20.55,7,20c.7-2.64,1.42-5.37,2-8.1A10.6,10.6,0,0,1,11.84,6.2a5.76,5.76,0,0,0,1.07-1.42A4.72,4.72,0,0,0,13.15.91c-.1-.3-.18-.6-.26-.91h-1A16.81,16.81,0,0,1,12,1.87a8.82,8.82,0,0,1-.89,4.28l-.15.3c-.43.88-.87,1.78-1.27,2.69a18.34,18.34,0,0,0-1.31,4.57,52.86,52.86,0,0,1-2,8.2c-.54,1.63-1,3.33-1.46,5l0,.14c0,.07,0,.16,0,.24h.41a42.37,42.37,0,0,1,1.17-5C6.55,21.67,6.71,21.11,6.86,20.55Z"/><path d="M8.92,27.26H9a.59.59,0,0,0,0-.13L9,27A1.7,1.7,0,0,1,8.92,27.26Z"/><path d="M15.14,15.87a6.71,6.71,0,1,0,6.71,6.71A6.7,6.7,0,0,0,15.14,15.87Zm0,12.06a5.37,5.37,0,1,1,5.36-5.36A5.36,5.36,0,0,1,15.14,27.93Z"/><path class="cls-1" d="M15.14,23.91a1.31,1.31,0,1,1,1.3-1.3A1.31,1.31,0,0,1,15.14,23.91Zm0-2.13a.83.83,0,1,0,.83.83A.83.83,0,0,0,15.14,21.78Z"/><rect class="cls-1" x="14.9" y="23.68" width="0.47" height="4.63"/><rect class="cls-1" x="14.9" y="17.02" width="0.47" height="4.52"/><rect class="cls-1" x="16.25" y="22.33" width="4.62" height="0.47"/><rect class="cls-1" x="9.51" y="22.33" width="4.6" height="0.47"/><rect class="cls-1" x="15.24" y="19.89" width="4.68" height="0.47" transform="translate(-9.08 18.32) rotate(-45)"/><rect class="cls-1" x="10.6" y="24.64" width="4.47" height="0.47" transform="translate(-13.83 16.36) rotate(-45)"/><rect class="cls-1" x="12.52" y="17.93" width="0.47" height="4.51" transform="translate(-10.54 14.93) rotate(-45)"/><rect class="cls-1" x="17.33" y="22.59" width="0.47" height="4.82" transform="translate(-12.53 19.75) rotate(-45)"/></g></g></svg>