<svg xmlns="http://www.w3.org/2000/svg" viewBox="0 0 17.7 27.26"><defs><style>.cls-1{fill:#1d1d1b;}</style></defs><g id="Capa_2" data-name="Capa 2"><g id="Capa_1-2" data-name="Capa 1"><path class="cls-1" d="M17.35,6.54v.59c.12.29.24.57.35.86C17.57,7.5,17.45,7,17.35,6.54Z"/><path class="cls-1" d="M4.43,15.7c-.06.75-.12,1.5-.17,2.25l-.18,2.19c-.17,2-.34,4-.35,6,0,.34,0,.68,0,1l0-.26a79,79,0,0,1,1.83-11c.16-.62.31-1.24.45-1.87.26-1.1.53-2.23.85-3.32A17.34,17.34,0,0,0,7.26,4C7.13,2.63,7,1.3,6.89,0H5C5,2.63,5,5.29,4.9,7.92S4.63,13.15,4.43,15.7Z"/><path class="cls-1" d="M0,13.86V25.4a1.85,1.85,0,0,0,.13.66c0-1.43,0-2.87,0-4.3C.05,19.16,0,16.52,0,13.86Z"/><path class="cls-1" d="M1.18,21.08A135.36,135.36,0,0,0,1.79,3.54c0-1.17-.07-2.35-.1-3.52A1.82,1.82,0,0,0,.46.65c0,2.26,0,4.52,0,6.74v.93c0,4.81,0,9.52.09,14.19,0,1.45.08,2.91.15,4.34A1.59,1.59,0,0,0,1,27,39,39,0,0,1,1.18,21.08Z"/><path class="cls-1" d="M17.35,1.86a1.64,1.64,0,0,0-.08-.5c0,.5,0,1,.08,1.49Z"/><path class="cls-1" d="M15,4A5.09,5.09,0,0,0,15.88,7a9.55,9.55,0,0,1,1.47,3V8.65c-.15-.39-.31-.77-.47-1.15s-.29-.68-.43-1a18.17,18.17,0,0,1-1-5.37c0-.38,0-.74-.06-1.1h-.49V.59Z"/><path class="cls-1" d="M8.05,3a20.35,20.35,0,0,1-.58,7.51l-.15.58c-.76,3.12-1.54,6.34-2.15,9.56-.37,1.94-.6,4-.83,5.91a1.79,1.79,0,0,0,0,.23c.2-.82.43-1.62.67-2.39C5.84,21.7,6.61,19,7.25,16.66c.22-.8.36-1.65.5-2.48l0-.22a20.75,20.75,0,0,1,2.45-7.23A10.11,10.11,0,0,0,11.31,0H7.65V0C7.79,1,7.93,2,8.05,3Z"/><path class="cls-1" d="M2.35,5.44c.06-.7.12-1.42.15-2.13,0-1.21.08-2.3.11-3.31H2.22q.09,2.82.12,5.64C2.34,5.57,2.35,5.51,2.35,5.44Z"/><path class="cls-1" d="M17.24,6.87c0,.09.07.18.11.26V6.54A26.49,26.49,0,0,1,16.7.46a1.74,1.74,0,0,0-.81-.41,31.26,31.26,0,0,0,.56,4.2A12.71,12.71,0,0,0,17.24,6.87Z"/><path class="cls-1" d="M2.31,23v-.15C2.22,20.88,2.2,18.9,2.19,17V14.64c-.13,2.6-.31,5.19-.58,7.74a30.52,30.52,0,0,0-.08,4.85,1.87,1.87,0,0,0,.34,0h.45A30.57,30.57,0,0,0,2.31,23Z"/><path class="cls-1" d="M15.62,26c0-2.11,0-4.26,0-6.34v-.88a12.89,12.89,0,0,0-.29-3.46c-.29-1.08-.81-1.76-1.44-1.86s-1.14.28-1.66,1.06a8.76,8.76,0,0,0-1.11,2.4c-.44,1.52-.93,3.22-1.4,5,.18-.51.37-1,.59-1.57a10.57,10.57,0,0,1,1.25-2.22c.7-1,1.38-1,1.82-.72a2.34,2.34,0,0,1,1.26,2.23c0,.43,0,.86,0,1.29s0,1.1,0,1.65c0,.9.06,2,.18,3a15.94,15.94,0,0,1,.11,1.65h.73C15.63,26.85,15.63,26.44,15.62,26Z"/><path class="cls-1" d="M14.17,25c-.1-1.53-.14-3.08-.16-4.41v-.08a4.74,4.74,0,0,0-.3-1.9c-.19-.43-.45-.69-.72-.73a.81.81,0,0,0-.67.32,7.16,7.16,0,0,0-1.33,2c-.17.39-.33.79-.49,1.19a5.87,5.87,0,0,1,.84-1.29,1.35,1.35,0,0,1,1.35-.57c.47.13.8.62.93,1.39a9.84,9.84,0,0,1,.07,2.66,18.37,18.37,0,0,0,0,3.7h.69c0-.43-.05-.86-.09-1.28S14.19,25.34,14.17,25Z"/><path class="cls-1" d="M3.2,25.41c0-.65.07-1.29.11-1.94.08-1.52.17-3.08.32-4.62A145.44,145.44,0,0,0,4.41,4.13V0H3.16c0,.82,0,1.63-.05,2.42S3,3.79,3,4.46s-.13,1.35-.14,2c-.07,3.23-.07,6.54-.08,9.38,0,1.93,0,4,.07,6.48,0,.45,0,.92.08,1.37A20.25,20.25,0,0,1,3,25.77c0,.5-.06,1-.11,1.49h.24c0-.13,0-.26,0-.39Z"/><path class="cls-1" d="M13.19,23.16a7.84,7.84,0,0,0-.11-2.22c-.1-.47-.28-.77-.51-.84s-.48,0-.77.33a5.41,5.41,0,0,0-1.28,2.33,27.53,27.53,0,0,0-1,4.5h.38c.18-.79.39-1.57.6-2.33l.15-.56a3.13,3.13,0,0,1,.44-.86.85.85,0,0,1,.82-.43,1,1,0,0,1,.7.77,3.85,3.85,0,0,1,.12.94c0,.49,0,1,.05,1.46l0,1h.28A24.15,24.15,0,0,1,13.19,23.16Z"/><path class="cls-1" d="M15.82,8a7.77,7.77,0,0,1-1.48-5c0-1.07,0-2.09,0-3.06h-.86c0,.17.1.34.14.51s.12.43.19.64.07.24.11.37a4.24,4.24,0,0,1-.88,4.26l-.43.48c-.48.54-1,1.09-1.45,1.66A5.65,5.65,0,0,0,10,10.38c-1.07,5.15-2.43,10-3.62,14.13a20,20,0,0,0-.57,2.75H6.4a28.27,28.27,0,0,1,1.4-5,40.15,40.15,0,0,0,2.16-9,15.93,15.93,0,0,1,1.33-4.8,7.35,7.35,0,0,1,.54-.93,2.2,2.2,0,0,1,1.68-1.08,2.17,2.17,0,0,1,1.73,1,8.05,8.05,0,0,1,1.28,3.28c.14.65.28,1.29.41,1.94l.42,1.91v-2A15.57,15.57,0,0,1,17,11.08,6.49,6.49,0,0,0,15.82,8Z"/><path class="cls-1" d="M16.55,14.16c-.13-.73-.26-1.48-.42-2.22s-.42-1.77-.66-2.63l-.16-.62a2.32,2.32,0,0,0-.24-.47l0-.07a1.83,1.83,0,0,0-1.45-1h0a1.82,1.82,0,0,0-1.45,1.06,11.27,11.27,0,0,0-1.4,4c-.28,1.56-.52,3.11-.72,4.42a29.16,29.16,0,0,1-1.44,5.13c-.16.47-.33.94-.49,1.42A34.73,34.73,0,0,0,7,27.26h1a78.55,78.55,0,0,1,2.33-9.45,26.42,26.42,0,0,1,1.25-3.22,3.12,3.12,0,0,1,1.39-1.48,1.75,1.75,0,0,1,1.4-.16,2.18,2.18,0,0,1,1.23,1.22,6.74,6.74,0,0,1,.61,2.92c0,1.11,0,2.24,0,3.33s0,1.9,0,2.85c0,.71,0,1.41,0,2.11s0,1.17,0,1.76a1.86,1.86,0,0,0,1.22-1.74V18.06c-.06-.23-.11-.45-.16-.68C16.93,16.32,16.73,15.22,16.55,14.16Z"/><path class="cls-1" d="M11.53,25.89c.22,0,.4.22.5.54a6.73,6.73,0,0,1,.21.83h.07c0-.35,0-.7,0-1s0-.83,0-1.25v-.18a3.67,3.67,0,0,0-.08-.75c-.07-.21-.16-.34-.26-.36s-.22.06-.34.22a1.22,1.22,0,0,0-.19.32,16.52,16.52,0,0,0-.93,3h.08a5.86,5.86,0,0,1,.47-1A.62.62,0,0,1,11.53,25.89Z"/><path class="cls-1" d="M11.49,26.5h0s-.1,0-.17.17a6.21,6.21,0,0,0-.26.59h.69c0-.19-.08-.37-.13-.56S11.52,26.5,11.49,26.5Z"/><path class="cls-1" d="M6.86,20.55,7,20c.7-2.64,1.42-5.37,2-8.1A10.6,10.6,0,0,1,11.84,6.2a5.76,5.76,0,0,0,1.07-1.42A4.72,4.72,0,0,0,13.15.91c-.1-.3-.18-.6-.26-.91h-1c.09.62.12,1.25.15,1.87a9,9,0,0,1-.9,4.28l-.15.3c-.43.88-.87,1.78-1.27,2.69a18.34,18.34,0,0,0-1.31,4.57,52.86,52.86,0,0,1-2,8.2c-.54,1.63-1,3.33-1.46,5l0,.14c0,.07,0,.16,0,.24h.41a42.37,42.37,0,0,1,1.17-5C6.55,21.67,6.71,21.11,6.86,20.55Z"/><path class="cls-1" d="M8.92,27.26H9c.14-.89.28-1.79.47-2.67C9.25,25.47,9.07,26.36,8.92,27.26Z"/></g></g></svg>