<svg xmlns="http://www.w3.org/2000/svg" viewBox="0 0 17.34 27.24"><g id="Capa_2" data-name="Capa 2"><g id="Capa_1-2" data-name="Capa 1"><path d="M15.48,2.48H13V1.24A1.23,1.23,0,0,0,11.76,0H5.57A1.24,1.24,0,0,0,4.33,1.24V2.48H1.86A1.85,1.85,0,0,0,0,4.33V25.39a1.85,1.85,0,0,0,1.86,1.85H15.48a1.86,1.86,0,0,0,1.86-1.85V4.33A1.86,1.86,0,0,0,15.48,2.48Zm.19,22.28a.91.91,0,0,1-.91.91H2.57a.9.9,0,0,1-.9-.91V20.17a.9.9,0,0,1,.9-.91H14.76a.91.91,0,0,1,.91.91Zm0-7.46a.91.91,0,0,1-.91.91H2.57a.9.9,0,0,1-.9-.91V12.71a.9.9,0,0,1,.9-.91H14.76a.91.91,0,0,1,.91.91Zm0-7.46a.91.91,0,0,1-.91.91H2.57a.9.9,0,0,1-.9-.91V5.25a.9.9,0,0,1,.9-.91H14.76a.91.91,0,0,1,.91.91Z"/></g></g></svg>