<svg xmlns="http://www.w3.org/2000/svg" viewBox="0 0 35.37 21.56"><g id="Capa_2" data-name="Capa 2"><g id="Capa_1-2" data-name="Capa 1"><path d="M33.07,6.55C29.87.79,26.66.12,26.54.09s-5.24-1-8.81,4.48A10.31,10.31,0,0,0,17,5.94,12,12,0,0,0,9.57,3.73,10.82,10.82,0,0,0,2.29,6.8C.57,8.66-.19,11.22,0,14.42c0,.31.37,3.1,1.34,4.2.64.73,3,2.94,7.85,2.94.42,0,.86,0,1.33,0,.25,0,6-.13,9-3.33a10.6,10.6,0,0,0,1.73,1.43,10.85,10.85,0,0,0,5.21,1.33,10.25,10.25,0,0,0,3.79-.72c4.41-1.76,4.88-4.11,4.93-4.59S36.05,11.93,33.07,6.55Zm.31,10.06c-1.07.59-2.77-.21-4.45-1.87l1-.86h0c1.1-.68,1-2.92-.24-5.16s-3.12-3.54-4.27-2.94h0l-1.13.48C23.72,4,23.94,2.09,25,1.5a1.67,1.67,0,0,1,.8-.2c1.53,0,3.71,1.71,5.52,4.31.29.44.58.9.87,1.43,2.95,5.32,2,8.31,2,8.34l0,.14h0A1.88,1.88,0,0,1,33.38,16.61Zm-9-9.86.33-.14a3.17,3.17,0,0,0-.14.81C24.48,7.19,24.42,7,24.36,6.75ZM25,7.84c-.05-.81.15-1.39.54-1.61a.91.91,0,0,1,.43-.1c.92,0,2.26,1.15,3.19,2.83a7.73,7.73,0,0,1,.51,1.1,7.9,7.9,0,0,0-.46-1c-1.05-1.91-2.54-3-3.44-2.47-.46.26-.66.86-.59,1.7a7,7,0,0,0,.86,2.53,6.89,6.89,0,0,0,1.69,2.07,2.24,2.24,0,0,0,1.26.52,1,1,0,0,0,.49-.12c.46-.26.67-.86.59-1.7,0-.17-.05-.36-.09-.55.26,1.16.13,2.11-.42,2.42-.87.48-2.51-.76-3.6-2.7l-.06-.12A7,7,0,0,1,25,7.84Zm4.24,5c-.27.15-.71,0-1.2-.36a6.24,6.24,0,0,1-1.56-1.91,6.32,6.32,0,0,1-.8-2.34c-.06-.62.06-1.06.33-1.21A.55.55,0,0,1,26.31,7c.62,0,1.68.84,2.51,2.33a6.48,6.48,0,0,1,.79,2.34C29.67,12.28,29.55,12.72,29.28,12.87Zm.56-2.46a.93.93,0,0,1,0,.13A.93.93,0,0,0,29.84,10.41ZM29,14.05l-.36.33c-.21-.22-.41-.45-.62-.7A2.65,2.65,0,0,0,29,14.05ZM9.89,4.83c2.86,0,4.79,1,4.79,2s-1.93,2-4.79,2-4.79-1-4.79-2S7,4.83,9.89,4.83Zm.62,15.68C5,20.94,2.57,18.46,2.13,18c-.65-.73-1-2.88-1.09-3.63A8.75,8.75,0,0,1,3,7.49,7.78,7.78,0,0,1,4.86,6.05a1.33,1.33,0,0,0-.26.74c0,1.39,2.32,2.47,5.29,2.47s5.29-1.08,5.29-2.47a1.56,1.56,0,0,0-.54-1.08,9,9,0,0,1,1.95,1.2,10.47,10.47,0,0,0,.77,8.3,12.53,12.53,0,0,0,1.5,2.23C16.16,20.39,10.6,20.51,10.51,20.51ZM29.9,19.29a9.93,9.93,0,0,1-8.11-.53,10.93,10.93,0,0,1-3.54-4l0,0a9.26,9.26,0,0,1,.35-9.59A8.21,8.21,0,0,1,24.86,1l-.09,0c-2,1.11-1.68,5.41.73,9.84l0,.09,0,0,0,0c2.1,3.78,4.94,6.24,7,6.24a2.27,2.27,0,0,0,.69-.12A9.25,9.25,0,0,1,29.9,19.29Z"/></g></g></svg>