<svg xmlns="http://www.w3.org/2000/svg" viewBox="0 0 25.94 23.13"><g id="Capa_2" data-name="Capa 2"><g id="Capa_1-2" data-name="Capa 1"><path d="M25.88,13.7a13.7,13.7,0,0,0-3.56-9.38A13.19,13.19,0,0,0,12.51,0C4.33,0,.36,6.31,0,12.15a10.17,10.17,0,0,0,2.8,7.47A11.24,11.24,0,0,0,11,23.13a9,9,0,0,0,9-8.76,7.29,7.29,0,0,0-7.25-7.24A5.78,5.78,0,0,0,6.9,13a4.82,4.82,0,0,0,4.79,4.79,3.9,3.9,0,0,0,3.86-3.86A3.15,3.15,0,0,0,13.66,11a.51.51,0,0,0-.45-.38H11.46a.51.51,0,0,0-.39.23H9.59a.24.24,0,1,0,0,.47h1.48a.51.51,0,0,0,.39.23H13.1a2.49,2.49,0,0,1,1.75,2.34,3.15,3.15,0,0,1-3.16,3.16,3.94,3.94,0,0,1-4-4,5.19,5.19,0,0,1,5.14-5.14,6.48,6.48,0,0,1,6.42,6.43,8.13,8.13,0,0,1-8.17,8.18A10.56,10.56,0,0,1,3.4,19.27a9.83,9.83,0,0,1-2.57-7C1.06,6.78,4.92.82,12.51.82a12.46,12.46,0,0,1,9.23,4,12.59,12.59,0,0,1,3.44,8.77.47.47,0,0,0-.17.34l-.12,1.75a.46.46,0,0,0,.2.4L25,17.52a.24.24,0,1,0,.47,0l.08-1.44a.41.41,0,0,0,.27-.43l.11-1.75A.39.39,0,0,0,25.88,13.7Z"/></g></g></svg>