<svg xmlns="http://www.w3.org/2000/svg" viewBox="0 0 14.19 26.52"><defs><style>.cls-1{fill:#1d1d1b;}</style></defs><g id="Capa_2" data-name="Capa 2"><g id="Capa_1-2" data-name="Capa 1"><rect class="cls-1" x="3.57" width="7.05" height="1.24" rx="0.59"/><rect class="cls-1" x="4.48" y="1.77" width="0.92" height="4.22"/><rect class="cls-1" x="8.79" y="1.77" width="0.92" height="4.22"/><path class="cls-1" d="M14.19,9.89V8.05a1.41,1.41,0,0,0-1.4-1.41H1.4A1.41,1.41,0,0,0,0,8.05V9.89Z"/><rect class="cls-1" y="11.02" width="14.19" height="3.53"/><rect class="cls-1" y="15.67" width="14.19" height="3.17"/><path class="cls-1" d="M0,20v2.61A1.41,1.41,0,0,0,1.4,24H12.79a1.41,1.41,0,0,0,1.4-1.41V20Z"/><path class="cls-1" d="M10,26.14a.38.38,0,0,0,.38.38h.71a.38.38,0,0,0,.38-.38V24.72H10Z"/><path class="cls-1" d="M2.69,26.14a.38.38,0,0,0,.38.38h.71a.38.38,0,0,0,.38-.38V24.72H2.69Z"/></g></g></svg>