<svg xmlns="http://www.w3.org/2000/svg" viewBox="0 0 29.8 29.82"><g id="Capa_2" data-name="Capa 2"><g id="Capa_1-2" data-name="Capa 1"><path d="M11.13,2.59A2.38,2.38,0,0,0,8.5,0H2.67A2.38,2.38,0,0,0,0,2.7V13.36C0,16.91,0,20.46,0,24a5.44,5.44,0,0,0,1.85,4.36A5.37,5.37,0,0,0,8,29.25a5.26,5.26,0,0,0,3.16-5.12C11.15,17,11.13,9.77,11.13,2.59ZM2.71.84q2.88,0,5.76,0a1.63,1.63,0,0,1,1.86,1.87c0,2.33,0,4.65,0,7H.85V2.74C.85,1.38,1.37.85,2.71.84ZM10.32,24a4.56,4.56,0,0,1-2.68,4.47,4.68,4.68,0,0,1-5.12-.6A4.45,4.45,0,0,1,.85,24.28c0-3.6,0-7.21,0-10.81v-3h9.49Q10.34,17.24,10.32,24Z"/><path d="M27.08,18.68h-5a3.93,3.93,0,0,0-.69.06.37.37,0,0,0-.32.39.35.35,0,0,0,.33.36,4.14,4.14,0,0,0,.7.06c1.68,0,3.37,0,5.05,0,1.3,0,1.78.49,1.79,1.8,0,1.86,0,3.73,0,5.6,0,1.59-.43,2-2,2H20.19v-8.3a.38.38,0,1,0-.75,0V29H11.91a4.9,4.9,0,0,0-.77.05.34.34,0,0,0-.32.37.36.36,0,0,0,.32.38,4.29,4.29,0,0,0,.62,0H27.24a2.33,2.33,0,0,0,2.56-2.55c0-1.94,0-3.89,0-5.83A2.41,2.41,0,0,0,27.08,18.68Z"/><path d="M12.49,24.49c.29.31.57.06.8-.17l1.1-1.09Q19.58,18,24.78,12.84a2.58,2.58,0,0,0,.9-1.91,2.36,2.36,0,0,0-.85-1.76C23.39,7.75,22,6.32,20.53,4.89a2.2,2.2,0,0,0-3.46,0c-1.36,1.32-2.69,2.66-4,4-.26.26-.6.56-.23.91s.61-.09.83-.31c1.3-1.3,2.58-2.62,3.89-3.92a1.54,1.54,0,0,1,2.54,0c1.4,1.39,2.78,2.79,4.17,4.19.87.89.86,1.55,0,2.46l-4.95,5-.27.27-5.8-5.81a.38.38,0,0,0-.54,0,.39.39,0,0,0,0,.53L18.45,18c-1.91,1.91-3.82,3.83-5.74,5.74C12.49,23.93,12.19,24.18,12.49,24.49Z"/><path d="M5.56,22.45a1.78,1.78,0,0,0-1.83,1.81,1.84,1.84,0,0,0,1.83,1.83,1.8,1.8,0,0,0,1.81-1.84A1.74,1.74,0,0,0,5.56,22.45Zm0,2.76a.87.87,0,0,1-1-1,.89.89,0,0,1,1-.95.88.88,0,0,1,1,1A.87.87,0,0,1,5.54,25.21Z"/></g></g></svg>