<svg xmlns="http://www.w3.org/2000/svg" viewBox="0 0 20.73 12.14"><defs><style>.cls-1{fill:#1d1d1b;}</style></defs><g id="Capa_2" data-name="Capa 2"><g id="Capa_1-2" data-name="Capa 1"><path class="cls-1" d="M1.31,6.74l0,5L0,10.49,0,7l.81-.8ZM0,4.94l0-3.45L1.35.2l0,5.07-.48.48Z"/><path class="cls-1" d="M5.45,10.52l-1.3,1.29,0-5.05.48-.5.81.81ZM5.48,5l-.82.81-.48-.49,0-5.07L5.5,1.52Zm5.64,7.12-6.73,0,1.28-1.29,4.19,0ZM11.2,0,9.91,1.33l-4.19,0L4.46,0Zm.17,11.81-1.29-1.3,0-3.45.83-.8.47.5Zm0-6.52-.48.48L10.12,5l0-3.45L11.44.27Z"/><path class="cls-1" d="M14.74,10.58l-1.3,1.28,0-5,.48-.5.81.82Zm0-5.55-.82.8-.48-.48,0-5.07,1.29,1.3Zm5.65,7.11-6.74,0L15,10.82l4.19,0Zm.07-12L19.2,1.38,15,1.36,13.75.05Zm.17,11.81-1.29-1.3,0-3.44.83-.81.47.5Zm0-6.51-.48.48-.81-.82,0-3.44L20.73.32Z"/></g></g></svg>