<svg xmlns="http://www.w3.org/2000/svg" viewBox="0 0 27.68 27.99"><defs><style>.cls-1{fill:#1d1d1b;}</style></defs><g id="Capa_2" data-name="Capa 2"><g id="Capa_1-2" data-name="Capa 1"><path class="cls-1" d="M13.52,26.31A6.43,6.43,0,0,0,15,20.1a1.87,1.87,0,0,1,1.43-1.66,4.7,4.7,0,0,0,.95-.19c2-.62,3.43-2.63,2.86-3.54-.39-.6-.77-1-1.9-.39h0a4.57,4.57,0,0,0-.42.23,1.23,1.23,0,0,1-1.44-.12c-.41-.46-.19-1.21,0-1.71L22.07,7h0l0,0,.15-.15a1.18,1.18,0,0,1,1.58-.18.21.21,0,0,1,0,.06c0-.06.05-.11.07-.17a6.79,6.79,0,0,1,1.39-1.92,7.4,7.4,0,0,1,1.76-1.31l.16-.08L27.53,3a1.14,1.14,0,0,1,.15-.67,3.11,3.11,0,0,1-.5-1.07C27.16,1,27,1,26.91,1a.66.66,0,0,0-.22,0,.64.64,0,0,0,0-.21c0-.13-.05-.26-.28-.28A2.85,2.85,0,0,1,25.39,0a1.19,1.19,0,0,1-.68.15l-.28.28c0,.06-.05.11-.07.16A7.27,7.27,0,0,1,23,2.35a6.79,6.79,0,0,1-1.92,1.39L21,3.81l.06,0A1.12,1.12,0,0,1,21,5.28L15.13,11.2c-.5.28-1.41.67-1.83.07a1.81,1.81,0,0,1,0-1.79l.06-.12h0c.56-1.14.21-1.52-.39-1.9C12,6.89,10,8.32,9.4,10.32a4.21,4.21,0,0,0-.12.48h0v0c0,.07,0,.14,0,.22a2.1,2.1,0,0,1-2.41,1.78h0a6.16,6.16,0,0,0-5.14,1.63C-.95,17.1-.44,21.89,2.83,25.16S10.89,28.94,13.52,26.31Z"/></g></g></svg>