<svg xmlns="http://www.w3.org/2000/svg" viewBox="0 0 34.91 29.76"><defs><style>.cls-1{fill:#1d1d1b;}</style></defs><g id="Capa_2" data-name="Capa 2"><g id="Capa_1-2" data-name="Capa 1"><path class="cls-1" d="M24,16.94c1.71.06,3.11,2.29,3.11,5s-1.4,4.9-3.11,4.93a2.35,2.35,0,0,1-1.7-.76,6,6,0,0,1-1.51-4.23,5.91,5.91,0,0,1,1.5-4.2,2.36,2.36,0,0,1,1.64-.73Zm1.38,5c0-1.1-.6-2-1.37-2a1.12,1.12,0,0,0-.79.35,2.29,2.29,0,0,0-.59,1.62c0,1.12.6,2,1.38,2S25.35,23,25.35,21.91Z"/><path class="cls-1" d="M24,20.5c.46,0,.84.65.84,1.41S24.44,23.3,24,23.3s-.86-.65-.86-1.41a1.7,1.7,0,0,1,.42-1.19.62.62,0,0,1,.43-.2Z"/><path class="cls-1" d="M34.21,14.89l-10.15-.42L8.4,13.81A.76.76,0,0,0,8,14L7.91,14a1.74,1.74,0,0,0-.45,1.24v13a1.78,1.78,0,0,0,.45,1.25.82.82,0,0,0,.32.19h0l.14,0L24,29.34l10.2-.27c.33,0,.69-.58.69-1.32V16.22C34.91,15.48,34.54,14.9,34.21,14.89Zm-19.06,13h-.06a3.45,3.45,0,0,1-2.44-1.08A7.17,7.17,0,0,1,10.8,21.8a7.09,7.09,0,0,1,1.85-5,3.43,3.43,0,0,1,2.5-1c2.36.07,4.2,2.76,4.2,6.12S17.5,27.89,15.15,27.93ZM24,27.78h0a3.17,3.17,0,0,1-2.23-1,7,7,0,0,1-1.78-4.92A6.91,6.91,0,0,1,21.71,17,3.1,3.1,0,0,1,24,16c2.2.07,3.92,2.67,3.92,5.91S26.18,27.75,24,27.78Z"/><path class="cls-1" d="M15.13,16.59c1.89.06,3.43,2.43,3.43,5.27S17,27.05,15.13,27.08a2.75,2.75,0,0,1-1.94-.86,6.25,6.25,0,0,1-1.6-4.41,6.18,6.18,0,0,1,1.6-4.39,2.68,2.68,0,0,1,1.86-.83Zm1.47,5.25c0-1.14-.64-2-1.46-2.05a1.18,1.18,0,0,0-.86.37,2.35,2.35,0,0,0-.62,1.67,2.57,2.57,0,0,0,.41,1.42,1.3,1.3,0,0,0,1.07.63C16,23.88,16.6,23,16.6,21.84Z"/><path class="cls-1" d="M15.14,20.42c.49,0,.9.66.9,1.42s-.41,1.41-.9,1.41a.78.78,0,0,1-.62-.39,1.81,1.81,0,0,1-.29-1,1.75,1.75,0,0,1,.42-1.2.69.69,0,0,1,.48-.21Z"/><path class="cls-1" d="M7.1,29.54l-5.84-1A1.5,1.5,0,0,1,0,27.08V18.46a2.5,2.5,0,0,1,1.39-2.24L7,14.3a2.52,2.52,0,0,0-.18,1v13A2.65,2.65,0,0,0,7.1,29.54Z"/><path d="M17,7.4h3.39c.27,0,.34,0,.31-.33a6.09,6.09,0,0,0-4.52-5,5.89,5.89,0,0,0-3.86.34c-.26.12-.38.06-.49-.2s-.34-.72-.53-1.08c-.12-.21-.08-.31.15-.41A7.64,7.64,0,0,1,17.11.41a7.69,7.69,0,0,1,5.42,6.64c0,.31.14.36.42.36,1.11,0,2.21,0,3.36,0a.76.76,0,0,1-.3.43c-1.37,1.38-2.76,2.77-4.13,4.16-.16.16-.27.25-.48,0Q19.21,9.79,17,7.6S16.89,7.51,17,7.4Z"/></g></g></svg>