<svg xmlns="http://www.w3.org/2000/svg" viewBox="0 0 19.88 28.23"><g id="Capa_2" data-name="Capa 2"><g id="Capa_1-2" data-name="Capa 1"><path d="M19.87,11.15v-2a.5.5,0,0,0-.5-.5H16.89c0-.38,0-.76,0-1.13V7A7,7,0,0,0,11.55.2a6.44,6.44,0,0,0-3.11,0,6.91,6.91,0,0,0-5.2,5.07A8.32,8.32,0,0,0,3,7.74v.87H.51a.5.5,0,0,0-.5.5v1.83q0,8.28,0,16.54A.78.78,0,0,0,.19,28a.75.75,0,0,0,.57.19q9.18,0,18.36,0h0a.73.73,0,0,0,.55-.19.76.76,0,0,0,.2-.56Q19.87,19.31,19.87,11.15ZM9.59,27.23H1q0-8.14,0-16.29V9.61h2.2a.76.76,0,0,0,.61-.22A.84.84,0,0,0,4,8.77c0-.21,0-.43,0-.64V7.68A7.67,7.67,0,0,1,4.2,5.52,5.86,5.86,0,0,1,8.7,1.15a5.52,5.52,0,0,1,2.6,0h0A5.94,5.94,0,0,1,15.89,7v.52c0,.42,0,.85,0,1.27a.87.87,0,0,0,.22.65.86.86,0,0,0,.64.22c.63,0,1.26,0,1.89,0h.24V27.23Z"/><path d="M15.52,21.35c-.88-.89-1.77-1.79-2.69-2.7.64-.76,1.28-1.54,1.91-2.31l1.07-1.29a2.24,2.24,0,0,0,.52-1.49,2,2,0,0,0-.72-1.71,1.88,1.88,0,0,0-2.76.3c-.27.34-.56.68-.84,1l-1.38,1.66L7.92,18.07V15.63c0-.74,0-1.48,0-2.22a2.12,2.12,0,0,0-2.15-2.06H5.69a2.13,2.13,0,0,0-2.07,2.16V23.4a2.12,2.12,0,0,0,2.1,2.14,2.19,2.19,0,0,0,1.53-.6,2.29,2.29,0,0,0,.67-1.65V19.56l.29.3,1.68,1.72,3.41,3.48a1.79,1.79,0,0,0,1.32.56h.1a1.94,1.94,0,0,0,1.4-.74,2.33,2.33,0,0,0-.22-3.14Zm-8.6-1.49v3.42a1.38,1.38,0,0,1-.37.95,1.21,1.21,0,0,1-.82.31A1.13,1.13,0,0,1,4.62,23.4V13.51a1.13,1.13,0,0,1,1.09-1.16h0A1.11,1.11,0,0,1,6.9,13.44c0,.73,0,1.46,0,2.18v4.24Zm8.42,4.4a.89.89,0,0,1-.67.36.84.84,0,0,1-.66-.26L10.6,20.88,8.93,19.16l-.34-.34,2.81-3.36,1.38-1.65.85-1A.91.91,0,0,1,15,12.64a1,1,0,0,1,.33.9v0a1.19,1.19,0,0,1-.3.84L14,15.7q-1,1.22-2,2.4a.77.77,0,0,0,0,1.17c.94.92,1.86,1.85,2.78,2.78l.38.39A1.36,1.36,0,0,1,15.34,24.26Z"/><path d="M6.66,9.61h6.58a.8.8,0,0,0,.6-.21.79.79,0,0,0,.21-.6c0-.32,0-.64,0-1s0-.67,0-1a4.08,4.08,0,0,0-8.12-.43,9.23,9.23,0,0,0,0,1.48c0,.3,0,.59,0,.89a.84.84,0,0,0,.2.61A.8.8,0,0,0,6.66,9.61Zm.25-3.08A3.08,3.08,0,0,1,13,6.86c0,.32,0,.65,0,1s0,.51,0,.78H6.87c0-.24,0-.49,0-.74A8.5,8.5,0,0,1,6.91,6.53Z"/></g></g></svg>