<svg xmlns="http://www.w3.org/2000/svg" viewBox="0 0 17.34 26.84"><defs><style>.cls-1{fill:#1d1d1b;}</style></defs><g id="Capa_2" data-name="Capa 2"><g id="Capa_1-2" data-name="Capa 1"><path class="cls-1" d="M13.21,0A4.13,4.13,0,1,1,9.08,4.13,4.13,4.13,0,0,1,13.21,0Z"/><path class="cls-1" d="M4.27,15.56a1.14,1.14,0,0,0,.86-.39l7-6.41A4.77,4.77,0,0,1,8.94,6.25l-5.5,7.31a1.41,1.41,0,0,0-.32.86A1.14,1.14,0,0,0,4.27,15.56Z"/><path class="cls-1" d="M.92,21.72c2.31,1.78,5.87-1.59,6-1.72s3.79-3.33,5.53-1.37a1.77,1.77,0,0,1,.47,1.43c-.18,2.09-3.07,4.78-4.17,5.65a.63.63,0,0,0-.11.89.67.67,0,0,0,.5.24.64.64,0,0,0,.39-.14c.18-.14,4.38-3.47,4.65-6.52a3.07,3.07,0,0,0-.78-2.4c-.77-.86-2.23-1.63-4.78-.4a11.86,11.86,0,0,0-2.56,1.7c-.75.71-3.17,2.56-4.37,1.64A1,1,0,0,1,1.27,20c-.1-1.1,1.07-2.7,1.66-3.36l1.29-.46s-.26,0-.87-.57a2.51,2.51,0,0,1-.72-1.07l-.58,1.18c-.42.47-2.19,2.56-2,4.39A2.29,2.29,0,0,0,.92,21.72Z"/></g></g></svg>