<svg xmlns="http://www.w3.org/2000/svg" viewBox="0 0 20.63 17.87"><g id="Capa_2" data-name="Capa 2"><g id="Capa_1-2" data-name="Capa 1"><path d="M20.05.3l0,0A.51.51,0,0,0,19.56,0h0l-.64.07a9.87,9.87,0,0,0-2.54.45,5.62,5.62,0,0,1-.62.2,13.07,13.07,0,0,0-4.47,2.35A14.94,14.94,0,0,0,7.73,7V7a.52.52,0,0,0-.31-.49.49.49,0,0,0-.53.12A11.54,11.54,0,0,0,5.22,9c-.35.7-1,2.29-1.46,3.23-.15.35-.27.61-.32.72s-.14.17-.26.31c-.36.42-1,1.13-1.39,1.54A19.39,19.39,0,0,0,.43,16.42l-.24.29-.12.1V17c-.17.48,0,.71.19.82a.43.43,0,0,0,.27.08,2,2,0,0,0,1-.43l.09-.12c.36-.53.72-1.05,1.1-1.57l.33.33.11-.2a3.24,3.24,0,0,1,1.08.39l.17.08a7.93,7.93,0,0,0,1.26.12,7.79,7.79,0,0,0,1.26-.12,4.91,4.91,0,0,0,2.6-1.11.44.44,0,0,0,.13-.49l-.05-.09A27,27,0,0,0,12.24,13l.28-.2a.44.44,0,0,0,.13-.49l-.05-.08a6.71,6.71,0,0,0,1.88-1,11.18,11.18,0,0,0,1.91-2l.55-.69h-.23a13.29,13.29,0,0,0,2.88-3.66,9.81,9.81,0,0,0,1-4.26V.3ZM1,16.9H1v0H1ZM5.89,9.36c.22-.4.45-.78.67-1.12,0,0,0,.06,0,.09a3.18,3.18,0,0,0-.07.55A.55.55,0,0,0,7,9.39l.41,0V9.06a16.38,16.38,0,0,1,4.25-5.38,12.36,12.36,0,0,1,4.25-2.24l.7-.23A7.5,7.5,0,0,1,18.5.86c-1.49,1-4,2.58-6.77,4.72a66.64,66.64,0,0,0-6.58,6.06l-.55.57C5,11.26,5.59,10,5.89,9.36Zm13-4.76a11.08,11.08,0,0,1-3.56,4.05,23.31,23.31,0,0,1-2.25,1.08l-.24.09v.73h.38a3.71,3.71,0,0,0,1.2-.24,5.2,5.2,0,0,1-.44.38,10.41,10.41,0,0,1-3.3,1.39l-.46.13a14.81,14.81,0,0,1-2,.29l-.9.1L7,12.65v.74l.32,0a10,10,0,0,0,2.89,0,13.52,13.52,0,0,1-1.85.95L6,15.2v.51a6.59,6.59,0,0,1-1.38-.09,3.54,3.54,0,0,0-1-.4,45.82,45.82,0,0,1,3.49-3.87c.29-.26.7-.66,1.18-1.13a42.77,42.77,0,0,1,5.18-4.53l5-3.42,1.36-.93A9.16,9.16,0,0,1,18.93,4.6Z"/></g></g></svg>