<svg xmlns="http://www.w3.org/2000/svg" viewBox="0 0 31.19 33.57"><defs><style>.cls-1{fill:#1d1d1b;}</style></defs><g id="Capa_2" data-name="Capa 2"><g id="Capa_1-2" data-name="Capa 1"><path class="cls-1" d="M10.94,6.29h-.67V7.64A2.09,2.09,0,0,1,9.66,9L7.41,11.17a.75.75,0,0,0-.15.44v3.48a1.94,1.94,0,1,1-1.18,0v-1a.86.86,0,0,0-.18-.46s-2.18-2.05-2.22-2.1l-.13-.11v0a2.07,2.07,0,0,1-.5-1.27V7.64a1.26,1.26,0,1,1,1.18,0v2.54a.79.79,0,0,0,.18.46L6.08,12.2V2.78h-1L6.67,0l1.6,2.78h-1V9.69L8.94,8.1a.84.84,0,0,0,.16-.44V6.29H8.42V3.77H11V6.29Z"/><path class="cls-1" d="M29.41,0H17.66a1.78,1.78,0,0,0-1.77,1.78V24.56a1.78,1.78,0,0,0,1.77,1.78H29.41a1.78,1.78,0,0,0,1.78-1.78V1.78A1.78,1.78,0,0,0,29.41,0ZM21.66,1.28h3.76a.22.22,0,0,1,.21.22.21.21,0,0,1-.21.21H21.66a.21.21,0,0,1-.22-.21A.22.22,0,0,1,21.66,1.28Zm1.88,24.17a.89.89,0,1,1,.89-.89A.89.89,0,0,1,23.54,25.45ZM30,23.05H17.12V2.82H30Z"/><path class="cls-1" d="M24.16,29.29H22.91a.77.77,0,0,1-.77-.78V25.57h2.8v2.94A.78.78,0,0,1,24.16,29.29Zm-1.4-3.1v2.32a.16.16,0,0,0,.15.16h1.25a.16.16,0,0,0,.16-.16V26.19Z"/><path class="cls-1" d="M22.1,33.57H13a1.75,1.75,0,0,1-1.74-1.75V23.76a1.13,1.13,0,0,0-1.13-1.12H0V22H10.15a1.74,1.74,0,0,1,1.75,1.74v8.06A1.12,1.12,0,0,0,13,32.94H22.1a1.13,1.13,0,0,0,1.13-1.12V29h.62v2.84A1.76,1.76,0,0,1,22.1,33.57Z"/></g></g></svg>