<svg xmlns="http://www.w3.org/2000/svg" viewBox="0 0 28.52 27.1"><defs><style>.cls-1{fill:#1d1d1b;}</style></defs><g id="Capa_2" data-name="Capa 2"><g id="Capa_1-2" data-name="Capa 1"><path class="cls-1" d="M28.38.74a1.09,1.09,0,0,0-1-.61H22a1.83,1.83,0,0,0-1.58,1.14l-5.7,13.54a1.52,1.52,0,0,0,0,1.29,1.15,1.15,0,0,0,1,.6l4.22.06-3,8.73a1.27,1.27,0,0,0,0,1.14.66.66,0,0,0,.56.33h0a1,1,0,0,0,.78-.52L28.2,12.26a1.37,1.37,0,0,0,.19-1.3,1.07,1.07,0,0,0-1-.64H24.25L28.35,2A1.42,1.42,0,0,0,28.38.74Z"/><path class="cls-1" d="M12.29,9h-1V11a3.1,3.1,0,0,1-.87,2L7.22,16.05a1.12,1.12,0,0,0-.23.63v5a2.78,2.78,0,1,1-1.69,0V20.29A1.13,1.13,0,0,0,5,19.62l-3.18-3-.19-.17v0A3,3,0,0,1,1,14.59V11A1.81,1.81,0,1,1,3.63,9.38a1.82,1.82,0,0,1-1,1.59v3.65a1.13,1.13,0,0,0,.26.66L5.3,17.53V4H3.85l2.3-4,2.3,4H7v9.93l2.41-2.29A1.15,1.15,0,0,0,9.64,11V9h-1V5.42h3.62V9Z"/></g></g></svg>