<svg xmlns="http://www.w3.org/2000/svg" viewBox="0 0 26.83 26.59"><defs><style>.cls-1{fill:#1d1d1b;}</style></defs><g id="Capa_2" data-name="Capa 2"><g id="Capa_1-2" data-name="Capa 1"><path class="cls-1" d="M25.4,8.4h-.63s0,0,0-.06a.57.57,0,0,0-.56-.56h-.43L8,0a.44.44,0,0,0-.58.2.43.43,0,0,0,.2.57L22.08,7.9a.56.56,0,0,0-.24.44s0,0,0,.06H1.43A1.43,1.43,0,0,0,0,9.83V25.16a1.43,1.43,0,0,0,1.43,1.43h24a1.43,1.43,0,0,0,1.43-1.43V9.83A1.43,1.43,0,0,0,25.4,8.4ZM6.56,19.56a.58.58,0,1,1,.57.58A.58.58,0,0,1,6.56,19.56Zm3.74,0a.57.57,0,0,1,.57-.57.58.58,0,1,1,0,1.15A.57.57,0,0,1,10.3,19.56Zm3.68,0a.58.58,0,1,1,.58.58A.58.58,0,0,1,14,19.56Zm-11,0A.58.58,0,0,1,3.52,19a.58.58,0,0,1,0,1.15A.58.58,0,0,1,2.94,19.56Zm9.78-2.34a.57.57,0,0,1-.57-.57.58.58,0,1,1,.57.57Zm-3.8,0a.57.57,0,0,1-.58-.57.58.58,0,1,1,.58.57Zm-3.64,0a.57.57,0,0,1-.57-.57.58.58,0,1,1,.57.57Zm-.57,4.93a.58.58,0,0,1,1.15,0,.58.58,0,1,1-1.15,0Zm3.63,0a.58.58,0,0,1,1.15,0,.58.58,0,1,1-1.15,0Zm3.81,0a.58.58,0,0,1,1.15,0,.58.58,0,1,1-1.15,0Zm11.4-9H3V10.61H23.56v2.52ZM21.18,23A3.32,3.32,0,1,1,24.5,19.7,3.32,3.32,0,0,1,21.18,23Z"/><circle class="cls-1" cx="21.18" cy="19.72" r="2.24"/></g></g></svg>