<svg xmlns="http://www.w3.org/2000/svg" viewBox="0 0 27.99 18.46"><g id="Capa_2" data-name="Capa 2"><g id="Capa_1-2" data-name="Capa 1"><path d="M25.14,0H2.85A2.86,2.86,0,0,0,0,2.85v.37s0,0,0,.07,0,.07,0,.11l.05.08.05.08.08.06.06,0A2.52,2.52,0,0,1,1.64,5.9,2.53,2.53,0,0,1,.27,8.13l-.05,0-.09.07,0,.07L0,8.4s0,.07,0,.1,0,.05,0,.07v8.37a1.52,1.52,0,0,0,1.52,1.52h25A1.52,1.52,0,0,0,28,16.94V8.48s0,0,0-.05,0-.07,0-.1l0-.09-.06-.08-.07-.07-.05,0a2.5,2.5,0,0,1,0-4.31l.05,0a.46.46,0,0,0,.07-.07l.06-.08,0-.08s0-.07,0-.1,0,0,0-.06V2.85A2.86,2.86,0,0,0,25.14,0Zm1.33,17.46H24V16.4a.5.5,0,0,0-.5-.5.5.5,0,0,0-.5.5v1.06H17.52V16.4a.5.5,0,0,0-.5-.5.5.5,0,0,0-.5.5v1.06H11.07V16.4a.5.5,0,0,0-.5-.5.5.5,0,0,0-.5.5v1.06H4.61V16.4a.5.5,0,0,0-1,0v1.06H1.52A.52.52,0,0,1,1,16.94V12H27v4.93A.52.52,0,0,1,26.47,17.46ZM27,8.74V11H1V8.85A3.52,3.52,0,0,0,2.64,5.9,3.52,3.52,0,0,0,1,2.94V2.85A1.85,1.85,0,0,1,2.85,1H25.14A1.85,1.85,0,0,1,27,2.85v.2a3.47,3.47,0,0,0,0,5.69Z"/><path d="M7.43,3.19a.51.51,0,0,0-.5.5V8.25a.51.51,0,0,0,.5.5.5.5,0,0,0,.5-.5V3.69A.5.5,0,0,0,7.43,3.19Z"/><path d="M13.87,3.19a.5.5,0,0,0-.5.5V8.25a.5.5,0,0,0,.5.5.51.51,0,0,0,.5-.5V3.69A.51.51,0,0,0,13.87,3.19Z"/><path d="M20.3,3.19a.51.51,0,0,0-.5.5V8.25a.51.51,0,0,0,.5.5.5.5,0,0,0,.5-.5V3.69A.5.5,0,0,0,20.3,3.19Z"/></g></g></svg>