<svg xmlns="http://www.w3.org/2000/svg" viewBox="0 0 27.04 27.04"><defs><style>.cls-1{fill:#1d1d1b;}</style></defs><g id="Capa_2" data-name="Capa 2"><g id="Capa_1-2" data-name="Capa 1"><path class="cls-1" d="M27,13.52A13.52,13.52,0,1,1,13.52,0,13.52,13.52,0,0,1,27,13.52ZM8.63,17.37H10c.08,0,.13,0,.13-.09a.17.17,0,0,0,0-.07L8.59,14.06s0-.06,0-.08a2,2,0,0,0,1.06-.76,2.22,2.22,0,0,0,.38-1.3,2.46,2.46,0,0,0-.3-1.23,2,2,0,0,0-.83-.83,2.65,2.65,0,0,0-1.25-.29H4.49a.13.13,0,0,0-.09,0,.13.13,0,0,0,0,.1v7.53a.12.12,0,0,0,0,.09.1.1,0,0,0,.09,0h1.3a.13.13,0,0,0,.1,0,.18.18,0,0,0,0-.09v-3s0-.06.05-.06H7a.05.05,0,0,1,.06,0l1.4,3.09A.15.15,0,0,0,8.63,17.37ZM6,10.92H7.44a1,1,0,0,1,.76.29.94.94,0,0,1,.3.72,1,1,0,0,1-.3.73,1.08,1.08,0,0,1-.76.28H6s-.05,0-.05-.06V11S6,10.92,6,10.92Zm10.63-.13V9.71a.14.14,0,0,0-.14-.14H11.33a.14.14,0,0,0-.14.14v7.53a.18.18,0,0,0,0,.09.13.13,0,0,0,.1,0h5.14a.13.13,0,0,0,.1,0,.18.18,0,0,0,0-.09V16.16a.18.18,0,0,0,0-.1.13.13,0,0,0-.1,0H12.82s-.06,0-.06,0V14.16s0-.05.06-.05h2.39a.18.18,0,0,0,.1,0,.13.13,0,0,0,0-.1V12.89a.11.11,0,0,0,0-.09.13.13,0,0,0-.1,0H12.82a.05.05,0,0,1-.06-.06V11a.05.05,0,0,1,.06-.06h3.65a.13.13,0,0,0,.1,0A.15.15,0,0,0,16.61,10.79Zm3.83,6.67A3.46,3.46,0,0,0,22,17.14a2.43,2.43,0,0,0,1-.92,2.53,2.53,0,0,0,.36-1.36.08.08,0,0,0,0-.07.1.1,0,0,0-.09,0l-1.3-.05c-.09,0-.14,0-.14.12a1.23,1.23,0,0,1-.36.93,1.29,1.29,0,0,1-.95.36,1.34,1.34,0,0,1-1-.36,1.23,1.23,0,0,1-.36-.93V12.14a1.27,1.27,0,0,1,.36-1,1.34,1.34,0,0,1,1-.36,1.29,1.29,0,0,1,.95.36,1.27,1.27,0,0,1,.36,1c0,.08,0,.12.11.12h0l1.3-.08c.09,0,.13-.06.13-.12A2.56,2.56,0,0,0,23,10.7a2.39,2.39,0,0,0-1-.9,3.46,3.46,0,0,0-1.51-.32,3.38,3.38,0,0,0-1.53.34,2.38,2.38,0,0,0-1,.95,2.71,2.71,0,0,0-.36,1.41v2.57a2.75,2.75,0,0,0,.36,1.42,2.44,2.44,0,0,0,1,.95A3.25,3.25,0,0,0,20.44,17.46Z"/></g></g></svg>