<svg xmlns="http://www.w3.org/2000/svg" viewBox="0 0 19.71 26.06"><g id="Capa_2" data-name="Capa 2"><g id="Capa_1-2" data-name="Capa 1"><path d="M4.55,21.61H2.83a1.07,1.07,0,0,0-1.06,1.07V25a1.07,1.07,0,0,0,1.06,1.07H4.55A1.07,1.07,0,0,0,5.62,25V22.68A1.07,1.07,0,0,0,4.55,21.61Z"/><path d="M4.55,0H2.83A1.07,1.07,0,0,0,1.77,1.07V15.15a1.07,1.07,0,0,0,1.06,1.07H4.55a1.07,1.07,0,0,0,1.07-1.07V1.07A1.07,1.07,0,0,0,4.55,0Z"/><path d="M7.39,19.78V18.06A1.07,1.07,0,0,0,6.32,17H1.07A1.07,1.07,0,0,0,0,18.06v1.72H0a1.07,1.07,0,0,0,1.07,1.06H6.32A1.07,1.07,0,0,0,7.39,19.78Z"/><path d="M16.87,13.37H15.15a1.07,1.07,0,0,0-1.06,1.07V25a1.07,1.07,0,0,0,1.06,1.07h1.72A1.07,1.07,0,0,0,17.94,25V14.44A1.07,1.07,0,0,0,16.87,13.37Z"/><path d="M16.87,0H15.15a1.07,1.07,0,0,0-1.06,1.07V6.91A1.07,1.07,0,0,0,15.15,8h1.72a1.07,1.07,0,0,0,1.07-1.07V1.07A1.07,1.07,0,0,0,16.87,0Z"/><path d="M19.71,11.53V9.81a1.08,1.08,0,0,0-1.07-1.07H13.39a1.08,1.08,0,0,0-1.07,1.07v1.73h0a1.07,1.07,0,0,0,1.07,1.07h5.25A1.07,1.07,0,0,0,19.71,11.53Z"/></g></g></svg>