<svg xmlns="http://www.w3.org/2000/svg" viewBox="0 0 12.4 26.84"><g id="Capa_2" data-name="Capa 2"><g id="Capa_1-2" data-name="Capa 1"><path d="M10.61,0H1.79A1.8,1.8,0,0,0,0,1.79V25.06a1.79,1.79,0,0,0,1.79,1.78h8.82a1.79,1.79,0,0,0,1.79-1.78V1.79A1.8,1.8,0,0,0,10.61,0ZM2.81,14.18A1.24,1.24,0,1,1,4,12.94,1.23,1.23,0,0,1,2.81,14.18Zm0-3.18A1.24,1.24,0,1,1,4,9.76,1.23,1.23,0,0,1,2.81,11Zm0-3.18A1.24,1.24,0,1,1,4,6.58,1.24,1.24,0,0,1,2.81,7.82Zm0-3.18A1.24,1.24,0,1,1,4,3.4,1.24,1.24,0,0,1,2.81,4.64Zm3.53,9.54a1.24,1.24,0,1,1,1.24-1.24A1.24,1.24,0,0,1,6.34,14.18Zm0-3.18A1.24,1.24,0,1,1,7.58,9.76,1.24,1.24,0,0,1,6.34,11Zm0-3.18A1.24,1.24,0,1,1,7.58,6.58,1.25,1.25,0,0,1,6.34,7.82Zm0-3.18A1.24,1.24,0,1,1,7.58,3.4,1.25,1.25,0,0,1,6.34,4.64Zm3.53,9.54a1.24,1.24,0,1,1,1.24-1.24A1.24,1.24,0,0,1,9.87,14.18Zm0-3.18a1.24,1.24,0,1,1,1.24-1.24A1.24,1.24,0,0,1,9.87,11Zm0-3.18a1.24,1.24,0,1,1,1.24-1.24A1.25,1.25,0,0,1,9.87,7.82Zm0-3.18A1.24,1.24,0,1,1,11.11,3.4,1.25,1.25,0,0,1,9.87,4.64Z"/></g></g></svg>