<svg xmlns="http://www.w3.org/2000/svg" viewBox="0 0 27.38 19.8"><g id="Capa_2" data-name="Capa 2"><g id="Capa_1-2" data-name="Capa 1"><path d="M24,0H15.89a.5.5,0,0,0,0,1H24a2.41,2.41,0,0,1,2.41,2.4v6.76a.5.5,0,0,0,.5.5.5.5,0,0,0,.5-.5V3.4A3.41,3.41,0,0,0,24,0Z"/><path d="M11.48,18.8H3.4A2.41,2.41,0,0,1,1,16.4V9.64a.5.5,0,0,0-.5-.5.5.5,0,0,0-.5.5V16.4a3.4,3.4,0,0,0,3.4,3.4h8.08a.5.5,0,0,0,.5-.5A.5.5,0,0,0,11.48,18.8Z"/><path d="M23.33,2.51H3.88A1.32,1.32,0,0,0,2.56,3.83V16.05a1.32,1.32,0,0,0,1.32,1.31H23.33a1.31,1.31,0,0,0,1.31-1.31V3.83A1.32,1.32,0,0,0,23.33,2.51Zm.31,13.54a.31.31,0,0,1-.31.31H3.88a.31.31,0,0,1-.32-.31V3.83a.32.32,0,0,1,.32-.32H23.33a.31.31,0,0,1,.31.32Z"/></g></g></svg>