<svg xmlns="http://www.w3.org/2000/svg" viewBox="0 0 21.14 27.08"><defs><style>.cls-1{fill:#1d1d1b;}</style></defs><g id="Capa_2" data-name="Capa 2"><g id="Capa_1-2" data-name="Capa 1"><path class="cls-1" d="M19.65,0H3.72a.5.5,0,0,0-.38.17L.12,3.89A.47.47,0,0,0,0,4.21V25.6a1.49,1.49,0,0,0,1.49,1.48H19.65a1.49,1.49,0,0,0,1.49-1.48V1.49A1.49,1.49,0,0,0,19.65,0ZM6.08,6.28H4.41V1.9H6.08Zm-2.69,0H1.73V5H3.39Zm5.35,0H7.07V1.9H8.74V6.28Zm2.64,0H9.71V1.9h1.67Zm2.66,0H12.38V1.9H14Zm2.65,0H15V1.9h1.66Zm2.56,0H17.59V1.9h1.66Z"/></g></g></svg>