<svg xmlns="http://www.w3.org/2000/svg" viewBox="0 0 19.39 26.51"><g id="Capa_2" data-name="Capa 2"><g id="Capa_1-2" data-name="Capa 1"><path d="M16.28,2.21a.5.5,0,0,0-.5.5V6.44a.5.5,0,0,0,.5.5.5.5,0,0,0,.5-.5V2.71A.5.5,0,0,0,16.28,2.21Z"/><path d="M13.3,2.21a.5.5,0,0,0-.5.5V6.44a.5.5,0,0,0,.5.5.5.5,0,0,0,.5-.5V2.71A.5.5,0,0,0,13.3,2.21Z"/><path d="M10.33,2.21a.5.5,0,0,0-.5.5V6.44a.5.5,0,0,0,.5.5.5.5,0,0,0,.5-.5V2.71A.5.5,0,0,0,10.33,2.21Z"/><path d="M7.36,2.21a.5.5,0,0,0-.5.5V6.44a.5.5,0,0,0,1,0V2.71A.5.5,0,0,0,7.36,2.21Z"/><path d="M4.39,5a.5.5,0,0,0-.5.5v.93a.5.5,0,1,0,1,0V5.51A.5.5,0,0,0,4.39,5Z"/><path d="M16.55,0H5.18a.47.47,0,0,0-.35.15L.15,4.83A.47.47,0,0,0,0,5.18V9a.5.5,0,0,0,.5.5H.83v.85H.5a.5.5,0,0,0-.5.5V23.67a2.84,2.84,0,0,0,2.84,2.84H16.55a2.84,2.84,0,0,0,2.84-2.84V2.84A2.84,2.84,0,0,0,16.55,0Zm1.84,23.67a1.85,1.85,0,0,1-1.84,1.84H2.84A1.85,1.85,0,0,1,1,23.67V11.3h.33a.51.51,0,0,0,.5-.5V9a.5.5,0,0,0-.5-.5H1V5.39L5.39,1H16.55a1.85,1.85,0,0,1,1.84,1.84Z"/></g></g></svg>