<svg xmlns="http://www.w3.org/2000/svg" viewBox="0 0 25.91 26.15"><g id="Capa_2" data-name="Capa 2"><g id="Capa_1-2" data-name="Capa 1"><path d="M12.92,26.15c-1.91,0-7.78-.11-9.49-1.43a1.15,1.15,0,0,1-.71.33,1.74,1.74,0,0,1-1.54-1,1.24,1.24,0,0,1,.15-1.22A7.1,7.1,0,0,1,.5,20.09l0-.25a36.46,36.46,0,0,1-.41-5.2c0-1.48-.09-3.31,0-5.05C.14,8.67.22,7.84.38,7s.46-1.71.71-2.53a3.05,3.05,0,0,1,.39-.88,1.33,1.33,0,0,1-.39-1.33,1.38,1.38,0,0,1,1.35-.94,1.55,1.55,0,0,1,.84.3C4,.89,5.89.4,9.05.16,10.16.05,11.4,0,13,0c1.33,0,2.61.08,3.91.16,2.17.17,4.9.55,5.76,1.46a1.52,1.52,0,0,1,.85-.31,1.38,1.38,0,0,1,1.35.94,1.34,1.34,0,0,1-.42,1.36,4.18,4.18,0,0,1,.41.82A17.18,17.18,0,0,1,25.54,7a18.49,18.49,0,0,1,.33,2.6h0a41.36,41.36,0,0,1-.08,5.07,37.81,37.81,0,0,1-.41,5.18l0,.24a6.94,6.94,0,0,1-.84,2.72A1.24,1.24,0,0,1,24.66,24a1.46,1.46,0,0,1-2.25.69C20.69,26,14.82,26.15,12.92,26.15Zm-9-2.29c.24.54,3.28,1.35,9,1.35s8.76-.8,9-1.37l.09.05.05-.25c.33-.24.62.05.72.15a1.9,1.9,0,0,0,.37.33.82.82,0,0,0,.59-.45c0-.1.06-.24-.13-.42l-.23-.43.12-.31a5.39,5.39,0,0,0,.87-2.58l0-.24a35.82,35.82,0,0,0,.41-5.08,42,42,0,0,0,.08-5h0a16.8,16.8,0,0,0-.32-2.46,16.5,16.5,0,0,0-.68-2.42,4.25,4.25,0,0,0-.43-.83c-.12-.19-.3-.48-.05-.75l.13,0,0,0c.28-.19.42-.41.37-.58a.45.45,0,0,0-.44-.27s-.24,0-.65.45l-.67.07-.06-.43H22c-.08-.28-1.45-.94-5.2-1.22C15.52,1,14.26.94,13,.94a38.07,38.07,0,0,0-3.83.16C5.81,1.36,4.28,1.87,4,2.27l-.13,0-.07.47L3.09,2.7c-.42-.43-.62-.45-.65-.45A.45.45,0,0,0,2,2.52c-.06.17.08.39.37.58l0,0h.07l.05.66A3.14,3.14,0,0,0,2,4.71c-.24.82-.49,1.63-.69,2.48S1.07,8.79,1,9.57c-.09,1.77-.05,3.58,0,5a36,36,0,0,0,.4,5.08l0,.25a5.39,5.39,0,0,0,.87,2.57v.39h0l-.15.34c-.19.18-.17.32-.13.42a.79.79,0,0,0,.66.44s.08-.07.36-.37l.7-.08,0,.24Z"/><path d="M16.39,9c1.1-1.1,2.16-1.8,2.4-1.55s-.49,1.3-1.55,2.41-2.16,1.79-2.4,1.54.45-1.3,1.55-2.4"/><path d="M7.21,7.49C7.45,7.25,8.51,8,9.61,9s1.8,2.16,1.55,2.41S9.86,11,8.76,9.9,7,7.69,7.21,7.49"/><path d="M9.61,17.4c-1.1,1.1-2.16,1.8-2.4,1.55s.49-1.3,1.55-2.41,2.16-1.79,2.4-1.55-.44,1.31-1.55,2.41"/><path d="M13.61,14.5a1.5,1.5,0,0,1-1.22,0,1.51,1.51,0,0,1-.94-1.42,1.66,1.66,0,0,1,.69-1.31,1.57,1.57,0,0,1,.86-.28,1.31,1.31,0,0,1,.86.28,1.57,1.57,0,0,1,.69,1.31,1.51,1.51,0,0,1-.94,1.42"/><path d="M18.79,19c-.24.24-1.3-.49-2.4-1.55s-1.8-2.16-1.55-2.41,1.3.49,2.4,1.55S19,18.71,18.79,19"/></g></g></svg>