<svg xmlns="http://www.w3.org/2000/svg" viewBox="0 0 12.49 34.71"><g id="Capa_2" data-name="Capa 2"><g id="Capa_1-2" data-name="Capa 1"><path d="M11.12,0H1.37A1.38,1.38,0,0,0,0,1.37V19.19a1.38,1.38,0,0,0,1.37,1.37h9.75a1.37,1.37,0,0,0,1.37-1.37V1.37A1.37,1.37,0,0,0,11.12,0ZM6.25,16.25a4.46,4.46,0,1,1,4.46-4.46A4.46,4.46,0,0,1,6.25,16.25Z"/><circle cx="6.25" cy="11.79" r="1.41"/><path d="M5.47,20.2H7a0,0,0,0,1,0,0V34.28a.43.43,0,0,1-.43.43H5.9a.43.43,0,0,1-.43-.43V20.2A0,0,0,0,1,5.47,20.2Z"/><path d="M2.64,25.61H4.19a0,0,0,0,1,0,0V33.5a.43.43,0,0,1-.43.43H3.07a.43.43,0,0,1-.43-.43V25.61A0,0,0,0,1,2.64,25.61Z" transform="translate(22.05 6.3) rotate(45)"/><path d="M8.3,25.61H9.85a0,0,0,0,1,0,0V33.5a.43.43,0,0,1-.43.43H8.73a.43.43,0,0,1-.43-.43V25.61a0,0,0,0,1,0,0Z" transform="translate(-18.39 15.14) rotate(-45)"/></g></g></svg>