<svg xmlns="http://www.w3.org/2000/svg" viewBox="0 0 24.94 10.65"><g id="Capa_2" data-name="Capa 2"><g id="Capa_1-2" data-name="Capa 1"><path d="M12.48,0c2.37,0,4.74,0,7.11,0a5.19,5.19,0,0,1,4.9,3.22,4.86,4.86,0,0,1,.43,2.49A5.39,5.39,0,0,1,21,10.45a5.38,5.38,0,0,1-1.44.2H5.34A5.21,5.21,0,0,1,1.44,9,5.1,5.1,0,0,1,.15,6.54,5,5,0,0,1,.09,4.4,5.29,5.29,0,0,1,3.51.33,4.88,4.88,0,0,1,5.33,0Zm0,8.85h7.1a3.38,3.38,0,0,0,2.19-.72,3.47,3.47,0,0,0,1.35-3.47,3.35,3.35,0,0,0-.89-1.74,3.32,3.32,0,0,0-2.45-1.12c-4.8,0-9.61,0-14.42,0a3.43,3.43,0,0,0-1.48.32,3.54,3.54,0,0,0-2,3.69,3.45,3.45,0,0,0,.87,1.87A3.45,3.45,0,0,0,5.32,8.86Z"/><path d="M12.46,6.72h-7A1.44,1.44,0,0,1,4.15,5.8,1.41,1.41,0,0,1,5.16,4a1.58,1.58,0,0,1,.38,0c4.62,0,9.24,0,13.85,0a1.44,1.44,0,0,1,1.42,1,1.4,1.4,0,0,1-.94,1.7,1.58,1.58,0,0,1-.48.06Z"/></g></g></svg>