<svg xmlns="http://www.w3.org/2000/svg" viewBox="0 0 29.19 24.94"><defs><style>.cls-1{fill:#1d1d1b;}</style></defs><g id="Capa_2" data-name="Capa 2"><g id="Capa_1-2" data-name="Capa 1"><path class="cls-1" d="M19.11,4.66a1,1,0,0,0,0,1.39,6.66,6.66,0,0,1,0,9.41,1,1,0,0,0,0,1.4,1,1,0,0,0,.7.29,1,1,0,0,0,.7-.29,8.64,8.64,0,0,0,0-12.2A1,1,0,0,0,19.11,4.66Z"/><path class="cls-1" d="M15.42,7.49a1,1,0,0,0,0,1.39,2.66,2.66,0,0,1,0,3.75A1,1,0,1,0,16.81,14a4.62,4.62,0,0,0,0-6.54A1,1,0,0,0,15.42,7.49Z"/><path class="cls-1" d="M24.87.29a1,1,0,0,0-1.4,1.39,12.86,12.86,0,0,1,0,18.15,1,1,0,0,0,0,1.4,1,1,0,0,0,1.39,0A14.83,14.83,0,0,0,24.87.29Z"/><path class="cls-1" d="M7.18,17.12a4.89,4.89,0,1,0-.68,0,6.9,6.9,0,0,0-4.74,1.95A6.63,6.63,0,0,0,0,24a1,1,0,0,0,1,1h11.7a1,1,0,0,0,1-1,6.59,6.59,0,0,0-1.76-4.91A6.86,6.86,0,0,0,7.18,17.12Z"/></g></g></svg>