<svg xmlns="http://www.w3.org/2000/svg" viewBox="0 0 18.19 29.05"><defs><style>.cls-1{fill:#1e1e1c;}</style></defs><g id="Capa_2" data-name="Capa 2"><g id="Capa_1-2" data-name="Capa 1"><path class="cls-1" d="M8.93,29.05a6.63,6.63,0,1,1,6.63-6.63,6.63,6.63,0,0,1-6.63,6.63m0-12.45a5.82,5.82,0,1,0,5.82,5.82A5.83,5.83,0,0,0,8.93,16.6"/><path class="cls-1" d="M12,23.3H4.34v-.22a1.54,1.54,0,0,1,1.54-1.54h7.63v.23A1.52,1.52,0,0,1,12,23.3"/><path class="cls-1" d="M9.26,13.25a6.63,6.63,0,1,1,6.63-6.62,6.64,6.64,0,0,1-6.63,6.62M9.26.81a5.82,5.82,0,1,0,5.82,5.82A5.83,5.83,0,0,0,9.26.81"/><path class="cls-1" d="M12.31,7.51H10.14v3.7H9.92A1.54,1.54,0,0,1,8.38,9.68V7.51H4.68V7.28A1.53,1.53,0,0,1,6.21,5.74H8.38V2h.23a1.54,1.54,0,0,1,1.53,1.54V5.74h3.71V6a1.54,1.54,0,0,1-1.54,1.54"/><path class="cls-1" d="M15.16,21.3l-.27-.3a8.68,8.68,0,0,0,.26-12.71L15.43,8a9.09,9.09,0,0,1-.27,13.3"/><path class="cls-1" d="M2.9,21.18A9.09,9.09,0,0,1,3,7.75l.27.3a8.69,8.69,0,0,0-.13,12.84Z"/></g></g></svg>