<svg xmlns="http://www.w3.org/2000/svg" viewBox="0 0 24.52 27.42"><g id="Capa_2" data-name="Capa 2"><g id="Capa_1-2" data-name="Capa 1"><path d="M12.26,17.65A5.76,5.76,0,1,0,6.5,11.89,5.77,5.77,0,0,0,12.26,17.65Zm0-10.52A4.76,4.76,0,1,1,7.5,11.89,4.76,4.76,0,0,1,12.26,7.13Z"/><path d="M9.34,11.22A3,3,0,0,1,11.51,9a.5.5,0,1,0-.25-1,4,4,0,0,0-2.9,3,.51.51,0,0,0,.38.6h.11A.51.51,0,0,0,9.34,11.22Z"/><path d="M12.26,23.77A11.89,11.89,0,1,0,.37,11.89,11.89,11.89,0,0,0,12.26,23.77ZM12.26,1A10.89,10.89,0,1,1,1.37,11.89,10.89,10.89,0,0,1,12.26,1Z"/><path d="M22.6,20.27a.49.49,0,0,0-.68-.2.5.5,0,0,0-.2.68l1.53,2.79a1.59,1.59,0,0,1,.05,1.67A2.61,2.61,0,0,1,21,26.42H3.57a2.64,2.64,0,0,1-2.36-1.21,1.62,1.62,0,0,1,.08-1.72l1.35-2.76a.5.5,0,0,0-.23-.67.51.51,0,0,0-.67.23L.42,23a2.56,2.56,0,0,0-.08,2.68,3.61,3.61,0,0,0,3.23,1.73H21a3.62,3.62,0,0,0,3.23-1.73A2.57,2.57,0,0,0,24.11,23Z"/></g></g></svg>