<?xml version="1.0" standalone="no"?>
<!DOCTYPE svg PUBLIC "-//W3C//DTD SVG 20010904//EN"
 "http://www.w3.org/TR/2001/REC-SVG-20010904/DTD/svg10.dtd">
<svg version="1.0" xmlns="http://www.w3.org/2000/svg"
 width="900.000000pt" height="900.000000pt" viewBox="0 0 900.000000 900.000000"
 preserveAspectRatio="xMidYMid meet">
<metadata>
Created by potrace 1.14, written by Peter Selinger 2001-2017
</metadata>
<g transform="translate(0.000000,900.000000) scale(0.100000,-0.100000)"
fill="#000000" stroke="none">
<path d="M4277 8224 c-2 -3 -35 -7 -73 -9 -107 -7 -176 -14 -259 -28 -115 -20
-133 -23 -137 -26 -2 -2 -15 -4 -29 -6 -14 -2 -45 -9 -70 -15 -24 -7 -51 -14
-59 -15 -49 -11 -166 -50 -171 -58 -3 -5 -9 -8 -13 -7 -11 3 -120 -43 -127
-53 -3 -5 -8 -7 -11 -5 -8 5 -181 -100 -228 -140 -151 -127 -230 -237 -320
-447 -12 -27 -27 -63 -35 -80 -7 -16 -45 -106 -85 -200 -40 -93 -77 -176 -82
-182 -6 -7 -7 -13 -2 -13 4 0 3 -5 -4 -12 -7 -7 -12 -20 -12 -30 0 -10 -4 -18
-10 -18 -5 0 -10 -7 -10 -15 0 -8 -11 -38 -24 -67 -13 -29 -36 -79 -50 -110
-14 -31 -26 -60 -26 -64 0 -4 -9 -27 -20 -51 -36 -78 -58 -127 -89 -203 -18
-41 -38 -88 -46 -105 -26 -55 -55 -124 -55 -129 0 -3 -16 -39 -35 -80 -19 -41
-35 -77 -35 -79 0 -3 -10 -26 -22 -53 -12 -27 -23 -51 -23 -54 -1 -3 -6 -16
-12 -30 -29 -68 -117 -269 -131 -300 -9 -19 -16 -37 -17 -40 -1 -3 -6 -16 -12
-30 -39 -89 -116 -269 -128 -297 -8 -18 -22 -50 -31 -70 -9 -21 -25 -56 -35
-77 -11 -22 -19 -44 -19 -50 0 -5 -14 -39 -31 -75 -17 -36 -35 -75 -39 -86 -5
-11 -23 -51 -39 -88 -17 -38 -31 -71 -31 -73 0 -3 -9 -24 -19 -47 -10 -23 -60
-139 -111 -257 -51 -118 -100 -233 -110 -255 -10 -22 -45 -103 -78 -180 -33
-77 -68 -158 -78 -180 -9 -22 -18 -42 -19 -45 -1 -3 -9 -23 -19 -45 -22 -51
-39 -89 -41 -95 -5 -16 -30 -72 -55 -128 -17 -35 -30 -66 -30 -69 0 -3 -6 -19
-14 -36 -54 -117 -76 -172 -76 -183 0 -8 -4 -14 -10 -14 -5 0 -10 -5 -10 -12
0 -10 -188 -454 -256 -603 -12 -27 -39 -90 -59 -140 -21 -49 -41 -94 -45 -100
-4 -5 -13 -28 -20 -50 -7 -22 -16 -45 -20 -50 -5 -6 -17 -33 -28 -60 -11 -28
-30 -72 -43 -100 -12 -27 -23 -54 -24 -60 -2 -5 -16 -39 -33 -75 -16 -36 -56
-126 -87 -200 -32 -74 -68 -157 -80 -185 -37 -85 -90 -210 -91 -215 0 -3 -13
-32 -28 -65 -16 -33 -33 -71 -38 -85 -14 -32 -33 -76 -51 -119 -16 -35 -8 -67
17 -68 6 -1 68 -17 138 -36 107 -30 237 -60 403 -92 17 -3 50 -8 75 -11 25 -2
56 -7 70 -9 138 -27 611 -27 785 0 17 2 53 7 80 10 41 5 163 26 235 40 111 23
298 85 400 132 30 15 58 26 63 25 4 -1 7 2 7 8 0 5 5 10 10 10 13 0 136 77
175 110 123 103 211 210 268 325 40 80 77 162 77 169 0 2 13 34 30 69 16 36
30 68 30 71 0 3 13 34 29 68 15 35 61 140 101 233 40 94 80 188 90 210 65 145
200 465 200 473 0 6 4 12 10 14 5 2 11 12 13 23 2 11 13 41 25 67 12 26 22 49
22 52 0 6 54 126 76 169 8 16 14 35 14 43 0 8 4 14 10 14 5 0 9 3 8 8 -2 6 41
112 92 227 54 120 126 292 130 310 1 6 5 15 10 20 4 6 27 55 50 110 23 55 53
124 66 153 13 29 24 54 24 56 0 2 9 24 20 50 12 25 21 48 20 51 0 3 11 26 25
53 14 26 25 53 25 59 0 7 5 13 11 13 5 0 8 4 5 8 -3 5 1 19 7 33 7 13 19 40
27 59 7 19 26 63 42 98 15 34 28 67 28 72 0 6 4 10 10 10 5 0 9 3 8 8 -2 4 6
27 16 52 11 25 20 47 21 50 1 3 8 21 17 40 84 192 168 391 168 400 0 5 5 10
12 10 6 0 9 3 6 6 -4 3 7 35 24 72 16 37 36 83 44 102 19 43 26 60 58 132 14
32 28 69 32 82 3 14 13 31 22 38 10 7 14 9 10 4 -4 -4 3 -27 15 -49 12 -23 22
-46 24 -52 2 -10 105 -248 144 -332 10 -24 19 -45 19 -48 0 -2 11 -28 24 -57
24 -54 82 -186 96 -223 5 -11 19 -45 33 -75 39 -89 50 -115 52 -120 5 -17 42
-102 76 -175 12 -27 24 -54 25 -60 2 -5 29 -71 62 -145 77 -179 75 -174 74
-182 -1 -5 3 -8 8 -8 6 0 10 -6 10 -13 0 -7 22 -62 48 -122 50 -114 64 -147
67 -155 1 -3 6 -16 13 -30 15 -34 81 -188 97 -225 18 -43 39 -92 67 -155 14
-30 30 -71 38 -90 7 -19 17 -39 22 -45 4 -5 8 -17 8 -27 0 -10 5 -18 10 -18 6
0 10 -7 10 -15 0 -8 4 -23 9 -33 5 -9 21 -46 36 -82 15 -36 36 -83 45 -105 10
-22 46 -105 80 -185 34 -80 72 -167 85 -195 12 -27 33 -77 46 -110 13 -33 27
-61 32 -63 4 -2 7 -10 7 -18 0 -7 11 -37 24 -66 14 -29 46 -102 71 -163 51
-118 70 -162 104 -237 11 -26 21 -54 21 -62 0 -7 7 -19 15 -26 9 -7 13 -15 10
-18 -2 -3 4 -21 14 -41 22 -42 51 -107 51 -114 0 -15 74 -160 109 -214 60 -94
217 -247 299 -293 15 -8 29 -18 32 -21 18 -23 319 -152 385 -165 6 -1 44 -11
85 -22 41 -11 104 -25 140 -31 36 -6 79 -13 95 -16 17 -3 48 -8 70 -10 22 -3
54 -7 70 -10 134 -19 583 -27 705 -12 123 16 207 27 235 32 11 2 36 7 55 10
77 14 130 25 175 37 35 9 61 15 100 22 6 1 16 5 23 9 6 5 12 6 12 3 0 -3 18 1
39 9 22 7 42 11 45 8 3 -4 6 -1 6 5 0 7 3 11 8 10 15 -4 78 13 95 26 17 13 17
17 -8 71 -14 32 -25 64 -25 71 0 8 -4 14 -10 14 -5 0 -10 6 -10 12 0 11 -36
100 -102 248 -21 47 -24 56 -58 135 -23 53 -27 62 -83 190 -19 44 -51 121 -72
170 -20 50 -48 115 -62 145 -14 30 -29 64 -34 75 -4 11 -22 51 -39 89 -16 38
-30 75 -30 82 0 8 -4 14 -10 14 -5 0 -10 7 -10 15 0 8 -4 23 -9 33 -6 9 -29
62 -52 117 -23 55 -53 125 -66 155 -28 63 -46 104 -60 140 -17 41 -54 123 -70
153 -8 15 -12 27 -9 27 2 0 -9 27 -25 60 -16 33 -29 63 -29 65 0 3 -9 24 -19
48 -11 23 -41 92 -67 152 -25 61 -54 128 -64 150 -10 22 -50 117 -90 210 -40
94 -83 193 -95 220 -12 28 -28 64 -35 80 -15 36 -146 340 -162 375 -6 14 -17
39 -24 55 -7 17 -22 52 -34 79 -12 27 -30 71 -41 99 -11 28 -26 63 -34 77 -7
14 -30 66 -50 115 -21 50 -48 114 -61 143 -13 29 -36 80 -50 115 -32 77 -66
154 -105 242 -12 28 -23 52 -24 55 -1 3 -9 23 -19 45 -10 22 -24 56 -31 76 -7
20 -18 45 -23 55 -12 22 -38 82 -77 174 -15 36 -36 85 -48 110 -11 25 -22 50
-23 55 -2 9 -68 163 -99 230 -7 17 -41 95 -75 175 -34 80 -70 163 -80 185 -10
22 -30 69 -45 105 -15 36 -43 98 -61 137 -19 40 -34 77 -34 83 0 6 -4 18 -9
28 -11 20 -47 101 -86 192 -15 36 -38 89 -51 118 -13 29 -24 55 -24 57 0 2
-11 28 -24 57 -13 29 -45 103 -71 163 -100 234 -118 271 -174 357 -42 64 -115
146 -193 215 -58 52 -292 186 -343 198 -5 1 -23 8 -40 14 -16 7 -52 20 -80 28
-27 8 -57 17 -65 20 -8 3 -19 7 -25 9 -81 20 -103 26 -120 28 -11 2 -20 4 -20
6 0 1 -9 3 -20 4 -11 1 -38 6 -60 10 -22 5 -51 10 -65 11 -106 15 -171 23
-255 31 -70 7 -532 14 -538 8z"/>
</g>
</svg>
