<svg xmlns="http://www.w3.org/2000/svg" viewBox="0 0 271.77 271.77"><defs><style>.cls-1{fill:#dbdbdb;}</style></defs><g id="Capa_2" data-name="Capa 2"><g id="Capa_1-2" data-name="Capa 1"><path class="cls-1" d="M0,2.93,9.38,91.11a2.65,2.65,0,0,0,4.5,1.59L30.29,76.28a2.66,2.66,0,0,1,3.75,0L75.79,118a2.65,2.65,0,0,0,3.74,0L98.78,98.78,118,79.53a2.65,2.65,0,0,0,0-3.74L76.28,34a2.66,2.66,0,0,1,0-3.75L92.7,13.88a2.65,2.65,0,0,0-1.59-4.5L2.93,0A2.64,2.64,0,0,0,0,2.93Z"/><path class="cls-1" d="M268.84,0,180.66,9.38a2.65,2.65,0,0,0-1.59,4.5l16.42,16.41a2.66,2.66,0,0,1,0,3.75L153.73,75.79a2.65,2.65,0,0,0,0,3.74L173,98.78,192.24,118a2.65,2.65,0,0,0,3.74,0l41.75-41.76a2.66,2.66,0,0,1,3.75,0L257.89,92.7a2.65,2.65,0,0,0,4.51-1.59l9.36-88.18A2.65,2.65,0,0,0,268.84,0Z"/><path class="cls-1" d="M271.76,268.84l-9.36-88.18a2.65,2.65,0,0,0-4.51-1.59l-16.41,16.42a2.66,2.66,0,0,1-3.75,0L196,153.73a2.65,2.65,0,0,0-3.74,0L173,173l-19.26,19.25a2.65,2.65,0,0,0,0,3.74l41.76,41.75a2.66,2.66,0,0,1,0,3.75l-16.42,16.41a2.65,2.65,0,0,0,1.59,4.51l88.18,9.36A2.66,2.66,0,0,0,271.76,268.84Z"/><path class="cls-1" d="M2.93,271.76l88.18-9.36a2.65,2.65,0,0,0,1.59-4.51L76.28,241.48a2.66,2.66,0,0,1,0-3.75L118,196a2.65,2.65,0,0,0,0-3.74L98.78,173,79.53,153.73a2.65,2.65,0,0,0-3.74,0L34,195.49a2.66,2.66,0,0,1-3.75,0L13.88,179.07a2.65,2.65,0,0,0-4.5,1.59L0,268.84A2.65,2.65,0,0,0,2.93,271.76Z"/></g></g></svg>