<svg xmlns="http://www.w3.org/2000/svg" viewBox="0 0 17.93 29.71"><g id="Capa_2" data-name="Capa 2"><g id="Capa_1-2" data-name="Capa 1"><path d="M.5,27.56a.5.5,0,0,1-.5-.5V3.79a.5.5,0,0,1,1,0V27.06A.5.5,0,0,1,.5,27.56Z"/><path d="M17.43,27.56a.5.5,0,0,1-.5-.5V3.79a.5.5,0,1,1,1,0V27.06A.5.5,0,0,1,17.43,27.56Z"/><path d="M9,6.45c-4.32,0-9-.83-9-2.66a.5.5,0,0,1,1,0c0,.5,2.71,1.66,8,1.66s8-1.16,8-1.66a.5.5,0,1,1,1,0C17.93,5.62,13.28,6.45,9,6.45Z"/><path d="M9,14.2c-4.32,0-9-.83-9-2.65a.5.5,0,0,1,.5-.5.5.5,0,0,1,.5.5C1,12,3.71,13.2,9,13.2s8-1.16,8-1.65a.5.5,0,0,1,1,0C17.93,13.37,13.28,14.2,9,14.2Z"/><path d="M9,22c-4.32,0-9-.83-9-2.66a.5.5,0,0,1,1,0C1,19.8,3.71,21,9,21s8-1.16,8-1.66a.5.5,0,0,1,1,0C17.93,21.13,13.28,22,9,22Z"/><path d="M17.43,4.29a.5.5,0,0,1-.5-.5c0-.23-1-1-4.1-1.41a.5.5,0,0,1,.13-1c1.86.25,5,.89,5,2.4A.5.5,0,0,1,17.43,4.29Z"/><path d="M5,2.39A.5.5,0,0,1,4.54,2,.5.5,0,0,1,5,1.39l.18,0a.54.54,0,0,1,.6.43.47.47,0,0,1-.39.55l-.26,0Z"/><path d="M12.9,2.39h-.07l-.17,0,0-.51.15-.48.18,0a.5.5,0,0,1,.43.56A.5.5,0,0,1,12.9,2.39Zm-.27-.54.06-.49Z"/><path d="M.5,4.29a.5.5,0,0,1-.5-.5c0-1.51,3.11-2.15,5-2.4a.5.5,0,1,1,.13,1C2,2.8,1,3.56,1,3.79A.5.5,0,0,1,.5,4.29Z"/><path d="M9,5.29c-.74,0-4.44-.07-4.44-1.5a.51.51,0,0,1,.5-.5.5.5,0,0,1,.49.42A7.21,7.21,0,0,0,9,4.29a7.19,7.19,0,0,0,3.44-.58.5.5,0,0,1,.49-.42.51.51,0,0,1,.5.5C13.4,5.22,9.71,5.29,9,5.29Zm3.43-1.5Zm-6.87,0Z"/><path d="M12.63,2.35a.47.47,0,0,1-.41-.22.49.49,0,0,1,.13-.69l.06,0A.49.49,0,0,1,12.9,1a.5.5,0,0,1,.5.5,1,1,0,0,1-.49.77A.46.46,0,0,1,12.63,2.35ZM12.4,1.5Z"/><path d="M5.26,2.35A.46.46,0,0,1,5,2.27a1,1,0,0,1-.49-.77.5.5,0,0,1,1-.11.55.55,0,0,1,.15.71A.51.51,0,0,1,5.26,2.35Zm.27-.85Z"/><path d="M9,3a8.21,8.21,0,0,1-4-.73.5.5,0,1,1,.56-.83A7.52,7.52,0,0,0,9,2a7.5,7.5,0,0,0,3.38-.56.5.5,0,1,1,.56.83A8.19,8.19,0,0,1,9,3Z"/><path d="M12.9,2a.5.5,0,0,1-.49-.41A7.13,7.13,0,0,0,9,1a7.16,7.16,0,0,0-3.45.59A.5.5,0,0,1,5,2a.5.5,0,0,1-.5-.5C4.53.07,8.23,0,9,0S13.4.07,13.4,1.5A.5.5,0,0,1,12.9,2Zm-.5-.5Zm-6.87,0Z"/><path d="M9,29.71c-4.32,0-9-.83-9-2.65a.5.5,0,0,1,.5-.5.5.5,0,0,1,.5.5c0,.49,2.71,1.65,8,1.65s8-1.16,8-1.65a.5.5,0,1,1,1,0C17.93,28.88,13.28,29.71,9,29.71Z"/><path d="M5,4.29a.5.5,0,0,1-.5-.5V1.89a.5.5,0,0,1,.5-.5.5.5,0,0,1,.5.5v1.9A.5.5,0,0,1,5,4.29Z"/><path d="M5,2.39a.51.51,0,0,1-.5-.5V1.5A.5.5,0,0,1,5,1a.5.5,0,0,1,.5.5v.39A.5.5,0,0,1,5,2.39Z"/><path d="M12.9,4.29a.5.5,0,0,1-.5-.5V1.89a.5.5,0,0,1,.5-.5.5.5,0,0,1,.5.5v1.9A.5.5,0,0,1,12.9,4.29Z"/><path d="M12.9,2.39a.5.5,0,0,1-.5-.5V1.5a.5.5,0,0,1,.5-.5.5.5,0,0,1,.5.5v.39A.51.51,0,0,1,12.9,2.39Z"/></g></g></svg>