<svg xmlns="http://www.w3.org/2000/svg" viewBox="0 0 28.15 30.76"><g id="Capa_2" data-name="Capa 2"><g id="Capa_1-2" data-name="Capa 1"><path d="M9.73,30.76a.5.5,0,0,1-.24-.06.51.51,0,0,1-.26-.44V16.44l-8.38,8a.5.5,0,0,1-.71,0,.5.5,0,0,1,0-.71l8.74-8.37L.15,7a.49.49,0,0,1,0-.7.5.5,0,0,1,.71,0l8.38,8V.5A.51.51,0,0,1,9.49.06a.49.49,0,0,1,.51,0L19.23,6a.5.5,0,0,1,.22.37.47.47,0,0,1-.15.41l-9,8.6,9,8.59a.49.49,0,0,1,.15.41.52.52,0,0,1-.22.38L10,30.68A.53.53,0,0,1,9.73,30.76Zm.5-14.1V29.34l7.92-5.08Zm0-15.24V14.1l7.92-7.6Z"/><circle cx="18.95" cy="15.33" r="1.07"/><path d="M21.88,19.91a.49.49,0,0,1-.41-.21.5.5,0,0,1,.12-.7,4.52,4.52,0,0,0,0-7.31.5.5,0,1,1,.6-.8,5.53,5.53,0,0,1-.06,8.93A.52.52,0,0,1,21.88,19.91Z"/><path d="M24.7,22.36a.48.48,0,0,1-.38-.17.5.5,0,0,1,0-.7,8.19,8.19,0,0,0-.07-12.38.51.51,0,0,1-.05-.71.49.49,0,0,1,.7-.05A9.2,9.2,0,0,1,25,22.24.54.54,0,0,1,24.7,22.36Z"/></g></g></svg>