<svg xmlns="http://www.w3.org/2000/svg" viewBox="0 0 30.11 24.08"><g id="Capa_2" data-name="Capa 2"><g id="Capa_1-2" data-name="Capa 1"><path d="M12.83,5.72a10.55,10.55,0,0,1-2.25-.25c-3-.64-5.08-2.25-4.76-3.74C6,1,6.74.39,7.94.14a9.42,9.42,0,0,1,3.75.11,9.5,9.5,0,0,1,3.47,1.43c1,.72,1.46,1.54,1.29,2.32s-.92,1.33-2.12,1.58A7.08,7.08,0,0,1,12.83,5.72ZM9.44,1a6.61,6.61,0,0,0-1.3.12c-.76.16-1.27.46-1.34.82-.15.68,1.3,2,4,2.56a8.48,8.48,0,0,0,3.34.1c.76-.16,1.27-.46,1.34-.81h0c.08-.35-.26-.84-.89-1.3a8.49,8.49,0,0,0-3.1-1.26A9.89,9.89,0,0,0,9.44,1Z"/><path d="M11.76,17.7a17.66,17.66,0,0,1-3.06-.26C3.08,16.69,1,13.69.49,12.79c-.7-1.25-.45-4-.42-4.3C.5,5.37,1.75,3.08,3.78,1.65A10.68,10.68,0,0,1,11.38.19,11.51,11.51,0,0,1,18.5,4.41L17.69,5a10.59,10.59,0,0,0-6.48-3.82A9.75,9.75,0,0,0,4.35,2.47,8.55,8.55,0,0,0,1.06,8.61a8.87,8.87,0,0,0,.3,3.69c.32.57,2.18,3.44,7.5,4.15a16.8,16.8,0,0,0,4.25.19l.09,1Q12.45,17.7,11.76,17.7Z"/><path d="M22.05,24.08a10.7,10.7,0,0,1-6.81-2.56,11.67,11.67,0,0,1-2.85-5A10.11,10.11,0,0,1,14.92,6.37c4.55-4.53,9.16-2.57,9.36-2.48s3.06,1.35,4.94,7.52c1.76,5.75.42,8.67.18,9.13s-1.08,2.61-5.66,3.39A10.09,10.09,0,0,1,22.05,24.08Zm-.5-19.69a8.29,8.29,0,0,0-5.92,2.69,8.93,8.93,0,0,0-2.29,9.1l0,0a10.79,10.79,0,0,0,2.56,4.57A9.75,9.75,0,0,0,23.57,23c4.3-.73,4.88-2.7,4.88-2.72l.06-.14s1.49-2.7-.24-8.39-4.36-6.89-4.39-6.9A6.37,6.37,0,0,0,21.55,4.39Z"/><path d="M27.22,21.85c-2.19,0-4.79-3.15-6.16-7.64a16.36,16.36,0,0,1-.74-6.41c.23-2,1-3.28,2.18-3.64S25,4.44,26.34,6a16.36,16.36,0,0,1,3,5.73h0c1.5,4.94.87,9.35-1.44,10.06A2.3,2.3,0,0,1,27.22,21.85ZM23.15,5.06a1.49,1.49,0,0,0-.36.05c-.76.24-1.29,1.26-1.48,2.81a15.27,15.27,0,0,0,.71,6c1.41,4.62,4.06,7.33,5.55,6.88s2.18-4.18.77-8.8h0a15.18,15.18,0,0,0-2.76-5.39A3.67,3.67,0,0,0,23.15,5.06Z"/><path d="M24.43,18.05c-1.28,0-2.67-1.57-3.39-3.91-.8-2.62-.35-4.91,1-5.33s3,1.23,3.84,3.84h0A8,8,0,0,1,26.25,16a2.27,2.27,0,0,1-1.37,2A1.74,1.74,0,0,1,24.43,18.05Zm-1.9-8.31-.16,0c-.7.22-1,2-.37,4.09s1.88,3.39,2.59,3.18c.32-.1.57-.55.67-1.22A6.67,6.67,0,0,0,25,13h0C24.37,11,23.25,9.74,22.53,9.74Z"/><rect x="20.74" y="8.92" width="1.5" height="1" transform="matrix(0.98, -0.19, 0.19, 0.98, -1.39, 4.2)"/><rect x="23.12" y="17.45" width="1.52" height="1" transform="translate(-5.77 14.34) rotate(-29.99)"/></g></g></svg>