<svg xmlns="http://www.w3.org/2000/svg" viewBox="0 0 28.6 29.97"><g id="Capa_2" data-name="Capa 2"><g id="Capa_1-2" data-name="Capa 1"><path d="M4.34,9.19H.5a.5.5,0,0,1-.5-.5V3.9a.5.5,0,0,1,.5-.5H4.34a.5.5,0,0,1,.5.5V8.69A.5.5,0,0,1,4.34,9.19ZM1,8.19H3.84V4.4H1Z"/><path d="M3.9,4.4H1a.5.5,0,0,1-.5-.5V.73A.5.5,0,0,1,1,.23h3a.51.51,0,0,1,.5.5V3.9A.51.51,0,0,1,3.9,4.4Zm-2.45-1h2V1.23H1.45Z"/><path d="M19.1,12.12H14.3a.51.51,0,0,1-.5-.5V7.77a.51.51,0,0,1,.5-.5h4.8a.51.51,0,0,1,.5.5v3.85A.51.51,0,0,1,19.1,12.12Zm-4.3-1h3.8V8.27H14.8Z"/><path d="M14.3,11.67H11.14a.5.5,0,0,1-.5-.5V8.22a.5.5,0,0,1,.5-.5H14.3a.5.5,0,0,1,.5.5v2.95A.5.5,0,0,1,14.3,11.67Zm-2.66-1H13.8V8.72H11.64Z"/><path d="M6.38,14.62H.51a.5.5,0,0,1-.5-.5V12.2a.5.5,0,0,1,.5-.5H6.38a.51.51,0,0,1,.5.5v1.92A.5.5,0,0,1,6.38,14.62ZM1,13.62H5.88V12.7H1Z"/><path d="M1.43,12.7a.5.5,0,0,1-.5-.5V8.69a.5.5,0,0,1,.5-.5.5.5,0,0,1,.5.5V12.2A.5.5,0,0,1,1.43,12.7Z"/><path d="M3.41,12.7a.5.5,0,0,1-.5-.5A16.1,16.1,0,0,1,3.3,8.57a.5.5,0,0,1,1,.23,14.64,14.64,0,0,0-.37,3.4A.5.5,0,0,1,3.41,12.7Z"/><path d="M15.17,30h-.12C10.8,30,7.4,28.67,5,26.1c-4.39-4.65-4-11.71-4-12a.53.53,0,0,1,.53-.47.5.5,0,0,1,.47.53c0,.07-.33,6.94,3.77,11.27C7.94,27.77,11.09,29,15.07,29a13,13,0,0,0,8.54-3.42c2.65-2.58,4-6.42,4-11.43C27.6,9.68,26.37,6.28,24,4a12.6,12.6,0,0,0-8.55-3c-.11,0-8.16.07-10.56,6a.5.5,0,0,1-.65.28.5.5,0,0,1-.28-.65C6.57.1,15,0,15.38,0h0a13.43,13.43,0,0,1,9.26,3.28c2.63,2.45,4,6.1,4,10.83,0,5.3-1.45,9.39-4.3,12.15A13.73,13.73,0,0,1,15.17,30Z"/><path d="M14.75,27.9a11.09,11.09,0,0,1-8.47-3.29c-3.77-4-3.39-10.26-3.37-10.52a.5.5,0,1,1,1,.07c0,.06-.36,6.06,3.11,9.77a10.12,10.12,0,0,0,7.74,3,10.11,10.11,0,0,0,7.74-3c3.47-3.72,3.1-9.71,3.09-9.77s.29-5-2.69-8.16c-1.74-1.86-4.27-2.8-7.51-2.8-.06,0-4.36,0-7.12,2.68A8.49,8.49,0,0,0,5.91,12.2a.5.5,0,0,1-.5.5.5.5,0,0,1-.5-.5,9.46,9.46,0,0,1,2.65-7c3.07-3,7.64-3,7.83-3,3.52,0,6.3,1,8.24,3.12,3.27,3.51,3,8.62,2.95,8.84s.41,6.41-3.36,10.45A11.06,11.06,0,0,1,14.75,27.9Z"/><path d="M14.7,25.88a9.22,9.22,0,0,1-7.07-2.76c-3.2-3.45-2.84-8.81-2.83-9a.52.52,0,0,1,.54-.47.5.5,0,0,1,.46.54c0,.05-.34,5.16,2.57,8.28a8.23,8.23,0,0,0,6.33,2.44A8.23,8.23,0,0,0,21,22.44c2.89-3.12,2.54-8.23,2.53-8.28a3.11,3.11,0,0,0-3.11-3H19.1a.5.5,0,0,1,0-1h1.35a4,4,0,0,1,4.11,3.89c0,.22.4,5.58-2.79,9A9.22,9.22,0,0,1,14.7,25.88Z"/><path d="M26.08,14.62h0a.5.5,0,0,1-.47-.52,5,5,0,0,0-1.36-3.49C23.12,9.52,21.4,9,19.13,9.19a.52.52,0,0,1-.53-.47.5.5,0,0,1,.46-.53c2.59-.17,4.56.41,5.87,1.72a6,6,0,0,1,1.65,4.24A.5.5,0,0,1,26.08,14.62Z"/></g></g></svg>