<svg xmlns="http://www.w3.org/2000/svg" viewBox="0 0 21.86 28.3"><g id="Capa_2" data-name="Capa 2"><g id="Capa_1-2" data-name="Capa 1"><path d="M.5,13.13a.5.5,0,0,1-.5-.5V.5A.5.5,0,0,1,.5,0,.5.5,0,0,1,1,.5V12.63A.5.5,0,0,1,.5,13.13Z"/><path d="M12.11,13.13a.57.57,0,0,1-.28-.08L2.58,7a.52.52,0,0,1-.23-.42.48.48,0,0,1,.23-.42L11.83.08a.49.49,0,0,1,.51,0,.5.5,0,0,1,.27.44V12.63a.51.51,0,0,1-.26.44A.53.53,0,0,1,12.11,13.13ZM3.76,6.6l7.85,5.11V1.43Z"/><path d="M21.36,13.13a.53.53,0,0,1-.27-.08L11.83,7a.51.51,0,0,1-.22-.42.5.5,0,0,1,.22-.42L21.09.08a.49.49,0,0,1,.51,0,.51.51,0,0,1,.26.44V12.63a.51.51,0,0,1-.26.44A.48.48,0,0,1,21.36,13.13ZM13,6.6l7.84,5.11V1.43Z"/><path d="M21.36,28.3a.51.51,0,0,1-.5-.5V15.67a.5.5,0,0,1,.5-.5.5.5,0,0,1,.5.5V27.8A.5.5,0,0,1,21.36,28.3Z"/><path d="M9.76,28.3a.5.5,0,0,1-.24-.06.51.51,0,0,1-.26-.44V15.67a.49.49,0,0,1,.26-.44.49.49,0,0,1,.51,0l9.26,6.1a.47.47,0,0,1,.22.42.49.49,0,0,1-.22.41l-9.26,6A.53.53,0,0,1,9.76,28.3Zm.5-11.71V26.88l7.84-5.12Z"/><path d="M.5,28.3a.53.53,0,0,1-.24-.06A.51.51,0,0,1,0,27.8V15.67a.49.49,0,0,1,.26-.44.49.49,0,0,1,.51,0L10,21.35a.49.49,0,0,1,0,.83l-9.26,6A.5.5,0,0,1,.5,28.3ZM1,16.59V26.88l7.85-5.12Z"/></g></g></svg>