<svg xmlns="http://www.w3.org/2000/svg" viewBox="0 0 18.06 29.88"><g id="Capa_2" data-name="Capa 2"><g id="Capa_1-2" data-name="Capa 1"><path d="M14.75,27H3.31A3.31,3.31,0,0,1,0,23.67v-16A3.31,3.31,0,0,1,3.31,4.4H14.75a3.31,3.31,0,0,1,3.31,3.31v16A3.31,3.31,0,0,1,14.75,27ZM3.31,5.4A2.32,2.32,0,0,0,1,7.71v16A2.31,2.31,0,0,0,3.31,26H14.75a2.31,2.31,0,0,0,2.31-2.3v-16A2.32,2.32,0,0,0,14.75,5.4Z"/><path d="M6,5.4a.5.5,0,0,1-.5-.5V.5A.5.5,0,0,1,6,0a.5.5,0,0,1,.5.5V4.9A.5.5,0,0,1,6,5.4Z"/><path d="M12,5.4a.5.5,0,0,1-.5-.5V.5A.5.5,0,0,1,12,0a.5.5,0,0,1,.5.5V4.9A.5.5,0,0,1,12,5.4Z"/><path d="M13.84,1H4.22a.5.5,0,0,1-.5-.5.5.5,0,0,1,.5-.5h9.62a.5.5,0,0,1,.5.5A.5.5,0,0,1,13.84,1Z"/><path d="M17.56,10.14H.5a.5.5,0,0,1-.5-.5.5.5,0,0,1,.5-.5H17.56a.5.5,0,0,1,.5.5A.5.5,0,0,1,17.56,10.14Z"/><path d="M17.56,14.22H.5a.5.5,0,0,1-.5-.5.5.5,0,0,1,.5-.5H17.56a.5.5,0,0,1,.5.5A.5.5,0,0,1,17.56,14.22Z"/><path d="M17.56,18.31H.5a.5.5,0,0,1-.5-.5.5.5,0,0,1,.5-.5H17.56a.5.5,0,0,1,.5.5A.5.5,0,0,1,17.56,18.31Z"/><path d="M17.56,22.39H.5a.5.5,0,0,1,0-1H17.56a.5.5,0,1,1,0,1Z"/><path d="M5.38,29.88H3.63a.5.5,0,0,1-.5-.5V26.47a.5.5,0,0,1,1,0v2.41h.75V26.47a.5.5,0,0,1,1,0v2.91A.5.5,0,0,1,5.38,29.88Z"/><path d="M14.43,29.88H12.68a.5.5,0,0,1-.5-.5V26.47a.5.5,0,0,1,1,0v2.41h.75V26.47a.5.5,0,0,1,1,0v2.91A.5.5,0,0,1,14.43,29.88Z"/></g></g></svg>