<svg xmlns="http://www.w3.org/2000/svg" viewBox="0 0 27.21 27.21"><g id="Capa_2" data-name="Capa 2"><g id="Capa_1-2" data-name="Capa 1"><path d="M20.36,23.42H6.85a3.06,3.06,0,0,1-3.06-3.06V6.85A3.06,3.06,0,0,1,6.85,3.79H20.36a3.06,3.06,0,0,1,3.06,3.06V20.36A3.06,3.06,0,0,1,20.36,23.42ZM6.85,4.79A2.06,2.06,0,0,0,4.79,6.85V20.36a2.06,2.06,0,0,0,2.06,2.06H20.36a2.06,2.06,0,0,0,2.06-2.06V6.85a2.06,2.06,0,0,0-2.06-2.06Z"/><path d="M19,20.57H8.2A1.55,1.55,0,0,1,6.64,19V8.2A1.56,1.56,0,0,1,8.2,6.64H19A1.55,1.55,0,0,1,20.57,8.2V19A1.54,1.54,0,0,1,19,20.57ZM8.2,7.64a.56.56,0,0,0-.56.56V19a.56.56,0,0,0,.56.55H19a.55.55,0,0,0,.55-.55V8.2A.56.56,0,0,0,19,7.64Z"/><path d="M8.38,4.79a.5.5,0,0,1-.5-.5V.5a.5.5,0,0,1,.5-.5.5.5,0,0,1,.5.5V4.29A.5.5,0,0,1,8.38,4.79Z"/><path d="M13.71,4.79a.5.5,0,0,1-.5-.5V.5a.5.5,0,0,1,.5-.5.5.5,0,0,1,.5.5V4.29A.5.5,0,0,1,13.71,4.79Z"/><path d="M19,4.79a.5.5,0,0,1-.5-.5V.5A.5.5,0,0,1,19,0a.5.5,0,0,1,.5.5V4.29A.5.5,0,0,1,19,4.79Z"/><path d="M8.38,27.21a.5.5,0,0,1-.5-.5V22.92a.51.51,0,0,1,.5-.5.5.5,0,0,1,.5.5v3.79A.5.5,0,0,1,8.38,27.21Z"/><path d="M13.71,27.21a.5.5,0,0,1-.5-.5V22.92a.5.5,0,0,1,.5-.5.51.51,0,0,1,.5.5v3.79A.5.5,0,0,1,13.71,27.21Z"/><path d="M19,27.21a.5.5,0,0,1-.5-.5V22.92a.5.5,0,0,1,.5-.5.51.51,0,0,1,.5.5v3.79A.5.5,0,0,1,19,27.21Z"/><path d="M26.71,19.43H22.92a.51.51,0,0,1-.5-.5.5.5,0,0,1,.5-.5h3.79a.5.5,0,0,1,.5.5A.5.5,0,0,1,26.71,19.43Z"/><path d="M26.71,14.11H22.92a.51.51,0,0,1-.5-.5.5.5,0,0,1,.5-.5h3.79a.5.5,0,0,1,.5.5A.5.5,0,0,1,26.71,14.11Z"/><path d="M26.71,8.78H22.92a.5.5,0,0,1-.5-.5.51.51,0,0,1,.5-.5h3.79a.5.5,0,0,1,.5.5A.5.5,0,0,1,26.71,8.78Z"/><path d="M4.29,19.43H.5a.5.5,0,0,1-.5-.5.5.5,0,0,1,.5-.5H4.29a.5.5,0,0,1,.5.5A.5.5,0,0,1,4.29,19.43Z"/><path d="M4.29,14.11H.5a.5.5,0,0,1-.5-.5.5.5,0,0,1,.5-.5H4.29a.5.5,0,0,1,.5.5A.5.5,0,0,1,4.29,14.11Z"/><path d="M4.29,8.78H.5a.5.5,0,0,1-.5-.5.5.5,0,0,1,.5-.5H4.29a.5.5,0,0,1,.5.5A.5.5,0,0,1,4.29,8.78Z"/></g></g></svg>