<svg xmlns="http://www.w3.org/2000/svg" viewBox="0 0 29.03 29.03"><g id="Capa_2" data-name="Capa 2"><g id="Capa_1-2" data-name="Capa 1"><path d="M5.46,25.32a1.81,1.81,0,1,1,1.81-1.81A1.81,1.81,0,0,1,5.46,25.32Zm0-2.61a.81.81,0,1,0,.81.8A.8.8,0,0,0,5.46,22.71Z"/><path d="M6.57,29H4.51A4.51,4.51,0,0,1,0,24.46V2.36A2.36,2.36,0,0,1,2.36,0H8.72a2.36,2.36,0,0,1,2.36,2.36v22.1A4.51,4.51,0,0,1,6.57,29ZM2.36,1A1.36,1.36,0,0,0,1,2.36v22.1A3.51,3.51,0,0,0,4.51,28H6.57a3.51,3.51,0,0,0,3.51-3.51V2.36A1.36,1.36,0,0,0,8.72,1Z"/><rect x="0.5" y="9.17" width="10.08" height="1"/><path d="M12.71,23.94a.52.52,0,0,1-.35-.14.5.5,0,0,1,0-.71L23.27,12a1.79,1.79,0,0,0,0-2.54L19.32,5.57a1.79,1.79,0,0,0-2.53,0L13.15,9.3a.5.5,0,0,1-.71-.7l3.63-3.7a2.79,2.79,0,0,1,3.95,0L24,8.71a2.8,2.8,0,0,1,0,3.95L13.07,23.79A.51.51,0,0,1,12.71,23.94Z"/><path d="M18.81,17.72a.5.5,0,0,1-.35-.15l-5.79-5.68a.5.5,0,1,1,.7-.71l5.79,5.68a.5.5,0,0,1-.35.86Z"/><path d="M11.1,29a.5.5,0,0,1-.5-.49.49.49,0,0,1,.49-.51l15.18-.3A1.79,1.79,0,0,0,28,25.91l-.11-5.5a1.78,1.78,0,0,0-1.83-1.76l-5.05.1a.5.5,0,0,1-.51-.49.5.5,0,0,1,.49-.51l5.05-.1a2.78,2.78,0,0,1,2.85,2.74l.11,5.5a2.84,2.84,0,0,1-.78,2,2.8,2.8,0,0,1-2,.85L11.11,29Z"/><path d="M19.4,28.87a.51.51,0,0,1-.5-.49l-.16-8.46a.51.51,0,0,1,.49-.51.5.5,0,0,1,.51.49l.16,8.46a.5.5,0,0,1-.49.51Z"/></g></g></svg>