<svg xmlns="http://www.w3.org/2000/svg" viewBox="0 0 29.45 24.84"><g id="Capa_2" data-name="Capa 2"><g id="Capa_1-2" data-name="Capa 1"><path d="M7.46,24.84a1.31,1.31,0,0,1-1-.4,1.35,1.35,0,0,1-.42-1V12.27a1.38,1.38,0,0,1,.42-1,1.36,1.36,0,0,1,1-.38l20.62.85a1.38,1.38,0,0,1,1.32,1.38V23a1.37,1.37,0,0,1-1.34,1.38h0l-20.62.51Zm0-12.94a.38.38,0,0,0-.38.37V23.46a.39.39,0,0,0,.11.27.47.47,0,0,0,.28.11l20.61-.51a.38.38,0,0,0,.37-.38V13.13a.38.38,0,0,0-.36-.38L7.47,11.9ZM28.09,23.83h0Z"/><path d="M7.33,24.83H7.25l-6.1-.88A1.35,1.35,0,0,1,0,22.61V14.36A1.33,1.33,0,0,1,.9,13.1L7,11a.51.51,0,0,1,.64.31.5.5,0,0,1-.31.63L1.23,14a.34.34,0,0,0-.23.32v8.25a.34.34,0,0,0,.29.34l6.11.88a.5.5,0,0,1-.07,1Z"/><path d="M12.62,23c-2,0-3.7-2.25-3.7-5s1.66-5,3.7-5,3.71,2.25,3.71,5S14.66,23,12.62,23Zm0-9c-1.49,0-2.7,1.8-2.7,4s1.21,4,2.7,4,2.71-1.81,2.71-4S14.11,13.92,12.62,13.92Z"/><path d="M12.62,20a1.84,1.84,0,0,1-1.59-2,1.84,1.84,0,0,1,1.59-2,1.84,1.84,0,0,1,1.59,2A1.84,1.84,0,0,1,12.62,20Zm0-3.09c-.28,0-.59.45-.59,1s.31,1,.59,1,.59-.45.59-1S12.9,16.9,12.62,16.9Z"/><path d="M20.26,22.48c-1.85,0-3.36-2-3.36-4.54s1.51-4.54,3.36-4.54,3.36,2,3.36,4.54S22.11,22.48,20.26,22.48Zm0-8.08C19,14.4,17.9,16,17.9,17.94s1.08,3.54,2.36,3.54,2.36-1.62,2.36-3.54S21.54,14.4,20.26,14.4Z"/><path d="M20.26,19.82a1.69,1.69,0,0,1-1.47-1.88,1.68,1.68,0,0,1,1.47-1.87,1.69,1.69,0,0,1,1.47,1.87A1.69,1.69,0,0,1,20.26,19.82Zm0-2.75c-.22,0-.47.38-.47.87s.25.88.47.88.47-.38.47-.88S20.48,17.07,20.26,17.07Z"/><path d="M3,11.65H3a.51.51,0,0,1-.47-.53C3,4.31,5.66,2.85,7.83,2.82a10,10,0,0,1,5.24,1.36c1.3.68,1.9,1,3.24-.21,4.15-3.7,7.09-5.32,9.86-2.65,1.43,1.38,2.07,4.42,1.91,9a.49.49,0,0,1-.52.48.5.5,0,0,1-.48-.52c.15-4.26-.41-7.13-1.6-8.29C23.48.11,21.41.76,17,4.72c-1.85,1.65-3,1-4.36.35A9,9,0,0,0,7.84,3.82c-3.17,0-4.09,4-4.3,7.36A.5.5,0,0,1,3,11.65Z"/></g></g></svg>