<svg xmlns="http://www.w3.org/2000/svg" viewBox="0 0 27.77 16.27"><g id="Capa_2" data-name="Capa 2"><g id="Capa_1-2" data-name="Capa 1"><path d="M1.76,9l0,6.77L0,14.06,0,9.44,1.12,8.36ZM0,6.62.07,2,1.81.27l0,6.8-.65.64Z"/><path d="M7.3,14.1,5.56,15.82l0-6.77.65-.66L7.32,9.48Zm0-7.44L6.25,7.74l-.64-.65L5.65.3,7.37,2Zm7.57,9.54-9-.06L7.6,14.42l5.61,0ZM15,.05,13.28,1.78l-5.61,0L6,0Zm.23,15.83-1.72-1.75,0-4.61,1.1-1.08.63.67Zm0-8.73-.63.64L13.55,6.7l0-4.62L15.32.36Z"/><path d="M19.75,14.17,18,15.89l0-6.76.65-.67,1.08,1.09Zm0-7.44L18.7,7.81l-.65-.65,0-6.79,1.73,1.74Zm7.56,9.54-9-.05L20,14.5l5.62,0ZM27.45.13,25.73,1.85l-5.61,0L18.42.07ZM27.68,16,26,14.21l0-4.62,1.11-1.08.63.67Zm.05-8.73-.63.64L26,6.77l0-4.62L27.77.43Z"/></g></g></svg>