<svg xmlns="http://www.w3.org/2000/svg" viewBox="0 0 29.46 28.61"><g id="Capa_2" data-name="Capa 2"><g id="Capa_1-2" data-name="Capa 1"><path d="M14,9.77c.21,0,.42,0,.63,0a4.93,4.93,0,0,0,3-1,4.91,4.91,0,1,0-3.62,1ZM10.75,4.41A3.91,3.91,0,0,1,14.62,1a4.19,4.19,0,0,1,.5,0A3.91,3.91,0,0,1,18.49,5.4,3.85,3.85,0,0,1,17,8a3.9,3.9,0,0,1-2.89.79,3.91,3.91,0,0,1-3.37-4.37Z"/><path d="M12.89,22.69h.24a1.06,1.06,0,0,0,1-.82l2.44-10.71a.78.78,0,0,0-.24-.75.79.79,0,0,0-.78-.16,3.88,3.88,0,0,1-1.65.07,3.54,3.54,0,0,1-1.57-.49.82.82,0,0,0-.8,0,.77.77,0,0,0-.42.66l-.23,7.16-.12,3.82a1.06,1.06,0,0,0,.91,1.08l.21,0c-.09,1.23-.44,3.51-1.37,4.39h0a1.14,1.14,0,0,1-1.17.3c-1-.27-1.26-2.08-1.52-4s-.53-3.94-1.64-5.2A3.33,3.33,0,0,0,4,16.91a2.85,2.85,0,0,0-2.54.83C-.77,20.07.2,26.45.25,26.72a.5.5,0,0,0,.49.43H.82a.51.51,0,0,0,.42-.57c-.27-1.71-.62-6.5,1-8.13a1.91,1.91,0,0,1,1.7-.54,2.38,2.38,0,0,1,1.56.82c.91,1,1.16,2.88,1.4,4.68.3,2.24.59,4.37,2.25,4.81a2.27,2.27,0,0,0,.62.09,2.12,2.12,0,0,0,1.49-.62h0C12.47,26.49,12.81,23.84,12.89,22.69Zm-.77-11.82a6,6,0,0,0,3.41.44L13.12,21.7l-.63-.08-.69-.1,0,0,.13-3.82Z"/><path d="M27.09,4.83A4.9,4.9,0,0,0,22,13.22a4.85,4.85,0,0,0,2.53.71,4.9,4.9,0,0,0,2.54-9.1Zm.81,6.22a3.9,3.9,0,1,1-4.28-5.81,3.85,3.85,0,0,1,.94-.12,3.91,3.91,0,0,1,3.34,5.93Z"/><path d="M23.25,14.32a3.75,3.75,0,0,1-1.53-.6,3.7,3.7,0,0,1-1.24-1.08.78.78,0,0,0-.72-.36.77.77,0,0,0-.65.43l-4.76,9.9A1.06,1.06,0,0,0,14.76,24l.18.11c-.61,1.14-2,3.29-3.24,3.54a.5.5,0,0,0-.4.58.51.51,0,0,0,.49.41h.1c1.78-.35,3.32-2.91,3.9-4l.09,0a1,1,0,0,0,.54.15,1,1,0,0,0,.84-.43l6.56-8.81a.77.77,0,0,0-.57-1.24Zm-6.86,9.47-.54-.33-.59-.41,4.6-9.57a5.51,5.51,0,0,0,1.34,1.1,5.59,5.59,0,0,0,1.6.68Z"/><path d="M6.13,17.48a.52.52,0,0,0,.37-.16c.38-.43,1.74-1.72,3.09-.51a.5.5,0,0,0,.67-.75c-1.62-1.45-3.44-.59-4.5.58a.5.5,0,0,0,0,.71A.46.46,0,0,0,6.13,17.48Z"/><path d="M4.77,19a.51.51,0,0,0-.67.23,25.42,25.42,0,0,0-1.51,4A.51.51,0,0,0,3,23.8h.13a.5.5,0,0,0,.48-.37A23.79,23.79,0,0,1,5,19.64.5.5,0,0,0,4.77,19Z"/><path d="M10,22.66l0,.14a12.89,12.89,0,0,0-.7,3.5.5.5,0,0,0,.5.48h0a.49.49,0,0,0,.48-.51A12.08,12.08,0,0,1,11,23.08l0-.15a.5.5,0,1,0-1-.27Z"/></g></g></svg>