<svg xmlns="http://www.w3.org/2000/svg" viewBox="0 0 21.31 29.37"><g id="Capa_2" data-name="Capa 2"><g id="Capa_1-2" data-name="Capa 1"><path d="M18.08,15.58H3.23A3.23,3.23,0,0,1,0,12.35V10.9A3.24,3.24,0,0,1,2.75,7.71l.15,1A2.23,2.23,0,0,0,1,10.9v1.45a2.23,2.23,0,0,0,2.23,2.23H18.08a2.23,2.23,0,0,0,2.23-2.23V10.9a2.23,2.23,0,0,0-1.8-2.18l.19-1a3.24,3.24,0,0,1,2.61,3.17v1.45A3.23,3.23,0,0,1,18.08,15.58Z"/><path d="M17.12,29.37H4.19A4.19,4.19,0,0,1,0,25.19V16.34a1.76,1.76,0,0,1,1.76-1.76H19.55a1.76,1.76,0,0,1,1.76,1.76v8.85A4.19,4.19,0,0,1,17.12,29.37ZM1.76,15.58a.76.76,0,0,0-.76.76v8.85a3.19,3.19,0,0,0,3.19,3.18H17.12a3.19,3.19,0,0,0,3.19-3.18V16.34a.76.76,0,0,0-.76-.76Z"/><path d="M12.59,17.82H8.65a2,2,0,0,1-2-2V14.58h8v1.23A2,2,0,0,1,12.59,17.82ZM7.64,15.58v.23a1,1,0,0,0,1,1h3.94a1,1,0,0,0,1-1v-.23Z"/><path d="M5.6,27H5.31a2.88,2.88,0,0,1-2.87-2.88v-.26a.5.5,0,0,1,.5-.5.5.5,0,0,1,.5.5v.26A1.88,1.88,0,0,0,5.31,26H5.6a.5.5,0,0,1,0,1Z"/><path d="M5.11,9.32a5.08,5.08,0,0,1-2.54-.68A.51.51,0,0,1,2.39,8a.51.51,0,0,1,.68-.18,4.16,4.16,0,0,0,3.31.35.5.5,0,1,1,.3,1A4.87,4.87,0,0,1,5.11,9.32Z"/><path d="M2.82,8.71a.59.59,0,0,1-.25-.07,4.88,4.88,0,0,1-1.45-1.3A.47.47,0,0,1,1,7V2.28a.45.45,0,0,1,.1-.3,5,5,0,0,1,4-2A4.78,4.78,0,0,1,10,4.66a.5.5,0,0,1-.5.5.5.5,0,0,1-.5-.5A3.78,3.78,0,0,0,5.11,1,4,4,0,0,0,2,2.45V6.87a3.78,3.78,0,0,0,1,.9.51.51,0,0,1,.18.69A.5.5,0,0,1,2.82,8.71Z"/><path d="M3.72,6a.5.5,0,0,1-.5-.5V3.86a.5.5,0,0,1,.5-.5.5.5,0,0,1,.5.5V5.48A.5.5,0,0,1,3.72,6Z"/><path d="M9.5,15.58h-3a.5.5,0,0,1-.5-.5V7.33a.5.5,0,0,1,1,0v7.25H9V4.66a.5.5,0,0,1,.5-.5.5.5,0,0,1,.5.5V15.08A.5.5,0,0,1,9.5,15.58Z"/><path d="M16.25,9.32a4.87,4.87,0,0,1-1.57-.25.5.5,0,0,1,.3-1,4.11,4.11,0,0,0,4.36-1.25V2.45A4,4,0,0,0,16.25,1a3.78,3.78,0,0,0-3.89,3.66.5.5,0,0,1-.5.5.5.5,0,0,1-.5-.5A4.78,4.78,0,0,1,16.25,0a5,5,0,0,1,4,2,.45.45,0,0,1,.1.3V7a.47.47,0,0,1-.1.3A5,5,0,0,1,16.25,9.32Z"/><path d="M17.64,6a.5.5,0,0,1-.5-.5V3.86a.5.5,0,0,1,.5-.5.5.5,0,0,1,.5.5V5.48A.5.5,0,0,1,17.64,6Z"/><path d="M14.83,15.58h-3a.5.5,0,0,1-.5-.5V4.66a.5.5,0,0,1,.5-.5.5.5,0,0,1,.5.5v9.92h2V7.33a.5.5,0,0,1,.5-.5.5.5,0,0,1,.5.5v7.75A.5.5,0,0,1,14.83,15.58Z"/><rect x="9.5" y="7.71" width="2.35" height="1"/></g></g></svg>