<svg xmlns="http://www.w3.org/2000/svg" viewBox="0 0 27.73 27.39"><g id="Capa_2" data-name="Capa 2"><g id="Capa_1-2" data-name="Capa 1"><path d="M1,18a.5.5,0,0,1-.48-.37,13.86,13.86,0,1,1,27.22-3.73c0,.39,0,.77-.05,1.15a.5.5,0,0,1-1-.09c0-.35.05-.7.05-1.06A12.87,12.87,0,0,0,1,13.86a13.08,13.08,0,0,0,.47,3.47.49.49,0,0,1-.35.61Z"/><path d="M2.16,22a.5.5,0,0,1-.22-1c.09,0,1.92-1,.9-4.65A11.21,11.21,0,0,1,11.75,3a10.73,10.73,0,0,1,8.8,1.72c2.93,2.22,4.68,6.08,5.07,11.15a.5.5,0,1,1-1,.08c-.37-4.78-2-8.39-4.68-10.43A9.76,9.76,0,0,0,12,4,10.05,10.05,0,0,0,5.12,8.68a9.91,9.91,0,0,0-1.31,7.46C5.06,20.61,2.49,21.91,2.38,22A.54.54,0,0,1,2.16,22Z"/><path d="M25.13,21.15a.5.5,0,0,1-.5-.5V18.09a.5.5,0,0,1,.5-.5.5.5,0,0,1,.5.5v2.56A.51.51,0,0,1,25.13,21.15Z"/><path d="M3.79,24.26a.5.5,0,0,1-.34-.86,7.84,7.84,0,0,0,2.07-6.75,11.32,11.32,0,0,1,1-7.27.49.49,0,0,1,.68-.16.48.48,0,0,1,.17.68,10.67,10.67,0,0,0-.81,6.6,8.82,8.82,0,0,1-2.38,7.63A.5.5,0,0,1,3.79,24.26Z"/><path d="M22.21,24.26h-.12a.5.5,0,0,1-.37-.6c0-.08,1.84-7.95-1.56-13.75-3.28-5.57-10-2.31-10.34-2.17a.51.51,0,0,1-.67-.22.5.5,0,0,1,.23-.67C9.46,6.8,17.27,3,21,9.39c3.61,6.15,1.76,14.15,1.68,14.49A.5.5,0,0,1,22.21,24.26Z"/><path d="M8.26,22.26H8.15a.5.5,0,0,1-.38-.6A16.09,16.09,0,0,0,8,16.94a15,15,0,0,1,.32-5.12c1-3.66,5.63-3.68,5.84-3.66a.5.5,0,0,1,0,1h0c-.08,0-4,0-4.87,2.94A14,14,0,0,0,9,16.88a17.07,17.07,0,0,1-.22,5A.5.5,0,0,1,8.26,22.26Z"/><path d="M6.42,26.62a.49.49,0,0,1-.32-.12A.51.51,0,0,1,6,25.79a6.62,6.62,0,0,0,1.22-2.15.51.51,0,0,1,.63-.33.5.5,0,0,1,.33.62A7.84,7.84,0,0,1,6.8,26.44.49.49,0,0,1,6.42,26.62Z"/><path d="M18.93,26.62h-.11a.5.5,0,0,1-.38-.6c3-14-1.92-16-2-16.07a.49.49,0,0,1-.3-.63A.5.5,0,0,1,16.8,9c.24.08,5.83,2.18,2.62,17.22A.5.5,0,0,1,18.93,26.62Z"/><path d="M15.71,27.39a.45.45,0,0,1-.16,0,.51.51,0,0,1-.31-.64,33.75,33.75,0,0,0,1.45-10.5v-.15c0-1.86-.44-3.38-1.3-4.05a2,2,0,0,0-1.87-.28c-2.19.58-2.27,1.53-1.83,7.14s-2.23,8.26-2.35,8.37a.5.5,0,1,1-.68-.72h0s2.45-2.42,2-7.57-.59-7.34,2.57-8.19a3,3,0,0,1,2.74.47c1.12.87,1.73,2.64,1.68,4.85v.15a34.62,34.62,0,0,1-1.51,10.81A.49.49,0,0,1,15.71,27.39Z"/><path d="M13.88,22.86h-.1a.51.51,0,0,1-.4-.59,21.13,21.13,0,0,0,0-8.57.5.5,0,0,1,.36-.61.51.51,0,0,1,.61.37,22,22,0,0,1,0,9A.5.5,0,0,1,13.88,22.86Z"/><path d="M12.82,27l-.13,0a.5.5,0,0,1-.36-.61l.58-2.17a.5.5,0,0,1,.61-.36.51.51,0,0,1,.36.62l-.58,2.17A.5.5,0,0,1,12.82,27Z"/></g></g></svg>