<svg xmlns="http://www.w3.org/2000/svg" viewBox="0 0 27.14 21.06"><g id="Capa_2" data-name="Capa 2"><g id="Capa_1-2" data-name="Capa 1"><path d="M17.88,21.06h-15A2.85,2.85,0,0,1,0,18.22V10A2.85,2.85,0,0,1,2.85,7.14h15A2.84,2.84,0,0,1,20.72,10v8.24A2.84,2.84,0,0,1,17.88,21.06ZM2.85,8.14A1.85,1.85,0,0,0,1,10v8.24a1.84,1.84,0,0,0,1.85,1.84h15a1.84,1.84,0,0,0,1.84-1.84V10a1.84,1.84,0,0,0-1.84-1.84Z"/><path d="M22,18.41a.5.5,0,0,1-.09-1,1.84,1.84,0,0,0,1.39-1.2L26,8.45a1.85,1.85,0,0,0-1.13-2.36l-14.18-5a1.82,1.82,0,0,0-1.41.07,1.85,1.85,0,0,0-.94,1.06L6.92,6.37a.48.48,0,0,1-.63.3A.5.5,0,0,1,6,6L7.43,1.9A2.87,2.87,0,0,1,8.89.28,2.82,2.82,0,0,1,11.06.16l14.18,5A2.85,2.85,0,0,1,27,8.78l-2.73,7.77a2.88,2.88,0,0,1-2.14,1.85Z"/><path d="M2.3,6.17a.5.5,0,0,1-.5-.5A5.51,5.51,0,0,1,6,.33a.49.49,0,0,1,.59.38.5.5,0,0,1-.38.6A4.43,4.43,0,0,0,2.8,5.67.5.5,0,0,1,2.3,6.17Z"/><path d="M2.33,6.17A.47.47,0,0,1,1.94,6L.83,4.61a.5.5,0,0,1,.08-.7.49.49,0,0,1,.7.08L2.4,5l1-.79A.5.5,0,0,1,4,5L2.64,6.06A.47.47,0,0,1,2.33,6.17Z"/><path d="M10.36,18.55a1.4,1.4,0,0,1-.66-.16,6.79,6.79,0,0,1-1.53-1.06,6.32,6.32,0,0,1-1-1.35,7.25,7.25,0,0,1-1-3.55,1.48,1.48,0,0,1,1-1.49l1.46-.62L10,9.73a1,1,0,0,1,.76,0l2.36,1,.65.28a1.44,1.44,0,0,1,.83,1.35v.14a7.91,7.91,0,0,1-.34,2,6.75,6.75,0,0,1-1.31,2.42,5.6,5.6,0,0,1-1.7,1.36,1.82,1.82,0,0,1-.7.26Zm0-7.9L9,11.24l-1.48.63a.48.48,0,0,0-.35.53A6.23,6.23,0,0,0,8,15.47a5.16,5.16,0,0,0,.88,1.13,5.27,5.27,0,0,0,1.29.9.42.42,0,0,0,.26.05,1.07,1.07,0,0,0,.33-.14,4.53,4.53,0,0,0,1.43-1.13,5.64,5.64,0,0,0,1.12-2.06,6.84,6.84,0,0,0,.3-1.74v-.12a.42.42,0,0,0-.26-.44c-.2-.1-.4-.18-.61-.27Z"/></g></g></svg>