<svg xmlns="http://www.w3.org/2000/svg" viewBox="0 0 30.35 30.52"><g id="Capa_2" data-name="Capa 2"><g id="Capa_1-2" data-name="Capa 1"><path d="M11,30.52a.5.5,0,0,1-.5-.5A10,10,0,0,0,.5,20a.5.5,0,0,1-.5-.5A.5.5,0,0,1,.5,19a10,10,0,0,0,10-10,.51.51,0,0,1,.5-.5.5.5,0,0,1,.5.5,10,10,0,0,0,10,10,.5.5,0,0,1,.5.5.5.5,0,0,1-.5.5,10,10,0,0,0-10,10A.5.5,0,0,1,11,30.52Zm-7.23-11A11.06,11.06,0,0,1,11,26.74a11.1,11.1,0,0,1,7.24-7.24A11.1,11.1,0,0,1,11,12.26,11.06,11.06,0,0,1,3.79,19.5Z"/><path d="M22.91,14.87a.51.51,0,0,1-.5-.5A6.44,6.44,0,0,0,16,7.93a.5.5,0,0,1-.5-.5.5.5,0,0,1,.5-.5A6.43,6.43,0,0,0,22.41.5a.5.5,0,0,1,.5-.5.5.5,0,0,1,.5.5,6.44,6.44,0,0,0,6.44,6.43.51.51,0,0,1,.5.5.5.5,0,0,1-.5.5,6.45,6.45,0,0,0-6.44,6.44A.5.5,0,0,1,22.91,14.87ZM18.66,7.43a7.46,7.46,0,0,1,4.25,4.26,7.5,7.5,0,0,1,4.26-4.26,7.46,7.46,0,0,1-4.26-4.25A7.41,7.41,0,0,1,18.66,7.43Z"/></g></g></svg>