<svg xmlns="http://www.w3.org/2000/svg" viewBox="0 0 29.39 29.44"><g id="Capa_2" data-name="Capa 2"><g id="Capa_1-2" data-name="Capa 1"><path d="M8.3,29.44a9.08,9.08,0,0,1-2.23-.28C2,28.14-.68,24.58.15,21.23a5.75,5.75,0,0,1,3.33-3.8,1.28,1.28,0,0,0,.72-1.75l0-.12,0-.08h0A3.53,3.53,0,0,1,4,15a4.48,4.48,0,0,1,.67-3.64,1.42,1.42,0,0,1,1.17-.63c.73,0,1.49.23,1.61,1.67v.05a1.14,1.14,0,0,0,.52,1c.14.06.4-.19.64-.59L10.24,6A.45.45,0,0,0,10,5.54a.51.51,0,0,1-.4-.31.53.53,0,0,1,.06-.49l.08-.11a5.34,5.34,0,0,0,.72-1.7,5.57,5.57,0,0,0,.18-1.71V1.1a.36.36,0,0,1,0-.18l.08-.34A.52.52,0,0,1,11,.24a3.43,3.43,0,0,1,3.88,1,.49.49,0,0,1,.11.45L14.94,2a.77.77,0,0,1-.07.16l-.08.11a6.07,6.07,0,0,0-.65,1.6A5.51,5.51,0,0,0,14,5.69l0,.13a.49.49,0,0,1-.18.46.47.47,0,0,1-.48.09c-.14,0-.38.13-.49.48l0,.14s0,0,0,0h0l-1.58,6.55c.07.42.21.71.38.76s.43-.2.55-.36a3,3,0,0,1,.19-.33c.78-1.22,1.56-1.05,2.21-.72a1.45,1.45,0,0,1,.73,1.1,4.47,4.47,0,0,1-1.12,3.53,4.12,4.12,0,0,1-.69.62,1,1,0,0,0-.19,1.16A6,6,0,0,1,15,24.94C14.33,27.68,11.53,29.44,8.3,29.44ZM5.07,15.17l0,0,0,.11a2.29,2.29,0,0,1-1.23,3,4.75,4.75,0,0,0-2.78,3.13c-.7,2.82,1.63,5.83,5.19,6.72s7-.68,7.74-3.49A5,5,0,0,0,12.5,20a.71.71,0,0,1-.1-.14,2.1,2.1,0,0,1,.41-2.4,3.76,3.76,0,0,0,.6-.54,3.51,3.51,0,0,0,.89-2.68c-.05-.24-.13-.37-.2-.4-.38-.19-.52-.26-.92.37-.06.09-.12.2-.19.32a1.52,1.52,0,0,1-1.69.79c-.41-.13-.93-.53-1.08-1.68a.37.37,0,0,1,0-.18l1.6-6.64,0,0,0-.17A1.68,1.68,0,0,1,13,5.41a7.28,7.28,0,0,1,.21-1.8A6.51,6.51,0,0,1,14,1.72l0-.05a2.4,2.4,0,0,0-2.33-.58v.06a6.65,6.65,0,0,1-.21,2,7,7,0,0,1-.65,1.69,1.65,1.65,0,0,1,.43,1.3l-1.68,7a.5.5,0,0,1-.05.13c-.8,1.4-1.63,1.21-2,1.07a2.06,2.06,0,0,1-1.1-1.71s0-.14,0-.16c-.06-.71-.2-.71-.63-.72h0c-.07,0-.21.06-.36.26A3.52,3.52,0,0,0,5,14.79a2.06,2.06,0,0,0,.12.35Z"/><path d="M23.74,14.4a5.65,5.65,0,1,1,5.65-5.65A5.65,5.65,0,0,1,23.74,14.4Zm0-10.3a4.65,4.65,0,1,0,4.65,4.65A4.65,4.65,0,0,0,23.74,4.1Z"/><path d="M23.74,27.27a5.65,5.65,0,1,1,5.65-5.65A5.65,5.65,0,0,1,23.74,27.27Zm0-10.3a4.65,4.65,0,1,0,4.65,4.65A4.65,4.65,0,0,0,23.74,17Z"/><path d="M26.66,9.25H20.81a.5.5,0,0,1,0-1h5.85a.5.5,0,0,1,0,1Z"/><path d="M26.66,22.12H20.81a.5.5,0,0,1-.5-.5.51.51,0,0,1,.5-.5h5.85a.5.5,0,0,1,.5.5A.5.5,0,0,1,26.66,22.12Z"/><path d="M23.74,12.18a.5.5,0,0,1-.5-.5V5.82a.5.5,0,0,1,.5-.5.51.51,0,0,1,.5.5v5.86A.51.51,0,0,1,23.74,12.18Z"/></g></g></svg>