<svg xmlns="http://www.w3.org/2000/svg" viewBox="0 0 30.53 26.28"><g id="Capa_2" data-name="Capa 2"><g id="Capa_1-2" data-name="Capa 1"><path d="M14.74,26.28a8.21,8.21,0,0,1-5.69-2.51,8.4,8.4,0,0,1-2.47-5,5.59,5.59,0,0,1,1.51-4.66,5.6,5.6,0,0,1,4.7-1.51,1.25,1.25,0,0,0,1.47-1.1l0-.11a.44.44,0,0,1,0-.1,3.69,3.69,0,0,1,.11-.45,4.39,4.39,0,0,1,2.4-2.72,1.44,1.44,0,0,1,1.3.06c.61.38,1.14.95.52,2.22l0,0-.05.1a1,1,0,0,0,0,1c.08.11.43,0,.82-.18l4.81-4.88c.11-.17.13-.41.05-.49a.5.5,0,0,1,.12-.85l.12,0A5.5,5.5,0,0,0,25.92,4a5.81,5.81,0,0,0,1-1.34L27,2.58a.4.4,0,0,1,.1-.15l.24-.24a.5.5,0,0,1,.42-.14,3.36,3.36,0,0,1,2.78,2.76.49.49,0,0,1-.14.44l-.24.24a.71.71,0,0,1-.14.1l-.12,0a5.81,5.81,0,0,0-1.34,1A5.23,5.23,0,0,0,27.49,8.1l-.06.12a.49.49,0,0,1-.84.14c-.1-.1-.38-.08-.64.15l-.1.1-.07.08-4.57,4.63c-.15.38-.18.69-.07.81s.45,0,.63,0a2.41,2.41,0,0,1,.33-.19c1.28-.63,1.84-.09,2.22.51a1.4,1.4,0,0,1,.06,1.31,4.35,4.35,0,0,1-2.72,2.39,4,4,0,0,1-.89.18,1,1,0,0,0-.73.86,5.85,5.85,0,0,1-1.36,5.56A5.47,5.47,0,0,1,14.74,26.28ZM12,13.59A4.47,4.47,0,0,0,8.8,14.85a4.63,4.63,0,0,0-1.22,3.86,7.37,7.37,0,0,0,2.18,4.36C12.29,25.6,16,26,18,24a4.84,4.84,0,0,0,1.07-4.71.5.5,0,0,1,0-.17,2.08,2.08,0,0,1,1.56-1.82,3.74,3.74,0,0,0,.77-.15,3.34,3.34,0,0,0,2.08-1.79c.09-.22.08-.36,0-.42-.22-.35-.3-.47-.94-.15l-.31.17a1.48,1.48,0,0,1-1.83-.19c-.29-.32-.53-.92-.07-2a.42.42,0,0,1,.11-.15l4.67-4.75,0,0,.11-.11a1.71,1.71,0,0,1,1.5-.46,6.71,6.71,0,0,1,1.08-1.39,6.46,6.46,0,0,1,1.59-1.19l.05,0a2.35,2.35,0,0,0-1.64-1.64l0,.05a6.46,6.46,0,0,1-1.19,1.59,6.71,6.71,0,0,1-1.39,1.08,1.62,1.62,0,0,1-.3,1.31l-4.91,5-.11.08c-1.37.78-2,.2-2.19-.09a2,2,0,0,1-.06-2l0-.11c.32-.65.21-.72-.14-.94a.55.55,0,0,0-.43,0,3.45,3.45,0,0,0-1.79,2.08c0,.12-.06.24-.08.35v.19a2.26,2.26,0,0,1-2.57,1.91C12.46,13.61,12.24,13.59,12,13.59Z"/><path d="M12.63,7.43a3.7,3.7,0,0,1-3.71-3.6,3.66,3.66,0,0,1,1-2.66A3.73,3.73,0,0,1,15.18,1a3.71,3.71,0,0,1,.16,5.25h0A3.7,3.7,0,0,1,12.63,7.43Zm0-6.43a2.71,2.71,0,1,0,1.86.73A2.71,2.71,0,0,0,12.63,1ZM15,5.92h0Z"/><path d="M4.38,14.3a.93.93,0,0,1-.62-.24l-.69-.65A.91.91,0,0,1,3,12.19L7.88,5.84a.69.69,0,0,1,.66-.26A.72.72,0,0,1,9.1,6a2.45,2.45,0,0,0,.69.91,2.57,2.57,0,0,0,1,.63.72.72,0,0,1,.49.54.71.71,0,0,1-.22.67l-6,5.3A.91.91,0,0,1,4.38,14.3Zm.07-1h0Zm0,0Zm-.64-.59.57.53L10,8.33a3.85,3.85,0,0,1-.89-.66,3.86,3.86,0,0,1-.71-.85Z"/><path d="M2.3,20.21a2.2,2.2,0,0,1-1.61-.6c-1.36-1.37-.41-3.19.28-4L3.41,13a.5.5,0,0,1,.73.68l-2.43,2.6c-.05.06-1.34,1.54-.31,2.58s3.26-.37,4-.89a.5.5,0,0,1,.57.83A7.89,7.89,0,0,1,2.3,20.21Z"/></g></g></svg>