<svg xmlns="http://www.w3.org/2000/svg" viewBox="0 0 28.53 28.83"><g id="Capa_2" data-name="Capa 2"><g id="Capa_1-2" data-name="Capa 1"><path d="M9.73,28.83a9.71,9.71,0,0,1-6.75-3A9.93,9.93,0,0,1,.05,20a6.59,6.59,0,0,1,1.78-5.51,6.63,6.63,0,0,1,5.55-1.78A1.59,1.59,0,0,0,9.25,11.3l0-.16a.24.24,0,0,0,0-.08h0a3.53,3.53,0,0,1,.13-.54,5.19,5.19,0,0,1,2.81-3.2,1.65,1.65,0,0,1,1.48.07c.72.45,1.29,1.07.58,2.52v0h0l0,.1a1.33,1.33,0,0,0,0,1.28c.15.23.69.05,1.12-.18L21.1,5.28c.16-.23.21-.57.06-.72A.52.52,0,0,1,21,4.09a.49.49,0,0,1,.3-.39l.15-.07a6.44,6.44,0,0,0,1.77-1.28A7.13,7.13,0,0,0,24.41.72l.06-.14a.42.42,0,0,1,.11-.15l.28-.28A.51.51,0,0,1,25.28,0a4,4,0,0,1,3.25,3.23.54.54,0,0,1-.14.44L28.1,4a.71.71,0,0,1-.14.1l-.14.06a6.78,6.78,0,0,0-1.63,1.23A6.4,6.4,0,0,0,24.9,7.12l-.06.14a.5.5,0,0,1-.39.31A.48.48,0,0,1,24,7.4c-.17-.18-.56-.13-.9.17L23,7.7l0,0h0l-5.54,5.63c-.21.5-.23.91-.07,1.09s.58.12.86,0l.4-.22c1.46-.72,2.08-.15,2.54.58a1.62,1.62,0,0,1,.06,1.47A5.14,5.14,0,0,1,18,19.08a5,5,0,0,1-1,.21,1.32,1.32,0,0,0-1,1.13A6.91,6.91,0,0,1,14.37,27,6.42,6.42,0,0,1,9.73,28.83ZM6.47,13.64a5.42,5.42,0,0,0-3.93,1.54A5.6,5.6,0,0,0,1,19.87a9,9,0,0,0,2.65,5.29c3.07,3.06,7.54,3.58,10,1.15A5.91,5.91,0,0,0,15,20.57a.47.47,0,0,1,0-.17,2.36,2.36,0,0,1,1.79-2.09,5.42,5.42,0,0,0,.94-.18,4.18,4.18,0,0,0,2.55-2.2.71.71,0,0,0,0-.6c-.27-.43-.4-.63-1.25-.21l-.38.21a1.69,1.69,0,0,1-2.07-.21c-.32-.36-.59-1-.06-2.25l.1-.15L22.22,7l0,0,.14-.14a1.84,1.84,0,0,1,1.76-.49,8.41,8.41,0,0,1,1.32-1.72,7.87,7.87,0,0,1,1.89-1.41l.12-.07A2.92,2.92,0,0,0,25.38,1l-.08.13a7.17,7.17,0,0,1-1.41,1.88,7.49,7.49,0,0,1-1.71,1.32,1.74,1.74,0,0,1-.32,1.55L16,11.9l-.11.08c-1.58.89-2.27.24-2.49-.08a2.25,2.25,0,0,1-.07-2.28,1.15,1.15,0,0,1,.08-.15h0c.41-.83.21-1-.23-1.23a.72.72,0,0,0-.59,0,4.17,4.17,0,0,0-2.2,2.56,3.39,3.39,0,0,0-.11.43v.08l0,.15a2.61,2.61,0,0,1-3,2.2A7.26,7.26,0,0,0,6.47,13.64Z"/></g></g></svg>