<svg xmlns="http://www.w3.org/2000/svg" viewBox="0 0 29.09 24.86"><g id="Capa_2" data-name="Capa 2"><g id="Capa_1-2" data-name="Capa 1"><path d="M11.2,20.75a.5.5,0,0,1-.43-.25.51.51,0,0,1,.18-.69,1.43,1.43,0,0,0,.78-1,2.77,2.77,0,0,0-.6-1.86l-.21-.2a.5.5,0,0,1,0-.71.51.51,0,0,1,.71,0l.24.25a3.74,3.74,0,0,1,.83,2.7,2.38,2.38,0,0,1-1.26,1.66A.55.55,0,0,1,11.2,20.75Z"/><path d="M11,16.67a.47.47,0,0,1-.34-.14l0,0a.5.5,0,1,1,.72-.7.53.53,0,0,1,0,.73A.54.54,0,0,1,11,16.67Z"/><path d="M20.13,12a.4.4,0,0,1-.15,0,.5.5,0,0,1-.33-.62c.62-2-.69-4-1.29-4.75a2.07,2.07,0,0,1-.42-1.25V2.08A1.08,1.08,0,0,0,16.86,1H11.42a1.09,1.09,0,0,0-1.09,1.08V5.15a2.1,2.1,0,0,1-.27,1L6.91,11.71a.5.5,0,0,1-.69.19A.49.49,0,0,1,6,11.22L9.19,5.69a1,1,0,0,0,.14-.54V2.08A2.09,2.09,0,0,1,11.42,0h5.44a2.08,2.08,0,0,1,2.08,2.08V5.32a1.11,1.11,0,0,0,.21.64c.69.89,2.21,3.23,1.46,5.66A.51.51,0,0,1,20.13,12Z"/><path d="M10.32,16a.5.5,0,0,1-.35-.15l-.85-.87a.5.5,0,0,1,.18-.81,6.34,6.34,0,0,0,3.31-2.9.5.5,0,0,1,.88.48,7.4,7.4,0,0,1-3.15,3l.34.34a.5.5,0,0,1,0,.71A.47.47,0,0,1,10.32,16Z"/><path d="M7.89,18.26a.47.47,0,0,1-.35-.14L5.9,16.54a.5.5,0,0,1,0-.71.51.51,0,0,1,.71,0L8.23,17.4a.5.5,0,0,1-.34.86Z"/><path d="M11,16.65a.51.51,0,0,1-.36-.15L10,15.81a.5.5,0,0,1,0-.71.51.51,0,0,1,.71,0l.69.7a.5.5,0,0,1,0,.71A.52.52,0,0,1,11,16.65Z"/><path d="M13.05,12a.5.5,0,0,1-.24-.06.51.51,0,0,1-.2-.68,4.83,4.83,0,0,0,.47-1.12.51.51,0,0,1,.61-.36.5.5,0,0,1,.36.61,6.53,6.53,0,0,1-.56,1.35A.52.52,0,0,1,13.05,12Z"/><path d="M11.28,16.93a.51.51,0,0,1-.36-.15l-.24-.25a.5.5,0,0,1,.72-.7l.24.24a.5.5,0,0,1,0,.71A.49.49,0,0,1,11.28,16.93Z"/><path d="M6.25,16.68a.47.47,0,0,1-.35-.14l-1-1a1.5,1.5,0,0,1-.26-1.84L6,11.22A.51.51,0,0,1,6.72,11a.52.52,0,0,1,.19.69L5.49,14.21a.5.5,0,0,0,.09.63l1,1a.5.5,0,0,1-.35.86Z"/><path d="M10.71,21a.5.5,0,0,1-.35-.14L7.54,18.12a.48.48,0,0,1,0-.7.49.49,0,0,1,.7,0l2.58,2.49.14-.08a.51.51,0,0,1,.68.18.51.51,0,0,1-.18.69,3.24,3.24,0,0,1-.56.27A.39.39,0,0,1,10.71,21Z"/><path d="M11.38,16.68H11a.5.5,0,0,1-.5-.5.5.5,0,0,1,.5-.5h.34a.51.51,0,0,1,.5.5A.5.5,0,0,1,11.38,16.68Z"/><path d="M28.59,16.68a.5.5,0,0,1-.5-.5V12.8a.83.83,0,0,0-.83-.83H13.05a.5.5,0,0,1-.5-.5.5.5,0,0,1,.5-.5H27.26a1.83,1.83,0,0,1,1.83,1.83v3.38A.5.5,0,0,1,28.59,16.68Z"/><path d="M11,16.68h0a.5.5,0,0,1-.5-.5.5.5,0,0,1,.5-.5.51.51,0,0,1,.5.5A.49.49,0,0,1,11,16.68Z"/><path d="M17.83,16.68h-.18a.5.5,0,0,1-.5-.5.51.51,0,0,1,.5-.5h.18a.5.5,0,0,1,.5.5A.5.5,0,0,1,17.83,16.68Z"/><path d="M14.69,16.68h-.35a.5.5,0,0,1-.5-.5.5.5,0,0,1,.5-.5h.35a.5.5,0,0,1,.5.5A.5.5,0,0,1,14.69,16.68Z"/><path d="M21.14,16.68a.5.5,0,0,1-.5-.5v-.37a1.16,1.16,0,1,0-2.31,0v.37a.5.5,0,0,1-1,0v-.37a2.16,2.16,0,1,1,4.31,0v.37A.5.5,0,0,1,21.14,16.68Z"/><path d="M19.49,23a2.16,2.16,0,0,1-2.16-2.16.5.5,0,0,1,1,0,1.16,1.16,0,1,0,2.31,0V16.18a.51.51,0,0,1,.5-.5.5.5,0,0,1,.5.5v4.65A2.16,2.16,0,0,1,19.49,23Z"/><path d="M17.83,17.41a.5.5,0,0,1-.5-.5v-.73a.5.5,0,0,1,1,0v.73A.5.5,0,0,1,17.83,17.41Z"/><path d="M16.17,24.09A2.16,2.16,0,0,1,14,21.93a.5.5,0,0,1,.5-.5.5.5,0,0,1,.5.5,1.16,1.16,0,1,0,2.32,0v-1.1a.5.5,0,0,1,1,0v1.1A2.16,2.16,0,0,1,16.17,24.09Z"/><path d="M17.65,16.68a.48.48,0,0,1-.44-.28,1.16,1.16,0,0,0-1-.65,1.14,1.14,0,0,0-1,.65.5.5,0,0,1-.9-.44,2.16,2.16,0,0,1,1.93-1.21A2.14,2.14,0,0,1,18.1,16a.5.5,0,0,1-.22.67A.48.48,0,0,1,17.65,16.68Z"/><path d="M17.83,17.41a.5.5,0,0,1-.5-.5,1.19,1.19,0,0,0-.12-.51A.5.5,0,1,1,18.1,16a2.14,2.14,0,0,1,.23.95A.5.5,0,0,1,17.83,17.41Z"/><path d="M14.51,17.41a.5.5,0,0,1-.5-.5,2.14,2.14,0,0,1,.23-.95.5.5,0,0,1,.67-.23.51.51,0,0,1,.23.67,1.2,1.2,0,0,0-.13.51A.5.5,0,0,1,14.51,17.41Z"/><path d="M17.83,21.33a.5.5,0,0,1-.5-.5V16.91a.5.5,0,1,1,1,0v3.92A.5.5,0,0,1,17.83,21.33Z"/><path d="M11.28,16.93a.4.4,0,0,1-.15,0,.5.5,0,0,1-.33-.62,3.05,3.05,0,0,1,.13-.32.5.5,0,1,1,.89.44l-.06.18A.51.51,0,0,1,11.28,16.93Z"/><path d="M14.51,17.41a.5.5,0,0,1-.5-.5,1.19,1.19,0,0,0-.12-.51.51.51,0,0,1,.23-.67.5.5,0,0,1,.67.23,2.13,2.13,0,0,1,.22.95A.5.5,0,0,1,14.51,17.41Z"/><path d="M14.34,16.68a.5.5,0,0,1-.45-.28,1.14,1.14,0,0,0-1-.65,1.16,1.16,0,0,0-1,.65.5.5,0,1,1-.89-.44,2.12,2.12,0,0,1,1.93-1.21A2.16,2.16,0,0,1,14.79,16a.5.5,0,0,1-.23.67A.42.42,0,0,1,14.34,16.68Z"/><path d="M12.86,24.86a2.16,2.16,0,0,1-2.16-2.15V21.24a.5.5,0,0,1,1,0v1.47a1.16,1.16,0,0,0,2.31,0v-.78a.5.5,0,0,1,.5-.5.5.5,0,0,1,.5.5v.78A2.15,2.15,0,0,1,12.86,24.86Z"/><path d="M14.51,22.43a.5.5,0,0,1-.5-.5v-5a.5.5,0,0,1,.5-.5.5.5,0,0,1,.5.5v5A.5.5,0,0,1,14.51,22.43Z"/><path d="M9.54,23.4a2.16,2.16,0,0,1-2.15-2.16V17.76a.5.5,0,0,1,.5-.5.51.51,0,0,1,.5.5v3.48a1.16,1.16,0,1,0,2.31,0,.5.5,0,0,1,1,0A2.16,2.16,0,0,1,9.54,23.4Z"/><path d="M10.57,16.39a.52.52,0,0,1,.24-.68.49.49,0,0,1,.65.23Z"/><path d="M11.2,21.74a.5.5,0,0,1-.5-.5v-1a.5.5,0,0,1,1,0v1A.5.5,0,0,1,11.2,21.74Z"/><path d="M.5,16.68a.5.5,0,0,1-.5-.5V12.8A1.83,1.83,0,0,1,1.83,11H6.47a.5.5,0,0,1,.5.5.5.5,0,0,1-.5.5H1.83A.83.83,0,0,0,1,12.8v3.38A.5.5,0,0,1,.5,16.68Z"/><path d="M5.57,24.86H.5a.5.5,0,0,1-.5-.5V16.18a.5.5,0,0,1,1,0v7.68H5.07V17A1.28,1.28,0,0,1,5.8,15.8a.5.5,0,1,1,.43.91.26.26,0,0,0-.16.24v7.41A.5.5,0,0,1,5.57,24.86Z"/><path d="M28.59,24.86H23.52a.5.5,0,0,1-.5-.5v-7a.63.63,0,0,0-.63-.63H21.14a.5.5,0,0,1-.5-.5.51.51,0,0,1,.5-.5h1.25A1.63,1.63,0,0,1,24,17.31v6.55h4.07V16.18a.5.5,0,0,1,1,0v8.18A.5.5,0,0,1,28.59,24.86Z"/></g></g></svg>