<svg xmlns="http://www.w3.org/2000/svg" viewBox="0 0 30.32 24.16"><g id="Capa_2" data-name="Capa 2"><g id="Capa_1-2" data-name="Capa 1"><path d="M7.67,24.16a1.4,1.4,0,0,1-1.4-1.4V11.23a1.4,1.4,0,0,1,1.46-1.4L29,10.71a1.39,1.39,0,0,1,1.34,1.4V22.23A1.4,1.4,0,0,1,29,23.64h0L7.7,24.16Zm0-13.33a.41.41,0,0,0-.28.11.4.4,0,0,0-.12.29V22.76a.4.4,0,0,0,.12.29.42.42,0,0,0,.29.11l21.25-.52a.41.41,0,0,0,.39-.41V12.11a.39.39,0,0,0-.39-.4L7.69,10.83ZM28.94,23.14h0Z"/><path d="M7.54,24.15H7.46l-6.29-.91A1.37,1.37,0,0,1,0,21.89V13.38A1.35,1.35,0,0,1,.92,12.1L7.19,9.91a.5.5,0,0,1,.64.31.5.5,0,0,1-.31.63L1.24,13a.37.37,0,0,0-.24.34v8.51a.37.37,0,0,0,.31.36l6.3.91a.5.5,0,0,1,.42.56A.5.5,0,0,1,7.54,24.15Z"/><path d="M13,22.24c-2.09,0-3.8-2.32-3.8-5.17s1.71-5.16,3.8-5.16,3.81,2.32,3.81,5.16S15.09,22.24,13,22.24Zm0-9.33c-1.54,0-2.8,1.87-2.8,4.16s1.26,4.17,2.8,4.17,2.81-1.87,2.81-4.17S14.54,12.91,13,12.91Z"/><path d="M13,19.16c-.91,0-1.62-.91-1.62-2.09A1.88,1.88,0,0,1,13,15a1.88,1.88,0,0,1,1.63,2.09C14.62,18.25,13.91,19.16,13,19.16ZM13,16c-.29,0-.62.47-.62,1.09s.33,1.09.62,1.09.63-.46.63-1.09S13.29,16,13,16Z"/><path d="M20.87,21.74c-1.91,0-3.45-2.09-3.45-4.67s1.54-4.66,3.45-4.66,3.44,2.09,3.44,4.66S22.77,21.74,20.87,21.74Zm0-8.33c-1.35,0-2.45,1.64-2.45,3.66s1.1,3.67,2.45,3.67,2.44-1.65,2.44-3.67S22.22,13.41,20.87,13.41Z"/><path d="M20.87,19a1.73,1.73,0,0,1-1.51-1.92,1.73,1.73,0,0,1,1.51-1.91,1.72,1.72,0,0,1,1.5,1.91A1.73,1.73,0,0,1,20.87,19Zm0-2.83c-.24,0-.51.4-.51.91s.27.92.51.92.5-.39.5-.92S21.1,16.16,20.87,16.16Z"/><path d="M17.29,8.5a.5.5,0,0,1-.5-.5c0-5.75-5.47-7-5.53-7a.5.5,0,0,1,.21-1c.07,0,6.32,1.45,6.32,8A.5.5,0,0,1,17.29,8.5Z"/><path d="M17.25,8.5a.51.51,0,0,1-.31-.11l-2.12-1.7a.5.5,0,0,1,.63-.78L17.18,7.3l1.39-1.73a.49.49,0,0,1,.7-.08.51.51,0,0,1,.08.7L17.64,8.31a.49.49,0,0,1-.33.19Z"/></g></g></svg>