<svg xmlns="http://www.w3.org/2000/svg" viewBox="0 0 19.87 28.2"><g id="Capa_2" data-name="Capa 2"><g id="Capa_1-2" data-name="Capa 1"><path d="M14.62,25.59A1.84,1.84,0,0,1,13.29,25q-1.75-1.77-3.49-3.56L8.2,19.82a4.47,4.47,0,0,0-.44-.43.72.72,0,0,1-.06-1.1l2.88-3.45L12,13.12l.84-1a1.88,1.88,0,0,1,2.76-.3,2,2,0,0,1,.71,1.72A2.18,2.18,0,0,1,15.8,15l-1,1.22-2,2.39c.93.92,1.83,1.82,2.72,2.72l.35.36a2.36,2.36,0,0,1,.23,3.15,1.94,1.94,0,0,1-1.4.74Zm-6-6.8.34.34,1.6,1.63L14,24.32a.87.87,0,0,0,.66.27.92.92,0,0,0,.67-.36,1.36,1.36,0,0,0-.15-1.83L14.83,22C13.9,21.1,13,20.16,12,19.24a.78.78,0,0,1,0-1.17c.69-.82,1.37-1.65,2-2.48l1-1.21a1.21,1.21,0,0,0,.29-.85v0a1,1,0,0,0-.33-.9.91.91,0,0,0-1.37.14c-.27.34-.56.68-.84,1l-1.43,1.72C10.43,16.58,9.51,17.69,8.58,18.79Z"/><path d="M5.75,25.5h0a2.12,2.12,0,0,1-2.1-2.14V13.47a2.15,2.15,0,0,1,4.29-.1c0,.74,0,1.48,0,2.22v7.66a2.33,2.33,0,0,1-.66,1.66A2.16,2.16,0,0,1,5.75,25.5Zm0-13.19h0a1.14,1.14,0,0,0-1.1,1.16v9.89A1.13,1.13,0,0,0,5.73,24.5a1.21,1.21,0,0,0,.82-.31,1.3,1.3,0,0,0,.36-1V15.59c0-.73,0-1.46,0-2.19A1.13,1.13,0,0,0,5.74,12.31Z"/><path d="M13.54,9.58H6.34a.5.5,0,0,1-.5-.5V7.19a4.1,4.1,0,1,1,8.2-.1v2A.5.5,0,0,1,13.54,9.58Zm-6.71-1H13V7.09a3.11,3.11,0,1,0-6.21,0Z"/><path d="M18.06,28.2H1.81A1.82,1.82,0,0,1,0,26.38v-16A1.82,1.82,0,0,1,1.81,8.57h1V7.09A7,7,0,0,1,5,2a7.13,7.13,0,0,1,5.15-2A7.3,7.3,0,0,1,17,7.37v1.2h1a1.82,1.82,0,0,1,1.81,1.81v16A1.82,1.82,0,0,1,18.06,28.2ZM1.81,9.57a.81.81,0,0,0-.81.81v16a.82.82,0,0,0,.81.82H18.06a.82.82,0,0,0,.81-.82v-16a.82.82,0,0,0-.81-.81H16.53a.5.5,0,0,1-.5-.5V7.37A6.29,6.29,0,0,0,10.12,1,6.1,6.1,0,0,0,3.84,7.09v2a.5.5,0,0,1-.5.5Z"/></g></g></svg>