<svg xmlns="http://www.w3.org/2000/svg" viewBox="0 0 28.93 28.93"><g id="Capa_2" data-name="Capa 2"><g id="Capa_1-2" data-name="Capa 1"><path d="M18.83,28.93a1.37,1.37,0,0,1-1.37-1.37V22h-6v3.86a1.37,1.37,0,1,1-2.74,0V22H4A1.38,1.38,0,0,1,4,19.2H5.24V14.47a9.23,9.23,0,1,1,18.45,0V19.2h1.25a1.38,1.38,0,0,1,0,2.75H20.2v5.61A1.37,1.37,0,0,1,18.83,28.93ZM11,21h7a.5.5,0,0,1,.5.5v6.11a.37.37,0,0,0,.74,0V21.45a.5.5,0,0,1,.5-.5h5.24a.38.38,0,0,0,0-.75H23.19a.5.5,0,0,1-.5-.5V14.47a8.23,8.23,0,1,0-16.45,0V19.7a.5.5,0,0,1-.5.5H4A.38.38,0,0,0,4,21H9.23a.5.5,0,0,1,.5.5v4.36a.38.38,0,0,0,.37.38.37.37,0,0,0,.37-.38V21.45A.5.5,0,0,1,11,21Z"/><path d="M13.3,8.75a.5.5,0,0,1-.49-.43.5.5,0,0,1,.42-.56,8.18,8.18,0,0,1,1.23-.09.5.5,0,0,1,.5.5.5.5,0,0,1-.5.5,6.31,6.31,0,0,0-1.08.08Z"/><path d="M8.33,15.31a.5.5,0,0,1-.5-.5v-.34c0-.17,0-4.2,3.23-6a.5.5,0,0,1,.68.19.5.5,0,0,1-.19.68c-2.68,1.5-2.72,5.08-2.72,5.12v.34A.5.5,0,0,1,8.33,15.31Z"/><path d="M4,15H.5a.5.5,0,0,1-.5-.5A.5.5,0,0,1,.5,14H4a.5.5,0,0,1,.5.5A.5.5,0,0,1,4,15Z"/><path d="M7.06,7.56a.47.47,0,0,1-.35-.15L4.24,4.94a.49.49,0,1,1,.7-.7L7.41,6.71a.5.5,0,0,1-.35.85Z"/><path d="M14.46,4.49A.5.5,0,0,1,14,4V.5a.5.5,0,0,1,.5-.5.5.5,0,0,1,.5.5V4A.5.5,0,0,1,14.46,4.49Z"/><path d="M21.87,7.56a.5.5,0,0,1-.35-.85L24,4.24a.49.49,0,1,1,.7.7L22.23,7.41A.51.51,0,0,1,21.87,7.56Z"/><path d="M28.43,15H24.94a.5.5,0,0,1-.5-.5.5.5,0,0,1,.5-.5h3.49a.5.5,0,0,1,.5.5A.5.5,0,0,1,28.43,15Z"/></g></g></svg>