<svg xmlns="http://www.w3.org/2000/svg" viewBox="0 0 28.93 28.93"><defs><style>.cls-1{fill:#fff;}</style></defs><g id="Capa_2" data-name="Capa 2"><g id="Capa_1-2" data-name="Capa 1"><path d="M7.07,18.3H6v1.14H7.07a.57.57,0,1,0,0-1.14Z"/><path d="M7.56,16.33c0-.35-.19-.53-.58-.53H6v1.07H7C7.37,16.87,7.56,16.69,7.56,16.33Z"/><polygon points="24.19 10.34 23.6 12.08 24.74 12.08 24.19 10.34"/><polygon points="11.88 19.06 13.12 19.06 12.52 17.15 11.88 19.06"/><path d="M14.46,0A14.47,14.47,0,1,0,28.93,14.46,14.47,14.47,0,0,0,14.46,0ZM24.77,7.87l2.36,6.52H25.46l-.3-1h-2l-.31,1H21.16l2.37-6.52ZM15.65,10.4c0-.15,0-.28,0-.39a3.79,3.79,0,0,1,.07-.74A2.36,2.36,0,0,1,16.37,8a2.7,2.7,0,0,1,2-.81,2.73,2.73,0,0,1,2,.75,2.84,2.84,0,0,1,.77,1.63H19.39a1,1,0,0,0-1-.81.84.84,0,0,0-.69.31,1.05,1.05,0,0,0-.19.48,7.62,7.62,0,0,0-.07,1.28,7.9,7.9,0,0,0,.07,1.3,1.1,1.1,0,0,0,.19.48.82.82,0,0,0,.69.3,1,1,0,0,0,1.06-1.05v-.1H18.36V10.26h2.81v1a3.31,3.31,0,0,1-.72,2.38,2.59,2.59,0,0,1-1,.65,3.62,3.62,0,0,1-1.11.16,2.7,2.7,0,0,1-2-.81,2.36,2.36,0,0,1-.64-1.3,3.79,3.79,0,0,1-.07-.74c0-.11,0-.25,0-.39ZM10.27,7.22h4.86V8.79H12V10h2.65v1.57H12v1.26h3.1v1.57H10.27Zm-3,13.66H4.39V14.39H3.27V7.87H4.84L6.3,10.75,7.77,7.87H9.34v6.52H7.74V11.27l-.93,1.61h-1l-.92-1.61v3.1H7.09a2.13,2.13,0,0,1,1.54.52,1.79,1.79,0,0,1,.53,1.36,1.39,1.39,0,0,1-.28.87,1.55,1.55,0,0,1-.24.27l-.1.09-.09.06.05,0,.06,0,.13.09A1.28,1.28,0,0,1,9,18a1.58,1.58,0,0,1,.3,1,1.85,1.85,0,0,1-.57,1.43A2.13,2.13,0,0,1,7.22,20.88Zm12.75.3a3.1,3.1,0,0,1-1.95.58,5,5,0,0,1-1.5-.19,2.84,2.84,0,0,1-1-.55l.21.57H13.92l-.33-1.06H11.38L11,21.59H9.19l2.6-7.16h1.36l2.28,6.26,1-1a1.55,1.55,0,0,0,.73.39,3.05,3.05,0,0,0,.87.11c.69,0,1-.21,1-.64a.61.61,0,0,0-.14-.42.76.76,0,0,0-.47-.19l-.87-.12a2.48,2.48,0,0,1-1.44-.64,2,2,0,0,1-.49-1.44,2.09,2.09,0,0,1,.69-1.62,2.8,2.8,0,0,1,1.92-.64,3.24,3.24,0,0,1,2.42.86l-1.11,1.1a1.43,1.43,0,0,0-.73-.38l-.34,0h-.29a1,1,0,0,0-.66.21.62.62,0,0,0-.2.45.49.49,0,0,0,.14.34.85.85,0,0,0,.49.21l.87.12a2.36,2.36,0,0,1,1.41.59,2.13,2.13,0,0,1,.53,1.57A2,2,0,0,1,20,21.18Zm5-.75a2.8,2.8,0,0,1-1.77.53,4.53,4.53,0,0,1-1.37-.17,2.51,2.51,0,0,1-1.1-.69l1-1a1.49,1.49,0,0,0,.66.36,3.28,3.28,0,0,0,.79.1c.63,0,.94-.2.94-.59a.56.56,0,0,0-.13-.38.78.78,0,0,0-.43-.18l-.79-.11a2.21,2.21,0,0,1-1.31-.57,1.84,1.84,0,0,1-.44-1.31,1.88,1.88,0,0,1,.63-1.47,2.53,2.53,0,0,1,1.74-.59,3,3,0,0,1,2.2.78l-1,1a1.27,1.27,0,0,0-.66-.34l-.31,0h-.26a.85.85,0,0,0-.6.19.54.54,0,0,0-.19.41.42.42,0,0,0,.13.31.78.78,0,0,0,.45.19L24,17a2.2,2.2,0,0,1,1.28.54,1.91,1.91,0,0,1,.48,1.42A1.81,1.81,0,0,1,25,20.43Z"/><rect class="cls-1" x="4.39" y="14.37" width="0.48" height="0.02"/><path class="cls-1" d="M15.31,20.82a2.31,2.31,0,0,0,.24.2l-.12-.33Z"/></g></g></svg>