<svg xmlns="http://www.w3.org/2000/svg" viewBox="0 0 28.95 26.42"><g id="Capa_2" data-name="Capa 2"><g id="Capa_1-2" data-name="Capa 1"><path d="M23.68,10.52a5.25,5.25,0,0,1-4.49-8A5.26,5.26,0,0,1,28.79,4a5.21,5.21,0,0,1-.6,4h0A5.23,5.23,0,0,1,25,10.36,5,5,0,0,1,23.68,10.52Zm0-9.52a4.1,4.1,0,0,0-1,.13,4.26,4.26,0,1,0,4.67,6.33h0a4.27,4.27,0,0,0-1.44-5.85A4.32,4.32,0,0,0,23.69,1Z"/><path d="M14.92,22.26a1.07,1.07,0,0,1-.57-.16l-1.21-.72A1.09,1.09,0,0,1,12.72,20l5.13-10.7a.79.79,0,0,1,.66-.45.84.84,0,0,1,.74.37,4,4,0,0,0,1.36,1.19,4.12,4.12,0,0,0,1.67.64.85.85,0,0,1,.68.48.82.82,0,0,1-.09.8l-7.08,9.53A1.07,1.07,0,0,1,14.92,22.26ZM18.61,10l-5,10.41a.09.09,0,0,0,0,.12l1.2.73h0a.11.11,0,0,0,.13,0L21.87,12a5.54,5.54,0,0,1-1.78-.74A5.35,5.35,0,0,1,18.61,10Z"/><path d="M9.58,26.42a2.34,2.34,0,0,1-1.47-.55c-1.43-1.15-.79-3.36-.11-5.7.78-2.7,1.59-5.49-.56-6.77a2.08,2.08,0,0,0-1.95-.21c-2.28.94-4,5.84-4.51,7.65a.5.5,0,0,1-.61.36A.5.5,0,0,1,0,20.59c.07-.29,1.88-7,5.09-8.32A3.08,3.08,0,0,1,8,12.54c2.81,1.67,1.81,5.13,1,7.91-.58,2-1.13,3.91-.23,4.64a1.26,1.26,0,0,0,1.14.29c1.55-.35,3.2-3.2,3.7-4.27a.5.5,0,0,1,.91.42c-.21.44-2.09,4.3-4.39,4.83A2.22,2.22,0,0,1,9.58,26.42Z"/></g></g></svg>