<svg xmlns="http://www.w3.org/2000/svg" viewBox="0 0 20.67 30.23"><g id="Capa_2" data-name="Capa 2"><g id="Capa_1-2" data-name="Capa 1"><path d="M10.54,20h-.41a5.07,5.07,0,0,1-5.07-5.06V5.07A5.08,5.08,0,0,1,10.13,0h.41A5.07,5.07,0,0,1,15.6,5.07v9.87A5.07,5.07,0,0,1,10.54,20ZM10.13,1A4.07,4.07,0,0,0,6.06,5.07v9.87A4.07,4.07,0,0,0,10.13,19h.41a4.06,4.06,0,0,0,4.06-4.06V5.07A4.07,4.07,0,0,0,10.54,1Z"/><path d="M10.5,24.74h-.33A10.18,10.18,0,0,1,0,14.57V13.08a.5.5,0,0,1,1,0v1.49a9.18,9.18,0,0,0,9.17,9.17h.33a9.18,9.18,0,0,0,9.17-9.17V13.08a.5.5,0,0,1,.5-.5.51.51,0,0,1,.5.5v1.49A10.19,10.19,0,0,1,10.5,24.74Z"/><path d="M10.33,29.93a.5.5,0,0,1-.5-.5V24.24a.5.5,0,0,1,.5-.5.5.5,0,0,1,.5.5v5.19A.5.5,0,0,1,10.33,29.93Z"/><path d="M14.61,30.23H6.06a.5.5,0,0,1-.5-.5.5.5,0,0,1,.5-.5h8.55a.5.5,0,0,1,.5.5A.5.5,0,0,1,14.61,30.23Z"/></g></g></svg>