<svg xmlns="http://www.w3.org/2000/svg" viewBox="0 0 20.68 29.52"><g id="Capa_2" data-name="Capa 2"><g id="Capa_1-2" data-name="Capa 1"><path d="M3.86,25.41H2.52A2.52,2.52,0,0,1,0,22.89V11.15H6.37V22.89A2.52,2.52,0,0,1,3.86,25.41ZM1,12.15V22.89a1.52,1.52,0,0,0,1.52,1.52H3.86a1.52,1.52,0,0,0,1.51-1.52V12.15Z"/><path d="M4.11,12.15H2.27a.5.5,0,0,1-.5-.5V1.38A1.19,1.19,0,0,1,3,.19h.46A1.19,1.19,0,0,1,4.61,1.38V11.65A.5.5,0,0,1,4.11,12.15Zm-1.34-1h.84V1.38a.2.2,0,0,0-.19-.19H3a.19.19,0,0,0-.19.19Z"/><path d="M4.11,4.86H2.27a.5.5,0,0,1-.5-.5.5.5,0,0,1,.5-.5H4.11a.5.5,0,0,1,.5.5A.5.5,0,0,1,4.11,4.86Z"/><path d="M4.11,8.33H2.27a.5.5,0,0,1-.5-.5.5.5,0,0,1,.5-.5H4.11a.5.5,0,0,1,.5.5A.5.5,0,0,1,4.11,8.33Z"/><path d="M3.19,29.52a.5.5,0,0,1-.5-.5V24.91a.5.5,0,0,1,.5-.5.5.5,0,0,1,.5.5V29A.5.5,0,0,1,3.19,29.52Z"/><path d="M15.24,10.88a5.44,5.44,0,1,1,5.44-5.44A5.45,5.45,0,0,1,15.24,10.88Zm0-9.88a4.44,4.44,0,1,0,4.44,4.44A4.44,4.44,0,0,0,15.24,1Z"/><path d="M16,25.41H14.5a1.11,1.11,0,0,1-1.11-1L12.21,12.13a.8.8,0,0,1,.34-.74.84.84,0,0,1,.84-.06,4.29,4.29,0,0,0,1.85.32,4.27,4.27,0,0,0,1.84-.32.84.84,0,0,1,.84.06.8.8,0,0,1,.34.74L17.08,24.4A1.11,1.11,0,0,1,16,25.41ZM13.24,12.35l1.14,12a.13.13,0,0,0,.12.11H16a.13.13,0,0,0,.12-.11l1.14-12a5.79,5.79,0,0,1-2,.3A5.81,5.81,0,0,1,13.24,12.35Z"/><path d="M15.24,29.52a.5.5,0,0,1-.5-.5V24.91a.5.5,0,0,1,.5-.5.5.5,0,0,1,.5.5V29A.5.5,0,0,1,15.24,29.52Z"/></g></g></svg>