<svg xmlns="http://www.w3.org/2000/svg" viewBox="0 0 26.28 29.28"><g id="Capa_2" data-name="Capa 2"><g id="Capa_1-2" data-name="Capa 1"><path d="M13.08,9.08a4.21,4.21,0,1,1,3.19-1.45A4.21,4.21,0,0,1,13.08,9.08Zm0-7.42a3.2,3.2,0,1,0,2.11.78A3.21,3.21,0,0,0,13.08,1.66Z"/><path d="M4.22,16.91a1,1,0,0,1-.64-.24L2.75,16a1,1,0,0,1-.15-1.29L8,7.11a.68.68,0,0,1,.67-.3.74.74,0,0,1,.61.44,3.06,3.06,0,0,0,.85,1.06A3.16,3.16,0,0,0,11.26,9a.74.74,0,0,1,.33,1.25L4.88,16.64A.93.93,0,0,1,4.22,16.91Zm0-1ZM8.53,8l-5.12,7.2.8.65,6.38-6.07a4.81,4.81,0,0,1-1.14-.76A5,5,0,0,1,8.53,8Z"/><path d="M8.2,28.62a.52.52,0,0,1-.42-.22.51.51,0,0,1,.14-.7c1.52-1,5.48-4.12,5.62-6.51a2,2,0,0,0-.78-1.71c-1.84-1.57-4.15,0-6.38,1.59-1.95,1.36-3.79,2.64-5.29,1.68A2.21,2.21,0,0,1,0,21.06c-.23-2.28,2.74-5.21,3.08-5.54a.51.51,0,0,1,.71,0,.5.5,0,0,1,0,.71C3,17,.85,19.44,1,21a1.19,1.19,0,0,0,.61.94c.94.6,2.52-.49,4.19-1.65,2.3-1.6,5.17-3.6,7.6-1.53a3,3,0,0,1,1.13,2.54c-.21,3.37-5.82,7.12-6.06,7.28A.57.57,0,0,1,8.2,28.62Z"/><path d="M23.86,9.39a.5.5,0,0,1-.5-.5V1.5a.5.5,0,0,0-.5-.5H20.67a.5.5,0,0,0-.5.5V8.89a.5.5,0,0,1-.5.5.5.5,0,0,1-.5-.5V1.5A1.5,1.5,0,0,1,20.67,0h2.19a1.5,1.5,0,0,1,1.5,1.5V8.89A.5.5,0,0,1,23.86,9.39Z"/><path d="M22.86,29.28H20.67a1.51,1.51,0,0,1-1.5-1.5V15.36a.51.51,0,0,1,.5-.5.5.5,0,0,1,.5.5V27.78a.51.51,0,0,0,.5.5h2.19a.5.5,0,0,0,.5-.5V15.36a.5.5,0,0,1,1,0V27.78A1.5,1.5,0,0,1,22.86,29.28Z"/><path d="M24.78,14.31h-6a1.5,1.5,0,0,1-1.5-1.5V11.35a1.5,1.5,0,0,1,1.5-1.5h6a1.5,1.5,0,0,1,1.5,1.5v1.46A1.5,1.5,0,0,1,24.78,14.31Zm-6-3.46a.5.5,0,0,0-.5.5v1.46a.5.5,0,0,0,.5.5h6a.5.5,0,0,0,.5-.5V11.35a.5.5,0,0,0-.5-.5Z"/></g></g></svg>