<svg xmlns="http://www.w3.org/2000/svg" viewBox="0 0 28.29 25.85"><g id="Capa_2" data-name="Capa 2"><g id="Capa_1-2" data-name="Capa 1"><path d="M12.09,7.85a3.93,3.93,0,0,1-3-6.5A3.92,3.92,0,0,1,14.66,1a3.91,3.91,0,0,1-2.29,6.87ZM12.1,1h-.22a2.91,2.91,0,0,0-2,1,2.88,2.88,0,0,0-.7,2.12,2.87,2.87,0,0,0,1,2,2.92,2.92,0,0,0,4.12-.29h0A2.92,2.92,0,0,0,12.1,1Z"/><path d="M3.92,15.06a.92.92,0,0,1-.6-.23h0l-.77-.67a.92.92,0,0,1-.15-1.24L7.35,6A.69.69,0,0,1,8,5.67a.74.74,0,0,1,.6.44,2.87,2.87,0,0,0,.77.95,2.67,2.67,0,0,0,1.06.63.75.75,0,0,1,.52.53.74.74,0,0,1-.2.69L4.57,14.8A.94.94,0,0,1,3.92,15.06Zm0-1H4ZM7.9,6.91,3.21,13.5l.71.53L9.73,8.5a5.11,5.11,0,0,1-1-.68A4.49,4.49,0,0,1,7.9,6.91Z"/><path d="M7.6,25.85a.5.5,0,0,1-.42-.22.51.51,0,0,1,.14-.7c1.39-.92,5-3.78,5.16-6a1.81,1.81,0,0,0-.71-1.54C10.1,16,8,17.46,5.94,18.89,4.13,20.14,2.43,21.33,1,20.43a2.1,2.1,0,0,1-1-1.58C-.2,16.73,2.54,14,2.86,13.71a.51.51,0,0,1,.71,0,.5.5,0,0,1,0,.71C2.8,15.16.87,17.36,1,18.75a1.06,1.06,0,0,0,.55.84c.84.54,2.28-.46,3.81-1.53,2.13-1.48,4.79-3.33,7.05-1.4A2.8,2.8,0,0,1,13.48,19c-.2,3.12-5.39,6.59-5.61,6.74A.53.53,0,0,1,7.6,25.85Z"/><path d="M23.24,12.05A5,5,0,1,1,28.29,7,5.05,5.05,0,0,1,23.24,12.05Zm0-9.09a4,4,0,1,0,4.05,4A4,4,0,0,0,23.24,3Z"/><path d="M23.24,23.4a5,5,0,1,1,5.05-5A5,5,0,0,1,23.24,23.4Zm0-9.09a4,4,0,1,0,4.05,4A4,4,0,0,0,23.24,14.31Z"/><path d="M25.82,7.5H20.67a.5.5,0,0,1-.5-.5.5.5,0,0,1,.5-.5h5.15a.5.5,0,0,1,.5.5A.5.5,0,0,1,25.82,7.5Z"/><path d="M25.82,18.85H20.67a.5.5,0,0,1-.5-.5.5.5,0,0,1,.5-.5h5.15a.5.5,0,0,1,.5.5A.5.5,0,0,1,25.82,18.85Z"/><path d="M23.24,10.08a.5.5,0,0,1-.5-.5V4.42a.51.51,0,0,1,.5-.5.5.5,0,0,1,.5.5V9.58A.5.5,0,0,1,23.24,10.08Z"/></g></g></svg>