<svg xmlns="http://www.w3.org/2000/svg" viewBox="0 0 28.9 22.71"><g id="Capa_2" data-name="Capa 2"><g id="Capa_1-2" data-name="Capa 1"><path d="M26.64,15.57H22.17a.5.5,0,0,1,0-1h4.47A1.26,1.26,0,0,0,27.9,13.3V10.16a.5.5,0,0,1,.5-.5.5.5,0,0,1,.5.5V13.3A2.27,2.27,0,0,1,26.64,15.57Z"/><path d="M28.4,10.66a.51.51,0,0,1-.5-.5V2.27A1.26,1.26,0,0,0,26.64,1h-17A1.27,1.27,0,0,0,8.34,2.27V5.33a.5.5,0,0,1-1,0V2.27A2.27,2.27,0,0,1,9.61,0h17A2.27,2.27,0,0,1,28.9,2.27v7.89A.5.5,0,0,1,28.4,10.66Z"/><path d="M3.27,19.75a.5.5,0,0,1-.5-.5V9A1.93,1.93,0,0,1,4.69,7.06h7.08a.5.5,0,0,1,.5.5.5.5,0,0,1-.5.5H4.69A.92.92,0,0,0,3.77,9V19.25A.5.5,0,0,1,3.27,19.75Z"/><path d="M19.76,11.07a.51.51,0,0,1-.5-.5V9a.92.92,0,0,0-.91-.92H11.77a.5.5,0,0,1-.5-.5.5.5,0,0,1,.5-.5h6.58A1.92,1.92,0,0,1,20.26,9v1.59A.5.5,0,0,1,19.76,11.07Z"/><path d="M19.76,15a.51.51,0,0,1-.5-.5V10.57a.5.5,0,0,1,.5-.5.5.5,0,0,1,.5.5v3.94A.5.5,0,0,1,19.76,15Z"/><path d="M19.76,19.75a.5.5,0,0,1-.5-.5V17.52a.5.5,0,0,1,.5-.5.5.5,0,0,1,.5.5v1.73A.5.5,0,0,1,19.76,19.75Z"/><path d="M19.76,18a.51.51,0,0,1-.5-.5v-3a.5.5,0,0,1,.5-.5.5.5,0,0,1,.5.5v3A.5.5,0,0,1,19.76,18Z"/><path d="M21.89,22.71H1.14a1.11,1.11,0,0,1-1.08-.8,1.11,1.11,0,0,1,.42-1.27L3,18.85a.5.5,0,0,1,.58.81l-2.5,1.79a.14.14,0,0,0,.08.26H21.89a.13.13,0,0,0,.13-.1.13.13,0,0,0-.05-.16l-2.5-1.79a.5.5,0,0,1,.59-.81l2.49,1.78a1.15,1.15,0,0,1-.66,2.08Z"/><path d="M19.76,19.75H3.27a.5.5,0,0,1-.5-.5.5.5,0,0,1,.5-.5H19.76a.5.5,0,0,1,.5.5A.5.5,0,0,1,19.76,19.75Z"/><path d="M9.49,16.68H9.38A.49.49,0,0,1,9,16.08a5.73,5.73,0,0,1,5.56-4.41.5.5,0,0,1,.5.5.5.5,0,0,1-.5.5A4.68,4.68,0,0,0,10,16.29.49.49,0,0,1,9.49,16.68Z"/><path d="M13.41,14.13A.51.51,0,0,1,13.1,14a.5.5,0,0,1-.08-.7l.84-1.05-1-.84a.5.5,0,0,1-.07-.7.49.49,0,0,1,.7-.07l1.44,1.15a.48.48,0,0,1,.18.33.5.5,0,0,1-.11.37L13.8,13.94A.48.48,0,0,1,13.41,14.13Z"/></g></g></svg>