<svg xmlns="http://www.w3.org/2000/svg" viewBox="0 0 26.94 30.04"><g id="Capa_2" data-name="Capa 2"><g id="Capa_1-2" data-name="Capa 1"><path d="M4.7,30C2.11,30,0,28.39,0,26.37S2.11,22.7,4.7,22.7s4.7,1.65,4.7,3.67S7.29,30,4.7,30Zm0-6.34c-2,0-3.7,1.2-3.7,2.67S2.66,29,4.7,29s3.7-1.2,3.7-2.67S6.74,23.7,4.7,23.7Z"/><path d="M22.24,24.37c-2.59,0-4.7-1.64-4.7-3.67S19.65,17,22.24,17s4.7,1.65,4.7,3.67S24.83,24.37,22.24,24.37Zm0-6.34c-2,0-3.7,1.2-3.7,2.67s1.66,2.67,3.7,2.67,3.7-1.2,3.7-2.67S24.28,18,22.24,18Z"/><path d="M8.9,26.87a.5.5,0,0,1-.5-.5V6a.49.49,0,0,1,.35-.47L26.29,0a.5.5,0,0,1,.44.08.49.49,0,0,1,.21.4V20.7a.5.5,0,0,1-.5.5.5.5,0,0,1-.5-.5V1.18L9.4,6.35v20A.5.5,0,0,1,8.9,26.87Z"/><path d="M8.9,12.61a.49.49,0,0,1-.48-.36.5.5,0,0,1,.33-.62L26.29,6.29a.49.49,0,0,1,.62.34.5.5,0,0,1-.33.62L9,12.58Z"/></g></g></svg>