<svg xmlns="http://www.w3.org/2000/svg" viewBox="0 0 17.1 28.56"><g id="Capa_2" data-name="Capa 2"><g id="Capa_1-2" data-name="Capa 1"><path d="M14.09,28.56H3a3,3,0,0,1-3-3V3A3,3,0,0,1,3,0H14.09a3,3,0,0,1,3,3V25.55A3,3,0,0,1,14.09,28.56ZM3,1A2,2,0,0,0,1,3V25.55a2,2,0,0,0,2,2H14.09a2,2,0,0,0,2-2V3a2,2,0,0,0-2-2Z"/><path d="M13.51,24.27H3.6a1.54,1.54,0,0,1-1.55-1.54V3.53A1.54,1.54,0,0,1,3.6,2h9.91a1.54,1.54,0,0,1,1.54,1.54v19.2A1.54,1.54,0,0,1,13.51,24.27ZM3.6,3a.54.54,0,0,0-.55.54v19.2a.54.54,0,0,0,.55.54h9.91a.54.54,0,0,0,.54-.54V3.53A.54.54,0,0,0,13.51,3Z"/><circle cx="8.55" cy="26.35" r="0.71"/></g></g></svg>