<svg xmlns="http://www.w3.org/2000/svg" viewBox="0 0 29.77 21.34"><g id="Capa_2" data-name="Capa 2"><g id="Capa_1-2" data-name="Capa 1"><path d="M18.16,20.68a14,14,0,0,1-5.38-1.12.5.5,0,0,1-.27-.65.49.49,0,0,1,.65-.27c8.67,3.6,14.72-3.07,15.6-4.12,0-1-.05-6.23-3.49-9.87C23,2.23,19.65,1,15.39,1,2.5,1,1.16,12.19,1,14.42,9.16,17,14.17,11.89,16,9.56a.5.5,0,0,1,.7-.09.5.5,0,0,1,.09.7c-2,2.54-7.46,8.11-16.42,5.08A.5.5,0,0,1,0,14.77C0,14.62.38,0,15.39,0,19.94,0,23.51,1.34,26,4c4.08,4.32,3.77,10.51,3.76,10.77a.57.57,0,0,1-.11.28C29.6,15.09,25.09,20.68,18.16,20.68Z"/><path d="M12.11,21.34a.53.53,0,0,1-.38-.18L8.6,17.53A.5.5,0,0,1,9,16.7l4.78.31a.48.48,0,0,1,.4.25.49.49,0,0,1,0,.47l-1.65,3.33a.5.5,0,0,1-.39.27Zm-2-3.57L12,19.94l1-2Z"/><path d="M18.06,11.15a.46.46,0,0,1-.23-.06L14.55,9.33a.53.53,0,0,1-.26-.39.52.52,0,0,1,.19-.44l3.73-3a.49.49,0,0,1,.55,0,.49.49,0,0,1,.26.49l-.46,4.76a.49.49,0,0,1-.26.4A.48.48,0,0,1,18.06,11.15ZM15.69,8.8l2,1L17.92,7Z"/></g></g></svg>