<svg xmlns="http://www.w3.org/2000/svg" viewBox="0 0 26.66 26.66"><g id="Capa_2" data-name="Capa 2"><g id="Capa_1-2" data-name="Capa 1"><path d="M6.57,24.55a2.5,2.5,0,0,1-1.78-.74L2.85,21.86a2.5,2.5,0,0,1,0-3.56L13.27,7.88a.48.48,0,0,1,.7,0l4.81,4.8a.52.52,0,0,1,.14.36.5.5,0,0,1-.14.35L8.35,23.81A2.46,2.46,0,0,1,6.57,24.55Zm7-15.61L3.55,19a1.53,1.53,0,0,0,0,2.15l2,1.94h0a1.55,1.55,0,0,0,2.15,0L17.72,13Z"/><path d="M16.85,12a.51.51,0,0,1-.36-.15l-1.65-1.65a.5.5,0,0,1,0-.7l9-9a1.67,1.67,0,0,1,2.36,0h0a1.66,1.66,0,0,1,0,2.35l-9,9A.5.5,0,0,1,16.85,12Zm-.94-2.15.94.94,8.61-8.61a.68.68,0,0,0,0-1,.68.68,0,0,0-.94,0Z"/><path d="M23.36,5.45A.51.51,0,0,1,23,5.3L21.35,3.65a.5.5,0,0,1,0-.7.5.5,0,0,1,.71,0l1.65,1.64a.51.51,0,0,1,0,.71A.5.5,0,0,1,23.36,5.45Z"/><path d="M20.26,8.54a.52.52,0,0,1-.35-.14L18.26,6.75a.5.5,0,0,1,0-.71A.51.51,0,0,1,19,6l1.64,1.65a.5.5,0,0,1-.35.85Z"/><path d="M.5,26.66a.47.47,0,0,1-.35-.15.5.5,0,0,1,0-.71l3.67-3.67a.5.5,0,0,1,.71.71L.85,26.51A.47.47,0,0,1,.5,26.66Z"/></g></g></svg>