<svg xmlns="http://www.w3.org/2000/svg" viewBox="0 0 27.87 23.93"><g id="Capa_2" data-name="Capa 2"><g id="Capa_1-2" data-name="Capa 1"><path d="M.5,23.93a.49.49,0,0,1-.32-.12.5.5,0,0,1-.07-.7c.05-.05,1.26-1.51,3.27-3.7A35,35,0,0,1,9.17,8.59a.5.5,0,0,1,.87.47,4.86,4.86,0,0,0-.22,1c2-3.25,7.85-11.1,17.17-9.92a.49.49,0,0,1,.16.05h0a.47.47,0,0,1,.47,0,.48.48,0,0,1,.23.42,14,14,0,0,1-5.05,10,.49.49,0,0,1,.18.11.5.5,0,0,1,.09.61c-.12.2-2.45,4.08-8.84,5.65a10.79,10.79,0,0,0,1.23-.19.5.5,0,0,1,.55.24.53.53,0,0,1-.08.6c0,.05-5.33,5.35-12,2.57C2.07,22.33.92,23.7.89,23.74A.52.52,0,0,1,.5,23.93Zm4.19-4.46a9.81,9.81,0,0,0,9.24-1.42,13.21,13.21,0,0,1-4.06-.43.52.52,0,0,1-.36-.54.5.5,0,0,1,.47-.44c5.5-.3,8.82-2.35,10.59-3.92a7.25,7.25,0,0,1-2.87.51.49.49,0,0,1-.45-.44.51.51,0,0,1,.35-.54A12.54,12.54,0,0,0,26.82,1.43C18.47,5.47,9.59,14.2,4.69,19.47ZM8.8,10.79a35.81,35.81,0,0,0-3.69,6.78C10,12.42,17.86,5,25.44,1,15.43.8,10,11.73,10,11.84a.51.51,0,0,1-.45.29.51.51,0,0,1-.45-.3A2.73,2.73,0,0,1,8.8,10.79Z"/></g></g></svg>