<svg xmlns="http://www.w3.org/2000/svg" viewBox="0 0 26.62 30.13"><g id="Capa_2" data-name="Capa 2"><g id="Capa_1-2" data-name="Capa 1"><circle cx="4.3" cy="15.12" r="1.53"/><path d="M4.3,14.1a.5.5,0,0,1-.5-.5V3.32a.5.5,0,0,1,.5-.5.5.5,0,0,1,.5.5V13.6A.51.51,0,0,1,4.3,14.1Z"/><path d="M4.3,12.65a.5.5,0,0,1-.36-.14l-2.1-2.1a1.78,1.78,0,0,1-.52-1.27V7.35a.5.5,0,0,1,.5-.5.51.51,0,0,1,.5.5V9.14a.79.79,0,0,0,.23.56l2.1,2.1a.5.5,0,0,1,0,.71A.47.47,0,0,1,4.3,12.65Z"/><path d="M4.3,10.74a.51.51,0,0,1-.36-.15.49.49,0,0,1,0-.7L6,7.85a.8.8,0,0,0,.24-.57v-1a.5.5,0,0,1,.5-.5.5.5,0,0,1,.5.5v1a1.84,1.84,0,0,1-.54,1.29l-2.08,2A.49.49,0,0,1,4.3,10.74Z"/><circle cx="1.82" cy="6.27" r="1"/><rect x="5.73" y="4.19" width="2.08" height="2.08" rx="0.62"/><path d="M3.88,1.37,3.22,2.52a.46.46,0,0,0,.4.69H5a.46.46,0,0,0,.4-.69L4.68,1.37A.47.47,0,0,0,3.88,1.37Z"/><path d="M18.13,30.13H9.81a1.69,1.69,0,0,1-1.69-1.68v-6.9a.68.68,0,0,0-.68-.68H.5a.5.5,0,0,1,0-1H7.44a1.68,1.68,0,0,1,1.68,1.68v6.9a.68.68,0,0,0,.69.68h8.32a.67.67,0,0,0,.68-.68V26.28a.5.5,0,0,1,.5-.5.5.5,0,0,1,.5.5v2.17A1.68,1.68,0,0,1,18.13,30.13Z"/><rect x="18.16" y="23.61" width="2.3" height="2.93" rx="0.44"/><path d="M23.6,24.3H15a3,3,0,0,1-3-3V3a3,3,0,0,1,3-3H23.6a3,3,0,0,1,3,3V21.29A3,3,0,0,1,23.6,24.3ZM15,1a2,2,0,0,0-2,2V21.29a2,2,0,0,0,2,2H23.6a2,2,0,0,0,2-2V3a2,2,0,0,0-2-2Z"/><path d="M23.34,20.67h-8a1.54,1.54,0,0,1-1.55-1.54V3.22a1.54,1.54,0,0,1,1.55-1.54h8.05a1.55,1.55,0,0,1,1.55,1.54V19.13A1.55,1.55,0,0,1,23.34,20.67Zm-8-18a.55.55,0,0,0-.55.54V19.13a.55.55,0,0,0,.55.54h8.05a.55.55,0,0,0,.55-.54V3.22a.55.55,0,0,0-.55-.54Z"/><circle cx="19.31" cy="22.35" r="0.6"/></g></g></svg>