<svg xmlns="http://www.w3.org/2000/svg" viewBox="0 0 29.03 28.98"><g id="Capa_2" data-name="Capa 2"><g id="Capa_1-2" data-name="Capa 1"><path d="M6.71,29a3.23,3.23,0,1,1,3.22-3.23A3.23,3.23,0,0,1,6.71,29Zm0-5.45a2.23,2.23,0,1,0,2.22,2.22A2.23,2.23,0,0,0,6.71,23.53Z"/><path d="M6.71,23.53a.5.5,0,0,1-.5-.5V4.71a.5.5,0,0,1,.5-.5.51.51,0,0,1,.5.5V23A.51.51,0,0,1,6.71,23.53Z"/><path d="M6.71,21a.51.51,0,0,1-.36-.15L2.61,17.07a2.8,2.8,0,0,1-.82-2V11.9a.5.5,0,0,1,.5-.5.5.5,0,0,1,.5.5v3.18a1.79,1.79,0,0,0,.53,1.28l3.74,3.75a.5.5,0,0,1-.35.85Z"/><path d="M6.71,17.55a.51.51,0,0,1-.36-.15.49.49,0,0,1,0-.7l3.7-3.63a1.81,1.81,0,0,0,.55-1.29v-1.7a.5.5,0,0,1,.5-.5.5.5,0,0,1,.5.5v1.7a2.79,2.79,0,0,1-.85,2l-3.7,3.63A.49.49,0,0,1,6.71,17.55Z"/><path d="M2.29,12.26A2.29,2.29,0,1,1,4.57,10,2.3,2.3,0,0,1,2.29,12.26Zm0-3.58A1.29,1.29,0,1,0,3.57,10,1.29,1.29,0,0,0,2.29,8.68Z"/><path d="M12.34,10.47H9.88A1.13,1.13,0,0,1,8.75,9.35V6.89A1.14,1.14,0,0,1,9.88,5.76h2.46a1.13,1.13,0,0,1,1.12,1.13V9.35A1.12,1.12,0,0,1,12.34,10.47ZM9.88,6.76a.13.13,0,0,0-.13.13V9.35a.12.12,0,0,0,.13.12h2.46a.12.12,0,0,0,.12-.12V6.89a.12.12,0,0,0-.12-.13Z"/><path d="M8.49,5H4.88A1,1,0,0,1,4,4.55a1,1,0,0,1,0-1L5.85.45a1,1,0,0,1,1.67,0l1.8,3.13A1,1,0,0,1,8.49,5ZM6.68,1,4.91,4.08,8.49,4Z"/><path d="M17.45,27.29a1.21,1.21,0,0,1-1-.53,1.57,1.57,0,0,1-.1-1.49L19.15,18l-3.54-.05a1.67,1.67,0,0,1-1.43-.79,1.73,1.73,0,0,1,0-1.64L19.89,3.1a2.35,2.35,0,0,1,2.05-1.33h5.44a1.6,1.6,0,0,1,1.44.81h0a1.66,1.66,0,0,1,0,1.67l-3.74,6.83h2.33a1.57,1.57,0,0,1,1.46.87,1.64,1.64,0,0,1-.24,1.71l-10,13A1.49,1.49,0,0,1,17.45,27.29ZM21.94,2.77a1.35,1.35,0,0,0-1.14.75L15,15.9a.72.72,0,0,0,0,.7.68.68,0,0,0,.58.31l4.26.06a.48.48,0,0,1,.41.22.5.5,0,0,1,.05.46l-3.08,8a.57.57,0,0,0,0,.59.16.16,0,0,0,.14.08c.2,0,.32-.14.44-.29l10-12.95a.64.64,0,0,0,.12-.68.56.56,0,0,0-.55-.29H24.2a.52.52,0,0,1-.43-.25.5.5,0,0,1,0-.49l4.16-7.57a.73.73,0,0,0,0-.7h0a.62.62,0,0,0-.57-.3Z"/></g></g></svg>