<svg xmlns="http://www.w3.org/2000/svg" viewBox="0 0 27.83 27.35"><g id="Capa_2" data-name="Capa 2"><g id="Capa_1-2" data-name="Capa 1"><path d="M25,27.35H2.88A2.89,2.89,0,0,1,0,24.46V11A2.88,2.88,0,0,1,2.88,8.08H25A2.88,2.88,0,0,1,27.83,11v13.5A2.89,2.89,0,0,1,25,27.35ZM2.88,9.08A1.88,1.88,0,0,0,1,11v13.5a1.89,1.89,0,0,0,1.88,1.89H25a1.89,1.89,0,0,0,1.88-1.89V11A1.88,1.88,0,0,0,25,9.08Z"/><path d="M25,9.08A.54.54,0,0,1,24.73,9L7.66,1A.49.49,0,0,1,7.42.29.5.5,0,0,1,8.09.05L25.16,8.12a.5.5,0,0,1,.24.67A.51.51,0,0,1,25,9.08Z"/><path d="M21.68,23.49A3.51,3.51,0,1,1,25.19,20,3.52,3.52,0,0,1,21.68,23.49Zm0-6A2.51,2.51,0,1,0,24.19,20,2.52,2.52,0,0,0,21.68,17.47Z"/><path d="M24.05,13.89H3.52a.5.5,0,0,1-.5-.5V10.87a.5.5,0,0,1,.5-.5H24.05a.5.5,0,0,1,.5.5v2.52A.5.5,0,0,1,24.05,13.89Zm-20-1H23.55V11.37H4Z"/><path d="M5.78,17.7a.8.8,0,1,1,.8-.8A.8.8,0,0,1,5.78,17.7Zm0-1a.2.2,0,0,0-.2.2c0,.23.41.23.41,0A.2.2,0,0,0,5.78,16.7Z"/><path d="M9.42,17.7a.8.8,0,1,1,.79-.8A.8.8,0,0,1,9.42,17.7Zm0-1a.2.2,0,0,0-.21.2c0,.23.41.23.41,0A.2.2,0,0,0,9.42,16.7Z"/><path d="M13.05,17.7a.8.8,0,1,1,0-1.59.8.8,0,0,1,0,1.59Zm0-1a.2.2,0,0,0-.21.2c0,.23.41.23.41,0A.2.2,0,0,0,13.05,16.7Z"/><path d="M5.78,23.2a.79.79,0,1,1,.8-.79A.79.79,0,0,1,5.78,23.2Zm0-1a.21.21,0,0,0-.2.21c0,.23.41.23.41,0A.21.21,0,0,0,5.78,22.2Z"/><path d="M4,20.62a.79.79,0,0,1-.79-.8.79.79,0,0,1,1.58,0A.79.79,0,0,1,4,20.62Zm0-1a.21.21,0,0,0-.21.2c0,.23.41.23.42,0A.21.21,0,0,0,4,19.62Z"/><path d="M7.63,20.62a.8.8,0,0,1-.79-.8.8.8,0,0,1,1.59,0A.8.8,0,0,1,7.63,20.62Zm0-1a.2.2,0,0,0-.2.2c0,.23.41.23.41,0A.2.2,0,0,0,7.63,19.62Z"/><path d="M11.25,20.62a.79.79,0,0,1-.79-.8.79.79,0,0,1,1.58,0A.79.79,0,0,1,11.25,20.62Zm0-1a.21.21,0,0,0-.21.2c0,.23.42.23.42,0A.21.21,0,0,0,11.25,19.62Z"/><path d="M14.87,20.62a.8.8,0,0,1-.8-.8.8.8,0,1,1,.8.8Zm0-1a.2.2,0,0,0-.21.2c0,.23.41.23.41,0A.2.2,0,0,0,14.87,19.62Z"/><path d="M9.42,23.2a.79.79,0,1,1,.79-.79A.79.79,0,0,1,9.42,23.2Zm0-1a.21.21,0,0,0-.21.21c0,.23.41.23.41,0A.21.21,0,0,0,9.42,22.2Z"/><path d="M13.05,23.2a.79.79,0,1,1,0-1.58.79.79,0,0,1,0,1.58Zm0-1a.21.21,0,0,0-.21.21c0,.23.41.23.41,0A.21.21,0,0,0,13.05,22.2Z"/></g></g></svg>