<svg xmlns="http://www.w3.org/2000/svg" viewBox="0 0 27.99 15.3"><g id="Capa_2" data-name="Capa 2"><g id="Capa_1-2" data-name="Capa 1"><path d="M23,15.3h-4.5a.5.5,0,0,1-.5-.5.5.5,0,0,1,.5-.5H23a.5.5,0,0,1,.5.5A.51.51,0,0,1,23,15.3Z"/><path d="M27.49,4a.5.5,0,0,1-.5-.5V1.1a.1.1,0,0,0-.1-.1H1.1a.09.09,0,0,0-.1.1V3.5A.5.5,0,0,1,.5,4,.5.5,0,0,1,0,3.5V1.1A1.1,1.1,0,0,1,1.1,0H26.89A1.1,1.1,0,0,1,28,1.1V3.5A.5.5,0,0,1,27.49,4Z"/><path d="M9.5,15.3H5a.5.5,0,0,1-.5-.5.5.5,0,0,1,.5-.5H9.5a.5.5,0,0,1,.5.5A.51.51,0,0,1,9.5,15.3Z"/><path d="M26.89,15.3H23a.5.5,0,0,1-.5-.5.5.5,0,0,1,.5-.5h3.9a.11.11,0,0,0,.1-.1V10.84a.5.5,0,0,1,.5-.5.5.5,0,0,1,.5.5V14.2A1.11,1.11,0,0,1,26.89,15.3Z"/><path d="M18.49,15.3H14a.51.51,0,0,1-.5-.5.5.5,0,0,1,.5-.5h4.5a.5.5,0,0,1,.5.5A.5.5,0,0,1,18.49,15.3Z"/><path d="M5,15.3H1.1A1.1,1.1,0,0,1,0,14.2V10.84a.5.5,0,0,1,.5-.5.5.5,0,0,1,.5.5V14.2a.1.1,0,0,0,.1.1H5a.5.5,0,0,1,.5.5A.5.5,0,0,1,5,15.3Z"/><path d="M.5,11.34a.5.5,0,0,1-.5-.5V5A.5.5,0,0,1,1,5v5.81A.5.5,0,0,1,.5,11.34Z"/><path d="M27.49,11.34a.5.5,0,0,1-.5-.5V5a.5.5,0,0,1,.5-.5A.51.51,0,0,1,28,5v5.81A.5.5,0,0,1,27.49,11.34Z"/><path d="M14,15.3H9.5a.5.5,0,0,1-.5-.5.5.5,0,0,1,.5-.5H14a.5.5,0,0,1,.5.5A.5.5,0,0,1,14,15.3Z"/><path d="M.5,5.53A.5.5,0,0,1,0,5a.5.5,0,0,1,.5-.5A.27.27,0,1,0,.5,4a.5.5,0,0,1,0-1,1.27,1.27,0,1,1,0,2.53Z"/><path d="M27.49,5.53a1.27,1.27,0,1,1,0-2.53.5.5,0,0,1,0,1,.27.27,0,1,0,0,.53A.51.51,0,0,1,28,5,.5.5,0,0,1,27.49,5.53Z"/><path d="M27.49,11.34a.47.47,0,0,1-.35-.15A.36.36,0,0,1,27,11a.47.47,0,0,1,0-.38.53.53,0,0,1,.27-.27.5.5,0,0,1,.38,0,.53.53,0,0,1,.27.27.43.43,0,0,1,0,.19A.41.41,0,0,1,28,11a.36.36,0,0,1-.11.16A.47.47,0,0,1,27.49,11.34Z"/><path d="M27.49,11.34H.5a.5.5,0,0,1,0-1h27a.5.5,0,0,1,0,1Z"/><path d="M5,15.3a.5.5,0,0,1-.5-.5V13.07a.5.5,0,0,1,1,0V14.8A.5.5,0,0,1,5,15.3Z"/><path d="M5,15.3a.43.43,0,0,1-.19,0,.57.57,0,0,1-.16-.11.51.51,0,0,1-.15-.35.58.58,0,0,1,0-.19.62.62,0,0,1,.11-.17.54.54,0,0,1,.16-.1.46.46,0,0,1,.38,0,.48.48,0,0,1,.17.1,1,1,0,0,1,.11.17.58.58,0,0,1,0,.19.5.5,0,0,1-.14.35A.53.53,0,0,1,5,15.3Z"/><path d="M9.5,15.3a.5.5,0,0,1-.5-.5V13.07a.5.5,0,0,1,.5-.5.51.51,0,0,1,.5.5V14.8A.51.51,0,0,1,9.5,15.3Z"/><path d="M9.5,15.3a.51.51,0,0,1-.35-.15A.47.47,0,0,1,9,14.8a.5.5,0,0,1,.69-.46.44.44,0,0,1,.16.1.51.51,0,0,1,.15.36.47.47,0,0,1-.15.35.46.46,0,0,1-.16.11A.43.43,0,0,1,9.5,15.3Z"/><path d="M14,15.3a.51.51,0,0,1-.5-.5V13.07a.51.51,0,0,1,.5-.5.5.5,0,0,1,.5.5V14.8A.5.5,0,0,1,14,15.3Z"/><path d="M14,15.3a.41.41,0,0,1-.19,0,.62.62,0,0,1-.17-.11.54.54,0,0,1-.1-.16.43.43,0,0,1,0-.19.54.54,0,0,1,.14-.36.59.59,0,0,1,.17-.1.5.5,0,0,1,.38,0,.54.54,0,0,1,.16.1.62.62,0,0,1,.11.17.58.58,0,0,1,0,.19.65.65,0,0,1,0,.19.57.57,0,0,1-.11.16A.47.47,0,0,1,14,15.3Z"/><path d="M18.49,15.3a.5.5,0,0,1-.5-.5V13.07a.5.5,0,0,1,1,0V14.8A.5.5,0,0,1,18.49,15.3Z"/><path d="M18.49,15.3a.51.51,0,0,1-.35-.15A.57.57,0,0,1,18,15a.65.65,0,0,1,0-.19.58.58,0,0,1,0-.19.62.62,0,0,1,.11-.17.54.54,0,0,1,.16-.1.52.52,0,0,1,.55.1.54.54,0,0,1,.14.36.5.5,0,0,1-.14.35.57.57,0,0,1-.16.11A.48.48,0,0,1,18.49,15.3Z"/><path d="M23,15.3a.43.43,0,0,1-.19,0,.46.46,0,0,1-.16-.11.36.36,0,0,1-.11-.16.43.43,0,0,1,0-.19.51.51,0,0,1,.15-.36.44.44,0,0,1,.16-.1.5.5,0,0,1,.69.46.43.43,0,0,1,0,.19.36.36,0,0,1-.11.16.46.46,0,0,1-.16.11A.41.41,0,0,1,23,15.3Z"/><path d="M23,15.3a.5.5,0,0,1-.5-.5V13.07a.5.5,0,0,1,.5-.5.51.51,0,0,1,.5.5V14.8A.51.51,0,0,1,23,15.3Z"/><path d="M7.65,8.79H5.12A1.1,1.1,0,0,1,4,7.69V3.81a1.1,1.1,0,0,1,1.1-1.1H7.65a1.1,1.1,0,0,1,1.1,1.1V7.69A1.1,1.1,0,0,1,7.65,8.79ZM5.12,3.71a.1.1,0,0,0-.1.1V7.69a.1.1,0,0,0,.1.1H7.65a.1.1,0,0,0,.1-.1V3.81a.1.1,0,0,0-.1-.1Z"/><path d="M15.26,8.79H12.73a1.1,1.1,0,0,1-1.1-1.1V3.81a1.1,1.1,0,0,1,1.1-1.1h2.53a1.1,1.1,0,0,1,1.1,1.1V7.69A1.1,1.1,0,0,1,15.26,8.79ZM12.73,3.71a.1.1,0,0,0-.1.1V7.69a.1.1,0,0,0,.1.1h2.53a.1.1,0,0,0,.1-.1V3.81a.1.1,0,0,0-.1-.1Z"/><path d="M22.87,8.79H20.34a1.1,1.1,0,0,1-1.1-1.1V3.81a1.1,1.1,0,0,1,1.1-1.1h2.53A1.1,1.1,0,0,1,24,3.81V7.69A1.1,1.1,0,0,1,22.87,8.79ZM20.34,3.71a.1.1,0,0,0-.1.1V7.69a.1.1,0,0,0,.1.1h2.53a.1.1,0,0,0,.1-.1V3.81a.1.1,0,0,0-.1-.1Z"/></g></g></svg>