<svg xmlns="http://www.w3.org/2000/svg" viewBox="0 0 28.14 28.14"><g id="Capa_2" data-name="Capa 2"><g id="Capa_1-2" data-name="Capa 1"><path d="M14.07,28.14A14.07,14.07,0,1,1,28.14,14.07,14.08,14.08,0,0,1,14.07,28.14ZM14.07,1A13.07,13.07,0,1,0,27.14,14.07,13.08,13.08,0,0,0,14.07,1Z"/><path d="M5.3,17.84a.5.5,0,0,1-.5-.5V10.83a.5.5,0,0,1,.5-.5H8.11a2,2,0,0,1,1.77,2.16,1.9,1.9,0,0,1-1.79,2H5.8v2.81A.5.5,0,0,1,5.3,17.84Zm.5-4.31H8.08c.17,0,.8-.12.8-1A1,1,0,0,0,8,11.32H5.8Z"/><path d="M9.75,17.84a.48.48,0,0,1-.44-.28l-1.68-3.3a.5.5,0,1,1,.89-.45l1.68,3.3a.5.5,0,0,1-.22.67A.49.49,0,0,1,9.75,17.84Z"/><path d="M16.49,17.84H12.3a.51.51,0,0,1-.5-.5V10.72a.5.5,0,0,1,.5-.5h4.19a.5.5,0,0,1,.5.5.51.51,0,0,1-.5.5H12.8v5.62h3.69a.5.5,0,0,1,.5.5A.51.51,0,0,1,16.49,17.84Z"/><path d="M15.37,14.53H12.3a.5.5,0,0,1-.5-.5.51.51,0,0,1,.5-.5h3.07a.51.51,0,0,1,.5.5A.5.5,0,0,1,15.37,14.53Z"/><path d="M20.69,18A2.51,2.51,0,0,1,18,15.39V12.78a2.8,2.8,0,0,1,.71-1.87,2.54,2.54,0,0,1,1.91-.72,2.53,2.53,0,0,1,2.68,2.59.51.51,0,0,1-.5.5.5.5,0,0,1-.5-.5,1.55,1.55,0,0,0-1.68-1.59,1.58,1.58,0,0,0-1.19.42A1.78,1.78,0,0,0,19,12.76v2.63A1.52,1.52,0,0,0,20.69,17a1.53,1.53,0,0,0,1.65-1.57.5.5,0,0,1,.5-.5.5.5,0,0,1,.5.5A2.51,2.51,0,0,1,20.69,18Z"/></g></g></svg>