<svg xmlns="http://www.w3.org/2000/svg" viewBox="0 0 22.49 29.41"><g id="Capa_2" data-name="Capa 2"><g id="Capa_1-2" data-name="Capa 1"><path d="M7.56,22.82H1.5A1.5,1.5,0,0,1,0,21.32V19.84a1.5,1.5,0,0,1,1.5-1.5H7.56a1.5,1.5,0,0,1,1.5,1.5v1.48A1.51,1.51,0,0,1,7.56,22.82ZM1.5,19.34a.5.5,0,0,0-.5.5v1.48a.5.5,0,0,0,.5.5H7.56a.51.51,0,0,0,.5-.5V19.84a.5.5,0,0,0-.5-.5Z"/><path d="M6.63,17.75a.5.5,0,0,1-.5-.5v-16A.23.23,0,0,0,5.9,1H3.15a.22.22,0,0,0-.22.23v16a.5.5,0,0,1-.5.5.5.5,0,0,1-.5-.5v-16A1.23,1.23,0,0,1,3.15,0H5.9A1.23,1.23,0,0,1,7.13,1.23v16A.5.5,0,0,1,6.63,17.75Z"/><path d="M5.9,29.41H3.15a1.22,1.22,0,0,1-1.22-1.22V23.9a.5.5,0,0,1,.5-.5.51.51,0,0,1,.5.5v4.29a.22.22,0,0,0,.22.22H5.9a.22.22,0,0,0,.23-.22V23.9a.5.5,0,0,1,1,0v4.29A1.23,1.23,0,0,1,5.9,29.41Z"/><path d="M21,14.57H14.93a1.5,1.5,0,0,1-1.5-1.5V11.59a1.51,1.51,0,0,1,1.5-1.5H21a1.5,1.5,0,0,1,1.5,1.5v1.48A1.5,1.5,0,0,1,21,14.57Zm-6.06-3.48a.51.51,0,0,0-.5.5v1.48a.5.5,0,0,0,.5.5H21a.5.5,0,0,0,.5-.5V11.59a.51.51,0,0,0-.5-.5Z"/><path d="M20.06,9.51a.51.51,0,0,1-.5-.5V1.23A.22.22,0,0,0,19.34,1H16.58a.22.22,0,0,0-.22.23V9a.51.51,0,0,1-.5.5.5.5,0,0,1-.5-.5V1.23A1.23,1.23,0,0,1,16.58,0h2.76a1.23,1.23,0,0,1,1.22,1.23V9A.5.5,0,0,1,20.06,9.51Z"/><path d="M19.34,29.41H16.58a1.22,1.22,0,0,1-1.22-1.22V15.66a.5.5,0,0,1,.5-.5.51.51,0,0,1,.5.5V28.19a.22.22,0,0,0,.22.22h2.76a.22.22,0,0,0,.22-.22V15.66a.51.51,0,0,1,.5-.5.5.5,0,0,1,.5.5V28.19A1.22,1.22,0,0,1,19.34,29.41Z"/></g></g></svg>