<svg xmlns="http://www.w3.org/2000/svg" viewBox="0 0 14.36 27.47"><g id="Capa_2" data-name="Capa 2"><g id="Capa_1-2" data-name="Capa 1"><path d="M11.89,27.47H2.47A2.48,2.48,0,0,1,0,25V8A2.48,2.48,0,0,1,2.47,5.53h9.42A2.48,2.48,0,0,1,14.36,8V25A2.48,2.48,0,0,1,11.89,27.47ZM2.47,6.53A1.47,1.47,0,0,0,1,8V25a1.47,1.47,0,0,0,1.47,1.47h9.42A1.47,1.47,0,0,0,13.36,25V8a1.47,1.47,0,0,0-1.47-1.47Z"/><circle cx="3.52" cy="9.57" r="0.87"/><circle cx="7.18" cy="9.57" r="0.87"/><circle cx="10.84" cy="9.57" r="0.87"/><circle cx="3.52" cy="12.62" r="0.87"/><circle cx="7.18" cy="12.62" r="0.87"/><circle cx="10.84" cy="12.62" r="0.87"/><circle cx="3.52" cy="15.68" r="0.87"/><circle cx="7.18" cy="15.68" r="0.87"/><circle cx="10.84" cy="15.68" r="0.87"/><circle cx="7.18" cy="18.73" r="0.87"/><circle cx="7.19" cy="3.86" r="0.73"/><path d="M8.92,3.44a.49.49,0,0,1-.4-.2,1.68,1.68,0,0,0-2.63,0,.5.5,0,0,1-.7.1.49.49,0,0,1-.11-.69,2.63,2.63,0,0,1,4.25,0,.5.5,0,0,1-.41.79Z"/><path d="M4.4,2.29a.48.48,0,0,1-.33-.13A.49.49,0,0,1,4,1.46a4.19,4.19,0,0,1,6.32,0,.5.5,0,1,1-.76.66,3.18,3.18,0,0,0-4.8,0A.49.49,0,0,1,4.4,2.29Z"/></g></g></svg>