<svg xmlns="http://www.w3.org/2000/svg" viewBox="0 0 27.38 19.8"><g id="Capa_2" data-name="Capa 2"><g id="Capa_1-2" data-name="Capa 1"><path d="M26.88,10.66a.5.5,0,0,1-.5-.5V3.4A2.41,2.41,0,0,0,24,1H15.89a.5.5,0,0,1,0-1H24a3.41,3.41,0,0,1,3.41,3.4v6.76A.5.5,0,0,1,26.88,10.66Z"/><path d="M11.48,19.8H3.4A3.4,3.4,0,0,1,0,16.4V9.64a.5.5,0,0,1,.5-.5.5.5,0,0,1,.5.5V16.4a2.41,2.41,0,0,0,2.4,2.4h8.08a.5.5,0,0,1,.5.5A.5.5,0,0,1,11.48,19.8Z"/><path d="M23.33,17.36H3.88a1.32,1.32,0,0,1-1.32-1.31V3.83A1.32,1.32,0,0,1,3.88,2.51H23.33a1.32,1.32,0,0,1,1.31,1.32V16.05A1.31,1.31,0,0,1,23.33,17.36ZM3.88,3.51a.32.32,0,0,0-.32.32V16.05a.31.31,0,0,0,.32.31H23.33a.31.31,0,0,0,.31-.31V3.83a.31.31,0,0,0-.31-.32Z"/></g></g></svg>