<svg xmlns="http://www.w3.org/2000/svg" viewBox="0 0 19.39 26.51"><g id="Capa_2" data-name="Capa 2"><g id="Capa_1-2" data-name="Capa 1"><path d="M16.28,6.94a.5.5,0,0,1-.5-.5V2.71a.5.5,0,0,1,.5-.5.5.5,0,0,1,.5.5V6.44A.5.5,0,0,1,16.28,6.94Z"/><path d="M13.3,6.94a.5.5,0,0,1-.5-.5V2.71a.5.5,0,0,1,.5-.5.5.5,0,0,1,.5.5V6.44A.5.5,0,0,1,13.3,6.94Z"/><path d="M10.33,6.94a.5.5,0,0,1-.5-.5V2.71a.5.5,0,0,1,.5-.5.5.5,0,0,1,.5.5V6.44A.5.5,0,0,1,10.33,6.94Z"/><path d="M7.36,6.94a.5.5,0,0,1-.5-.5V2.71a.5.5,0,0,1,1,0V6.44A.5.5,0,0,1,7.36,6.94Z"/><path d="M4.39,6.94a.5.5,0,0,1-.5-.5V5.51a.5.5,0,1,1,1,0v.93A.5.5,0,0,1,4.39,6.94Z"/><path d="M16.55,26.51H2.84A2.84,2.84,0,0,1,0,23.67V10.8a.5.5,0,0,1,.5-.5H.83V9.45H.5A.5.5,0,0,1,0,9V5.18a.47.47,0,0,1,.15-.35L4.83.15A.47.47,0,0,1,5.18,0H16.55a2.84,2.84,0,0,1,2.84,2.84V23.67A2.84,2.84,0,0,1,16.55,26.51ZM1,11.3V23.67a1.85,1.85,0,0,0,1.84,1.84H16.55a1.85,1.85,0,0,0,1.84-1.84V2.84A1.85,1.85,0,0,0,16.55,1H5.39L1,5.39V8.45h.33a.5.5,0,0,1,.5.5V10.8a.51.51,0,0,1-.5.5Z"/></g></g></svg>