<svg xmlns="http://www.w3.org/2000/svg" viewBox="0 0 28.59 28.59"><g id="Capa_2" data-name="Capa 2"><g id="Capa_1-2" data-name="Capa 1"><path d="M26.05,4.74a.53.53,0,0,1-.4-.19.51.51,0,0,1,.09-.71,1.42,1.42,0,0,0,.5-.8.56.56,0,0,0-.2-.45c-.63-.62-1.6.2-1.64.23a.49.49,0,0,1-.53.08c-9.47-4.2-19.52,0-19.62,0a.52.52,0,0,1-.66-.27A.5.5,0,0,1,3.86,2C4.28,1.8,14.22-2.31,24,1.87a2.09,2.09,0,0,1,2.73,0,1.55,1.55,0,0,1,.5,1.22,2.43,2.43,0,0,1-.88,1.53A.56.56,0,0,1,26.05,4.74Z"/><path d="M25.58,27.24H25.5A2.38,2.38,0,0,1,24,26.35a.5.5,0,0,1,.09-.7.5.5,0,0,1,.7.08,1.41,1.41,0,0,0,.81.51A.55.55,0,0,0,26,26c.63-.63-.22-1.63-.23-1.64a.49.49,0,0,1-.08-.53c4.21-9.48,0-19.52,0-19.62a.5.5,0,0,1,.92-.4c.18.43,4.3,10.37.11,20.16a2.09,2.09,0,0,1,0,2.73A1.57,1.57,0,0,1,25.58,27.24Z"/><path d="M14.09,28.59a24.05,24.05,0,0,1-9.5-1.87,2.1,2.1,0,0,1-2.74,0,1.55,1.55,0,0,1-.5-1.22A2.38,2.38,0,0,1,2.24,24a.5.5,0,0,1,.7.09.5.5,0,0,1-.08.7,1.41,1.41,0,0,0-.51.81.54.54,0,0,0,.21.44c.62.62,1.59-.2,1.63-.23a.49.49,0,0,1,.53-.08c9.47,4.2,19.53,0,19.63,0A.5.5,0,0,1,25,26a.5.5,0,0,1-.26.66A29.67,29.67,0,0,1,14.09,28.59Z"/><path d="M2.44,25a.51.51,0,0,1-.46-.3c-.17-.42-4.29-10.37-.11-20.15a2.1,2.1,0,0,1,0-2.74,1.58,1.58,0,0,1,1.22-.5,2.38,2.38,0,0,1,1.53.89.5.5,0,0,1-.08.7.52.52,0,0,1-.71-.08A1.38,1.38,0,0,0,3,2.35a.58.58,0,0,0-.45.21c-.63.62.22,1.62.23,1.63a.49.49,0,0,1,.08.53c-4.2,9.47,0,19.53,0,19.63a.5.5,0,0,1-.26.65A.45.45,0,0,1,2.44,25Z"/><path d="M12.14,12.63a.49.49,0,0,1-.35-.15L7.91,8.61a.51.51,0,0,1,0-.71.5.5,0,0,1,.71,0l3.87,3.87a.5.5,0,0,1,0,.71A.47.47,0,0,1,12.14,12.63Z"/><path d="M16.38,12.59a.47.47,0,0,1-.35-.15.48.48,0,0,1,0-.7L19.9,7.86a.5.5,0,1,1,.71.71l-3.88,3.87A.47.47,0,0,1,16.38,12.59Z"/><path d="M20.29,20.7a.52.52,0,0,1-.35-.14l-3.88-3.88a.5.5,0,1,1,.71-.71l3.87,3.88a.5.5,0,0,1-.35.85Z"/><path d="M8.3,20.74A.5.5,0,0,1,8,19.89L11.82,16a.51.51,0,0,1,.71,0,.5.5,0,0,1,0,.71L8.66,20.59A.51.51,0,0,1,8.3,20.74Z"/><path d="M14.28,16.08a1.85,1.85,0,1,1,1.85-1.85A1.85,1.85,0,0,1,14.28,16.08Zm0-2.7a.85.85,0,1,0,.85.85A.85.85,0,0,0,14.28,13.38Z"/></g></g></svg>