<svg xmlns="http://www.w3.org/2000/svg" viewBox="0 0 27.68 30.04"><g id="Capa_2" data-name="Capa 2"><g id="Capa_1-2" data-name="Capa 1"><path d="M27.06,13.51h0c-.07-.26-.13-.52-.2-.78C24.73,4.54,19.05-1.08,14.19.18c-2.71.7-4.68,3.38-5.44,7.35L6.23,10l-2.49.66a4.93,4.93,0,0,0-3.3,3.56,11.42,11.42,0,0,0,0,6.2l0,.08c1.09,4.13,4,7,6.74,7a3.87,3.87,0,0,0,1-.12l2.52-.66,4.19.63A8.43,8.43,0,0,0,20.47,30a5.3,5.3,0,0,0,1.43-.19C26.59,28.64,28.86,21.46,27.06,13.51ZM13,14.52a1.71,1.71,0,0,1,1.08-1.23c1.08-.27,2.39,1,2.87,2.88l0,.12h0a4.38,4.38,0,0,1-.26,3.09,1.49,1.49,0,0,1-.86.71h0a1.75,1.75,0,0,1-1.54-.54A4.83,4.83,0,0,1,13,17.22l0-.13h0A4.83,4.83,0,0,1,13,14.52Zm.65,5.77a2.9,2.9,0,0,0,1.91.84,2.1,2.1,0,0,0,.56-.07,2.42,2.42,0,0,0,1.47-1.18,5.29,5.29,0,0,0,.35-3.9v-.14l-.05-.05c-.67-2.37-2.43-3.88-4.06-3.47a2.61,2.61,0,0,0-1.77,1.88,4,4,0,0,0-.18.7,25.17,25.17,0,0,1-.37-2.69,15.92,15.92,0,0,1,.89-6.89l0-.1A5.11,5.11,0,0,1,15.7,1.94c1.75-.46,3.77.39,5.67,2.41A20.17,20.17,0,0,1,25.83,13c.07.24.13.49.18.74,1.55,6.83-.05,12.92-3.65,13.85a4.51,4.51,0,0,1-3.24-.5L19,27a13,13,0,0,1-4.77-5.29c-.29-.52-.55-1.08-.81-1.66ZM7.87,26.5c-2.47.64-5.36-2.13-6.45-6.18l0-.07a10.36,10.36,0,0,1,0-5.69A4,4,0,0,1,4,11.66H4a4.55,4.55,0,0,0-.28.43,10.2,10.2,0,0,0-.69,7.68l0,.08a10.38,10.38,0,0,0,4.37,6.4l.49.24Zm2.73-.72-.1,0a2.9,2.9,0,0,1-1.18.06,4,4,0,0,1-1.38-.49,9.48,9.48,0,0,1-3.89-5.74l0-.07a9.45,9.45,0,0,1,.56-7,3.83,3.83,0,0,1,1-1.1A3.12,3.12,0,0,1,6,11.18l.17-.07a2.7,2.7,0,0,1,.4-.14l.13,0L8.51,9.18h0q-.07.77-.09,1.53a24.36,24.36,0,0,0,.15,3.11,28.14,28.14,0,0,0,.66,3.48c.07.29.15.59.24.86a24.53,24.53,0,0,0,1.41,3.69,20,20,0,0,0,1.64,2.87c.32.46.65.89,1,1.3l.11.14.07.08Zm11,3.11c-2,.51-4.18-.31-6.25-2.3a15.18,15.18,0,0,1-2.05-2.43,20.33,20.33,0,0,1-1.57-2.74,24.16,24.16,0,0,1-1.35-3.55c-.09-.26-.16-.54-.23-.81a24.9,24.9,0,0,1-.63-3.36,22.12,22.12,0,0,1-.15-3A18.23,18.23,0,0,1,9.7,7.87c.66-3.67,2.38-6.12,4.74-6.73A4.93,4.93,0,0,1,15.31,1a6.11,6.11,0,0,0-3.76,3.74l0,.1a16.3,16.3,0,0,0-1,7.43,24.45,24.45,0,0,0,.74,4.49c.07.29.15.58.24.86a23,23,0,0,0,1.89,4.6A13.89,13.89,0,0,0,18.65,28l.12.06h0a5.92,5.92,0,0,0,2.64.68,4.57,4.57,0,0,0,1.05-.12A5.6,5.6,0,0,1,21.65,28.89Z"/></g></g></svg>