<svg xmlns="http://www.w3.org/2000/svg" viewBox="0 0 29.18 16.75"><g id="Capa_2" data-name="Capa 2"><g id="Capa_1-2" data-name="Capa 1"><path d="M27.91,14.71a.51.51,0,0,1-.5-.5,13.47,13.47,0,0,0-.53-3.74.5.5,0,1,1,1-.28,14.31,14.31,0,0,1,.57,4A.5.5,0,0,1,27.91,14.71Z"/><path d="M.5,14.71a.5.5,0,0,1-.5-.5,14.21,14.21,0,0,1,25.59-8.5.5.5,0,1,1-.8.6A13.08,13.08,0,0,0,14.21,1,13.22,13.22,0,0,0,1,14.21.5.5,0,0,1,.5,14.71Z"/><path d="M14.26,16.75a2.59,2.59,0,0,1-2.41-3.46,2.46,2.46,0,0,1,1.3-1.42L28.52,6.52a.51.51,0,0,1,.61.25.5.5,0,0,1-.17.64L15.33,16.5l-.07,0A2.53,2.53,0,0,1,14.26,16.75Zm.79-.67h0ZM25.14,8.76l-11.62,4a1.47,1.47,0,0,0-.73.83,1.58,1.58,0,0,0,.05,1.19,1.54,1.54,0,0,0,2,.82Z"/><path d="M2.77,14.71H.5a.5.5,0,0,1-.5-.5.5.5,0,0,1,.5-.5H2.77a.5.5,0,0,1,.5.5A.51.51,0,0,1,2.77,14.71Z"/><path d="M6.12,6.62a.47.47,0,0,1-.35-.15L4.16,4.87a.5.5,0,0,1,.71-.71l1.6,1.61a.5.5,0,0,1-.35.85Z"/><path d="M14.21,3.27a.5.5,0,0,1-.5-.5V.5a.5.5,0,0,1,.5-.5.5.5,0,0,1,.5.5V2.77A.51.51,0,0,1,14.21,3.27Z"/><path d="M22.3,6.62a.51.51,0,0,1-.36-.15.5.5,0,0,1,0-.7l1.61-1.61a.5.5,0,0,1,.7,0,.5.5,0,0,1,0,.71l-1.6,1.6A.5.5,0,0,1,22.3,6.62Z"/><path d="M27.91,14.71H25.65a.5.5,0,0,1-.5-.5.5.5,0,0,1,.5-.5h2.26a.5.5,0,0,1,.5.5A.5.5,0,0,1,27.91,14.71Z"/></g></g></svg>