<svg xmlns="http://www.w3.org/2000/svg" viewBox="0 0 29.26 25.57"><g id="Capa_2" data-name="Capa 2"><g id="Capa_1-2" data-name="Capa 1"><path d="M28.27,21.46,26,4A3.34,3.34,0,0,0,22.7,1H6.56A3.32,3.32,0,0,0,3.24,4L1,21.46l-1-.13L2.24,3.89A4.34,4.34,0,0,1,6.56,0H22.7A4.32,4.32,0,0,1,27,3.9l2.24,17.43Z"/><path d="M25.08,25.57H4.18a4.18,4.18,0,0,1,0-8.36h20.9a4.18,4.18,0,1,1,0,8.36ZM4.18,18.21a3.18,3.18,0,0,0,0,6.36h20.9a3.18,3.18,0,1,0,0-6.36Z"/><path d="M22.44,21.89H14.13a.5.5,0,0,1-.5-.5.5.5,0,0,1,.5-.5h8.31a.5.5,0,0,1,.5.5A.5.5,0,0,1,22.44,21.89Z"/><path d="M25.17,21.89H24.8a.5.5,0,0,1-.5-.5.5.5,0,0,1,.5-.5h.37a.5.5,0,0,1,.5.5A.5.5,0,0,1,25.17,21.89Z"/></g></g></svg>