<svg xmlns="http://www.w3.org/2000/svg" viewBox="0 0 29.26 25.57"><g id="Capa_2" data-name="Capa 2"><g id="Capa_1-2" data-name="Capa 1"><path d="M28.27,21.46,26,4A3.34,3.34,0,0,0,22.7,1H6.56A3.32,3.32,0,0,0,3.24,4L1,21.46l-1-.13L2.24,3.89A4.34,4.34,0,0,1,6.56,0H22.7A4.32,4.32,0,0,1,27,3.9l2.24,17.43Z"/><path d="M25.08,25.57H4.18a4.18,4.18,0,0,1,0-8.36h20.9a4.18,4.18,0,1,1,0,8.36ZM4.18,18.21a3.18,3.18,0,0,0,0,6.36h20.9a3.18,3.18,0,1,0,0-6.36Z"/><path d="M22.44,21.89H14.13a.5.5,0,0,1-.5-.5.5.5,0,0,1,.5-.5h8.31a.5.5,0,0,1,.5.5A.5.5,0,0,1,22.44,21.89Z"/><path d="M25.17,21.89H24.8a.5.5,0,0,1-.5-.5.5.5,0,0,1,.5-.5h.37a.5.5,0,0,1,.5.5A.5.5,0,0,1,25.17,21.89Z"/><path d="M8.53,13.1a2.61,2.61,0,0,1-2.74-2.46.5.5,0,0,1,.5-.5.5.5,0,0,1,.5.5A1.62,1.62,0,0,0,8.53,12.1a1.62,1.62,0,0,0,1.74-1.46A1.46,1.46,0,0,0,9.12,9.3a6.42,6.42,0,0,0-.66-.13A6.21,6.21,0,0,1,7.73,9,2.47,2.47,0,0,1,5.79,6.72,2.62,2.62,0,0,1,8.53,4.25a2.62,2.62,0,0,1,2.74,2.47.5.5,0,0,1-.5.5.51.51,0,0,1-.5-.5A1.62,1.62,0,0,0,8.53,5.25,1.62,1.62,0,0,0,6.79,6.72,1.47,1.47,0,0,0,8,8.07c.21,0,.42.08.64.12s.51.08.76.14a2.45,2.45,0,0,1,1.89,2.31A2.61,2.61,0,0,1,8.53,13.1Z"/><path d="M14.63,13.1a2.61,2.61,0,0,1-2.74-2.46.5.5,0,0,1,.5-.5.5.5,0,0,1,.5.5,1.62,1.62,0,0,0,1.74,1.46,1.62,1.62,0,0,0,1.74-1.46A1.46,1.46,0,0,0,15.22,9.3c-.21-.06-.44-.09-.66-.13A6.21,6.21,0,0,1,13.83,9a2.47,2.47,0,0,1-1.94-2.32,2.62,2.62,0,0,1,2.74-2.47,2.62,2.62,0,0,1,2.74,2.47.5.5,0,0,1-.5.5.51.51,0,0,1-.5-.5,1.62,1.62,0,0,0-1.74-1.47,1.62,1.62,0,0,0-1.74,1.47,1.47,1.47,0,0,0,1.19,1.35c.21,0,.42.08.64.12s.51.08.75.14a2.45,2.45,0,0,1,1.9,2.31A2.61,2.61,0,0,1,14.63,13.1Z"/><path d="M20.48,13.1h-2a.5.5,0,0,1-.5-.5V4.75a.51.51,0,0,1,.5-.5h2a2.86,2.86,0,0,1,3,2.68v3.49A2.85,2.85,0,0,1,20.48,13.1ZM19,12.1h1.49a1.85,1.85,0,0,0,2-1.68V6.93a1.86,1.86,0,0,0-2-1.68H19Z"/></g></g></svg>