<svg xmlns="http://www.w3.org/2000/svg" viewBox="0 0 29.43 26.14"><g id="Capa_2" data-name="Capa 2"><g id="Capa_1-2" data-name="Capa 1"><path d="M12.14,5.51a.41.41,0,0,1-.19,0,.49.49,0,0,1-.27-.65,2.21,2.21,0,0,1,1.9-1.38,1.82,1.82,0,0,1,1.34.64,1.07,1.07,0,0,0,.84.42,1.1,1.1,0,0,0,1.06-.73.51.51,0,0,1,.64-.3.5.5,0,0,1,.31.63,2.13,2.13,0,0,1-2,1.4,2,2,0,0,1-1.54-.7c-.26-.25-.38-.36-.64-.36-.65,0-1,.73-1,.76A.51.51,0,0,1,12.14,5.51Z"/><path d="M10.68,15.41a.5.5,0,0,1-.5-.5V6.66A.5.5,0,0,1,11,6.31l7.23,7.22V6.66a.5.5,0,0,1,.5-.5.51.51,0,0,1,.5.5v8.08a.5.5,0,0,1-.86.35L11.18,7.87v7A.5.5,0,0,1,10.68,15.41Z"/><path d="M22.86,18.85H6.57a3.4,3.4,0,0,1-3.38-3.72L4.37,3.06A3.38,3.38,0,0,1,7.75,0H21.68a3.38,3.38,0,0,1,3.38,3.07l1.18,12.06a3.38,3.38,0,0,1-3.38,3.72ZM7.75,1A2.38,2.38,0,0,0,5.37,3.16L4.19,15.22a2.38,2.38,0,0,0,.61,1.85,2.42,2.42,0,0,0,1.77.78H22.86a2.37,2.37,0,0,0,2.38-2.63L24.07,3.16A2.39,2.39,0,0,0,21.68,1Z"/><path d="M26,26.14H3.39A3.4,3.4,0,0,1,0,22.41L1.68,5.35a3.4,3.4,0,0,1,1-2.08.48.48,0,0,1,.7,0,.5.5,0,0,1,0,.71,2.38,2.38,0,0,0-.69,1.46L1,22.51a2.39,2.39,0,0,0,.61,1.84,2.36,2.36,0,0,0,1.77.79H26a2.4,2.4,0,0,0,2.38-2.63L26.76,5.44A2.42,2.42,0,0,0,26,3.9a.5.5,0,0,1,.67-.74,3.36,3.36,0,0,1,1.1,2.19l1.67,17.06A3.41,3.41,0,0,1,26,26.14Z"/></g></g></svg>