<svg xmlns="http://www.w3.org/2000/svg" viewBox="0 0 23.01 30.48"><g id="Capa_2" data-name="Capa 2"><g id="Capa_1-2" data-name="Capa 1"><path d="M13.37,8.43a.54.54,0,0,1-.28-.08.51.51,0,0,1-.14-.7,4.2,4.2,0,0,0,.73-2.38A4.27,4.27,0,1,0,5.87,7.65.5.5,0,0,1,5,8.21a5.27,5.27,0,1,1,9.64-2.94,5.22,5.22,0,0,1-.9,2.94A.48.48,0,0,1,13.37,8.43Z"/><path d="M13.22,30.48H10.43a5.51,5.51,0,0,1-4.79-2.68,9.7,9.7,0,0,0-1.09-1.36l-.48-.55L3,24.65l-.7-.81-.48-.54c-.33-.36-.65-.72-.94-1.1-.08-.1-.16-.22-.24-.33A3.48,3.48,0,0,1,0,20.12a3,3,0,0,1,1.81-2.88c1.85-.78,3.34.44,4.54,1.42l.19.15V7.63c0-.5,0-1,0-1.48A2.73,2.73,0,0,1,8.3,3.68a2.72,2.72,0,0,1,2.92.41A2.84,2.84,0,0,1,12.29,6.4v4.24c0,.16,0,.34,0,.52a2.77,2.77,0,0,1,1.71.09,2.86,2.86,0,0,1,1.46,1.26A2.66,2.66,0,0,1,19,13.68a2.87,2.87,0,0,1,4,2.66v.78c0,2.12,0,4.31,0,6.47a7,7,0,0,1-7.09,6.88ZM3,18a1.91,1.91,0,0,0-.79.17A2,2,0,0,0,1,20.05a2.6,2.6,0,0,0,.48,1.26l.21.29h0c.27.36.57.69.88,1s.34.37.5.56l.7.81,1.06,1.23c.16.18.31.36.47.53a12.54,12.54,0,0,1,1.19,1.49,4.47,4.47,0,0,0,3.95,2.22c1.82,0,3.63,0,5.45,0a6,6,0,0,0,6.1-5.9c0-2.14,0-4.33,0-6.44v-.78a1.85,1.85,0,0,0-1.41-1.85,1.94,1.94,0,0,0-1.52.25.5.5,0,0,1-.68-.16c-.89-1.42-1.5-1.62-3-1a.55.55,0,0,1-.4,0,.51.51,0,0,1-.27-.29,1.83,1.83,0,0,0-1.09-1.12,2,2,0,0,0-1.64.14.51.51,0,0,1-.48,0,.48.48,0,0,1-.23-.42v-.42c0-.28,0-.54,0-.8V6.4a1.82,1.82,0,0,0-.7-1.53,1.75,1.75,0,0,0-1.9-.27A1.73,1.73,0,0,0,7.56,6.21c0,.46,0,.93,0,1.41V19.46c0,.08,0,.16,0,.26v.12a.5.5,0,0,1-.8.37L6.39,20c-.22-.17-.44-.34-.66-.53A4.79,4.79,0,0,0,3,18Z"/><path d="M11.79,17a.5.5,0,0,1-.5-.5V11.88a.5.5,0,0,1,.5-.5.5.5,0,0,1,.5.5v4.63A.5.5,0,0,1,11.79,17Z"/><path d="M15.2,17a.5.5,0,0,1-.5-.5V13.14a.5.5,0,0,1,1,0v3.37A.5.5,0,0,1,15.2,17Z"/><path d="M18.79,17a.5.5,0,0,1-.5-.5V14.32a.51.51,0,0,1,.5-.5.5.5,0,0,1,.5.5v2.19A.5.5,0,0,1,18.79,17Z"/><path d="M7,22a.5.5,0,0,1-.5-.5V19.81a.5.5,0,0,1,.5-.5.5.5,0,0,1,.5.5v1.65A.5.5,0,0,1,7,22Z"/></g></g></svg>