<svg xmlns="http://www.w3.org/2000/svg" viewBox="0 0 10.84 30.14"><g id="Capa_2" data-name="Capa 2"><g id="Capa_1-2" data-name="Capa 1"><path d="M8.68,17.2H2.16A2.17,2.17,0,0,1,0,15V2.16A2.16,2.16,0,0,1,2.16,0H8.68a2.16,2.16,0,0,1,2.16,2.16V15A2.17,2.17,0,0,1,8.68,17.2ZM2.16,1A1.16,1.16,0,0,0,1,2.16V15A1.17,1.17,0,0,0,2.16,16.2H8.68A1.17,1.17,0,0,0,9.84,15V2.16A1.16,1.16,0,0,0,8.68,1Z"/><path d="M5.42,12.25A1.62,1.62,0,1,1,7,10.64,1.62,1.62,0,0,1,5.42,12.25Zm0-2.23a.62.62,0,1,0,.61.62A.61.61,0,0,0,5.42,10Z"/><path d="M5.42,5.93A1.62,1.62,0,1,1,7,4.32,1.61,1.61,0,0,1,5.42,5.93Zm0-2.23A.62.62,0,1,0,6,4.32.61.61,0,0,0,5.42,3.7Z"/><path d="M5.42,14.65a4,4,0,1,1,4-4A4,4,0,0,1,5.42,14.65Zm0-7a3,3,0,1,0,3,3A3,3,0,0,0,5.42,7.62Z"/><path d="M5.42,23.09a.51.51,0,0,1-.5-.5V16.7a.5.5,0,0,1,.5-.5.5.5,0,0,1,.5.5v5.89A.5.5,0,0,1,5.42,23.09Z"/><path d="M.5,30.14a.52.52,0,0,1-.29-.09.51.51,0,0,1-.12-.7L5,22.3a.5.5,0,0,1,.82.57L.91,29.92A.5.5,0,0,1,.5,30.14Z"/><path d="M10.34,30.14a.52.52,0,0,1-.41-.22L5,22.87a.5.5,0,0,1,.82-.57l4.92,7.05a.5.5,0,0,1-.12.7A.52.52,0,0,1,10.34,30.14Z"/><path d="M5.42,28.34a.5.5,0,0,1-.5-.5V22.59a.5.5,0,0,1,.5-.5.5.5,0,0,1,.5.5v5.25A.5.5,0,0,1,5.42,28.34Z"/></g></g></svg>