<svg xmlns="http://www.w3.org/2000/svg" viewBox="0 0 29.16 27.02"><g id="Capa_2" data-name="Capa 2"><g id="Capa_1-2" data-name="Capa 1"><circle cx="12.58" cy="13.51" r="0.51"/><path d="M14.18,15.12a.49.49,0,0,1-.41-.21.5.5,0,0,1,.12-.7.86.86,0,0,0,.35-.69.82.82,0,0,0-.35-.69.5.5,0,1,1,.6-.8,1.84,1.84,0,0,1,.75,1.49A1.87,1.87,0,0,1,14.47,15,.52.52,0,0,1,14.18,15.12Z"/><path d="M16.06,15.78a.48.48,0,0,1-.38-.17.49.49,0,0,1,.05-.7,1.84,1.84,0,0,0,0-2.79.51.51,0,0,1-.05-.71.49.49,0,0,1,.7-.05,2.84,2.84,0,0,1,0,4.3A.52.52,0,0,1,16.06,15.78Z"/><path d="M8.7,27H2a2,2,0,0,1-2-2V2A2,2,0,0,1,2,0H8.7a2,2,0,0,1,2,2v23.1A2,2,0,0,1,8.7,27ZM2,1A1,1,0,0,0,1,2v23.1a1,1,0,0,0,1,1H8.7a1,1,0,0,0,1-1V2a1,1,0,0,0-1-1Z"/><path d="M27.2,27H20.46a2,2,0,0,1-2-2V2a2,2,0,0,1,2-2H27.2a2,2,0,0,1,2,2v23.1A2,2,0,0,1,27.2,27ZM20.46,1a1,1,0,0,0-1,1v23.1a1,1,0,0,0,1,1H27.2a1,1,0,0,0,1-1V2a1,1,0,0,0-1-1Z"/><path d="M5.33,15.65a4,4,0,1,1,3.95-4A4,4,0,0,1,5.33,15.65Zm0-6.9A2.95,2.95,0,1,0,8.28,11.7,3,3,0,0,0,5.33,8.75Z"/><path d="M5.33,23.69a3.95,3.95,0,1,1,3.95-4A4,4,0,0,1,5.33,23.69Zm0-6.9a3,3,0,1,0,2.95,2.95A3,3,0,0,0,5.33,16.79Z"/><path d="M23.83,15.65a4,4,0,1,1,4-4A4,4,0,0,1,23.83,15.65Zm0-6.9a2.95,2.95,0,1,0,3,2.95A2.95,2.95,0,0,0,23.83,8.75Z"/><path d="M23.83,23.69a3.95,3.95,0,1,1,4-4A4,4,0,0,1,23.83,23.69Zm0-6.9a3,3,0,1,0,3,2.95A2.95,2.95,0,0,0,23.83,16.79Z"/><path d="M5.33,12.84A1.14,1.14,0,1,1,6.47,11.7,1.15,1.15,0,0,1,5.33,12.84Zm0-1.28a.14.14,0,0,0-.14.14c0,.15.28.15.28,0A.14.14,0,0,0,5.33,11.56Z"/><path d="M5.33,20.87a1.14,1.14,0,1,1,1.14-1.13A1.14,1.14,0,0,1,5.33,20.87Zm0-1.27a.14.14,0,0,0-.14.14c0,.15.28.15.28,0A.14.14,0,0,0,5.33,19.6Z"/><path d="M23.83,12.84A1.14,1.14,0,1,1,25,11.7,1.14,1.14,0,0,1,23.83,12.84Zm0-1.28a.14.14,0,0,0-.14.14c0,.15.28.15.28,0A.14.14,0,0,0,23.83,11.56Z"/><path d="M23.83,20.87A1.14,1.14,0,1,1,25,19.74,1.14,1.14,0,0,1,23.83,20.87Zm0-1.27a.14.14,0,0,0-.14.14c0,.15.28.15.28,0A.14.14,0,0,0,23.83,19.6Z"/></g></g></svg>