<svg xmlns="http://www.w3.org/2000/svg" viewBox="0 0 14.34 30.98"><g id="Capa_2" data-name="Capa 2"><g id="Capa_1-2" data-name="Capa 1"><path d="M7.14,31a3.42,3.42,0,1,1,3.42-3.42A3.42,3.42,0,0,1,7.14,31Zm0-5.84a2.42,2.42,0,1,0,2.42,2.42A2.42,2.42,0,0,0,7.14,25.14Z"/><path d="M7.14,25.14a.5.5,0,0,1-.5-.5V5a.51.51,0,0,1,.5-.5.5.5,0,0,1,.5.5v19.6A.5.5,0,0,1,7.14,25.14Z"/><path d="M7.14,22.4a.5.5,0,0,1-.35-.15l-4-4a3,3,0,0,1-.87-2.1V12.73a.51.51,0,0,1,.5-.5.5.5,0,0,1,.5.5v3.41a2,2,0,0,0,.58,1.39l4,4a.51.51,0,0,1,0,.71A.51.51,0,0,1,7.14,22.4Z"/><path d="M7.14,18.75a.47.47,0,0,1-.35-.15.5.5,0,0,1,0-.71l4-3.88a2,2,0,0,0,.59-1.4V10.78a.51.51,0,0,1,.5-.5.5.5,0,0,1,.5.5v1.83a3,3,0,0,1-.89,2.12l-4,3.88A.5.5,0,0,1,7.14,18.75Z"/><path d="M2.41,13.08a2.41,2.41,0,1,1,2.42-2.41A2.41,2.41,0,0,1,2.41,13.08Zm0-3.82a1.41,1.41,0,1,0,1.42,1.41A1.41,1.41,0,0,0,2.41,9.26Z"/><path d="M13.21,11.17H10.49a1.12,1.12,0,0,1-1.12-1.12V7.32A1.12,1.12,0,0,1,10.49,6.2h2.72a1.13,1.13,0,0,1,1.13,1.12v2.73A1.13,1.13,0,0,1,13.21,11.17Zm-2.72-4a.12.12,0,0,0-.12.12v2.73a.12.12,0,0,0,.12.12h2.72a.12.12,0,0,0,.13-.12V7.32a.13.13,0,0,0-.13-.12Z"/><path d="M9.11,5.34h-4A1,1,0,0,1,4.29,3.9l2-3.45A1,1,0,0,1,8,.45l2,3.45a1,1,0,0,1-.83,1.44ZM7.12,1l-2,3.39,3.95-.06Z"/></g></g></svg>