<svg xmlns="http://www.w3.org/2000/svg" viewBox="0 0 27.84 11.44"><defs><style>.cls-1{fill:#1d1d1b;}</style></defs><g id="Capa_2" data-name="Capa 2"><g id="Capa_1-2" data-name="Capa 1"><path class="cls-1" d="M22.12,11.44H5.72A5.72,5.72,0,0,1,5.72,0h16.4a5.72,5.72,0,0,1,0,11.44ZM5.72,1a4.72,4.72,0,0,0,0,9.44h16.4a4.72,4.72,0,0,0,0-9.44Z"/><path class="cls-1" d="M21.87,7.9H6A2.19,2.19,0,0,1,6,3.53H21.87a2.19,2.19,0,1,1,0,4.37ZM6,4.53A1.19,1.19,0,0,0,6,6.9H21.87a1.19,1.19,0,1,0,0-2.37Z"/></g></g></svg>