<svg xmlns="http://www.w3.org/2000/svg" viewBox="0 0 28.19 26.33"><g id="Capa_2" data-name="Capa 2"><g id="Capa_1-2" data-name="Capa 1"><path d="M6.12,26.33a3,3,0,1,1,3-3A3,3,0,0,1,6.12,26.33Zm0-4.94a2,2,0,1,0,2,2A2,2,0,0,0,6.12,21.39Z"/><path d="M6.12,21.39a.5.5,0,0,1-.5-.5V4.3a.5.5,0,0,1,.5-.5.5.5,0,0,1,.5.5V20.89A.5.5,0,0,1,6.12,21.39Z"/><path d="M6.12,19.07a.5.5,0,0,1-.35-.15L2.38,15.53a2.57,2.57,0,0,1-.76-1.83V10.81a.5.5,0,0,1,1,0V13.7a1.63,1.63,0,0,0,.46,1.12l3.4,3.39a.51.51,0,0,1,0,.71A.51.51,0,0,1,6.12,19.07Z"/><path d="M6.12,16a.47.47,0,0,1-.35-.15.5.5,0,0,1,0-.71l3.36-3.28a1.58,1.58,0,0,0,.48-1.14V9.16a.5.5,0,0,1,1,0V10.7a2.56,2.56,0,0,1-.78,1.85L6.47,15.84A.5.5,0,0,1,6.12,16Z"/><path d="M2.12,11.18A2.12,2.12,0,1,1,4.24,9.06,2.12,2.12,0,0,1,2.12,11.18ZM2.12,8A1.12,1.12,0,1,0,3.24,9.06,1.12,1.12,0,0,0,2.12,8Z"/><path d="M11.17,9.56H9.05A1.12,1.12,0,0,1,7.93,8.44V6.33A1.13,1.13,0,0,1,9.05,5.2h2.12a1.13,1.13,0,0,1,1.12,1.13V8.44A1.12,1.12,0,0,1,11.17,9.56ZM9.05,6.2a.12.12,0,0,0-.12.13V8.44a.12.12,0,0,0,.12.12h2.12a.12.12,0,0,0,.12-.12V6.33a.13.13,0,0,0-.12-.13Z"/><path d="M7.66,4.63H4.54a.94.94,0,0,1-.83-.48.92.92,0,0,1,0-1L5.27.48A.94.94,0,0,1,6.1,0h0a.94.94,0,0,1,.83.48L8.5,3.19a1,1,0,0,1-.84,1.44ZM6.1,1,4.57,3.69l3.09-.06Z"/><path d="M25.1,6.9a.5.5,0,0,1-.5-.5V2.69a.5.5,0,0,1,.5-.5.5.5,0,0,1,.5.5V6.4A.5.5,0,0,1,25.1,6.9Z"/><path d="M22.15,6.9a.5.5,0,0,1-.5-.5V2.69a.5.5,0,0,1,.5-.5.5.5,0,0,1,.5.5V6.4A.5.5,0,0,1,22.15,6.9Z"/><path d="M19.2,6.9a.5.5,0,0,1-.5-.5V2.69a.5.5,0,0,1,.5-.5.5.5,0,0,1,.5.5V6.4A.5.5,0,0,1,19.2,6.9Z"/><path d="M16.25,6.9a.5.5,0,0,1-.5-.5V4.13a.5.5,0,0,1,.5-.5.51.51,0,0,1,.5.5V6.4A.5.5,0,0,1,16.25,6.9Z"/><path d="M25.37,26.33H11.76a2.72,2.72,0,0,1-.8-.12.49.49,0,0,1-.34-.62.51.51,0,0,1,.62-.34,1.82,1.82,0,0,0,.52.08H25.37a1.83,1.83,0,0,0,1.82-1.83V2.83A1.83,1.83,0,0,0,25.37,1H14.29L11.46,3.84a.51.51,0,0,1-.71,0,.5.5,0,0,1,0-.71l3-3A.49.49,0,0,1,14.09,0H25.37a2.83,2.83,0,0,1,2.82,2.83V23.5A2.83,2.83,0,0,1,25.37,26.33Z"/><path d="M9.43,21.05a.5.5,0,0,1-.5-.5V15.18a.51.51,0,0,1,.5-.5.5.5,0,0,1,.5.5v5.37A.5.5,0,0,1,9.43,21.05Z"/></g></g></svg>