<svg xmlns="http://www.w3.org/2000/svg" viewBox="0 0 18.77 29.33"><g id="Capa_2" data-name="Capa 2"><g id="Capa_1-2" data-name="Capa 1"><path d="M9.38,13.27A6.63,6.63,0,0,1,3,8.3a.5.5,0,0,1,1-.25,5.62,5.62,0,0,0,10.89,0,.5.5,0,1,1,1,.25A6.63,6.63,0,0,1,9.38,13.27Z"/><path d="M15.32,8.68l-.13,0a.5.5,0,0,1-.36-.61A5.39,5.39,0,0,0,15,6.63a5.64,5.64,0,0,0-11.27,0,5.39,5.39,0,0,0,.19,1.42A.5.5,0,1,1,3,8.3a6.44,6.44,0,0,1-.22-1.67A6.64,6.64,0,0,1,16,6.63,6.44,6.44,0,0,1,15.8,8.3.5.5,0,0,1,15.32,8.68Z"/><path d="M15.36,21.84a.49.49,0,0,1-.48-.39,5.63,5.63,0,0,0-11,0,.48.48,0,0,1-.59.37.49.49,0,0,1-.38-.59,6.63,6.63,0,0,1,12.93,0,.49.49,0,0,1-.38.59Z"/><path d="M9.38,29.33a6.61,6.61,0,0,1-6.46-8.1.5.5,0,0,1,.6-.38.49.49,0,0,1,.37.6,6,6,0,0,0-.14,1.25A5.64,5.64,0,0,0,15,22.7a6,6,0,0,0-.14-1.25.49.49,0,0,1,.37-.6.5.5,0,0,1,.6.38A6.77,6.77,0,0,1,16,22.7,6.64,6.64,0,0,1,9.38,29.33Z"/><path d="M15.36,21.84a.51.51,0,0,1-.37-.17.49.49,0,0,1,0-.7A8.36,8.36,0,0,0,15,8.55a.51.51,0,0,1,0-.71.5.5,0,0,1,.71,0,9.35,9.35,0,0,1,0,13.9A.55.55,0,0,1,15.36,21.84Z"/><path d="M3.41,21.84a.55.55,0,0,1-.34-.13,9.35,9.35,0,0,1,.05-13.9.49.49,0,0,1,.7,0,.5.5,0,0,1,0,.71A8.36,8.36,0,0,0,3.74,21a.49.49,0,0,1,0,.7A.51.51,0,0,1,3.41,21.84Z"/><path d="M12.58,23.2H6.19a.51.51,0,0,1-.5-.5.5.5,0,0,1,.5-.5h6.39a.5.5,0,0,1,.5.5A.51.51,0,0,1,12.58,23.2Z"/><path d="M12.58,7.13H6.19a.5.5,0,0,1-.5-.5.51.51,0,0,1,.5-.5h6.39a.51.51,0,0,1,.5.5A.5.5,0,0,1,12.58,7.13Z"/><path d="M9.38,10.33a.51.51,0,0,1-.5-.5V3.44a.51.51,0,0,1,.5-.5.5.5,0,0,1,.5.5V9.83A.5.5,0,0,1,9.38,10.33Z"/></g></g></svg>