<svg xmlns="http://www.w3.org/2000/svg" viewBox="0 0 24.52 27.42"><g id="Capa_2" data-name="Capa 2"><g id="Capa_1-2" data-name="Capa 1"><path d="M12.26,17.65A5.76,5.76,0,1,1,18,11.89,5.77,5.77,0,0,1,12.26,17.65Zm0-10.52A4.76,4.76,0,1,0,17,11.89,4.76,4.76,0,0,0,12.26,7.13Z"/><path d="M8.85,11.61H8.74a.51.51,0,0,1-.38-.6,4,4,0,0,1,2.9-3,.5.5,0,1,1,.25,1,3,3,0,0,0-2.17,2.23A.5.5,0,0,1,8.85,11.61Z"/><path d="M12.26,23.77A11.89,11.89,0,1,1,24.14,11.89,11.9,11.9,0,0,1,12.26,23.77ZM12.26,1A10.89,10.89,0,1,0,23.14,11.89,10.9,10.9,0,0,0,12.26,1Z"/><path d="M21,27.42H3.57A3.62,3.62,0,0,1,.34,25.69,2.56,2.56,0,0,1,.42,23l1.32-2.72a.5.5,0,1,1,.9.44L1.29,23.49a1.62,1.62,0,0,0-.08,1.72,2.64,2.64,0,0,0,2.36,1.21H21a2.61,2.61,0,0,0,2.35-1.21,1.59,1.59,0,0,0-.05-1.67l-1.53-2.79a.5.5,0,0,1,.2-.68.49.49,0,0,1,.68.2L24.11,23a2.55,2.55,0,0,1,.07,2.66A3.62,3.62,0,0,1,21,27.42Z"/></g></g></svg>