<svg xmlns="http://www.w3.org/2000/svg" viewBox="0 0 28.43 28.43"><g id="Capa_2" data-name="Capa 2"><g id="Capa_1-2" data-name="Capa 1"><path d="M15.5,24.09V19.53A1.78,1.78,0,0,1,18.17,18l3.95,2.28-.39.46A10,10,0,0,1,16.1,24Zm1.78-5.34a.82.82,0,0,0-.39.11.77.77,0,0,0-.39.67v3.33a8.9,8.9,0,0,0,4.06-2.34l-2.89-1.66A.77.77,0,0,0,17.28,18.75Z"/><path d="M23.42,18l-4-2.28a1.78,1.78,0,0,1,0-3.08l3.95-2.28.2.57a9.88,9.88,0,0,1,0,6.5Zm-.57-6.16L20,13.54a.8.8,0,0,0-.39.68.77.77,0,0,0,.39.67l2.89,1.67a9,9,0,0,0,0-4.68Z"/><path d="M12.93,24.09l-.6-.11a10,10,0,0,1-5.62-3.25l-.4-.46,4-2.28a1.78,1.78,0,0,1,2.67,1.54Zm-5-3.57a8.87,8.87,0,0,0,4.05,2.34V19.53a.78.78,0,0,0-1.17-.67Z"/><path d="M11.15,10.69a1.69,1.69,0,0,1-.89-.25L6.31,8.16l.4-.45a10,10,0,0,1,5.62-3.25l.6-.12V8.9A1.76,1.76,0,0,1,12,10.44,1.72,1.72,0,0,1,11.15,10.69ZM7.88,7.92l2.88,1.66a.78.78,0,0,0,1.17-.68V5.57A9,9,0,0,0,7.88,7.92Z"/><path d="M17.28,10.69A1.78,1.78,0,0,1,15.5,8.9V4.34l.6.12a10,10,0,0,1,5.63,3.25l.39.45-3.95,2.29A1.75,1.75,0,0,1,17.28,10.69ZM16.5,5.57V8.9a.78.78,0,0,0,1.17.68l2.89-1.66A9,9,0,0,0,16.5,5.57Z"/><path d="M5,18l-.2-.57a9.88,9.88,0,0,1,0-6.5L5,10.4l4,2.28a1.78,1.78,0,0,1,0,3.08Zm.56-6.16a9,9,0,0,0,0,4.68l2.89-1.67a.77.77,0,0,0,.39-.67.8.8,0,0,0-.39-.68Z"/><path d="M14.22,28.43a14.76,14.76,0,0,1-1.86-.12A14.2,14.2,0,0,1,2.94,5.57,14.12,14.12,0,0,1,12.36.13a13.56,13.56,0,0,1,3.71,0,14.12,14.12,0,0,1,9.42,5.43,14.35,14.35,0,0,1,1.86,3.22,14.17,14.17,0,0,1-1.86,14.09,14.1,14.1,0,0,1-9.42,5.44A14.6,14.6,0,0,1,14.22,28.43ZM14.22,1a13.49,13.49,0,0,0-1.73.12A13.13,13.13,0,0,0,3.73,6.17,13.76,13.76,0,0,0,2,9.16,13.3,13.3,0,0,0,2,19.28a13.87,13.87,0,0,0,1.73,3,13.14,13.14,0,0,0,8.76,5.06,13.28,13.28,0,0,0,3.45,0,13.14,13.14,0,0,0,8.76-5.06,13.63,13.63,0,0,0,1.73-3,13.3,13.3,0,0,0,0-10.12h0a13.94,13.94,0,0,0-1.73-3,13.13,13.13,0,0,0-8.76-5A13.34,13.34,0,0,0,14.22,1Zm0,23.16a9.92,9.92,0,0,1-7.51-3.43,9.93,9.93,0,0,1-2.44-6.51,9.95,9.95,0,1,1,19.34,3.25,10.05,10.05,0,0,1-1.88,3.26h0A10,10,0,0,1,16.1,24,9.9,9.9,0,0,1,14.22,24.16Zm0-18.88a9,9,0,0,0-1.7.16,8.94,8.94,0,0,0-7.25,8.78A9,9,0,0,0,12.52,23a9.2,9.2,0,0,0,3.39,0A9,9,0,0,0,21,20.07h0a8.89,8.89,0,0,0,1.7-2.93,8.94,8.94,0,0,0-6.76-11.7A8.94,8.94,0,0,0,14.22,5.28Z"/><path d="M14.22,16.51h0a2.25,2.25,0,0,1-1.6-.7,2.29,2.29,0,0,1,1.67-3.88h0a2.27,2.27,0,0,1,2.25,2.32,2.29,2.29,0,0,1-2.28,2.26Zm0-3.58a1.29,1.29,0,0,0-.89.36,1.3,1.3,0,0,0,0,1.83,1.33,1.33,0,0,0,.91.39h0a1.26,1.26,0,0,0,.89-.37,1.24,1.24,0,0,0,.39-.9,1.28,1.28,0,0,0-1.27-1.31h0Z"/></g></g></svg>