<svg xmlns="http://www.w3.org/2000/svg" viewBox="0 0 29.77 28.44"><g id="Capa_2" data-name="Capa 2"><g id="Capa_1-2" data-name="Capa 1"><path d="M14.88,17.83a2.95,2.95,0,1,1,2.95-2.95A2.95,2.95,0,0,1,14.88,17.83Zm0-4.89a1.95,1.95,0,1,0,1.95,1.94A1.94,1.94,0,0,0,14.88,12.94Z"/><path d="M11.88,23.17a.58.58,0,0,1-.19,0,8.87,8.87,0,1,1,6.42,0,.5.5,0,0,1-.36-.93,7.85,7.85,0,1,0-5.69,0,.5.5,0,0,1-.18,1Z"/><path d="M8.88,28.44a.45.45,0,0,1-.2,0,14.89,14.89,0,1,1,12.45,0,.49.49,0,0,1-.66-.24.5.5,0,0,1,.24-.67,13.88,13.88,0,1,0-11.62,0,.51.51,0,0,1,.25.66A.5.5,0,0,1,8.88,28.44Z"/></g></g></svg>