<svg xmlns="http://www.w3.org/2000/svg" viewBox="0 0 17.56 27.51"><g id="Capa_2" data-name="Capa 2"><g id="Capa_1-2" data-name="Capa 1"><path d="M10.82,25.78H.5a.53.53,0,0,1-.39-.18.51.51,0,0,1-.1-.41L4.83.4A.49.49,0,0,1,5.32,0H15.64A.51.51,0,0,1,16,.18a.53.53,0,0,1,.11.42L11.31,25.38A.5.5,0,0,1,10.82,25.78Zm-9.71-1h9.3L15,1H5.73Z"/><path d="M12.24,27.51H1.92a.51.51,0,0,1-.5-.5.5.5,0,0,1,.5-.5h9.91L16.57,2.13a.5.5,0,0,1,.58-.4.51.51,0,0,1,.4.59L12.73,27.1A.5.5,0,0,1,12.24,27.51Z"/><path d="M1.35,21.69h-.1a.51.51,0,0,1-.4-.59,20.17,20.17,0,0,1,2.63-7.36C3.88,13,4.36,12,5,10.86,8.3,4.23,7,.72,7,.68A.5.5,0,0,1,7.91.31c.07.16,1.51,3.91-2.06,11-.6,1.18-1.08,2.11-1.49,2.88a19.14,19.14,0,0,0-2.52,7.09A.51.51,0,0,1,1.35,21.69Z"/><path d="M1.92,25.78H1.86a.49.49,0,0,1-.43-.56A32.05,32.05,0,0,1,6.61,12.38C11.38,5.27,11.35.56,11.35.51A.5.5,0,0,1,11.84,0a.54.54,0,0,1,.51.49c0,.2.05,5-4.91,12.44a31.72,31.72,0,0,0-5,12.41A.51.51,0,0,1,1.92,25.78Z"/><path d="M6.24,25.78a.5.5,0,0,1-.49-.38c0-.13-.81-3.44,1.8-9.41a19.45,19.45,0,0,1,3.84-5.75,9.54,9.54,0,0,0,2.82-5,.49.49,0,0,1,.59-.39.48.48,0,0,1,.39.58,10.31,10.31,0,0,1-3.06,5.51,19,19,0,0,0-3.67,5.49C6,22,6.72,25.13,6.72,25.16a.51.51,0,0,1-.36.61Z"/><path d="M11.53,8.71a.55.55,0,0,1-.3-.09.51.51,0,0,1-.11-.7c.19-.26.37-.52.53-.77A.5.5,0,0,1,12.34,7a.49.49,0,0,1,.15.69c-.17.27-.36.54-.56.82A.49.49,0,0,1,11.53,8.71Z"/><path d="M13,6.29a.42.42,0,0,1-.22,0,.49.49,0,0,1-.23-.66,9.18,9.18,0,0,0,1.12-5,.5.5,0,0,1,1-.17A10,10,0,0,1,13.45,6,.5.5,0,0,1,13,6.29Z"/><path d="M4.23,25.78A.48.48,0,0,1,4,25.71c-.22-.14-.89-.54.26-4.66a.5.5,0,0,1,1,.27c-.77,2.75-.62,3.51-.58,3.64a.51.51,0,0,1,0,.58A.49.49,0,0,1,4.23,25.78Zm.27-.92Zm0,0Zm0,0h0Z"/><path d="M8.21,25.78h0a.5.5,0,0,1-.48-.52c.34-7.34,4.6-10.31,4.78-10.43a.5.5,0,0,1,.56.82S9,18.49,8.71,25.3A.5.5,0,0,1,8.21,25.78Z"/></g></g></svg>