<svg xmlns="http://www.w3.org/2000/svg" viewBox="0 0 22.33 30"><defs><style>.cls-1,.cls-2{fill:none;stroke:#000;}.cls-1{stroke-linecap:round;stroke-linejoin:round;}.cls-2{stroke-miterlimit:10;}</style></defs><g id="Capa_2" data-name="Capa 2"><g id="Capa_1-2" data-name="Capa 1"><polyline class="cls-1" points="6.79 25.63 0.5 25.63 5.39 0.5 15.85 0.5 13.17 14.27"/><line class="cls-1" x1="8.05" y1="27.38" x2="1.94" y2="27.38"/><line class="cls-1" x1="17.29" y1="2.25" x2="14.98" y2="14.16"/><path class="cls-1" d="M7.55.5S9,4.17,5.47,11.24c-2.83,5.62-3.19,5.49-4.11,10.24"/><path class="cls-1" d="M1.94,25.63a32.31,32.31,0,0,1,5.18-12.8C12.12,5.37,12,.5,12,.5"/><path class="cls-1" d="M6.32,25.63s-.82-3.25,1.79-9.22,5.85-6.18,6.79-11"/><path class="cls-1" d="M12.24,7.52c-.17.26-.36.53-.56.8"/><path class="cls-1" d="M14.36.5a9.67,9.67,0,0,1-1.19,5.37"/><path class="cls-1" d="M4.29,25.63s-.58-.35.48-4.15"/><path class="cls-2" d="M18.54,25.73a4.72,4.72,0,0,1-2.67,1.55v-2a.64.64,0,0,1,1-.55Z"/><path class="cls-2" d="M19.7,22.64a5,5,0,0,1-.26,1.55l-1.72-1a.65.65,0,0,1,0-1.11l1.72-1A4.88,4.88,0,0,1,19.7,22.64Z"/><path class="cls-2" d="M14.08,25.3v2a4.72,4.72,0,0,1-2.67-1.55l1.71-1A.64.64,0,0,1,14.08,25.3Z"/><path class="cls-2" d="M14.08,18v2a.64.64,0,0,1-1,.55l-1.71-1A4.7,4.7,0,0,1,14.08,18Z"/><path class="cls-2" d="M18.54,19.55l-1.71,1a.64.64,0,0,1-1-.55V18A4.7,4.7,0,0,1,18.54,19.55Z"/><path class="cls-2" d="M12.23,23.2l-1.71,1a4.71,4.71,0,0,1-.26-1.55,4.61,4.61,0,0,1,.26-1.54l1.71,1A.64.64,0,0,1,12.23,23.2Z"/><path class="cls-2" d="M21.31,20a6.81,6.81,0,0,0-5.44-4.17,6.54,6.54,0,0,0-.89-.06,6.69,6.69,0,0,0-.9.06A6.88,6.88,0,0,0,8.64,20a6.79,6.79,0,0,0,.9,6.79,6.85,6.85,0,0,0,4.54,2.63,6.69,6.69,0,0,0,.9.06,6.54,6.54,0,0,0,.89-.06,6.87,6.87,0,0,0,4.55-2.63,6.94,6.94,0,0,0,.89-1.54,6.89,6.89,0,0,0,0-5.25Zm-2.77,5.71a4.72,4.72,0,0,1-2.67,1.55,5,5,0,0,1-1.79,0,4.72,4.72,0,0,1-3.82-4.64,4.61,4.61,0,0,1,.26-1.54,4.78,4.78,0,0,1,.89-1.55A4.7,4.7,0,0,1,14.08,18a4.5,4.5,0,0,1,1.79,0,4.7,4.7,0,0,1,2.67,1.54,4.81,4.81,0,0,1,.9,1.55,4.88,4.88,0,0,1,.26,1.54,5,5,0,0,1-.26,1.55A4.76,4.76,0,0,1,18.54,25.73Z"/><circle class="cls-2" cx="14.98" cy="22.64" r="0.89" transform="translate(-7.88 37.3) rotate(-89.19)"/></g></g></svg>